ISO-10303-21;
HEADER;
FILE_DESCRIPTION (( 'STEP AP214' ),
    '1' );
FILE_NAME ('C0603.STEP',
    '2023-11-23T22:26:12',
    ( '' ),
    ( '' ),
    'SwSTEP 2.0',
    'SolidWorks 2021',
    '' );
FILE_SCHEMA (( 'AUTOMOTIVE_DESIGN' ));
ENDSEC;

DATA;
#1 = LINE ( 'NONE', #383, #482 ) ;
#2 = AXIS2_PLACEMENT_3D ( 'NONE', #152, #348, #136 ) ;
#3 = PLANE ( 'NONE',  #138 ) ;
#4 = ORIENTED_EDGE ( 'NONE', *, *, #563, .F. ) ;
#5 = VECTOR ( 'NONE', #1108, 1000.000000000000000 ) ;
#6 = VECTOR ( 'NONE', #297, 1000.000000000000000 ) ;
#7 = LINE ( 'NONE', #979, #382 ) ;
#8 = ORIENTED_EDGE ( 'NONE', *, *, #412, .F. ) ;
#9 = STYLED_ITEM ( 'NONE', ( #68 ), #791 ) ;
#10 = DIRECTION ( 'NONE',  ( -1.000000000000000000, 0.000000000000000000, 0.000000000000000000 ) ) ;
#11 = LINE ( 'NONE', #828, #339 ) ;
#12 = ADVANCED_FACE ( 'NONE', ( #476 ), #906, .F. ) ;
#13 = DIRECTION ( 'NONE',  ( 0.000000000000000000, 1.000000000000000000, 0.000000000000000000 ) ) ;
#14 = CARTESIAN_POINT ( 'NONE',  ( -0.5499999999999999334, 0.5000000000000000000, -0.4000000000000000222 ) ) ;
#15 = ORIENTED_EDGE ( 'NONE', *, *, #1120, .T. ) ;
#16 = VERTEX_POINT ( 'NONE', #698 ) ;
#17 = DIRECTION ( 'NONE',  ( 0.000000000000000000, 0.000000000000000000, -1.000000000000000000 ) ) ;
#18 = CARTESIAN_POINT ( 'NONE',  ( -0.5499999999999999334, 0.5500000000000001554, 0.4000000000000000222 ) ) ;
#19 = CARTESIAN_POINT ( 'NONE',  ( 0.5499999999999999334, 0.5500000000000001554, 0.4000000000000000222 ) ) ;
#20 = ORIENTED_EDGE ( 'NONE', *, *, #924, .F. ) ;
#21 = ORIENTED_EDGE ( 'NONE', *, *, #102, .T. ) ;
#22 = SURFACE_STYLE_FILL_AREA ( #490 ) ;
#23 = VERTEX_POINT ( 'NONE', #60 ) ;
#24 = AXIS2_PLACEMENT_3D ( 'NONE', #1142, #665, #505 ) ;
#25 = ORIENTED_EDGE ( 'NONE', *, *, #950, .T. ) ;
#26 =( GEOMETRIC_REPRESENTATION_CONTEXT ( 3 ) GLOBAL_UNCERTAINTY_ASSIGNED_CONTEXT ( ( #731 ) ) GLOBAL_UNIT_ASSIGNED_CONTEXT ( ( #1210, #797, #827 ) ) REPRESENTATION_CONTEXT ( 'NONE', 'WORKASPACE' ) );
#27 = LINE ( 'NONE', #775, #1092 ) ;
#28 = ORIENTED_EDGE ( 'NONE', *, *, #73, .F. ) ;
#29 = ORIENTED_EDGE ( 'NONE', *, *, #66, .F. ) ;
#30 = DIRECTION ( 'NONE',  ( 0.000000000000000000, 1.000000000000000000, 0.000000000000000000 ) ) ;
#31 = CARTESIAN_POINT ( 'NONE',  ( -0.8000000000000000444, 0.5500000000000000444, -0.4000000000000000222 ) ) ;
#32 = ORIENTED_EDGE ( 'NONE', *, *, #650, .F. ) ;
#33 = ORIENTED_EDGE ( 'NONE', *, *, #890, .F. ) ;
#34 = CARTESIAN_POINT ( 'NONE',  ( 0.7499999999999998890, 0.5000000000000000000, -0.4000000000000000222 ) ) ;
#35 = ORIENTED_EDGE ( 'NONE', *, *, #1120, .F. ) ;
#36 = VECTOR ( 'NONE', #1055, 1000.000000000000000 ) ;
#37 = CARTESIAN_POINT ( 'NONE',  ( -0.8000000000000000444, 0.5500000000000000444, 0.4000000000000000222 ) ) ;
#38 = VECTOR ( 'NONE', #1001, 1000.000000000000000 ) ;
#39 = VECTOR ( 'NONE', #30, 1000.000000000000000 ) ;
#40 = CARTESIAN_POINT ( 'NONE',  ( -0.5499999999999999334, 0.5500000000000000444, 0.4000000000000000222 ) ) ;
#41 = ORIENTED_EDGE ( 'NONE', *, *, #58, .F. ) ;
#42 = PLANE ( 'NONE',  #1134 ) ;
#43 = ADVANCED_FACE ( 'NONE', ( #813 ), #352, .T. ) ;
#44 = CARTESIAN_POINT ( 'NONE',  ( -0.5499999999999999334, 0.5000000000000000000, 0.1500000000000000222 ) ) ;
#45 = FACE_OUTER_BOUND ( 'NONE', #1167, .T. ) ;
#46 = ORIENTED_EDGE ( 'NONE', *, *, #92, .F. ) ;
#47 = DIRECTION ( 'NONE',  ( 1.000000000000000000, 0.000000000000000000, -0.000000000000000000 ) ) ;
#48 = LINE ( 'NONE', #834, #203 ) ;
#49 = ADVANCED_FACE ( 'NONE', ( #560 ), #1131, .F. ) ;
#50 = LINE ( 'NONE', #162, #325 ) ;
#51 = ORIENTED_EDGE ( 'NONE', *, *, #975, .T. ) ;
#52 = VERTEX_POINT ( 'NONE', #289 ) ;
#53 = CARTESIAN_POINT ( 'NONE',  ( 0.6500000000000000222, -0.001000000000000024307, -0.4000000000000000222 ) ) ;
#54 = VECTOR ( 'NONE', #1193, 1000.000000000000000 ) ;
#55 = AXIS2_PLACEMENT_3D ( 'NONE', #470, #1222, #377 ) ;
#56 = DIRECTION ( 'NONE',  ( -1.000000000000000000, 0.000000000000000000, 0.000000000000000000 ) ) ;
#57 = ORIENTED_EDGE ( 'NONE', *, *, #1012, .T. ) ;
#58 = EDGE_CURVE ( 'NONE', #899, #1157, #187, .T. ) ;
#59 = DIRECTION ( 'NONE',  ( 0.000000000000000000, -0.000000000000000000, -1.000000000000000000 ) ) ;
#60 = CARTESIAN_POINT ( 'NONE',  ( 0.5499999999999999334, 0.5500000000000000444, 0.1500000000000000222 ) ) ;
#61 = DIRECTION ( 'NONE',  ( -0.000000000000000000, 1.000000000000000000, -0.000000000000000000 ) ) ;
#62 = ORIENTED_EDGE ( 'NONE', *, *, #420, .F. ) ;
#63 = LINE ( 'NONE', #450, #498 ) ;
#64 = EDGE_CURVE ( 'NONE', #795, #23, #567, .T. ) ;
#65 = CARTESIAN_POINT ( 'NONE',  ( -0.7499999999999998890, 0.5000000000000000000, -0.4000000000000000222 ) ) ;
#66 = EDGE_CURVE ( 'NONE', #734, #899, #1202, .T. ) ;
#67 = CARTESIAN_POINT ( 'NONE',  ( -0.7499999999999998890, 0.5000000000000000000, 0.4000000000000000222 ) ) ;
#68 = PRESENTATION_STYLE_ASSIGNMENT (( #820 ) ) ;
#69 = CARTESIAN_POINT ( 'NONE',  ( -0.6500000000000000222, 0.5000000000000000000, 0.1500000000000000222 ) ) ;
#70 = DIRECTION ( 'NONE',  ( 1.000000000000000000, 3.644957815391090926E-17, 0.000000000000000000 ) ) ;
#71 = DIRECTION ( 'NONE',  ( 0.000000000000000000, 0.000000000000000000, 1.000000000000000000 ) ) ;
#72 = VECTOR ( 'NONE', #473, 1000.000000000000000 ) ;
#73 = EDGE_CURVE ( 'NONE', #219, #469, #659, .T. ) ;
#74 = PRESENTATION_LAYER_ASSIGNMENT (  '', '', ( #120 ) ) ;
#75 = LINE ( 'NONE', #466, #769 ) ;
#76 = VECTOR ( 'NONE', #239, 1000.000000000000000 ) ;
#77 = VECTOR ( 'NONE', #934, 1000.000000000000000 ) ;
#78 =( NAMED_UNIT ( * ) SI_UNIT ( $, .STERADIAN. ) SOLID_ANGLE_UNIT ( ) );
#79 = LINE ( 'NONE', #1127, #5 ) ;
#80 = EDGE_LOOP ( 'NONE', ( #877, #1051, #226, #851 ) ) ;
#81 = PLANE ( 'NONE',  #929 ) ;
#82 = PLANE ( 'NONE',  #607 ) ;
#83 = DIRECTION ( 'NONE',  ( 0.000000000000000000, 1.000000000000000000, 0.000000000000000000 ) ) ;
#84 = LINE ( 'NONE', #926, #706 ) ;
#85 = EDGE_CURVE ( 'NONE', #825, #315, #161, .T. ) ;
#86 = LINE ( 'NONE', #69, #624 ) ;
#87 = ORIENTED_EDGE ( 'NONE', *, *, #477, .F. ) ;
#88 = CARTESIAN_POINT ( 'NONE',  ( 0.5499999999999999334, 0.5000000000000000000, 0.4000000000000000222 ) ) ;
#89 = LINE ( 'NONE', #1025, #455 ) ;
#90 = DIRECTION ( 'NONE',  ( 0.000000000000000000, -1.000000000000000000, -0.000000000000000000 ) ) ;
#91 = PRODUCT_DEFINITION ( 'UNKNOWN', '', #256, #913 ) ;
#92 = EDGE_CURVE ( 'NONE', #867, #795, #1042, .T. ) ;
#93 = DIRECTION ( 'NONE',  ( 1.000000000000000000, -0.000000000000000000, 0.000000000000000000 ) ) ;
#94 = ORIENTED_EDGE ( 'NONE', *, *, #1122, .T. ) ;
#95 = DIRECTION ( 'NONE',  ( -1.000000000000000000, 0.000000000000000000, -0.000000000000000000 ) ) ;
#96 = LINE ( 'NONE', #925, #251 ) ;
#97 = LINE ( 'NONE', #855, #1136 ) ;
#98 = CARTESIAN_POINT ( 'NONE',  ( 0.5499999999999999334, -9.112394538477730396E-18, 0.4000000000000000222 ) ) ;
#99 = VECTOR ( 'NONE', #1035, 1000.000000000000000 ) ;
#100 = EDGE_LOOP ( 'NONE', ( #271, #204, #1058, #713 ) ) ;
#101 = AXIS2_PLACEMENT_3D ( 'NONE', #957, #846, #107 ) ;
#102 = EDGE_CURVE ( 'NONE', #867, #839, #96, .T. ) ;
#103 = ORIENTED_EDGE ( 'NONE', *, *, #1026, .F. ) ;
#104 = CARTESIAN_POINT ( 'NONE',  ( -0.6500000000000000222, 0.5000000000000000000, -0.4000000000000000222 ) ) ;
#105 = DIRECTION ( 'NONE',  ( 0.000000000000000000, 0.000000000000000000, 1.000000000000000000 ) ) ;
#106 = CARTESIAN_POINT ( 'NONE',  ( 0.7499999999999998890, 0.04999999999999998196, 0.4000000000000000222 ) ) ;
#107 = DIRECTION ( 'NONE',  ( -1.000000000000000000, 0.000000000000000000, 0.000000000000000000 ) ) ;
#108 = ORIENTED_EDGE ( 'NONE', *, *, #650, .T. ) ;
#109 = ORIENTED_EDGE ( 'NONE', *, *, #988, .T. ) ;
#110 = ADVANCED_FACE ( 'NONE', ( #459 ), #82, .T. ) ;
#111 = CARTESIAN_POINT ( 'NONE',  ( -0.5499999999999999334, 0.5000000000000000000, 0.4000000000000000222 ) ) ;
#112 = EDGE_CURVE ( 'NONE', #1053, #185, #1010, .T. ) ;
#113 = ORIENTED_EDGE ( 'NONE', *, *, #276, .F. ) ;
#114 = ORIENTED_EDGE ( 'NONE', *, *, #882, .T. ) ;
#115 = CARTESIAN_POINT ( 'NONE',  ( 0.6500000000000000222, -0.001000000000000024307, -0.4000000000000000222 ) ) ;
#116 = EDGE_CURVE ( 'NONE', #320, #931, #89, .T. ) ;
#117 = LINE ( 'NONE', #499, #1158 ) ;
#118 = ORIENTED_EDGE ( 'NONE', *, *, #1083, .T. ) ;
#119 = VECTOR ( 'NONE', #551, 1000.000000000000000 ) ;
#120 = STYLED_ITEM ( 'NONE', ( #145 ), #660 ) ;
#121 = ORIENTED_EDGE ( 'NONE', *, *, #640, .F. ) ;
#122 = VECTOR ( 'NONE', #1056, 1000.000000000000000 ) ;
#123 = CARTESIAN_POINT ( 'NONE',  ( -0.6500000000000000222, 0.5000000000000000000, -0.1500000000000000222 ) ) ;
#124 = CARTESIAN_POINT ( 'NONE',  ( -0.6500000000000000222, -0.001000000000000024307, -0.1500000000000000222 ) ) ;
#125 = ORIENTED_EDGE ( 'NONE', *, *, #668, .F. ) ;
#126 = VERTEX_POINT ( 'NONE', #541 ) ;
#127 = SURFACE_SIDE_STYLE ('',( #22 ) ) ;
#128 = CARTESIAN_POINT ( 'NONE',  ( -0.5499999999999999334, -9.112394538477730396E-18, -0.4000000000000000222 ) ) ;
#129 = DIRECTION ( 'NONE',  ( -0.000000000000000000, -1.000000000000000000, -0.000000000000000000 ) ) ;
#130 = VERTEX_POINT ( 'NONE', #1117 ) ;
#131 = DIRECTION ( 'NONE',  ( 0.000000000000000000, -1.000000000000000000, 0.000000000000000000 ) ) ;
#132 = DIRECTION ( 'NONE',  ( 0.000000000000000000, -0.000000000000000000, -1.000000000000000000 ) ) ;
#133 = DIRECTION ( 'NONE',  ( -1.000000000000000000, -0.000000000000000000, -0.000000000000000000 ) ) ;
#134 = ORIENTED_EDGE ( 'NONE', *, *, #570, .T. ) ;
#135 = VECTOR ( 'NONE', #960, 1000.000000000000000 ) ;
#136 = DIRECTION ( 'NONE',  ( -1.000000000000000000, 3.644957815391090926E-17, 0.000000000000000000 ) ) ;
#137 = AXIS2_PLACEMENT_3D ( 'NONE', #1201, #943, #456 ) ;
#138 = AXIS2_PLACEMENT_3D ( 'NONE', #171, #454, #542 ) ;
#139 = PRESENTATION_STYLE_ASSIGNMENT (( #332 ) ) ;
#140 = PLANE ( 'NONE',  #1135 ) ;
#141 = ORIENTED_EDGE ( 'NONE', *, *, #1022, .F. ) ;
#142 = LINE ( 'NONE', #601, #989 ) ;
#143 = DIRECTION ( 'NONE',  ( -3.644957815391090926E-17, 1.000000000000000000, 0.000000000000000000 ) ) ;
#144 = EDGE_CURVE ( 'NONE', #833, #795, #854, .T. ) ;
#145 = PRESENTATION_STYLE_ASSIGNMENT (( #996 ) ) ;
#146 = EDGE_LOOP ( 'NONE', ( #493, #977, #94, #843 ) ) ;
#147 = ORIENTED_EDGE ( 'NONE', *, *, #58, .T. ) ;
#148 = LINE ( 'NONE', #1098, #54 ) ;
#149 = LINE ( 'NONE', #232, #76 ) ;
#150 = FACE_OUTER_BOUND ( 'NONE', #604, .T. ) ;
#151 = ORIENTED_EDGE ( 'NONE', *, *, #961, .T. ) ;
#152 = CARTESIAN_POINT ( 'NONE',  ( -0.5499999999999999334, -9.112394538477730396E-18, 0.4000000000000000222 ) ) ;
#153 = MECHANICAL_DESIGN_GEOMETRIC_PRESENTATION_REPRESENTATION (  '', ( #1109 ), #574 ) ;
#154 = DIRECTION ( 'NONE',  ( 0.000000000000000000, 0.000000000000000000, -1.000000000000000000 ) ) ;
#155 = VECTOR ( 'NONE', #625, 1000.000000000000000 ) ;
#156 = VECTOR ( 'NONE', #1100, 1000.000000000000000 ) ;
#157 = PLANE ( 'NONE',  #1054 ) ;
#158 = ADVANCED_FACE ( 'NONE', ( #269 ), #1225, .F. ) ;
#159 = ORIENTED_EDGE ( 'NONE', *, *, #500, .T. ) ;
#160 = CARTESIAN_POINT ( 'NONE',  ( 0.5499999999999999334, 0.5500000000000000444, -0.1500000000000000222 ) ) ;
#161 = LINE ( 'NONE', #65, #99 ) ;
#162 = CARTESIAN_POINT ( 'NONE',  ( 0.5499999999999999334, -0.001000000000000024307, 0.1500000000000000222 ) ) ;
#163 = ORIENTED_EDGE ( 'NONE', *, *, #530, .T. ) ;
#164 = DIRECTION ( 'NONE',  ( -0.000000000000000000, -0.000000000000000000, -1.000000000000000000 ) ) ;
#165 = EDGE_CURVE ( 'NONE', #1070, #545, #261, .T. ) ;
#166 = ORIENTED_EDGE ( 'NONE', *, *, #884, .T. ) ;
#167 = DIRECTION ( 'NONE',  ( 1.000000000000000000, 0.000000000000000000, 0.000000000000000000 ) ) ;
#168 = FACE_OUTER_BOUND ( 'NONE', #80, .T. ) ;
#169 = ORIENTED_EDGE ( 'NONE', *, *, #1075, .F. ) ;
#170 = DIRECTION ( 'NONE',  ( -0.000000000000000000, 0.000000000000000000, -1.000000000000000000 ) ) ;
#171 = CARTESIAN_POINT ( 'NONE',  ( 0.8000000000000000444, 0.000000000000000000, 0.4000000000000000222 ) ) ;
#172 = ORIENTED_EDGE ( 'NONE', *, *, #85, .F. ) ;
#173 = VERTEX_POINT ( 'NONE', #1015 ) ;
#174 = CARTESIAN_POINT ( 'NONE',  ( 0.5499999999999999334, 0.05000000000000000278, 0.4000000000000000222 ) ) ;
#175 = EDGE_LOOP ( 'NONE', ( #20, #1215, #259, #1223 ) ) ;
#176 = EDGE_CURVE ( 'NONE', #1157, #249, #11, .T. ) ;
#177 = DIRECTION ( 'NONE',  ( 0.000000000000000000, 0.000000000000000000, -1.000000000000000000 ) ) ;
#178 = CARTESIAN_POINT ( 'NONE',  ( -0.7499999999999998890, 0.04999999999999998196, 0.4000000000000000222 ) ) ;
#179 = VECTOR ( 'NONE', #916, 1000.000000000000000 ) ;
#180 = VECTOR ( 'NONE', #334, 1000.000000000000000 ) ;
#181 = LINE ( 'NONE', #554, #874 ) ;
#182 = VECTOR ( 'NONE', #613, 1000.000000000000000 ) ;
#183 =( NAMED_UNIT ( * ) PLANE_ANGLE_UNIT ( ) SI_UNIT ( $, .RADIAN. ) );
#184 = PLANE ( 'NONE',  #747 ) ;
#185 = VERTEX_POINT ( 'NONE', #546 ) ;
#186 = FACE_OUTER_BOUND ( 'NONE', #669, .T. ) ;
#187 = LINE ( 'NONE', #1148, #908 ) ;
#188 = PLANE ( 'NONE',  #101 ) ;
#189 = PRODUCT_CONTEXT ( 'NONE', #763, 'mechanical' ) ;
#190 = EDGE_LOOP ( 'NONE', ( #235, #4, #1209, #287 ) ) ;
#191 = DIRECTION ( 'NONE',  ( 0.000000000000000000, -0.000000000000000000, -1.000000000000000000 ) ) ;
#192 = DIRECTION ( 'NONE',  ( 0.000000000000000000, 0.000000000000000000, 1.000000000000000000 ) ) ;
#193 = DIRECTION ( 'NONE',  ( 0.000000000000000000, 0.000000000000000000, -1.000000000000000000 ) ) ;
#194 = DIRECTION ( 'NONE',  ( -1.000000000000000000, 0.000000000000000000, 0.000000000000000000 ) ) ;
#195 = FACE_OUTER_BOUND ( 'NONE', #273, .T. ) ;
#196 = ORIENTED_EDGE ( 'NONE', *, *, #378, .F. ) ;
#197 = VERTEX_POINT ( 'NONE', #375 ) ;
#198 = DIRECTION ( 'NONE',  ( 0.000000000000000000, 0.000000000000000000, 1.000000000000000000 ) ) ;
#199 = PLANE ( 'NONE',  #766 ) ;
#200 = VECTOR ( 'NONE', #581, 1000.000000000000000 ) ;
#201 = EDGE_LOOP ( 'NONE', ( #1192, #556, #294, #584, #33, #1084, #125, #387 ) ) ;
#202 = VECTOR ( 'NONE', #991, 1000.000000000000000 ) ;
#203 = VECTOR ( 'NONE', #559, 1000.000000000000000 ) ;
#204 = ORIENTED_EDGE ( 'NONE', *, *, #486, .F. ) ;
#205 = ADVANCED_FACE ( 'NONE', ( #741 ), #749, .F. ) ;
#206 = LINE ( 'NONE', #215, #135 ) ;
#207 = DIRECTION ( 'NONE',  ( -0.000000000000000000, -0.000000000000000000, -1.000000000000000000 ) ) ;
#208 = ORIENTED_EDGE ( 'NONE', *, *, #683, .T. ) ;
#209 = VERTEX_POINT ( 'NONE', #783 ) ;
#210 = DIRECTION ( 'NONE',  ( -0.000000000000000000, 1.000000000000000000, -0.000000000000000000 ) ) ;
#211 = MANIFOLD_SOLID_BREP ( 'Cut-Extrude1[2]', #514 ) ;
#212 = LINE ( 'NONE', #695, #785 ) ;
#213 = ORIENTED_EDGE ( 'NONE', *, *, #553, .T. ) ;
#214 = EDGE_LOOP ( 'NONE', ( #350, #408, #1168, #936, #221, #869, #1002, #330 ) ) ;
#215 = CARTESIAN_POINT ( 'NONE',  ( 0.6500000000000000222, 0.5000000000000000000, 0.1500000000000000222 ) ) ;
#216 = DIRECTION ( 'NONE',  ( 0.000000000000000000, 0.000000000000000000, -1.000000000000000000 ) ) ;
#217 = ADVANCED_FACE ( 'NONE', ( #773 ), #199, .F. ) ;
#218 = DIRECTION ( 'NONE',  ( -1.000000000000000000, -1.016439536705160653E-16, 0.000000000000000000 ) ) ;
#219 = VERTEX_POINT ( 'NONE', #18 ) ;
#220 = CLOSED_SHELL ( 'NONE', ( #110, #524, #49, #1149, #750, #341 ) ) ;
#221 = ORIENTED_EDGE ( 'NONE', *, *, #1059, .F. ) ;
#222 = VECTOR ( 'NONE', #972, 1000.000000000000000 ) ;
#223 = CARTESIAN_POINT ( 'NONE',  ( -0.7499999999999998890, 0.04999999999999998196, -0.4000000000000000222 ) ) ;
#224 = LINE ( 'NONE', #506, #1207 ) ;
#225 = DIRECTION ( 'NONE',  ( 1.000000000000000000, 0.000000000000000000, 0.000000000000000000 ) ) ;
#226 = ORIENTED_EDGE ( 'NONE', *, *, #777, .T. ) ;
#227 = DIRECTION ( 'NONE',  ( -0.000000000000000000, -1.000000000000000000, -0.000000000000000000 ) ) ;
#228 = PLANE ( 'NONE',  #1174 ) ;
#229 = CARTESIAN_POINT ( 'NONE',  ( -0.5499999999999999334, 0.5500000000000000444, 0.4000000000000000222 ) ) ;
#230 = ORIENTED_EDGE ( 'NONE', *, *, #617, .F. ) ;
#231 = DIRECTION ( 'NONE',  ( -1.000000000000000000, -0.000000000000000000, -0.000000000000000000 ) ) ;
#232 = CARTESIAN_POINT ( 'NONE',  ( -0.5499999999999999334, -0.001000000000000024307, 0.1500000000000000222 ) ) ;
#233 = DIRECTION ( 'NONE',  ( 0.000000000000000000, 0.000000000000000000, 1.000000000000000000 ) ) ;
#234 = EDGE_CURVE ( 'NONE', #719, #807, #1061, .T. ) ;
#235 = ORIENTED_EDGE ( 'NONE', *, *, #896, .F. ) ;
#236 = DIRECTION ( 'NONE',  ( 1.000000000000000000, 0.000000000000000000, -0.000000000000000000 ) ) ;
#237 = EDGE_CURVE ( 'NONE', #326, #16, #303, .T. ) ;
#238 = STYLED_ITEM ( 'NONE', ( #139 ), #1032 ) ;
#239 = DIRECTION ( 'NONE',  ( -0.000000000000000000, 1.000000000000000000, -0.000000000000000000 ) ) ;
#240 = ORIENTED_EDGE ( 'NONE', *, *, #397, .T. ) ;
#241 = CARTESIAN_POINT ( 'NONE',  ( 0.5499999999999999334, 1.910147050873544083, -0.4000000000000000222 ) ) ;
#242 = EDGE_CURVE ( 'NONE', #981, #867, #206, .T. ) ;
#243 = CARTESIAN_POINT ( 'NONE',  ( -0.7499999999999998890, 0.5000000000000000000, -0.4000000000000000222 ) ) ;
#244 = MANIFOLD_SOLID_BREP ( 'Cut-Extrude1[1]', #871 ) ;
#245 = EDGE_LOOP ( 'NONE', ( #25, #311, #526, #15 ) ) ;
#246 = CARTESIAN_POINT ( 'NONE',  ( -0.5499999999999999334, 0.5500000000000001554, -0.4000000000000000222 ) ) ;
#247 = EDGE_CURVE ( 'NONE', #469, #1151, #321, .T. ) ;
#248 = DIRECTION ( 'NONE',  ( -0.000000000000000000, 0.000000000000000000, 1.000000000000000000 ) ) ;
#249 = VERTEX_POINT ( 'NONE', #779 ) ;
#250 = LINE ( 'NONE', #564, #1206 ) ;
#251 = VECTOR ( 'NONE', #71, 1000.000000000000000 ) ;
#252 = VECTOR ( 'NONE', #548, 1000.000000000000000 ) ;
#253 = VECTOR ( 'NONE', #735, 1000.000000000000000 ) ;
#254 = PRODUCT_RELATED_PRODUCT_CATEGORY ( 'part', '', ( #915 ) ) ;
#255 = LINE ( 'NONE', #628, #1172 ) ;
#256 = PRODUCT_DEFINITION_FORMATION_WITH_SPECIFIED_SOURCE ( 'ANY', '', #915, .NOT_KNOWN. ) ;
#257 = EDGE_CURVE ( 'NONE', #772, #315, #148, .T. ) ;
#258 = CARTESIAN_POINT ( 'NONE',  ( 0.5499999999999999334, 0.5000000000000000000, -0.4000000000000000222 ) ) ;
#259 = ORIENTED_EDGE ( 'NONE', *, *, #1083, .F. ) ;
#260 = LINE ( 'NONE', #632, #423 ) ;
#261 = LINE ( 'NONE', #634, #357 ) ;
#262 = DIRECTION ( 'NONE',  ( 1.000000000000000000, 0.000000000000000000, -0.000000000000000000 ) ) ;
#263 = LINE ( 'NONE', #902, #852 ) ;
#264 = ORIENTED_EDGE ( 'NONE', *, *, #1059, .T. ) ;
#265 = ADVANCED_FACE ( 'NONE', ( #518 ), #790, .F. ) ;
#266 = CARTESIAN_POINT ( 'NONE',  ( 0.6500000000000000222, -0.001000000000000024307, 0.4000000000000000222 ) ) ;
#267 = ORIENTED_EDGE ( 'NONE', *, *, #911, .T. ) ;
#268 = DIRECTION ( 'NONE',  ( -1.000000000000000000, 0.000000000000000000, 0.000000000000000000 ) ) ;
#269 = FACE_OUTER_BOUND ( 'NONE', #589, .T. ) ;
#270 = DIRECTION ( 'NONE',  ( 0.000000000000000000, 0.000000000000000000, 1.000000000000000000 ) ) ;
#271 = ORIENTED_EDGE ( 'NONE', *, *, #112, .F. ) ;
#272 = DIRECTION ( 'NONE',  ( -1.000000000000000000, 0.000000000000000000, 0.000000000000000000 ) ) ;
#273 = EDGE_LOOP ( 'NONE', ( #647, #425, #1065, #1185 ) ) ;
#274 = ORIENTED_EDGE ( 'NONE', *, *, #1026, .T. ) ;
#275 = CARTESIAN_POINT ( 'NONE',  ( 0.7499999999999998890, 0.04999999999999998196, 0.4000000000000000222 ) ) ;
#276 = EDGE_CURVE ( 'NONE', #726, #1186, #435, .T. ) ;
#277 = ORIENTED_EDGE ( 'NONE', *, *, #316, .F. ) ;
#278 = LINE ( 'NONE', #606, #253 ) ;
#279 = DIRECTION ( 'NONE',  ( 0.000000000000000000, 0.000000000000000000, 1.000000000000000000 ) ) ;
#280 = VECTOR ( 'NONE', #808, 1000.000000000000000 ) ;
#281 = VECTOR ( 'NONE', #881, 1000.000000000000000 ) ;
#282 = LINE ( 'NONE', #1044, #77 ) ;
#283 = VECTOR ( 'NONE', #1000, 1000.000000000000000 ) ;
#284 = UNCERTAINTY_MEASURE_WITH_UNIT (LENGTH_MEASURE( 1.000000000000000082E-05 ), #654, 'distance_accuracy_value', 'NONE');
#285 = VERTEX_POINT ( 'NONE', #796 ) ;
#286 = LINE ( 'NONE', #1009, #155 ) ;
#287 = ORIENTED_EDGE ( 'NONE', *, *, #1141, .F. ) ;
#288 = FACE_OUTER_BOUND ( 'NONE', #293, .T. ) ;
#289 = CARTESIAN_POINT ( 'NONE',  ( -0.8000000000000000444, 0.5500000000000000444, 0.4000000000000000222 ) ) ;
#290 = LINE ( 'NONE', #1043, #535 ) ;
#291 = ADVANCED_FACE ( 'NONE', ( #1104 ), #534, .F. ) ;
#292 = LINE ( 'NONE', #487, #6 ) ;
#293 = EDGE_LOOP ( 'NONE', ( #1069, #696, #571, #109 ) ) ;
#294 = ORIENTED_EDGE ( 'NONE', *, *, #941, .T. ) ;
#295 = FACE_OUTER_BOUND ( 'NONE', #980, .T. ) ;
#296 =( LENGTH_UNIT ( ) NAMED_UNIT ( * ) SI_UNIT ( .MILLI., .METRE. ) );
#297 = DIRECTION ( 'NONE',  ( -1.000000000000000000, -1.016439536705160653E-16, 0.000000000000000000 ) ) ;
#298 = CARTESIAN_POINT ( 'NONE',  ( 0.7499999999999998890, 0.5000000000000000000, 0.4000000000000000222 ) ) ;
#299 = EDGE_CURVE ( 'NONE', #1121, #249, #142, .T. ) ;
#300 = VERTEX_POINT ( 'NONE', #802 ) ;
#301 = EDGE_LOOP ( 'NONE', ( #274, #441, #969, #240, #163, #319, #484, #549 ) ) ;
#302 = PLANE ( 'NONE',  #384 ) ;
#303 = LINE ( 'NONE', #223, #36 ) ;
#304 = LINE ( 'NONE', #111, #502 ) ;
#305 = CARTESIAN_POINT ( 'NONE',  ( -0.5499999999999999334, 0.5000000000000000000, -0.4000000000000000222 ) ) ;
#306 = VECTOR ( 'NONE', #1187, 1000.000000000000000 ) ;
#307 = ORIENTED_EDGE ( 'NONE', *, *, #389, .T. ) ;
#308 = AXIS2_PLACEMENT_3D ( 'NONE', #437, #1106, #1119 ) ;
#309 = EDGE_CURVE ( 'NONE', #285, #878, #889, .T. ) ;
#310 = VECTOR ( 'NONE', #555, 1000.000000000000000 ) ;
#311 = ORIENTED_EDGE ( 'NONE', *, *, #812, .F. ) ;
#312 = PRESENTATION_STYLE_ASSIGNMENT (( #591 ) ) ;
#313 = DIRECTION ( 'NONE',  ( 0.000000000000000000, -1.000000000000000000, 0.000000000000000000 ) ) ;
#314 = LINE ( 'NONE', #510, #705 ) ;
#315 = VERTEX_POINT ( 'NONE', #621 ) ;
#316 = EDGE_CURVE ( 'NONE', #1030, #1129, #895, .T. ) ;
#317 = ORIENTED_EDGE ( 'NONE', *, *, #640, .T. ) ;
#318 = CARTESIAN_POINT ( 'NONE',  ( -0.8000000000000000444, 0.5500000000000000444, -0.4000000000000000222 ) ) ;
#319 = ORIENTED_EDGE ( 'NONE', *, *, #112, .T. ) ;
#320 = VERTEX_POINT ( 'NONE', #1079 ) ;
#321 = LINE ( 'NONE', #687, #179 ) ;
#322 = DIRECTION ( 'NONE',  ( 1.000000000000000000, -3.644957815391090926E-17, -0.000000000000000000 ) ) ;
#323 = EDGE_CURVE ( 'NONE', #807, #300, #709, .T. ) ;
#324 = DIRECTION ( 'NONE',  ( 0.000000000000000000, -0.000000000000000000, -1.000000000000000000 ) ) ;
#325 = VECTOR ( 'NONE', #1005, 1000.000000000000000 ) ;
#326 = VERTEX_POINT ( 'NONE', #1090 ) ;
#327 = AXIS2_PLACEMENT_3D ( 'NONE', #863, #313, #1073 ) ;
#328 = PLANE ( 'NONE',  #593 ) ;
#329 = LINE ( 'NONE', #40, #180 ) ;
#330 = ORIENTED_EDGE ( 'NONE', *, *, #988, .F. ) ;
#331 = DIRECTION ( 'NONE',  ( 1.000000000000000000, 0.000000000000000000, -0.000000000000000000 ) ) ;
#332 = SURFACE_STYLE_USAGE ( .BOTH. , #1179 ) ;
#333 = ADVANCED_FACE ( 'NONE', ( #714 ), #336, .F. ) ;
#334 = DIRECTION ( 'NONE',  ( -0.000000000000000000, -0.000000000000000000, -1.000000000000000000 ) ) ;
#335 = ORIENTED_EDGE ( 'NONE', *, *, #689, .F. ) ;
#336 = PLANE ( 'NONE',  #440 ) ;
#337 = CARTESIAN_POINT ( 'NONE',  ( -0.7499999999999998890, 0.04999999999999998196, -0.4000000000000000222 ) ) ;
#338 = LINE ( 'NONE', #814, #38 ) ;
#339 = VECTOR ( 'NONE', #1217, 1000.000000000000000 ) ;
#340 = EDGE_LOOP ( 'NONE', ( #264, #57, #963, #764 ) ) ;
#341 = ADVANCED_FACE ( 'NONE', ( #527 ), #42, .F. ) ;
#342 = VECTOR ( 'NONE', #129, 1000.000000000000000 ) ;
#343 = DIRECTION ( 'NONE',  ( 0.000000000000000000, -0.000000000000000000, 1.000000000000000000 ) ) ;
#344 = AXIS2_PLACEMENT_3D ( 'NONE', #1126, #376, #272 ) ;
#345 = CARTESIAN_POINT ( 'NONE',  ( -0.5499999999999999334, 0.5500000000000000444, 0.1500000000000000222 ) ) ;
#346 = FILL_AREA_STYLE ('',( #354 ) ) ;
#347 = ORIENTED_EDGE ( 'NONE', *, *, #975, .F. ) ;
#348 = DIRECTION ( 'NONE',  ( 3.644957815391090926E-17, 1.000000000000000000, -0.000000000000000000 ) ) ;
#349 = ADVANCED_FACE ( 'NONE', ( #431 ), #998, .F. ) ;
#350 = ORIENTED_EDGE ( 'NONE', *, *, #617, .T. ) ;
#351 = CARTESIAN_POINT ( 'NONE',  ( 0.5499999999999999334, 0.05000000000000000278, 0.4000000000000000222 ) ) ;
#352 = PLANE ( 'NONE',  #622 ) ;
#353 = ADVANCED_FACE ( 'NONE', ( #447 ), #328, .F. ) ;
#354 = FILL_AREA_STYLE_COLOUR ( '', #648 ) ;
#355 = FACE_OUTER_BOUND ( 'NONE', #723, .T. ) ;
#356 = DIRECTION ( 'NONE',  ( 0.000000000000000000, 1.000000000000000000, 0.000000000000000000 ) ) ;
#357 = VECTOR ( 'NONE', #835, 1000.000000000000000 ) ;
#358 = CARTESIAN_POINT ( 'NONE',  ( -0.5499999999999999334, 1.910147050873544083, 0.4000000000000000222 ) ) ;
#359 = PLANE ( 'NONE',  #856 ) ;
#360 = AXIS2_PLACEMENT_3D ( 'NONE', #909, #809, #248 ) ;
#361 = VECTOR ( 'NONE', #836, 1000.000000000000000 ) ;
#362 = CARTESIAN_POINT ( 'NONE',  ( 0.000000000000000000, 0.000000000000000000, 0.4000000000000000222 ) ) ;
#363 = EDGE_CURVE ( 'NONE', #501, #726, #442, .T. ) ;
#364 = LINE ( 'NONE', #467, #992 ) ;
#365 = ORIENTED_EDGE ( 'NONE', *, *, #116, .T. ) ;
#366 = DIRECTION ( 'NONE',  ( 0.000000000000000000, 1.000000000000000000, 0.000000000000000000 ) ) ;
#367 = DIRECTION ( 'NONE',  ( -0.000000000000000000, -1.000000000000000000, -0.000000000000000000 ) ) ;
#368 = CARTESIAN_POINT ( 'NONE',  ( 0.7499999999999998890, 0.04999999999999998196, -0.4000000000000000222 ) ) ;
#369 = ADVANCED_FACE ( 'NONE', ( #994 ), #523, .F. ) ;
#370 = DIRECTION ( 'NONE',  ( 1.000000000000000000, 0.000000000000000000, 0.000000000000000000 ) ) ;
#371 = ORIENTED_EDGE ( 'NONE', *, *, #66, .T. ) ;
#372 = EDGE_CURVE ( 'NONE', #719, #483, #811, .T. ) ;
#373 = LINE ( 'NONE', #275, #550 ) ;
#374 = CARTESIAN_POINT ( 'NONE',  ( -0.7499999999999998890, 0.5000000000000000000, -0.4000000000000000222 ) ) ;
#375 = CARTESIAN_POINT ( 'NONE',  ( -0.6500000000000000222, 0.5500000000000000444, -0.4000000000000000222 ) ) ;
#376 = DIRECTION ( 'NONE',  ( -0.000000000000000000, 0.000000000000000000, -1.000000000000000000 ) ) ;
#377 = DIRECTION ( 'NONE',  ( 1.000000000000000000, 0.000000000000000000, 0.000000000000000000 ) ) ;
#378 = EDGE_CURVE ( 'NONE', #249, #1162, #286, .T. ) ;
#379 = ORIENTED_EDGE ( 'NONE', *, *, #553, .F. ) ;
#380 = CARTESIAN_POINT ( 'NONE',  ( -0.7499999999999998890, 0.04999999999999998196, -0.4000000000000000222 ) ) ;
#381 = CARTESIAN_POINT ( 'NONE',  ( -0.7499999999999998890, 0.04999999999999998196, 0.4000000000000000222 ) ) ;
#382 = VECTOR ( 'NONE', #1169, 1000.000000000000000 ) ;
#383 = CARTESIAN_POINT ( 'NONE',  ( -0.7499999999999998890, 0.04999999999999998196, -0.4000000000000000222 ) ) ;
#384 = AXIS2_PLACEMENT_3D ( 'NONE', #1152, #17, #95 ) ;
#385 = ORIENTED_EDGE ( 'NONE', *, *, #1075, .T. ) ;
#386 = DIRECTION ( 'NONE',  ( -1.000000000000000000, 0.000000000000000000, 0.000000000000000000 ) ) ;
#387 = ORIENTED_EDGE ( 'NONE', *, *, #818, .F. ) ;
#388 = DIRECTION ( 'NONE',  ( -1.000000000000000000, 0.000000000000000000, -0.000000000000000000 ) ) ;
#389 = EDGE_CURVE ( 'NONE', #807, #393, #842, .T. ) ;
#390 = CARTESIAN_POINT ( 'NONE',  ( 0.6500000000000000222, -0.001000000000000024307, 0.1500000000000000222 ) ) ;
#391 = CARTESIAN_POINT ( 'NONE',  ( 0.8000000000000000444, 0.5500000000000000444, 0.4000000000000000222 ) ) ;
#392 = ORIENTED_EDGE ( 'NONE', *, *, #397, .F. ) ;
#393 = VERTEX_POINT ( 'NONE', #351 ) ;
#394 = FACE_OUTER_BOUND ( 'NONE', #509, .T. ) ;
#395 = DIRECTION ( 'NONE',  ( 0.000000000000000000, 1.000000000000000000, 0.000000000000000000 ) ) ;
#396 = DIRECTION ( 'NONE',  ( 0.000000000000000000, 0.000000000000000000, -1.000000000000000000 ) ) ;
#397 = EDGE_CURVE ( 'NONE', #483, #300, #63, .T. ) ;
#398 = ORIENTED_EDGE ( 'NONE', *, *, #884, .F. ) ;
#399 = ORIENTED_EDGE ( 'NONE', *, *, #309, .F. ) ;
#400 = SURFACE_STYLE_USAGE ( .BOTH. , #127 ) ;
#401 = DIRECTION ( 'NONE',  ( -0.000000000000000000, -0.000000000000000000, 1.000000000000000000 ) ) ;
#402 = AXIS2_PLACEMENT_3D ( 'NONE', #933, #1211, #279 ) ;
#403 = VECTOR ( 'NONE', #463, 1000.000000000000000 ) ;
#404 = EDGE_CURVE ( 'NONE', #1088, #719, #79, .T. ) ;
#405 = VERTEX_POINT ( 'NONE', #160 ) ;
#406 = AXIS2_PLACEMENT_3D ( 'NONE', #391, #90, #170 ) ;
#407 = PRESENTATION_LAYER_ASSIGNMENT (  '', '', ( #9 ) ) ;
#408 = ORIENTED_EDGE ( 'NONE', *, *, #102, .F. ) ;
#409 = LINE ( 'NONE', #767, #39 ) ;
#410 = CARTESIAN_POINT ( 'NONE',  ( -0.8000000000000000444, 0.000000000000000000, 0.4000000000000000222 ) ) ;
#411 = ORIENTED_EDGE ( 'NONE', *, *, #1099, .F. ) ;
#412 = EDGE_CURVE ( 'NONE', #1157, #1047, #86, .T. ) ;
#413 = ORIENTED_EDGE ( 'NONE', *, *, #486, .T. ) ;
#414 = EDGE_CURVE ( 'NONE', #870, #489, #557, .T. ) ;
#415 =( NAMED_UNIT ( * ) SI_UNIT ( $, .STERADIAN. ) SOLID_ANGLE_UNIT ( ) );
#416 = LINE ( 'NONE', #128, #787 ) ;
#417 = CARTESIAN_POINT ( 'NONE',  ( -0.5499999999999999334, 0.05000000000000000278, -0.4000000000000000222 ) ) ;
#418 = ORIENTED_EDGE ( 'NONE', *, *, #372, .T. ) ;
#419 = ORIENTED_EDGE ( 'NONE', *, *, #389, .F. ) ;
#420 = EDGE_CURVE ( 'NONE', #1162, #52, #250, .T. ) ;
#421 = PLANE ( 'NONE',  #673 ) ;
#422 = COLOUR_RGB ( '',0.7960784313725489669, 0.8235294117647058432, 0.9372549019607843146 ) ;
#423 = VECTOR ( 'NONE', #164, 1000.000000000000000 ) ;
#424 = UNCERTAINTY_MEASURE_WITH_UNIT (LENGTH_MEASURE( 1.000000000000000082E-05 ), #965, 'distance_accuracy_value', 'NONE');
#425 = ORIENTED_EDGE ( 'NONE', *, *, #92, .T. ) ;
#426 = AXIS2_PLACEMENT_3D ( 'NONE', #380, #10, #198 ) ;
#427 = EDGE_CURVE ( 'NONE', #839, #833, #1123, .T. ) ;
#428 = EDGE_CURVE ( 'NONE', #870, #185, #373, .T. ) ;
#429 = FACE_OUTER_BOUND ( 'NONE', #611, .T. ) ;
#430 = ORIENTED_EDGE ( 'NONE', *, *, #530, .F. ) ;
#431 = FACE_OUTER_BOUND ( 'NONE', #1046, .T. ) ;
#432 = CARTESIAN_POINT ( 'NONE',  ( -0.6500000000000000222, -0.001000000000000024307, -0.4000000000000000222 ) ) ;
#433 = LINE ( 'NONE', #243, #1160 ) ;
#434 = ORIENTED_EDGE ( 'NONE', *, *, #544, .T. ) ;
#435 = LINE ( 'NONE', #241, #1071 ) ;
#436 = LINE ( 'NONE', #803, #1007 ) ;
#437 = CARTESIAN_POINT ( 'NONE',  ( 0.5499999999999999334, 0.05000000000000000278, 0.4000000000000000222 ) ) ;
#438 = ORIENTED_EDGE ( 'NONE', *, *, #587, .T. ) ;
#439 = ADVANCED_FACE ( 'NONE', ( #935 ), #745, .F. ) ;
#440 = AXIS2_PLACEMENT_3D ( 'NONE', #693, #982, #343 ) ;
#441 = ORIENTED_EDGE ( 'NONE', *, *, #890, .T. ) ;
#442 = LINE ( 'NONE', #246, #515 ) ;
#443 = VECTOR ( 'NONE', #366, 1000.000000000000000 ) ;
#444 = DIRECTION ( 'NONE',  ( 0.000000000000000000, 0.000000000000000000, 1.000000000000000000 ) ) ;
#445 = ADVANCED_FACE ( 'NONE', ( #1137 ), #1021, .T. ) ;
#446 = ORIENTED_EDGE ( 'NONE', *, *, #722, .T. ) ;
#447 = FACE_OUTER_BOUND ( 'NONE', #958, .T. ) ;
#448 = DIRECTION ( 'NONE',  ( 1.000000000000000000, 0.000000000000000000, 0.000000000000000000 ) ) ;
#449 = SURFACE_STYLE_FILL_AREA ( #475 ) ;
#450 = CARTESIAN_POINT ( 'NONE',  ( 0.5499999999999999334, -9.112394538477730396E-18, -0.4000000000000000222 ) ) ;
#451 = ADVANCED_FACE ( 'NONE', ( #1034 ), #184, .F. ) ;
#452 = DIRECTION ( 'NONE',  ( 0.000000000000000000, -0.000000000000000000, 1.000000000000000000 ) ) ;
#453 = FACE_OUTER_BOUND ( 'NONE', #1077, .T. ) ;
#454 = DIRECTION ( 'NONE',  ( -1.000000000000000000, 0.000000000000000000, 0.000000000000000000 ) ) ;
#455 = VECTOR ( 'NONE', #452, 1000.000000000000000 ) ;
#456 = DIRECTION ( 'NONE',  ( 0.000000000000000000, 0.000000000000000000, -1.000000000000000000 ) ) ;
#457 = AXIS2_PLACEMENT_3D ( 'NONE', #900, #47, #816 ) ;
#458 = CARTESIAN_POINT ( 'NONE',  ( 0.7499999999999998890, 0.04999999999999998196, -0.4000000000000000222 ) ) ;
#459 = FACE_OUTER_BOUND ( 'NONE', #175, .T. ) ;
#460 = VECTOR ( 'NONE', #356, 1000.000000000000000 ) ;
#461 = LINE ( 'NONE', #14, #1074 ) ;
#462 = ADVANCED_FACE ( 'NONE', ( #725 ), #1013, .F. ) ;
#463 = DIRECTION ( 'NONE',  ( -0.000000000000000000, 1.000000000000000000, -0.000000000000000000 ) ) ;
#464 = EDGE_LOOP ( 'NONE', ( #121, #927, #740, #134 ) ) ;
#465 = DIRECTION ( 'NONE',  ( 0.000000000000000000, 0.000000000000000000, 1.000000000000000000 ) ) ;
#466 = CARTESIAN_POINT ( 'NONE',  ( -0.8000000000000000444, 0.000000000000000000, 0.4000000000000000222 ) ) ;
#467 = CARTESIAN_POINT ( 'NONE',  ( -0.5499999999999999334, -0.001000000000000024307, -0.1500000000000000222 ) ) ;
#468 = ORIENTED_EDGE ( 'NONE', *, *, #85, .T. ) ;
#469 = VERTEX_POINT ( 'NONE', #918 ) ;
#470 = CARTESIAN_POINT ( 'NONE',  ( -0.6500000000000000222, -0.001000000000000024307, -0.1500000000000000222 ) ) ;
#471 = ORIENTED_EDGE ( 'NONE', *, *, #585, .F. ) ;
#472 = LINE ( 'NONE', #525, #182 ) ;
#473 = DIRECTION ( 'NONE',  ( 0.000000000000000000, 0.000000000000000000, -1.000000000000000000 ) ) ;
#474 = DIRECTION ( 'NONE',  ( -0.000000000000000000, -0.000000000000000000, -1.000000000000000000 ) ) ;
#475 = FILL_AREA_STYLE ('',( #538 ) ) ;
#476 = FACE_OUTER_BOUND ( 'NONE', #859, .T. ) ;
#477 = EDGE_CURVE ( 'NONE', #635, #130, #260, .T. ) ;
#478 = DIRECTION ( 'NONE',  ( -1.000000000000000000, 0.000000000000000000, 0.000000000000000000 ) ) ;
#479 = EDGE_LOOP ( 'NONE', ( #446, #277, #565, #347, #8, #41, #29, #385 ) ) ;
#480 = CARTESIAN_POINT ( 'NONE',  ( 0.7499999999999998890, 0.5000000000000000000, -0.4000000000000000222 ) ) ;
#481 = CARTESIAN_POINT ( 'NONE',  ( 0.000000000000000000, 0.5000000000000000000, 0.000000000000000000 ) ) ;
#482 = VECTOR ( 'NONE', #1143, 1000.000000000000000 ) ;
#483 = VERTEX_POINT ( 'NONE', #543 ) ;
#484 = ORIENTED_EDGE ( 'NONE', *, *, #903, .T. ) ;
#485 = DIRECTION ( 'NONE',  ( 1.016439536705160653E-16, -1.000000000000000000, 0.000000000000000000 ) ) ;
#486 = EDGE_CURVE ( 'NONE', #393, #1053, #824, .T. ) ;
#487 = CARTESIAN_POINT ( 'NONE',  ( -0.5499999999999999334, 0.05000000000000000278, 0.4000000000000000222 ) ) ;
#488 = EDGE_LOOP ( 'NONE', ( #595, #888, #118, #113 ) ) ;
#489 = VERTEX_POINT ( 'NONE', #930 ) ;
#490 = FILL_AREA_STYLE ('',( #1072 ) ) ;
#491 = PLANE ( 'NONE',  #327 ) ;
#492 = ORIENTED_EDGE ( 'NONE', *, *, #176, .F. ) ;
#493 = ORIENTED_EDGE ( 'NONE', *, *, #961, .F. ) ;
#494 =( NAMED_UNIT ( * ) PLANE_ANGLE_UNIT ( ) SI_UNIT ( $, .RADIAN. ) );
#495 = CARTESIAN_POINT ( 'NONE',  ( -0.7499999999999998890, 0.04999999999999998196, 0.4000000000000000222 ) ) ;
#496 = PRESENTATION_LAYER_ASSIGNMENT (  '', '', ( #1109 ) ) ;
#497 = EDGE_CURVE ( 'NONE', #1030, #285, #786, .T. ) ;
#498 = VECTOR ( 'NONE', #1197, 1000.000000000000000 ) ;
#499 = CARTESIAN_POINT ( 'NONE',  ( 0.5499999999999999334, 0.5500000000000001554, 0.4000000000000000222 ) ) ;
#500 = EDGE_CURVE ( 'NONE', #959, #825, #314, .T. ) ;
#501 = VERTEX_POINT ( 'NONE', #700 ) ;
#502 = VECTOR ( 'NONE', #401, 1000.000000000000000 ) ;
#503 =( GEOMETRIC_REPRESENTATION_CONTEXT ( 3 ) GLOBAL_UNCERTAINTY_ASSIGNED_CONTEXT ( ( #1102 ) ) GLOBAL_UNIT_ASSIGNED_CONTEXT ( ( #1019, #717, #78 ) ) REPRESENTATION_CONTEXT ( 'NONE', 'WORKASPACE' ) );
#504 = ORIENTED_EDGE ( 'NONE', *, *, #941, .F. ) ;
#505 = DIRECTION ( 'NONE',  ( 0.000000000000000000, 0.000000000000000000, -1.000000000000000000 ) ) ;
#506 = CARTESIAN_POINT ( 'NONE',  ( -0.8000000000000000444, 0.5500000000000000444, 0.4000000000000000222 ) ) ;
#507 = CARTESIAN_POINT ( 'NONE',  ( 0.5499999999999999334, 0.5000000000000000000, 0.4000000000000000222 ) ) ;
#508 = ORIENTED_EDGE ( 'NONE', *, *, #841, .F. ) ;
#509 = EDGE_LOOP ( 'NONE', ( #701, #914, #858, #794 ) ) ;
#510 = CARTESIAN_POINT ( 'NONE',  ( -0.7499999999999998890, 0.5000000000000000000, -0.4000000000000000222 ) ) ;
#511 = ORIENTED_EDGE ( 'NONE', *, *, #676, .F. ) ;
#512 = DIRECTION ( 'NONE',  ( 1.000000000000000000, 0.000000000000000000, 0.000000000000000000 ) ) ;
#513 = CARTESIAN_POINT ( 'NONE',  ( -0.5499999999999999334, 0.05000000000000000278, 0.4000000000000000222 ) ) ;
#514 = CLOSED_SHELL ( 'NONE', ( #265, #710, #1163, #217, #369, #792, #1198, #1036, #12, #43, #353, #919, #349, #850 ) ) ;
#515 = VECTOR ( 'NONE', #987, 1000.000000000000000 ) ;
#516 = ORIENTED_EDGE ( 'NONE', *, *, #477, .T. ) ;
#517 = VECTOR ( 'NONE', #132, 1000.000000000000000 ) ;
#518 = FACE_OUTER_BOUND ( 'NONE', #1176, .T. ) ;
#519 = EDGE_CURVE ( 'NONE', #981, #209, #608, .T. ) ;
#520 = LINE ( 'NONE', #88, #156 ) ;
#521 = DIRECTION ( 'NONE',  ( 1.000000000000000000, -0.000000000000000000, 0.000000000000000000 ) ) ;
#522 = EDGE_LOOP ( 'NONE', ( #159, #468, #1023, #1064 ) ) ;
#523 = PLANE ( 'NONE',  #457 ) ;
#524 = ADVANCED_FACE ( 'NONE', ( #679 ), #421, .F. ) ;
#525 = CARTESIAN_POINT ( 'NONE',  ( -0.5499999999999999334, -9.112394538477730396E-18, 0.4000000000000000222 ) ) ;
#526 = ORIENTED_EDGE ( 'NONE', *, *, #1105, .F. ) ;
#527 = FACE_OUTER_BOUND ( 'NONE', #190, .T. ) ;
#528 = LINE ( 'NONE', #642, #912 ) ;
#529 = PLANE ( 'NONE',  #360 ) ;
#530 = EDGE_CURVE ( 'NONE', #300, #1053, #886, .T. ) ;
#531 = MECHANICAL_DESIGN_GEOMETRIC_PRESENTATION_REPRESENTATION (  '', ( #703 ), #804 ) ;
#532 = ORIENTED_EDGE ( 'NONE', *, *, #323, .T. ) ;
#533 =( GEOMETRIC_REPRESENTATION_CONTEXT ( 3 ) GLOBAL_UNCERTAINTY_ASSIGNED_CONTEXT ( ( #619 ) ) GLOBAL_UNIT_ASSIGNED_CONTEXT ( ( #1011, #1199, #1184 ) ) REPRESENTATION_CONTEXT ( 'NONE', 'WORKASPACE' ) );
#534 = PLANE ( 'NONE',  #2 ) ;
#535 = VECTOR ( 'NONE', #194, 1000.000000000000000 ) ;
#536 = DIRECTION ( 'NONE',  ( 1.000000000000000000, 0.000000000000000000, 0.000000000000000000 ) ) ;
#537 = CARTESIAN_POINT ( 'NONE',  ( -0.7499999999999998890, 0.5000000000000000000, -0.4000000000000000222 ) ) ;
#538 = FILL_AREA_STYLE_COLOUR ( '', #1139 ) ;
#539 = EDGE_LOOP ( 'NONE', ( #434, #1181, #883, #516 ) ) ;
#540 = DIRECTION ( 'NONE',  ( 0.000000000000000000, 0.000000000000000000, -1.000000000000000000 ) ) ;
#541 = CARTESIAN_POINT ( 'NONE',  ( -0.5499999999999999334, 0.5000000000000000000, -0.1500000000000000222 ) ) ;
#542 = DIRECTION ( 'NONE',  ( 0.000000000000000000, 0.000000000000000000, -1.000000000000000000 ) ) ;
#543 = CARTESIAN_POINT ( 'NONE',  ( 0.8000000000000000444, 0.000000000000000000, -0.4000000000000000222 ) ) ;
#544 = EDGE_CURVE ( 'NONE', #130, #1103, #1068, .T. ) ;
#545 = VERTEX_POINT ( 'NONE', #780 ) ;
#546 = CARTESIAN_POINT ( 'NONE',  ( 0.7499999999999998890, 0.04999999999999998196, -0.4000000000000000222 ) ) ;
#547 = ORIENTED_EDGE ( 'NONE', *, *, #372, .F. ) ;
#548 = DIRECTION ( 'NONE',  ( 0.000000000000000000, -0.000000000000000000, -1.000000000000000000 ) ) ;
#549 = ORIENTED_EDGE ( 'NONE', *, *, #1111, .T. ) ;
#550 = VECTOR ( 'NONE', #639, 1000.000000000000000 ) ;
#551 = DIRECTION ( 'NONE',  ( 1.000000000000000000, 0.000000000000000000, 0.000000000000000000 ) ) ;
#552 = VECTOR ( 'NONE', #1037, 1000.000000000000000 ) ;
#553 = EDGE_CURVE ( 'NONE', #1121, #878, #329, .T. ) ;
#554 = CARTESIAN_POINT ( 'NONE',  ( 0.5499999999999999334, 1.910147050873544083, 0.4000000000000000222 ) ) ;
#555 = DIRECTION ( 'NONE',  ( -0.000000000000000000, -1.000000000000000000, -0.000000000000000000 ) ) ;
#556 = ORIENTED_EDGE ( 'NONE', *, *, #144, .F. ) ;
#557 = LINE ( 'NONE', #1214, #460 ) ;
#558 = ORIENTED_EDGE ( 'NONE', *, *, #427, .T. ) ;
#559 = DIRECTION ( 'NONE',  ( -1.000000000000000000, 0.000000000000000000, 0.000000000000000000 ) ) ;
#560 = FACE_OUTER_BOUND ( 'NONE', #488, .T. ) ;
#561 = DIRECTION ( 'NONE',  ( -0.000000000000000000, -1.000000000000000000, -0.000000000000000000 ) ) ;
#562 = DIRECTION ( 'NONE',  ( -0.000000000000000000, 1.000000000000000000, -0.000000000000000000 ) ) ;
#563 = EDGE_CURVE ( 'NONE', #726, #1020, #117, .T. ) ;
#564 = CARTESIAN_POINT ( 'NONE',  ( -0.8000000000000000444, 0.5500000000000000444, 0.4000000000000000222 ) ) ;
#565 = ORIENTED_EDGE ( 'NONE', *, *, #1128, .F. ) ;
#566 = CARTESIAN_POINT ( 'NONE',  ( 0.7499999999999998890, 0.04999999999999998196, 0.4000000000000000222 ) ) ;
#567 = LINE ( 'NONE', #643, #891 ) ;
#568 = CARTESIAN_POINT ( 'NONE',  ( 0.8000000000000000444, 0.5500000000000000444, -0.4000000000000000222 ) ) ;
#569 = VERTEX_POINT ( 'NONE', #410 ) ;
#570 = EDGE_CURVE ( 'NONE', #752, #173, #7, .T. ) ;
#571 = ORIENTED_EDGE ( 'NONE', *, *, #414, .T. ) ;
#572 = PLANE ( 'NONE',  #1113 ) ;
#573 = DIRECTION ( 'NONE',  ( -0.000000000000000000, 1.000000000000000000, -0.000000000000000000 ) ) ;
#574 =( GEOMETRIC_REPRESENTATION_CONTEXT ( 3 ) GLOBAL_UNCERTAINTY_ASSIGNED_CONTEXT ( ( #887 ) ) GLOBAL_UNIT_ASSIGNED_CONTEXT ( ( #296, #862, #1153 ) ) REPRESENTATION_CONTEXT ( 'NONE', 'WORKASPACE' ) );
#575 = AXIS2_PLACEMENT_3D ( 'NONE', #362, #1194, #56 ) ;
#576 = FACE_OUTER_BOUND ( 'NONE', #201, .T. ) ;
#577 = VECTOR ( 'NONE', #83, 1000.000000000000000 ) ;
#578 = VERTEX_POINT ( 'NONE', #34 ) ;
#579 = EDGE_CURVE ( 'NONE', #197, #580, #1175, .T. ) ;
#580 = VERTEX_POINT ( 'NONE', #318 ) ;
#581 = DIRECTION ( 'NONE',  ( -1.000000000000000000, -3.644957815391090926E-17, 0.000000000000000000 ) ) ;
#582 = CARTESIAN_POINT ( 'NONE',  ( 0.7499999999999998890, 0.5000000000000000000, 0.4000000000000000222 ) ) ;
#583 = ORIENTED_EDGE ( 'NONE', *, *, #404, .F. ) ;
#584 = ORIENTED_EDGE ( 'NONE', *, *, #585, .T. ) ;
#585 = EDGE_CURVE ( 'NONE', #1088, #968, #212, .T. ) ;
#586 = CARTESIAN_POINT ( 'NONE',  ( -0.5499999999999999334, 0.5000000000000000000, 0.4000000000000000222 ) ) ;
#587 = EDGE_CURVE ( 'NONE', #1008, #1103, #1081, .T. ) ;
#588 = CARTESIAN_POINT ( 'NONE',  ( -0.7499999999999998890, 0.04999999999999998196, 0.4000000000000000222 ) ) ;
#589 = EDGE_LOOP ( 'NONE', ( #866, #169, #398, #438 ) ) ;
#590 = ORIENTED_EDGE ( 'NONE', *, *, #1128, .T. ) ;
#591 = SURFACE_STYLE_USAGE ( .BOTH. , #682 ) ;
#592 = AXIS2_PLACEMENT_3D ( 'NONE', #1178, #512, #905 ) ;
#593 = AXIS2_PLACEMENT_3D ( 'NONE', #53, #236, #605 ) ;
#594 = PLANE ( 'NONE',  #953 ) ;
#595 = ORIENTED_EDGE ( 'NONE', *, *, #563, .T. ) ;
#596 = COLOUR_RGB ( '',1.000000000000000000, 1.000000000000000000, 1.000000000000000000 ) ;
#597 = ORIENTED_EDGE ( 'NONE', *, *, #237, .T. ) ;
#598 = ADVANCED_FACE ( 'NONE', ( #429 ), #793, .F. ) ;
#599 = CARTESIAN_POINT ( 'NONE',  ( -0.8000000000000000444, 0.000000000000000000, -0.4000000000000000222 ) ) ;
#600 = VERTEX_POINT ( 'NONE', #849 ) ;
#601 = CARTESIAN_POINT ( 'NONE',  ( -0.6500000000000000222, 0.5500000000000000444, 0.1500000000000000222 ) ) ;
#602 = CARTESIAN_POINT ( 'NONE',  ( 0.8000000000000000444, 0.5500000000000000444, -0.4000000000000000222 ) ) ;
#603 = LINE ( 'NONE', #599, #342 ) ;
#604 = EDGE_LOOP ( 'NONE', ( #1014, #87, #718, #754 ) ) ;
#605 = DIRECTION ( 'NONE',  ( -0.000000000000000000, 0.000000000000000000, -1.000000000000000000 ) ) ;
#606 = CARTESIAN_POINT ( 'NONE',  ( -0.7499999999999998890, 0.5000000000000000000, 0.4000000000000000222 ) ) ;
#607 = AXIS2_PLACEMENT_3D ( 'NONE', #481, #627, #817 ) ;
#608 = LINE ( 'NONE', #507, #910 ) ;
#609 = VECTOR ( 'NONE', #1145, 1000.000000000000000 ) ;
#610 = VECTOR ( 'NONE', #207, 1000.000000000000000 ) ;
#611 = EDGE_LOOP ( 'NONE', ( #51, #949, #379, #759 ) ) ;
#612 = CARTESIAN_POINT ( 'NONE',  ( -0.6500000000000000222, 0.5500000000000000444, -0.1500000000000000222 ) ) ;
#613 = DIRECTION ( 'NONE',  ( 1.000000000000000000, -3.644957815391090926E-17, -0.000000000000000000 ) ) ;
#614 = SURFACE_SIDE_STYLE ('',( #799 ) ) ;
#615 = EDGE_LOOP ( 'NONE', ( #923, #208, #815, #944 ) ) ;
#616 = CARTESIAN_POINT ( 'NONE',  ( -0.7499999999999998890, 0.04999999999999998196, -0.4000000000000000222 ) ) ;
#617 = EDGE_CURVE ( 'NONE', #489, #839, #27, .T. ) ;
#618 = CARTESIAN_POINT ( 'NONE',  ( 0.5499999999999999334, 0.5500000000000001554, -0.4000000000000000222 ) ) ;
#619 = UNCERTAINTY_MEASURE_WITH_UNIT (LENGTH_MEASURE( 1.000000000000000082E-05 ), #1011, 'distance_accuracy_value', 'NONE');
#620 = EDGE_LOOP ( 'NONE', ( #335, #771, #782, #623 ) ) ;
#621 = CARTESIAN_POINT ( 'NONE',  ( -0.7499999999999998890, 0.5000000000000000000, 0.4000000000000000222 ) ) ;
#622 = AXIS2_PLACEMENT_3D ( 'NONE', #721, #177, #167 ) ;
#623 = ORIENTED_EDGE ( 'NONE', *, *, #762, .T. ) ;
#624 = VECTOR ( 'NONE', #93, 1000.000000000000000 ) ;
#625 = DIRECTION ( 'NONE',  ( -0.000000000000000000, -0.000000000000000000, 1.000000000000000000 ) ) ;
#626 = VECTOR ( 'NONE', #1018, 1000.000000000000000 ) ;
#627 = DIRECTION ( 'NONE',  ( 0.000000000000000000, -1.000000000000000000, 0.000000000000000000 ) ) ;
#628 = CARTESIAN_POINT ( 'NONE',  ( 0.6500000000000000222, -0.001000000000000024307, -0.1500000000000000222 ) ) ;
#629 = DIRECTION ( 'NONE',  ( 1.000000000000000000, 1.016439536705160653E-16, 0.000000000000000000 ) ) ;
#630 = ORIENTED_EDGE ( 'NONE', *, *, #257, .T. ) ;
#631 = ADVANCED_FACE ( 'NONE', ( #984 ), #594, .T. ) ;
#632 = CARTESIAN_POINT ( 'NONE',  ( -0.5499999999999999334, 0.05000000000000000278, 0.4000000000000000222 ) ) ;
#633 = ORIENTED_EDGE ( 'NONE', *, *, #579, .F. ) ;
#634 = CARTESIAN_POINT ( 'NONE',  ( 0.6500000000000000222, 0.5500000000000000444, -0.4000000000000000222 ) ) ;
#635 = VERTEX_POINT ( 'NONE', #513 ) ;
#636 = PLANE ( 'NONE',  #308 ) ;
#637 =( NAMED_UNIT ( * ) SI_UNIT ( $, .STERADIAN. ) SOLID_ANGLE_UNIT ( ) );
#638 = ORIENTED_EDGE ( 'NONE', *, *, #722, .F. ) ;
#639 = DIRECTION ( 'NONE',  ( 0.000000000000000000, -0.000000000000000000, -1.000000000000000000 ) ) ;
#640 = EDGE_CURVE ( 'NONE', #16, #173, #1076, .T. ) ;
#641 = ORIENTED_EDGE ( 'NONE', *, *, #1141, .T. ) ;
#642 = CARTESIAN_POINT ( 'NONE',  ( -0.8000000000000000444, 0.000000000000000000, 0.4000000000000000222 ) ) ;
#643 = CARTESIAN_POINT ( 'NONE',  ( 0.6500000000000000222, 0.5500000000000000444, 0.1500000000000000222 ) ) ;
#644 = LINE ( 'NONE', #652, #1033 ) ;
#645 = ORIENTED_EDGE ( 'NONE', *, *, #176, .T. ) ;
#646 = DIRECTION ( 'NONE',  ( 0.000000000000000000, 1.000000000000000000, 0.000000000000000000 ) ) ;
#647 = ORIENTED_EDGE ( 'NONE', *, *, #242, .T. ) ;
#648 = COLOUR_RGB ( '',0.2509803921568627416, 0.2509803921568627416, 0.2509803921568627416 ) ;
#649 = FILL_AREA_STYLE ('',( #1086 ) ) ;
#650 = EDGE_CURVE ( 'NONE', #580, #993, #603, .T. ) ;
#651 = CARTESIAN_POINT ( 'NONE',  ( 0.5499999999999999334, 0.05000000000000000278, -0.4000000000000000222 ) ) ;
#652 = CARTESIAN_POINT ( 'NONE',  ( -0.7499999999999998890, 0.04999999999999998196, 0.4000000000000000222 ) ) ;
#653 = VECTOR ( 'NONE', #573, 1000.000000000000000 ) ;
#654 =( LENGTH_UNIT ( ) NAMED_UNIT ( * ) SI_UNIT ( .MILLI., .METRE. ) );
#655 = ORIENTED_EDGE ( 'NONE', *, *, #1105, .T. ) ;
#656 = CARTESIAN_POINT ( 'NONE',  ( 0.000000000000000000, 0.000000000000000000, 0.4000000000000000222 ) ) ;
#657 = VERTEX_POINT ( 'NONE', #537 ) ;
#658 = PLANE ( 'NONE',  #426 ) ;
#659 = LINE ( 'NONE', #358, #848 ) ;
#660 = MANIFOLD_SOLID_BREP ( 'Boss-Extrude3', #220 ) ;
#661 = FACE_OUTER_BOUND ( 'NONE', #1170, .T. ) ;
#662 = ADVANCED_FACE ( 'NONE', ( #45 ), #712, .F. ) ;
#663 = ORIENTED_EDGE ( 'NONE', *, *, #378, .T. ) ;
#664 = LINE ( 'NONE', #1140, #956 ) ;
#665 = DIRECTION ( 'NONE',  ( 1.000000000000000000, 0.000000000000000000, 0.000000000000000000 ) ) ;
#666 = LINE ( 'NONE', #1049, #653 ) ;
#667 = DIRECTION ( 'NONE',  ( -0.000000000000000000, -1.000000000000000000, -0.000000000000000000 ) ) ;
#668 = EDGE_CURVE ( 'NONE', #405, #1070, #263, .T. ) ;
#669 = EDGE_LOOP ( 'NONE', ( #392, #547, #1116, #532 ) ) ;
#670 = ORIENTED_EDGE ( 'NONE', *, *, #299, .F. ) ;
#671 = DIRECTION ( 'NONE',  ( 1.000000000000000000, 0.000000000000000000, -0.000000000000000000 ) ) ;
#672 = CARTESIAN_POINT ( 'NONE',  ( 0.6500000000000000222, 0.5000000000000000000, -0.1500000000000000222 ) ) ;
#673 = AXIS2_PLACEMENT_3D ( 'NONE', #1087, #233, #892 ) ;
#674 = VECTOR ( 'NONE', #1183, 1000.000000000000000 ) ;
#675 = ORIENTED_EDGE ( 'NONE', *, *, #715, .T. ) ;
#676 = EDGE_CURVE ( 'NONE', #968, #483, #338, .T. ) ;
#677 = ORIENTED_EDGE ( 'NONE', *, *, #412, .T. ) ;
#678 = FACE_OUTER_BOUND ( 'NONE', #464, .T. ) ;
#679 = FACE_OUTER_BOUND ( 'NONE', #620, .T. ) ;
#680 = ORIENTED_EDGE ( 'NONE', *, *, #864, .T. ) ;
#681 = ORIENTED_EDGE ( 'NONE', *, *, #924, .T. ) ;
#682 = SURFACE_SIDE_STYLE ('',( #971 ) ) ;
#683 = EDGE_CURVE ( 'NONE', #981, #23, #50, .T. ) ;
#684 = CARTESIAN_POINT ( 'NONE',  ( -0.7499999999999998890, 0.04999999999999998196, 0.4000000000000000222 ) ) ;
#685 = ORIENTED_EDGE ( 'NONE', *, *, #420, .T. ) ;
#686 = ORIENTED_EDGE ( 'NONE', *, *, #861, .F. ) ;
#687 = CARTESIAN_POINT ( 'NONE',  ( -0.5499999999999999334, 0.5000000000000000000, 0.4000000000000000222 ) ) ;
#688 = CARTESIAN_POINT ( 'NONE',  ( -0.6500000000000000222, -0.001000000000000024307, 0.1500000000000000222 ) ) ;
#689 = EDGE_CURVE ( 'NONE', #501, #758, #1110, .T. ) ;
#690 = DIRECTION ( 'NONE',  ( 0.000000000000000000, 0.000000000000000000, 1.000000000000000000 ) ) ;
#691 = MECHANICAL_DESIGN_GEOMETRIC_PRESENTATION_REPRESENTATION (  '', ( #238 ), #26 ) ;
#692 = ORIENTED_EDGE ( 'NONE', *, *, #1022, .T. ) ;
#693 = CARTESIAN_POINT ( 'NONE',  ( -0.7499999999999998890, 0.5000000000000000000, 0.4000000000000000222 ) ) ;
#694 = LINE ( 'NONE', #586, #610 ) ;
#695 = CARTESIAN_POINT ( 'NONE',  ( 0.8000000000000000444, 0.5500000000000000444, 0.4000000000000000222 ) ) ;
#696 = ORIENTED_EDGE ( 'NONE', *, *, #428, .F. ) ;
#697 = CARTESIAN_POINT ( 'NONE',  ( 0.5499999999999999334, 0.05000000000000000278, 0.4000000000000000222 ) ) ;
#698 = CARTESIAN_POINT ( 'NONE',  ( -0.7499999999999998890, 0.04999999999999998196, 0.4000000000000000222 ) ) ;
#699 = DIRECTION ( 'NONE',  ( 0.000000000000000000, -0.000000000000000000, 1.000000000000000000 ) ) ;
#700 = CARTESIAN_POINT ( 'NONE',  ( -0.5499999999999999334, 0.5500000000000001554, -0.4000000000000000222 ) ) ;
#701 = ORIENTED_EDGE ( 'NONE', *, *, #800, .F. ) ;
#702 = DIRECTION ( 'NONE',  ( 0.000000000000000000, 0.000000000000000000, 1.000000000000000000 ) ) ;
#703 = STYLED_ITEM ( 'NONE', ( #879 ), #244 ) ;
#704 = CARTESIAN_POINT ( 'NONE',  ( -0.5499999999999999334, 1.910147050873544083, -0.4000000000000000222 ) ) ;
#705 = VECTOR ( 'NONE', #133, 1000.000000000000000 ) ;
#706 = VECTOR ( 'NONE', #474, 1000.000000000000000 ) ;
#707 = ADVANCED_FACE ( 'NONE', ( #150 ), #140, .F. ) ;
#708 = ORIENTED_EDGE ( 'NONE', *, *, #165, .T. ) ;
#709 = LINE ( 'NONE', #1171, #970 ) ;
#710 = ADVANCED_FACE ( 'NONE', ( #1205 ), #636, .F. ) ;
#711 = PLANE ( 'NONE',  #727 ) ;
#712 = PLANE ( 'NONE',  #575 ) ;
#713 = ORIENTED_EDGE ( 'NONE', *, *, #428, .T. ) ;
#714 = FACE_OUTER_BOUND ( 'NONE', #479, .T. ) ;
#715 = EDGE_CURVE ( 'NONE', #931, #1070, #255, .T. ) ;
#716 = DIRECTION ( 'NONE',  ( -0.000000000000000000, -1.000000000000000000, -0.000000000000000000 ) ) ;
#717 =( NAMED_UNIT ( * ) PLANE_ANGLE_UNIT ( ) SI_UNIT ( $, .RADIAN. ) );
#718 = ORIENTED_EDGE ( 'NONE', *, *, #1204, .F. ) ;
#719 = VERTEX_POINT ( 'NONE', #1101 ) ;
#720 = DIRECTION ( 'NONE',  ( 0.000000000000000000, -1.000000000000000000, 0.000000000000000000 ) ) ;
#721 = CARTESIAN_POINT ( 'NONE',  ( 0.000000000000000000, 0.000000000000000000, -0.4000000000000000222 ) ) ;
#722 = EDGE_CURVE ( 'NONE', #657, #1129, #433, .T. ) ;
#723 = EDGE_LOOP ( 'NONE', ( #511, #471, #917, #418 ) ) ;
#724 = VECTOR ( 'NONE', #646, 1000.000000000000000 ) ;
#725 = FACE_OUTER_BOUND ( 'NONE', #1017, .T. ) ;
#726 = VERTEX_POINT ( 'NONE', #618 ) ;
#727 = AXIS2_PLACEMENT_3D ( 'NONE', #995, #143, #70 ) ;
#728 = DIRECTION ( 'NONE',  ( -1.000000000000000000, 0.000000000000000000, 0.000000000000000000 ) ) ;
#729 = CARTESIAN_POINT ( 'NONE',  ( 0.6500000000000000222, -0.001000000000000024307, -0.1500000000000000222 ) ) ;
#730 = CARTESIAN_POINT ( 'NONE',  ( -0.5499999999999999334, 1.910147050873544083, 0.4000000000000000222 ) ) ;
#731 = UNCERTAINTY_MEASURE_WITH_UNIT (LENGTH_MEASURE( 1.000000000000000082E-05 ), #1210, 'distance_accuracy_value', 'NONE');
#732 = CARTESIAN_POINT ( 'NONE',  ( -0.5499999999999999334, 0.05000000000000000278, 0.4000000000000000222 ) ) ;
#733 = CARTESIAN_POINT ( 'NONE',  ( 0.5499999999999999334, 0.05000000000000000278, 0.4000000000000000222 ) ) ;
#734 = VERTEX_POINT ( 'NONE', #67 ) ;
#735 = DIRECTION ( 'NONE',  ( -0.000000000000000000, -0.000000000000000000, -1.000000000000000000 ) ) ;
#736 = PLANE ( 'NONE',  #1057 ) ;
#737 = CARTESIAN_POINT ( 'NONE',  ( -0.6500000000000000222, 0.5500000000000000444, -0.4000000000000000222 ) ) ;
#738 = EDGE_LOOP ( 'NONE', ( #677, #781, #1060, #492 ) ) ;
#739 = ADVANCED_FACE ( 'NONE', ( #453 ), #529, .F. ) ;
#740 = ORIENTED_EDGE ( 'NONE', *, *, #861, .T. ) ;
#741 = FACE_OUTER_BOUND ( 'NONE', #1159, .T. ) ;
#742 = LINE ( 'NONE', #1133, #552 ) ;
#743 = DIRECTION ( 'NONE',  ( -0.000000000000000000, 1.000000000000000000, -0.000000000000000000 ) ) ;
#744 = ORIENTED_EDGE ( 'NONE', *, *, #756, .F. ) ;
#745 = PLANE ( 'NONE',  #55 ) ;
#746 = ORIENTED_EDGE ( 'NONE', *, *, #1089, .F. ) ;
#747 = AXIS2_PLACEMENT_3D ( 'NONE', #656, #540, #1039 ) ;
#748 = CARTESIAN_POINT ( 'NONE',  ( -0.5499999999999999334, -9.112394538477730396E-18, 0.4000000000000000222 ) ) ;
#749 = PLANE ( 'NONE',  #24 ) ;
#750 = ADVANCED_FACE ( 'NONE', ( #819 ), #157, .F. ) ;
#751 = VECTOR ( 'NONE', #192, 1000.000000000000000 ) ;
#752 = VERTEX_POINT ( 'NONE', #368 ) ;
#753 = DIRECTION ( 'NONE',  ( 0.000000000000000000, 0.000000000000000000, -1.000000000000000000 ) ) ;
#754 = ORIENTED_EDGE ( 'NONE', *, *, #812, .T. ) ;
#755 = CARTESIAN_POINT ( 'NONE',  ( -0.6500000000000000222, 0.5000000000000000000, 0.1500000000000000222 ) ) ;
#756 = EDGE_CURVE ( 'NONE', #600, #130, #865, .T. ) ;
#757 = CARTESIAN_POINT ( 'NONE',  ( 0.6500000000000000222, 0.5500000000000000444, 0.1500000000000000222 ) ) ;
#758 = VERTEX_POINT ( 'NONE', #305 ) ;
#759 = ORIENTED_EDGE ( 'NONE', *, *, #1045, .F. ) ;
#760 = CARTESIAN_POINT ( 'NONE',  ( 0.5499999999999999334, 0.5000000000000000000, 0.4000000000000000222 ) ) ;
#761 = FILL_AREA_STYLE_COLOUR ( '', #422 ) ;
#762 = EDGE_CURVE ( 'NONE', #1186, #758, #461, .T. ) ;
#763 = APPLICATION_CONTEXT ( 'automotive_design' ) ;
#764 = ORIENTED_EDGE ( 'NONE', *, *, #715, .F. ) ;
#765 = ORIENTED_EDGE ( 'NONE', *, *, #544, .F. ) ;
#766 = AXIS2_PLACEMENT_3D ( 'NONE', #1066, #395, #105 ) ;
#767 = CARTESIAN_POINT ( 'NONE',  ( 0.7499999999999998890, 0.04999999999999998196, 0.4000000000000000222 ) ) ;
#768 = VECTOR ( 'NONE', #562, 1000.000000000000000 ) ;
#769 = VECTOR ( 'NONE', #1219, 1000.000000000000000 ) ;
#770 = MECHANICAL_DESIGN_GEOMETRIC_PRESENTATION_REPRESENTATION (  '', ( #9 ), #503 ) ;
#771 = ORIENTED_EDGE ( 'NONE', *, *, #363, .T. ) ;
#772 = VERTEX_POINT ( 'NONE', #298 ) ;
#773 = FACE_OUTER_BOUND ( 'NONE', #214, .T. ) ;
#774 = FACE_OUTER_BOUND ( 'NONE', #738, .T. ) ;
#775 = CARTESIAN_POINT ( 'NONE',  ( 0.7499999999999998890, 0.5000000000000000000, 0.4000000000000000222 ) ) ;
#776 = ORIENTED_EDGE ( 'NONE', *, *, #414, .F. ) ;
#777 = EDGE_CURVE ( 'NONE', #197, #285, #940, .T. ) ;
#778 = ORIENTED_EDGE ( 'NONE', *, *, #950, .F. ) ;
#779 = CARTESIAN_POINT ( 'NONE',  ( -0.6500000000000000222, 0.5500000000000000444, 0.1500000000000000222 ) ) ;
#780 = CARTESIAN_POINT ( 'NONE',  ( 0.6500000000000000222, 0.5500000000000000444, -0.4000000000000000222 ) ) ;
#781 = ORIENTED_EDGE ( 'NONE', *, *, #1045, .T. ) ;
#782 = ORIENTED_EDGE ( 'NONE', *, *, #276, .T. ) ;
#783 = CARTESIAN_POINT ( 'NONE',  ( 0.5499999999999999334, 0.5000000000000000000, -0.1500000000000000222 ) ) ;
#784 = CLOSED_SHELL ( 'NONE', ( #1165, #1067, #445, #999, #631, #451 ) ) ;
#785 = VECTOR ( 'NONE', #324, 1000.000000000000000 ) ;
#786 = LINE ( 'NONE', #124, #1188 ) ;
#787 = VECTOR ( 'NONE', #322, 1000.000000000000000 ) ;
#788 =( GEOMETRIC_REPRESENTATION_CONTEXT ( 3 ) GLOBAL_UNCERTAINTY_ASSIGNED_CONTEXT ( ( #284 ) ) GLOBAL_UNIT_ASSIGNED_CONTEXT ( ( #654, #183, #637 ) ) REPRESENTATION_CONTEXT ( 'NONE', 'WORKASPACE' ) );
#789 = ORIENTED_EDGE ( 'NONE', *, *, #1212, .T. ) ;
#790 = PLANE ( 'NONE',  #822 ) ;
#791 = ADVANCED_BREP_SHAPE_REPRESENTATION ( 'C0603', ( #1032, #660, #244, #211, #1191 ), #788 ) ;
#792 = ADVANCED_FACE ( 'NONE', ( #576 ), #829, .F. ) ;
#793 = PLANE ( 'NONE',  #1112 ) ;
#794 = ORIENTED_EDGE ( 'NONE', *, *, #247, .T. ) ;
#795 = VERTEX_POINT ( 'NONE', #757 ) ;
#796 = CARTESIAN_POINT ( 'NONE',  ( -0.6500000000000000222, 0.5500000000000000444, -0.1500000000000000222 ) ) ;
#797 =( NAMED_UNIT ( * ) PLANE_ANGLE_UNIT ( ) SI_UNIT ( $, .RADIAN. ) );
#798 = ADVANCED_FACE ( 'NONE', ( #661 ), #837, .T. ) ;
#799 = SURFACE_STYLE_FILL_AREA ( #346 ) ;
#800 = EDGE_CURVE ( 'NONE', #1020, #1151, #181, .T. ) ;
#801 = ORIENTED_EDGE ( 'NONE', *, *, #830, .T. ) ;
#802 = CARTESIAN_POINT ( 'NONE',  ( 0.5499999999999999334, -9.112394538477730396E-18, -0.4000000000000000222 ) ) ;
#803 = CARTESIAN_POINT ( 'NONE',  ( 0.7499999999999998890, 0.5000000000000000000, -0.4000000000000000222 ) ) ;
#804 =( GEOMETRIC_REPRESENTATION_CONTEXT ( 3 ) GLOBAL_UNCERTAINTY_ASSIGNED_CONTEXT ( ( #424 ) ) GLOBAL_UNIT_ASSIGNED_CONTEXT ( ( #965, #494, #415 ) ) REPRESENTATION_CONTEXT ( 'NONE', 'WORKASPACE' ) );
#805 = DIRECTION ( 'NONE',  ( -0.000000000000000000, 1.000000000000000000, -0.000000000000000000 ) ) ;
#806 = MECHANICAL_DESIGN_GEOMETRIC_PRESENTATION_REPRESENTATION (  '', ( #120 ), #533 ) ;
#807 = VERTEX_POINT ( 'NONE', #98 ) ;
#808 = DIRECTION ( 'NONE',  ( 1.000000000000000000, 0.000000000000000000, 0.000000000000000000 ) ) ;
#809 = DIRECTION ( 'NONE',  ( -1.000000000000000000, 0.000000000000000000, -0.000000000000000000 ) ) ;
#810 = ORIENTED_EDGE ( 'NONE', *, *, #427, .F. ) ;
#811 = LINE ( 'NONE', #1208, #1031 ) ;
#812 = EDGE_CURVE ( 'NONE', #1150, #600, #84, .T. ) ;
#813 = FACE_OUTER_BOUND ( 'NONE', #301, .T. ) ;
#814 = CARTESIAN_POINT ( 'NONE',  ( 0.8000000000000000444, 0.000000000000000000, -0.4000000000000000222 ) ) ;
#815 = ORIENTED_EDGE ( 'NONE', *, *, #818, .T. ) ;
#816 = DIRECTION ( 'NONE',  ( 0.000000000000000000, 0.000000000000000000, 1.000000000000000000 ) ) ;
#817 = DIRECTION ( 'NONE',  ( 0.000000000000000000, -0.000000000000000000, -1.000000000000000000 ) ) ;
#818 = EDGE_CURVE ( 'NONE', #23, #405, #282, .T. ) ;
#819 = FACE_OUTER_BOUND ( 'NONE', #1097, .T. ) ;
#820 = SURFACE_STYLE_USAGE ( .BOTH. , #1038 ) ;
#821 = ORIENTED_EDGE ( 'NONE', *, *, #497, .T. ) ;
#822 = AXIS2_PLACEMENT_3D ( 'NONE', #697, #331, #702 ) ;
#823 = VECTOR ( 'NONE', #218, 1000.000000000000000 ) ;
#824 = LINE ( 'NONE', #174, #252 ) ;
#825 = VERTEX_POINT ( 'NONE', #1213 ) ;
#826 = VECTOR ( 'NONE', #61, 1000.000000000000000 ) ;
#827 =( NAMED_UNIT ( * ) SI_UNIT ( $, .STERADIAN. ) SOLID_ANGLE_UNIT ( ) );
#828 = CARTESIAN_POINT ( 'NONE',  ( -0.6500000000000000222, -0.001000000000000024307, 0.1500000000000000222 ) ) ;
#829 = PLANE ( 'NONE',  #406 ) ;
#830 = EDGE_CURVE ( 'NONE', #52, #569, #75, .T. ) ;
#831 = CARTESIAN_POINT ( 'NONE',  ( 0.000000000000000000, 0.000000000000000000, 0.000000000000000000 ) ) ;
#832 = DIRECTION ( 'NONE',  ( 0.000000000000000000, -0.000000000000000000, -1.000000000000000000 ) ) ;
#833 = VERTEX_POINT ( 'NONE', #857 ) ;
#834 = CARTESIAN_POINT ( 'NONE',  ( 0.6500000000000000222, 0.5000000000000000000, -0.1500000000000000222 ) ) ;
#835 = DIRECTION ( 'NONE',  ( -0.000000000000000000, -0.000000000000000000, -1.000000000000000000 ) ) ;
#836 = DIRECTION ( 'NONE',  ( 1.000000000000000000, -0.000000000000000000, -0.000000000000000000 ) ) ;
#837 = PLANE ( 'NONE',  #344 ) ;
#838 = APPLICATION_PROTOCOL_DEFINITION ( 'draft international standard', 'automotive_design', 1998, #1195 ) ;
#839 = VERTEX_POINT ( 'NONE', #1050 ) ;
#840 = ORIENTED_EDGE ( 'NONE', *, *, #1122, .F. ) ;
#841 = EDGE_CURVE ( 'NONE', #393, #870, #742, .T. ) ;
#842 = LINE ( 'NONE', #733, #724 ) ;
#843 = ORIENTED_EDGE ( 'NONE', *, *, #1156, .T. ) ;
#844 = LINE ( 'NONE', #480, #751 ) ;
#845 = DIRECTION ( 'NONE',  ( -1.000000000000000000, 0.000000000000000000, 0.000000000000000000 ) ) ;
#846 = DIRECTION ( 'NONE',  ( -0.000000000000000000, 0.000000000000000000, -1.000000000000000000 ) ) ;
#847 = LINE ( 'NONE', #732, #826 ) ;
#848 = VECTOR ( 'NONE', #367, 1000.000000000000000 ) ;
#849 = CARTESIAN_POINT ( 'NONE',  ( -0.5499999999999999334, -9.112394538477730396E-18, -0.4000000000000000222 ) ) ;
#850 = ADVANCED_FACE ( 'NONE', ( #195 ), #188, .F. ) ;
#851 = ORIENTED_EDGE ( 'NONE', *, *, #497, .F. ) ;
#852 = VECTOR ( 'NONE', #921, 1000.000000000000000 ) ;
#853 = PLANE ( 'NONE',  #893 ) ;
#854 = LINE ( 'NONE', #920, #72 ) ;
#855 = CARTESIAN_POINT ( 'NONE',  ( 0.7499999999999998890, 0.04999999999999998196, -0.4000000000000000222 ) ) ;
#856 = AXIS2_PLACEMENT_3D ( 'NONE', #729, #1118, #262 ) ;
#857 = CARTESIAN_POINT ( 'NONE',  ( 0.6500000000000000222, 0.5500000000000000444, 0.4000000000000000222 ) ) ;
#858 = ORIENTED_EDGE ( 'NONE', *, *, #73, .T. ) ;
#859 = EDGE_LOOP ( 'NONE', ( #504, #810, #230, #776, #508, #419, #1177, #583 ) ) ;
#860 = FACE_OUTER_BOUND ( 'NONE', #539, .T. ) ;
#861 = EDGE_CURVE ( 'NONE', #326, #752, #1, .T. ) ;
#862 =( NAMED_UNIT ( * ) PLANE_ANGLE_UNIT ( ) SI_UNIT ( $, .RADIAN. ) );
#863 = CARTESIAN_POINT ( 'NONE',  ( -0.7499999999999998890, 0.04999999999999998196, -0.4000000000000000222 ) ) ;
#864 = EDGE_CURVE ( 'NONE', #635, #1008, #292, .T. ) ;
#865 = LINE ( 'NONE', #1155, #768 ) ;
#866 = ORIENTED_EDGE ( 'NONE', *, *, #1099, .T. ) ;
#867 = VERTEX_POINT ( 'NONE', #1218 ) ;
#868 = LINE ( 'NONE', #1062, #1190 ) ;
#869 = ORIENTED_EDGE ( 'NONE', *, *, #116, .F. ) ;
#870 = VERTEX_POINT ( 'NONE', #106 ) ;
#871 = CLOSED_SHELL ( 'NONE', ( #707, #1173, #158, #333, #598, #462, #205, #291, #662, #798, #875, #439, #739, #985 ) ) ;
#872 = CARTESIAN_POINT ( 'NONE',  ( 0.7499999999999998890, 0.5000000000000000000, -0.4000000000000000222 ) ) ;
#873 = VECTOR ( 'NONE', #225, 1000.000000000000000 ) ;
#874 = VECTOR ( 'NONE', #667, 1000.000000000000000 ) ;
#875 = ADVANCED_FACE ( 'NONE', ( #168 ), #736, .F. ) ;
#876 = DIRECTION ( 'NONE',  ( 0.000000000000000000, 0.000000000000000000, 1.000000000000000000 ) ) ;
#877 = ORIENTED_EDGE ( 'NONE', *, *, #316, .T. ) ;
#878 = VERTEX_POINT ( 'NONE', #1132 ) ;
#879 = PRESENTATION_STYLE_ASSIGNMENT (( #400 ) ) ;
#880 = LINE ( 'NONE', #582, #517 ) ;
#881 = DIRECTION ( 'NONE',  ( 0.000000000000000000, 1.000000000000000000, 0.000000000000000000 ) ) ;
#882 = EDGE_CURVE ( 'NONE', #315, #16, #644, .T. ) ;
#883 = ORIENTED_EDGE ( 'NONE', *, *, #864, .F. ) ;
#884 = EDGE_CURVE ( 'NONE', #1008, #734, #1027, .T. ) ;
#885 = CARTESIAN_POINT ( 'NONE',  ( 0.5499999999999999334, -9.112394538477730396E-18, 0.4000000000000000222 ) ) ;
#886 = LINE ( 'NONE', #1180, #281 ) ;
#887 = UNCERTAINTY_MEASURE_WITH_UNIT (LENGTH_MEASURE( 1.000000000000000082E-05 ), #296, 'distance_accuracy_value', 'NONE');
#888 = ORIENTED_EDGE ( 'NONE', *, *, #800, .T. ) ;
#889 = LINE ( 'NONE', #612, #280 ) ;
#890 = EDGE_CURVE ( 'NONE', #545, #968, #939, .T. ) ;
#891 = VECTOR ( 'NONE', #845, 1000.000000000000000 ) ;
#892 = DIRECTION ( 'NONE',  ( 1.000000000000000000, 0.000000000000000000, -0.000000000000000000 ) ) ;
#893 = AXIS2_PLACEMENT_3D ( 'NONE', #566, #671, #1147 ) ;
#894 = ORIENTED_EDGE ( 'NONE', *, *, #1204, .T. ) ;
#895 = LINE ( 'NONE', #1182, #306 ) ;
#896 = EDGE_CURVE ( 'NONE', #1020, #219, #290, .T. ) ;
#897 = CARTESIAN_POINT ( 'NONE',  ( 0.8000000000000000444, 0.5500000000000000444, 0.4000000000000000222 ) ) ;
#898 = CARTESIAN_POINT ( 'NONE',  ( -0.5499999999999999334, 0.05000000000000000278, 0.4000000000000000222 ) ) ;
#899 = VERTEX_POINT ( 'NONE', #947 ) ;
#900 = CARTESIAN_POINT ( 'NONE',  ( 0.5499999999999999334, 0.5500000000000000444, 0.4000000000000000222 ) ) ;
#901 = SURFACE_STYLE_FILL_AREA ( #649 ) ;
#902 = CARTESIAN_POINT ( 'NONE',  ( 0.6500000000000000222, 0.5500000000000000444, -0.1500000000000000222 ) ) ;
#903 = EDGE_CURVE ( 'NONE', #185, #578, #97, .T. ) ;
#904 = ORIENTED_EDGE ( 'NONE', *, *, #830, .F. ) ;
#905 = DIRECTION ( 'NONE',  ( 0.000000000000000000, 0.000000000000000000, -1.000000000000000000 ) ) ;
#906 = PLANE ( 'NONE',  #1091 ) ;
#907 = LINE ( 'NONE', #458, #443 ) ;
#908 = VECTOR ( 'NONE', #193, 1000.000000000000000 ) ;
#909 = CARTESIAN_POINT ( 'NONE',  ( -0.6500000000000000222, -0.001000000000000024307, 0.4000000000000000222 ) ) ;
#910 = VECTOR ( 'NONE', #1063, 1000.000000000000000 ) ;
#911 = EDGE_CURVE ( 'NONE', #899, #1162, #666, .T. ) ;
#912 = VECTOR ( 'NONE', #1189, 1000.000000000000000 ) ;
#913 = PRODUCT_DEFINITION_CONTEXT ( 'detailed design', #1195, 'design' ) ;
#914 = ORIENTED_EDGE ( 'NONE', *, *, #896, .T. ) ;
#915 = PRODUCT ( 'C0603', 'C0603', '', ( #189 ) ) ;
#916 = DIRECTION ( 'NONE',  ( 1.000000000000000000, 0.000000000000000000, 0.000000000000000000 ) ) ;
#917 = ORIENTED_EDGE ( 'NONE', *, *, #404, .T. ) ;
#918 = CARTESIAN_POINT ( 'NONE',  ( -0.5499999999999999334, 0.5000000000000000000, 0.4000000000000000222 ) ) ;
#919 = ADVANCED_FACE ( 'NONE', ( #1203 ), #359, .F. ) ;
#920 = CARTESIAN_POINT ( 'NONE',  ( 0.6500000000000000222, 0.5500000000000000444, 0.4000000000000000222 ) ) ;
#921 = DIRECTION ( 'NONE',  ( 1.000000000000000000, -0.000000000000000000, -0.000000000000000000 ) ) ;
#922 = DIRECTION ( 'NONE',  ( -1.000000000000000000, -0.000000000000000000, -0.000000000000000000 ) ) ;
#923 = ORIENTED_EDGE ( 'NONE', *, *, #519, .F. ) ;
#924 = EDGE_CURVE ( 'NONE', #758, #469, #304, .T. ) ;
#925 = CARTESIAN_POINT ( 'NONE',  ( 0.6500000000000000222, 0.5000000000000000000, 0.4000000000000000222 ) ) ;
#926 = CARTESIAN_POINT ( 'NONE',  ( -0.5499999999999999334, -9.112394538477730396E-18, 0.4000000000000000222 ) ) ;
#927 = ORIENTED_EDGE ( 'NONE', *, *, #237, .F. ) ;
#928 = AXIS2_PLACEMENT_3D ( 'NONE', #1115, #720, #191 ) ;
#929 = AXIS2_PLACEMENT_3D ( 'NONE', #374, #1216, #699 ) ;
#930 = CARTESIAN_POINT ( 'NONE',  ( 0.7499999999999998890, 0.5000000000000000000, 0.4000000000000000222 ) ) ;
#931 = VERTEX_POINT ( 'NONE', #672 ) ;
#932 = CARTESIAN_POINT ( 'NONE',  ( 0.6500000000000000222, 0.5500000000000000444, -0.1500000000000000222 ) ) ;
#933 = CARTESIAN_POINT ( 'NONE',  ( 0.5499999999999999334, 1.910147050873544083, 0.4000000000000000222 ) ) ;
#934 = DIRECTION ( 'NONE',  ( 0.000000000000000000, -0.000000000000000000, -1.000000000000000000 ) ) ;
#935 = FACE_OUTER_BOUND ( 'NONE', #997, .T. ) ;
#936 = ORIENTED_EDGE ( 'NONE', *, *, #519, .T. ) ;
#937 = FACE_OUTER_BOUND ( 'NONE', #522, .T. ) ;
#938 = DIRECTION ( 'NONE',  ( 1.000000000000000000, -1.016439536705160653E-16, 0.000000000000000000 ) ) ;
#939 = LINE ( 'NONE', #568, #361 ) ;
#940 = LINE ( 'NONE', #737, #626 ) ;
#941 = EDGE_CURVE ( 'NONE', #833, #1088, #1154, .T. ) ;
#942 = SHAPE_DEFINITION_REPRESENTATION ( #1078, #791 ) ;
#943 = DIRECTION ( 'NONE',  ( 1.000000000000000000, 0.000000000000000000, 0.000000000000000000 ) ) ;
#944 = ORIENTED_EDGE ( 'NONE', *, *, #1012, .F. ) ;
#945 = DIRECTION ( 'NONE',  ( 0.000000000000000000, 0.000000000000000000, -1.000000000000000000 ) ) ;
#946 = CARTESIAN_POINT ( 'NONE',  ( -0.7499999999999998890, 0.5000000000000000000, 0.4000000000000000222 ) ) ;
#947 = CARTESIAN_POINT ( 'NONE',  ( -0.6500000000000000222, 0.5000000000000000000, 0.4000000000000000222 ) ) ;
#948 = DIRECTION ( 'NONE',  ( -1.000000000000000000, -0.000000000000000000, -0.000000000000000000 ) ) ;
#949 = ORIENTED_EDGE ( 'NONE', *, *, #1221, .T. ) ;
#950 = EDGE_CURVE ( 'NONE', #993, #600, #416, .T. ) ;
#951 = VECTOR ( 'NONE', #938, 1000.000000000000000 ) ;
#952 = ORIENTED_EDGE ( 'NONE', *, *, #882, .F. ) ;
#953 = AXIS2_PLACEMENT_3D ( 'NONE', #1166, #753, #974 ) ;
#954 = LINE ( 'NONE', #1041, #973 ) ;
#955 = FILL_AREA_STYLE ('',( #761 ) ) ;
#956 = VECTOR ( 'NONE', #945, 1000.000000000000000 ) ;
#957 = CARTESIAN_POINT ( 'NONE',  ( 0.6500000000000000222, -0.001000000000000024307, 0.1500000000000000222 ) ) ;
#958 = EDGE_LOOP ( 'NONE', ( #365, #675, #708, #103 ) ) ;
#959 = VERTEX_POINT ( 'NONE', #872 ) ;
#960 = DIRECTION ( 'NONE',  ( 1.000000000000000000, 0.000000000000000000, 0.000000000000000000 ) ) ;
#961 = EDGE_CURVE ( 'NONE', #173, #772, #409, .T. ) ;
#962 = CARTESIAN_POINT ( 'NONE',  ( -0.8000000000000000444, 0.000000000000000000, -0.4000000000000000222 ) ) ;
#963 = ORIENTED_EDGE ( 'NONE', *, *, #668, .T. ) ;
#964 = EDGE_LOOP ( 'NONE', ( #114, #317, #151, #630 ) ) ;
#965 =( LENGTH_UNIT ( ) NAMED_UNIT ( * ) SI_UNIT ( .MILLI., .METRE. ) );
#966 = DIRECTION ( 'NONE',  ( -0.000000000000000000, -0.000000000000000000, -1.000000000000000000 ) ) ;
#967 = DIRECTION ( 'NONE',  ( -0.000000000000000000, 1.000000000000000000, -0.000000000000000000 ) ) ;
#968 = VERTEX_POINT ( 'NONE', #602 ) ;
#969 = ORIENTED_EDGE ( 'NONE', *, *, #676, .T. ) ;
#970 = VECTOR ( 'NONE', #1085, 1000.000000000000000 ) ;
#971 = SURFACE_STYLE_FILL_AREA ( #955 ) ;
#972 = DIRECTION ( 'NONE',  ( -0.000000000000000000, 1.000000000000000000, -0.000000000000000000 ) ) ;
#973 = VECTOR ( 'NONE', #388, 1000.000000000000000 ) ;
#974 = DIRECTION ( 'NONE',  ( -1.000000000000000000, 0.000000000000000000, -0.000000000000000000 ) ) ;
#975 = EDGE_CURVE ( 'NONE', #1047, #126, #694, .T. ) ;
#976 = ORIENTED_EDGE ( 'NONE', *, *, #1212, .F. ) ;
#977 = ORIENTED_EDGE ( 'NONE', *, *, #570, .F. ) ;
#978 = LINE ( 'NONE', #115, #222 ) ;
#979 = CARTESIAN_POINT ( 'NONE',  ( 0.7499999999999998890, 0.04999999999999998196, -0.4000000000000000222 ) ) ;
#980 = EDGE_LOOP ( 'NONE', ( #952, #172, #789, #597 ) ) ;
#981 = VERTEX_POINT ( 'NONE', #1161 ) ;
#982 = DIRECTION ( 'NONE',  ( 0.000000000000000000, 1.000000000000000000, 0.000000000000000000 ) ) ;
#983 = DIRECTION ( 'NONE',  ( -1.000000000000000000, 0.000000000000000000, -0.000000000000000000 ) ) ;
#984 = FACE_OUTER_BOUND ( 'NONE', #1196, .T. ) ;
#985 = ADVANCED_FACE ( 'NONE', ( #774 ), #228, .F. ) ;
#986 = ORIENTED_EDGE ( 'NONE', *, *, #579, .T. ) ;
#987 = DIRECTION ( 'NONE',  ( 1.000000000000000000, 0.000000000000000000, -0.000000000000000000 ) ) ;
#988 = EDGE_CURVE ( 'NONE', #489, #578, #880, .T. ) ;
#989 = VECTOR ( 'NONE', #231, 1000.000000000000000 ) ;
#990 = PRESENTATION_LAYER_ASSIGNMENT (  '', '', ( #703 ) ) ;
#991 = DIRECTION ( 'NONE',  ( -0.000000000000000000, -0.000000000000000000, -1.000000000000000000 ) ) ;
#992 = VECTOR ( 'NONE', #743, 1000.000000000000000 ) ;
#993 = VERTEX_POINT ( 'NONE', #962 ) ;
#994 = FACE_OUTER_BOUND ( 'NONE', #615, .T. ) ;
#995 = CARTESIAN_POINT ( 'NONE',  ( 0.5499999999999999334, -9.112394538477730396E-18, 0.4000000000000000222 ) ) ;
#996 = SURFACE_STYLE_USAGE ( .BOTH. , #614 ) ;
#997 = EDGE_LOOP ( 'NONE', ( #590, #821, #1082, #1164 ) ) ;
#998 = PLANE ( 'NONE',  #592 ) ;
#999 = ADVANCED_FACE ( 'NONE', ( #678 ), #491, .T. ) ;
#1000 = DIRECTION ( 'NONE',  ( 0.000000000000000000, 1.000000000000000000, 0.000000000000000000 ) ) ;
#1001 = DIRECTION ( 'NONE',  ( 0.000000000000000000, -1.000000000000000000, -0.000000000000000000 ) ) ;
#1002 = ORIENTED_EDGE ( 'NONE', *, *, #1111, .F. ) ;
#1003 = CARTESIAN_POINT ( 'NONE',  ( 0.000000000000000000, 0.000000000000000000, 0.4000000000000000222 ) ) ;
#1004 = VECTOR ( 'NONE', #1124, 1000.000000000000000 ) ;
#1005 = DIRECTION ( 'NONE',  ( -0.000000000000000000, 1.000000000000000000, -0.000000000000000000 ) ) ;
#1006 = VECTOR ( 'NONE', #716, 1000.000000000000000 ) ;
#1007 = VECTOR ( 'NONE', #268, 1000.000000000000000 ) ;
#1008 = VERTEX_POINT ( 'NONE', #495 ) ;
#1009 = CARTESIAN_POINT ( 'NONE',  ( -0.6500000000000000222, 0.5500000000000000444, 0.4000000000000000222 ) ) ;
#1010 = LINE ( 'NONE', #651, #951 ) ;
#1011 =( LENGTH_UNIT ( ) NAMED_UNIT ( * ) SI_UNIT ( .MILLI., .METRE. ) );
#1012 = EDGE_CURVE ( 'NONE', #209, #405, #868, .T. ) ;
#1013 = PLANE ( 'NONE',  #928 ) ;
#1014 = ORIENTED_EDGE ( 'NONE', *, *, #756, .T. ) ;
#1015 = CARTESIAN_POINT ( 'NONE',  ( 0.7499999999999998890, 0.04999999999999998196, 0.4000000000000000222 ) ) ;
#1016 = DIRECTION ( 'NONE',  ( -1.000000000000000000, 0.000000000000000000, 0.000000000000000000 ) ) ;
#1017 = EDGE_LOOP ( 'NONE', ( #399, #1107, #986, #141, #62, #196, #670, #213 ) ) ;
#1018 = DIRECTION ( 'NONE',  ( 0.000000000000000000, 0.000000000000000000, 1.000000000000000000 ) ) ;
#1019 =( LENGTH_UNIT ( ) NAMED_UNIT ( * ) SI_UNIT ( .MILLI., .METRE. ) );
#1020 = VERTEX_POINT ( 'NONE', #19 ) ;
#1021 = PLANE ( 'NONE',  #137 ) ;
#1022 = EDGE_CURVE ( 'NONE', #52, #580, #224, .T. ) ;
#1023 = ORIENTED_EDGE ( 'NONE', *, *, #257, .F. ) ;
#1024 = LINE ( 'NONE', #432, #674 ) ;
#1025 = CARTESIAN_POINT ( 'NONE',  ( 0.6500000000000000222, 0.5000000000000000000, -0.4000000000000000222 ) ) ;
#1026 = EDGE_CURVE ( 'NONE', #320, #545, #978, .T. ) ;
#1027 = LINE ( 'NONE', #178, #577 ) ;
#1028 = AXIS2_PLACEMENT_3D ( 'NONE', #381, #728, #465 ) ;
#1029 = APPLICATION_PROTOCOL_DEFINITION ( 'draft international standard', 'automotive_design', 1998, #763 ) ;
#1030 = VERTEX_POINT ( 'NONE', #123 ) ;
#1031 = VECTOR ( 'NONE', #832, 1000.000000000000000 ) ;
#1032 = MANIFOLD_SOLID_BREP ( 'Boss-Extrude2', #784 ) ;
#1033 = VECTOR ( 'NONE', #561, 1000.000000000000000 ) ;
#1034 = FACE_OUTER_BOUND ( 'NONE', #964, .T. ) ;
#1035 = DIRECTION ( 'NONE',  ( 0.000000000000000000, 0.000000000000000000, 1.000000000000000000 ) ) ;
#1036 = ADVANCED_FACE ( 'NONE', ( #186 ), #711, .F. ) ;
#1037 = DIRECTION ( 'NONE',  ( 1.000000000000000000, -1.016439536705160653E-16, 0.000000000000000000 ) ) ;
#1038 = SURFACE_SIDE_STYLE ('',( #449 ) ) ;
#1039 = DIRECTION ( 'NONE',  ( -1.000000000000000000, 0.000000000000000000, -0.000000000000000000 ) ) ;
#1040 = ORIENTED_EDGE ( 'NONE', *, *, #911, .F. ) ;
#1041 = CARTESIAN_POINT ( 'NONE',  ( -0.6500000000000000222, 0.5000000000000000000, -0.1500000000000000222 ) ) ;
#1042 = LINE ( 'NONE', #390, #1004 ) ;
#1043 = CARTESIAN_POINT ( 'NONE',  ( -0.5499999999999999334, 0.5500000000000001554, 0.4000000000000000222 ) ) ;
#1044 = CARTESIAN_POINT ( 'NONE',  ( 0.5499999999999999334, 0.5500000000000000444, 0.4000000000000000222 ) ) ;
#1045 = EDGE_CURVE ( 'NONE', #1047, #1121, #149, .T. ) ;
#1046 = EDGE_LOOP ( 'NONE', ( #21, #558, #1096, #46 ) ) ;
#1047 = VERTEX_POINT ( 'NONE', #44 ) ;
#1048 = CARTESIAN_POINT ( 'NONE',  ( -0.5499999999999999334, 0.05000000000000000278, 0.4000000000000000222 ) ) ;
#1049 = CARTESIAN_POINT ( 'NONE',  ( -0.6500000000000000222, -0.001000000000000024307, 0.4000000000000000222 ) ) ;
#1050 = CARTESIAN_POINT ( 'NONE',  ( 0.6500000000000000222, 0.5000000000000000000, 0.4000000000000000222 ) ) ;
#1051 = ORIENTED_EDGE ( 'NONE', *, *, #1089, .T. ) ;
#1052 = COLOUR_RGB ( '',0.7960784313725489669, 0.8235294117647058432, 0.9372549019607843146 ) ;
#1053 = VERTEX_POINT ( 'NONE', #1130 ) ;
#1054 = AXIS2_PLACEMENT_3D ( 'NONE', #730, #521, #396 ) ;
#1055 = DIRECTION ( 'NONE',  ( 0.000000000000000000, 0.000000000000000000, 1.000000000000000000 ) ) ;
#1056 = DIRECTION ( 'NONE',  ( 1.000000000000000000, -0.000000000000000000, -0.000000000000000000 ) ) ;
#1057 = AXIS2_PLACEMENT_3D ( 'NONE', #1125, #1016, #270 ) ;
#1058 = ORIENTED_EDGE ( 'NONE', *, *, #841, .T. ) ;
#1059 = EDGE_CURVE ( 'NONE', #931, #209, #48, .T. ) ;
#1060 = ORIENTED_EDGE ( 'NONE', *, *, #299, .T. ) ;
#1061 = LINE ( 'NONE', #885, #200 ) ;
#1062 = CARTESIAN_POINT ( 'NONE',  ( 0.5499999999999999334, -0.001000000000000024307, -0.1500000000000000222 ) ) ;
#1063 = DIRECTION ( 'NONE',  ( 0.000000000000000000, -0.000000000000000000, -1.000000000000000000 ) ) ;
#1064 = ORIENTED_EDGE ( 'NONE', *, *, #1156, .F. ) ;
#1065 = ORIENTED_EDGE ( 'NONE', *, *, #64, .T. ) ;
#1066 = CARTESIAN_POINT ( 'NONE',  ( 0.7499999999999998890, 0.5000000000000000000, 0.4000000000000000222 ) ) ;
#1067 = ADVANCED_FACE ( 'NONE', ( #937 ), #81, .T. ) ;
#1068 = LINE ( 'NONE', #417, #823 ) ;
#1069 = ORIENTED_EDGE ( 'NONE', *, *, #903, .F. ) ;
#1070 = VERTEX_POINT ( 'NONE', #932 ) ;
#1071 = VECTOR ( 'NONE', #227, 1000.000000000000000 ) ;
#1072 = FILL_AREA_STYLE_COLOUR ( '', #1052 ) ;
#1073 = DIRECTION ( 'NONE',  ( 0.000000000000000000, -0.000000000000000000, -1.000000000000000000 ) ) ;
#1074 = VECTOR ( 'NONE', #948, 1000.000000000000000 ) ;
#1075 = EDGE_CURVE ( 'NONE', #734, #657, #278, .T. ) ;
#1076 = LINE ( 'NONE', #684, #873 ) ;
#1077 = EDGE_LOOP ( 'NONE', ( #147, #645, #663, #1040 ) ) ;
#1078 = PRODUCT_DEFINITION_SHAPE ( 'NONE', 'NONE',  #91 ) ;
#1079 = CARTESIAN_POINT ( 'NONE',  ( 0.6500000000000000222, 0.5000000000000000000, -0.4000000000000000222 ) ) ;
#1080 = CARTESIAN_POINT ( 'NONE',  ( 0.8000000000000000444, 0.5500000000000000444, 0.4000000000000000222 ) ) ;
#1081 = LINE ( 'NONE', #588, #202 ) ;
#1082 = ORIENTED_EDGE ( 'NONE', *, *, #309, .T. ) ;
#1083 = EDGE_CURVE ( 'NONE', #1151, #1186, #520, .T. ) ;
#1084 = ORIENTED_EDGE ( 'NONE', *, *, #165, .F. ) ;
#1085 = DIRECTION ( 'NONE',  ( 0.000000000000000000, -0.000000000000000000, -1.000000000000000000 ) ) ;
#1086 = FILL_AREA_STYLE_COLOUR ( '', #596 ) ;
#1087 = CARTESIAN_POINT ( 'NONE',  ( -0.5499999999999999334, 1.910147050873544083, -0.4000000000000000222 ) ) ;
#1088 = VERTEX_POINT ( 'NONE', #897 ) ;
#1089 = EDGE_CURVE ( 'NONE', #1129, #197, #1024, .T. ) ;
#1090 = CARTESIAN_POINT ( 'NONE',  ( -0.7499999999999998890, 0.04999999999999998196, -0.4000000000000000222 ) ) ;
#1091 = AXIS2_PLACEMENT_3D ( 'NONE', #1003, #154, #536 ) ;
#1092 = VECTOR ( 'NONE', #386, 1000.000000000000000 ) ;
#1093 = LINE ( 'NONE', #616, #283 ) ;
#1094 = PRESENTATION_LAYER_ASSIGNMENT (  '', '', ( #238 ) ) ;
#1095 = DIRECTION ( 'NONE',  ( -1.000000000000000000, 0.000000000000000000, 0.000000000000000000 ) ) ;
#1096 = ORIENTED_EDGE ( 'NONE', *, *, #144, .T. ) ;
#1097 = EDGE_LOOP ( 'NONE', ( #641, #1146, #681, #28 ) ) ;
#1098 = CARTESIAN_POINT ( 'NONE',  ( -0.7499999999999998890, 0.5000000000000000000, 0.4000000000000000222 ) ) ;
#1099 = EDGE_CURVE ( 'NONE', #1103, #657, #1093, .T. ) ;
#1100 = DIRECTION ( 'NONE',  ( 0.000000000000000000, 0.000000000000000000, -1.000000000000000000 ) ) ;
#1101 = CARTESIAN_POINT ( 'NONE',  ( 0.8000000000000000444, 0.000000000000000000, 0.4000000000000000222 ) ) ;
#1102 = UNCERTAINTY_MEASURE_WITH_UNIT (LENGTH_MEASURE( 1.000000000000000082E-05 ), #1019, 'distance_accuracy_value', 'NONE');
#1103 = VERTEX_POINT ( 'NONE', #337 ) ;
#1104 = FACE_OUTER_BOUND ( 'NONE', #245, .T. ) ;
#1105 = EDGE_CURVE ( 'NONE', #569, #1150, #472, .T. ) ;
#1106 = DIRECTION ( 'NONE',  ( -1.016439536705160653E-16, -1.000000000000000000, 0.000000000000000000 ) ) ;
#1107 = ORIENTED_EDGE ( 'NONE', *, *, #777, .F. ) ;
#1108 = DIRECTION ( 'NONE',  ( 0.000000000000000000, -1.000000000000000000, -0.000000000000000000 ) ) ;
#1109 = STYLED_ITEM ( 'NONE', ( #312 ), #211 ) ;
#1110 = LINE ( 'NONE', #704, #1006 ) ;
#1111 = EDGE_CURVE ( 'NONE', #578, #320, #436, .T. ) ;
#1112 = AXIS2_PLACEMENT_3D ( 'NONE', #229, #478, #690 ) ;
#1113 = AXIS2_PLACEMENT_3D ( 'NONE', #1048, #485, #629 ) ;
#1114 = LINE ( 'NONE', #1220, #310 ) ;
#1115 = CARTESIAN_POINT ( 'NONE',  ( -0.8000000000000000444, 0.5500000000000000444, 0.4000000000000000222 ) ) ;
#1116 = ORIENTED_EDGE ( 'NONE', *, *, #234, .T. ) ;
#1117 = CARTESIAN_POINT ( 'NONE',  ( -0.5499999999999999334, 0.05000000000000000278, -0.4000000000000000222 ) ) ;
#1118 = DIRECTION ( 'NONE',  ( 0.000000000000000000, 0.000000000000000000, 1.000000000000000000 ) ) ;
#1119 = DIRECTION ( 'NONE',  ( -1.000000000000000000, 1.016439536705160653E-16, 0.000000000000000000 ) ) ;
#1120 = EDGE_CURVE ( 'NONE', #569, #993, #528, .T. ) ;
#1121 = VERTEX_POINT ( 'NONE', #345 ) ;
#1122 = EDGE_CURVE ( 'NONE', #752, #959, #907, .T. ) ;
#1123 = LINE ( 'NONE', #266, #403 ) ;
#1124 = DIRECTION ( 'NONE',  ( -0.000000000000000000, 1.000000000000000000, -0.000000000000000000 ) ) ;
#1125 = CARTESIAN_POINT ( 'NONE',  ( -0.6500000000000000222, -0.001000000000000024307, -0.4000000000000000222 ) ) ;
#1126 = CARTESIAN_POINT ( 'NONE',  ( 0.000000000000000000, 0.000000000000000000, -0.4000000000000000222 ) ) ;
#1127 = CARTESIAN_POINT ( 'NONE',  ( 0.8000000000000000444, 0.000000000000000000, 0.4000000000000000222 ) ) ;
#1128 = EDGE_CURVE ( 'NONE', #126, #1030, #954, .T. ) ;
#1129 = VERTEX_POINT ( 'NONE', #104 ) ;
#1130 = CARTESIAN_POINT ( 'NONE',  ( 0.5499999999999999334, 0.05000000000000000278, -0.4000000000000000222 ) ) ;
#1131 = PLANE ( 'NONE',  #402 ) ;
#1132 = CARTESIAN_POINT ( 'NONE',  ( -0.5499999999999999334, 0.5500000000000000444, -0.1500000000000000222 ) ) ;
#1133 = CARTESIAN_POINT ( 'NONE',  ( 0.5499999999999999334, 0.05000000000000000278, 0.4000000000000000222 ) ) ;
#1134 = AXIS2_PLACEMENT_3D ( 'NONE', #37, #131, #59 ) ;
#1135 = AXIS2_PLACEMENT_3D ( 'NONE', #898, #1095, #444 ) ;
#1136 = VECTOR ( 'NONE', #13, 1000.000000000000000 ) ;
#1137 = FACE_OUTER_BOUND ( 'NONE', #146, .T. ) ;
#1138 = ORIENTED_EDGE ( 'NONE', *, *, #323, .F. ) ;
#1139 = COLOUR_RGB ( '',0.7960784313725489669, 0.8235294117647058432, 0.9372549019607843146 ) ;
#1140 = CARTESIAN_POINT ( 'NONE',  ( -0.5499999999999999334, 0.5500000000000001554, 0.4000000000000000222 ) ) ;
#1141 = EDGE_CURVE ( 'NONE', #219, #501, #664, .T. ) ;
#1142 = CARTESIAN_POINT ( 'NONE',  ( -0.8000000000000000444, 0.000000000000000000, 0.4000000000000000222 ) ) ;
#1143 = DIRECTION ( 'NONE',  ( 1.000000000000000000, 0.000000000000000000, 0.000000000000000000 ) ) ;
#1144 = ORIENTED_EDGE ( 'NONE', *, *, #500, .F. ) ;
#1145 = DIRECTION ( 'NONE',  ( -1.000000000000000000, -0.000000000000000000, -0.000000000000000000 ) ) ;
#1146 = ORIENTED_EDGE ( 'NONE', *, *, #689, .T. ) ;
#1147 = DIRECTION ( 'NONE',  ( 0.000000000000000000, 0.000000000000000000, 1.000000000000000000 ) ) ;
#1148 = CARTESIAN_POINT ( 'NONE',  ( -0.6500000000000000222, 0.5000000000000000000, 0.4000000000000000222 ) ) ;
#1149 = ADVANCED_FACE ( 'NONE', ( #394 ), #302, .F. ) ;
#1150 = VERTEX_POINT ( 'NONE', #748 ) ;
#1151 = VERTEX_POINT ( 'NONE', #760 ) ;
#1152 = CARTESIAN_POINT ( 'NONE',  ( -0.5499999999999999334, 1.910147050873544083, 0.4000000000000000222 ) ) ;
#1153 =( NAMED_UNIT ( * ) SI_UNIT ( $, .STERADIAN. ) SOLID_ANGLE_UNIT ( ) );
#1154 = LINE ( 'NONE', #1080, #122 ) ;
#1155 = CARTESIAN_POINT ( 'NONE',  ( -0.5499999999999999334, 0.05000000000000000278, -0.4000000000000000222 ) ) ;
#1156 = EDGE_CURVE ( 'NONE', #959, #772, #844, .T. ) ;
#1157 = VERTEX_POINT ( 'NONE', #755 ) ;
#1158 = VECTOR ( 'NONE', #876, 1000.000000000000000 ) ;
#1159 = EDGE_LOOP ( 'NONE', ( #108, #35, #904, #692 ) ) ;
#1160 = VECTOR ( 'NONE', #448, 1000.000000000000000 ) ;
#1161 = CARTESIAN_POINT ( 'NONE',  ( 0.5499999999999999334, 0.5000000000000000000, 0.1500000000000000222 ) ) ;
#1162 = VERTEX_POINT ( 'NONE', #1224 ) ;
#1163 = ADVANCED_FACE ( 'NONE', ( #288 ), #853, .F. ) ;
#1164 = ORIENTED_EDGE ( 'NONE', *, *, #1221, .F. ) ;
#1165 = ADVANCED_FACE ( 'NONE', ( #295 ), #658, .T. ) ;
#1166 = CARTESIAN_POINT ( 'NONE',  ( 0.000000000000000000, 0.000000000000000000, -0.4000000000000000222 ) ) ;
#1167 = EDGE_LOOP ( 'NONE', ( #371, #267, #685, #801, #655, #894, #680, #166 ) ) ;
#1168 = ORIENTED_EDGE ( 'NONE', *, *, #242, .F. ) ;
#1169 = DIRECTION ( 'NONE',  ( 0.000000000000000000, 0.000000000000000000, 1.000000000000000000 ) ) ;
#1170 = EDGE_LOOP ( 'NONE', ( #746, #638, #411, #765, #744, #778, #32, #633 ) ) ;
#1171 = CARTESIAN_POINT ( 'NONE',  ( 0.5499999999999999334, -9.112394538477730396E-18, 0.4000000000000000222 ) ) ;
#1172 = VECTOR ( 'NONE', #805, 1000.000000000000000 ) ;
#1173 = ADVANCED_FACE ( 'NONE', ( #860 ), #572, .F. ) ;
#1174 = AXIS2_PLACEMENT_3D ( 'NONE', #688, #216, #983 ) ;
#1175 = LINE ( 'NONE', #31, #609 ) ;
#1176 = EDGE_LOOP ( 'NONE', ( #430, #1138, #307, #413 ) ) ;
#1177 = ORIENTED_EDGE ( 'NONE', *, *, #234, .F. ) ;
#1178 = CARTESIAN_POINT ( 'NONE',  ( 0.6500000000000000222, -0.001000000000000024307, 0.4000000000000000222 ) ) ;
#1179 = SURFACE_SIDE_STYLE ('',( #901 ) ) ;
#1180 = CARTESIAN_POINT ( 'NONE',  ( 0.5499999999999999334, 0.05000000000000000278, -0.4000000000000000222 ) ) ;
#1181 = ORIENTED_EDGE ( 'NONE', *, *, #587, .F. ) ;
#1182 = CARTESIAN_POINT ( 'NONE',  ( -0.6500000000000000222, 0.5000000000000000000, -0.4000000000000000222 ) ) ;
#1183 = DIRECTION ( 'NONE',  ( -0.000000000000000000, 1.000000000000000000, -0.000000000000000000 ) ) ;
#1184 =( NAMED_UNIT ( * ) SI_UNIT ( $, .STERADIAN. ) SOLID_ANGLE_UNIT ( ) );
#1185 = ORIENTED_EDGE ( 'NONE', *, *, #683, .F. ) ;
#1186 = VERTEX_POINT ( 'NONE', #258 ) ;
#1187 = DIRECTION ( 'NONE',  ( 0.000000000000000000, 0.000000000000000000, -1.000000000000000000 ) ) ;
#1188 = VECTOR ( 'NONE', #967, 1000.000000000000000 ) ;
#1189 = DIRECTION ( 'NONE',  ( -0.000000000000000000, -0.000000000000000000, -1.000000000000000000 ) ) ;
#1190 = VECTOR ( 'NONE', #210, 1000.000000000000000 ) ;
#1191 = AXIS2_PLACEMENT_3D ( 'NONE', #831, #1200, #370 ) ;
#1192 = ORIENTED_EDGE ( 'NONE', *, *, #64, .F. ) ;
#1193 = DIRECTION ( 'NONE',  ( -1.000000000000000000, -0.000000000000000000, -0.000000000000000000 ) ) ;
#1194 = DIRECTION ( 'NONE',  ( -0.000000000000000000, 0.000000000000000000, -1.000000000000000000 ) ) ;
#1195 = APPLICATION_CONTEXT ( 'automotive_design' ) ;
#1196 = EDGE_LOOP ( 'NONE', ( #976, #1144, #840, #686 ) ) ;
#1197 = DIRECTION ( 'NONE',  ( -1.000000000000000000, -3.644957815391090926E-17, 0.000000000000000000 ) ) ;
#1198 = ADVANCED_FACE ( 'NONE', ( #355 ), #3, .F. ) ;
#1199 =( NAMED_UNIT ( * ) PLANE_ANGLE_UNIT ( ) SI_UNIT ( $, .RADIAN. ) );
#1200 = DIRECTION ( 'NONE',  ( 0.000000000000000000, 0.000000000000000000, 1.000000000000000000 ) ) ;
#1201 = CARTESIAN_POINT ( 'NONE',  ( 0.7499999999999998890, 0.04999999999999998196, -0.4000000000000000222 ) ) ;
#1202 = LINE ( 'NONE', #946, #119 ) ;
#1203 = FACE_OUTER_BOUND ( 'NONE', #340, .T. ) ;
#1204 = EDGE_CURVE ( 'NONE', #1150, #635, #847, .T. ) ;
#1205 = FACE_OUTER_BOUND ( 'NONE', #100, .T. ) ;
#1206 = VECTOR ( 'NONE', #922, 1000.000000000000000 ) ;
#1207 = VECTOR ( 'NONE', #966, 1000.000000000000000 ) ;
#1208 = CARTESIAN_POINT ( 'NONE',  ( 0.8000000000000000444, 0.000000000000000000, 0.4000000000000000222 ) ) ;
#1209 = ORIENTED_EDGE ( 'NONE', *, *, #363, .F. ) ;
#1210 =( LENGTH_UNIT ( ) NAMED_UNIT ( * ) SI_UNIT ( .MILLI., .METRE. ) );
#1211 = DIRECTION ( 'NONE',  ( -1.000000000000000000, 0.000000000000000000, 0.000000000000000000 ) ) ;
#1212 = EDGE_CURVE ( 'NONE', #825, #326, #1114, .T. ) ;
#1213 = CARTESIAN_POINT ( 'NONE',  ( -0.7499999999999998890, 0.5000000000000000000, -0.4000000000000000222 ) ) ;
#1214 = CARTESIAN_POINT ( 'NONE',  ( 0.7499999999999998890, 0.04999999999999998196, 0.4000000000000000222 ) ) ;
#1215 = ORIENTED_EDGE ( 'NONE', *, *, #762, .F. ) ;
#1216 = DIRECTION ( 'NONE',  ( 0.000000000000000000, 1.000000000000000000, 0.000000000000000000 ) ) ;
#1217 = DIRECTION ( 'NONE',  ( -0.000000000000000000, 1.000000000000000000, -0.000000000000000000 ) ) ;
#1218 = CARTESIAN_POINT ( 'NONE',  ( 0.6500000000000000222, 0.5000000000000000000, 0.1500000000000000222 ) ) ;
#1219 = DIRECTION ( 'NONE',  ( -0.000000000000000000, -1.000000000000000000, -0.000000000000000000 ) ) ;
#1220 = CARTESIAN_POINT ( 'NONE',  ( -0.7499999999999998890, 0.04999999999999998196, -0.4000000000000000222 ) ) ;
#1221 = EDGE_CURVE ( 'NONE', #126, #878, #364, .T. ) ;
#1222 = DIRECTION ( 'NONE',  ( -0.000000000000000000, 0.000000000000000000, 1.000000000000000000 ) ) ;
#1223 = ORIENTED_EDGE ( 'NONE', *, *, #247, .F. ) ;
#1224 = CARTESIAN_POINT ( 'NONE',  ( -0.6500000000000000222, 0.5500000000000000444, 0.4000000000000000222 ) ) ;
#1225 = PLANE ( 'NONE',  #1028 ) ;
ENDSEC;
END-ISO-10303-21;
