ISO-10303-21;
HEADER;
FILE_DESCRIPTION (( 'STEP AP214' ),
    '1' );
FILE_NAME ('usb_holder.STEP',
    '2025-09-19T07:17:02',
    ( '' ),
    ( '' ),
    'SwSTEP 2.0',
    'SolidWorks 2025',
    '' );
FILE_SCHEMA (( 'AUTOMOTIVE_DESIGN' ));
ENDSEC;

DATA;
#1 = ORIENTED_EDGE ( 'NONE', *, *, #192, .T. ) ;
#2 = AXIS2_PLACEMENT_3D ( 'NONE', #842, #24, #241 ) ;
#3 = EDGE_CURVE ( 'NONE', #850, #236, #313, .T. ) ;
#4 = ORIENTED_EDGE ( 'NONE', *, *, #137, .F. ) ;
#5 =( GEOMETRIC_REPRESENTATION_CONTEXT ( 3 ) GLOBAL_UNCERTAINTY_ASSIGNED_CONTEXT ( ( #179 ) ) GLOBAL_UNIT_ASSIGNED_CONTEXT ( ( #792, #172, #529 ) ) REPRESENTATION_CONTEXT ( 'NONE', 'WORKASPACE' ) );
#6 = VECTOR ( 'NONE', #872, 1000.000000000000000 ) ;
#7 = CARTESIAN_POINT ( 'NONE',  ( 18.00000000000000711, 31.99999999999998579, -5.000000000000000000 ) ) ;
#8 = CARTESIAN_POINT ( 'NONE',  ( -22.50000000000000711, -2.441287865698468357E-15, 8.000000000000005329 ) ) ;
#9 = DIRECTION ( 'NONE',  ( -0.000000000000000000, -0.000000000000000000, 1.000000000000000000 ) ) ;
#10 = EDGE_LOOP ( 'NONE', ( #405, #778, #19, #432 ) ) ;
#11 = ORIENTED_EDGE ( 'NONE', *, *, #316, .T. ) ;
#12 = EDGE_CURVE ( 'NONE', #335, #706, #95, .T. ) ;
#13 = DIRECTION ( 'NONE',  ( 1.000000000000000000, 0.000000000000000000, 0.000000000000000000 ) ) ;
#14 = EDGE_LOOP ( 'NONE', ( #523, #293, #228, #871 ) ) ;
#15 = DIRECTION ( 'NONE',  ( -0.000000000000000000, -0.000000000000000000, 1.000000000000000000 ) ) ;
#16 = DIRECTION ( 'NONE',  ( -0.000000000000000000, -0.000000000000000000, 1.000000000000000000 ) ) ;
#17 = VERTEX_POINT ( 'NONE', #384 ) ;
#18 = DIRECTION ( 'NONE',  ( -0.000000000000000000, -0.000000000000000000, -1.000000000000000000 ) ) ;
#19 = ORIENTED_EDGE ( 'NONE', *, *, #325, .T. ) ;
#20 = PRODUCT_CONTEXT ( 'NONE', #279, 'mechanical' ) ;
#21 = EDGE_CURVE ( 'NONE', #800, #256, #456, .T. ) ;
#22 = LINE ( 'NONE', #323, #471 ) ;
#23 = ORIENTED_EDGE ( 'NONE', *, *, #548, .T. ) ;
#24 = DIRECTION ( 'NONE',  ( -1.000000000000000000, -9.505334114941409750E-17, 0.000000000000000000 ) ) ;
#25 = EDGE_CURVE ( 'NONE', #135, #504, #452, .T. ) ;
#26 = ORIENTED_EDGE ( 'NONE', *, *, #555, .F. ) ;
#27 = ORIENTED_EDGE ( 'NONE', *, *, #187, .T. ) ;
#28 = PLANE ( 'NONE',  #640 ) ;
#29 = CARTESIAN_POINT ( 'NONE',  ( -18.00000000000000000, -32.00000000000000000, 0.000000000000000000 ) ) ;
#30 = ORIENTED_EDGE ( 'NONE', *, *, #461, .F. ) ;
#31 =( GEOMETRIC_REPRESENTATION_CONTEXT ( 3 ) GLOBAL_UNCERTAINTY_ASSIGNED_CONTEXT ( ( #886 ) ) GLOBAL_UNIT_ASSIGNED_CONTEXT ( ( #720, #710, #162 ) ) REPRESENTATION_CONTEXT ( 'NONE', 'WORKASPACE' ) );
#32 = VERTEX_POINT ( 'NONE', #109 ) ;
#33 = CIRCLE ( 'NONE', #107, 1.375000000000001332 ) ;
#34 = SHAPE_DEFINITION_REPRESENTATION ( #40, #67 ) ;
#35 = LINE ( 'NONE', #592, #243 ) ;
#36 = ORIENTED_EDGE ( 'NONE', *, *, #94, .F. ) ;
#37 = CARTESIAN_POINT ( 'NONE',  ( -22.50000000000000000, -36.50000000000000000, -5.000000000000000000 ) ) ;
#38 = EDGE_CURVE ( 'NONE', #17, #757, #860, .T. ) ;
#39 = CYLINDRICAL_SURFACE ( 'NONE', #467, 1.375000000000001332 ) ;
#40 = PRODUCT_DEFINITION_SHAPE ( 'NONE', 'NONE',  #200 ) ;
#41 = FACE_OUTER_BOUND ( 'NONE', #733, .T. ) ;
#42 = DIRECTION ( 'NONE',  ( -0.000000000000000000, -0.000000000000000000, 1.000000000000000000 ) ) ;
#43 = CARTESIAN_POINT ( 'NONE',  ( 19.37499999999997868, -32.00000000000000711, -5.000000000000000000 ) ) ;
#44 = DIRECTION ( 'NONE',  ( -1.000000000000000000, -0.000000000000000000, -0.000000000000000000 ) ) ;
#45 = VECTOR ( 'NONE', #775, 1000.000000000000000 ) ;
#46 = EDGE_CURVE ( 'NONE', #177, #706, #383, .T. ) ;
#47 = CARTESIAN_POINT ( 'NONE',  ( 22.49999999999999645, -32.50000000000000000, 0.000000000000000000 ) ) ;
#48 = VERTEX_POINT ( 'NONE', #527 ) ;
#49 = FACE_OUTER_BOUND ( 'NONE', #772, .T. ) ;
#50 = DIRECTION ( 'NONE',  ( 0.000000000000000000, 0.000000000000000000, 1.000000000000000000 ) ) ;
#51 = DIRECTION ( 'NONE',  ( 0.000000000000000000, 0.000000000000000000, 1.000000000000000000 ) ) ;
#52 = CARTESIAN_POINT ( 'NONE',  ( 19.37499999999997868, -32.00000000000000711, -5.000000000000000000 ) ) ;
#53 = DIRECTION ( 'NONE',  ( -1.000000000000000000, -0.000000000000000000, -0.000000000000000000 ) ) ;
#54 = LINE ( 'NONE', #820, #155 ) ;
#55 = FACE_BOUND ( 'NONE', #390, .T. ) ;
#56 = ORIENTED_EDGE ( 'NONE', *, *, #240, .T. ) ;
#57 = EDGE_CURVE ( 'NONE', #48, #833, #802, .T. ) ;
#58 = DIRECTION ( 'NONE',  ( -0.000000000000000000, -0.000000000000000000, 1.000000000000000000 ) ) ;
#59 = LINE ( 'NONE', #278, #444 ) ;
#60 = DIRECTION ( 'NONE',  ( 1.000000000000000000, 0.000000000000000000, -0.000000000000000000 ) ) ;
#61 = AXIS2_PLACEMENT_3D ( 'NONE', #201, #121, #823 ) ;
#62 = EDGE_LOOP ( 'NONE', ( #386, #183, #362, #766 ) ) ;
#63 = ADVANCED_FACE ( 'NONE', ( #275 ), #268, .F. ) ;
#64 = DIRECTION ( 'NONE',  ( 0.000000000000000000, -0.000000000000000000, -1.000000000000000000 ) ) ;
#65 = ORIENTED_EDGE ( 'NONE', *, *, #303, .F. ) ;
#66 = EDGE_LOOP ( 'NONE', ( #714, #186, #566, #835 ) ) ;
#67 = ADVANCED_BREP_SHAPE_REPRESENTATION ( 'usb_holder', ( #441, #359 ), #31 ) ;
#68 = ADVANCED_FACE ( 'NONE', ( #261 ), #125, .T. ) ;
#69 = PLANE ( 'NONE',  #736 ) ;
#70 = ORIENTED_EDGE ( 'NONE', *, *, #497, .T. ) ;
#71 = LINE ( 'NONE', #473, #377 ) ;
#72 = AXIS2_PLACEMENT_3D ( 'NONE', #145, #704, #422 ) ;
#73 = CARTESIAN_POINT ( 'NONE',  ( 22.49999999999999289, -6.854393908367676023E-16, 8.000000000000000000 ) ) ;
#74 = EDGE_CURVE ( 'NONE', #423, #561, #196, .T. ) ;
#75 = ORIENTED_EDGE ( 'NONE', *, *, #74, .F. ) ;
#76 = ORIENTED_EDGE ( 'NONE', *, *, #599, .F. ) ;
#77 = VECTOR ( 'NONE', #238, 1000.000000000000000 ) ;
#78 = CARTESIAN_POINT ( 'NONE',  ( -16.62499999999999645, 32.00000000000000000, -5.000000000000000000 ) ) ;
#79 = CARTESIAN_POINT ( 'NONE',  ( 29.71110255092797203, 0.000000000000000000, 8.000000000000000000 ) ) ;
#80 = ORIENTED_EDGE ( 'NONE', *, *, #525, .F. ) ;
#81 = ORIENTED_EDGE ( 'NONE', *, *, #817, .F. ) ;
#82 = CARTESIAN_POINT ( 'NONE',  ( 22.49999999999999645, -32.50000000000000000, 0.000000000000000000 ) ) ;
#83 = DIRECTION ( 'NONE',  ( -1.000000000000000000, 0.000000000000000000, 0.000000000000000000 ) ) ;
#84 = ORIENTED_EDGE ( 'NONE', *, *, #876, .T. ) ;
#85 = LINE ( 'NONE', #505, #245 ) ;
#86 = DIRECTION ( 'NONE',  ( 1.000000000000000000, 0.000000000000000000, 0.000000000000000000 ) ) ;
#87 = VERTEX_POINT ( 'NONE', #551 ) ;
#88 = EDGE_CURVE ( 'NONE', #593, #483, #753, .T. ) ;
#89 = ORIENTED_EDGE ( 'NONE', *, *, #742, .T. ) ;
#90 = CARTESIAN_POINT ( 'NONE',  ( 29.71110255092797203, 32.50000000000000000, 2.000000000000022649 ) ) ;
#91 = CARTESIAN_POINT ( 'NONE',  ( 22.49999999999999645, -34.49999999999999289, 4.000000000000000000 ) ) ;
#92 = VERTEX_POINT ( 'NONE', #604 ) ;
#93 = VECTOR ( 'NONE', #883, 1000.000000000000000 ) ;
#94 = EDGE_CURVE ( 'NONE', #856, #286, #391, .T. ) ;
#95 = CIRCLE ( 'NONE', #210, 1.375000000000001332 ) ;
#96 = ORIENTED_EDGE ( 'NONE', *, *, #813, .T. ) ;
#97 = VERTEX_POINT ( 'NONE', #404 ) ;
#98 = DIRECTION ( 'NONE',  ( 0.000000000000000000, 0.000000000000000000, -1.000000000000000000 ) ) ;
#99 = DIRECTION ( 'NONE',  ( 1.000000000000000000, 0.000000000000000000, -0.000000000000000000 ) ) ;
#100 = EDGE_CURVE ( 'NONE', #494, #317, #885, .T. ) ;
#101 = DIRECTION ( 'NONE',  ( -1.000000000000000000, -0.000000000000000000, -0.000000000000000000 ) ) ;
#102 = DIRECTION ( 'NONE',  ( 0.000000000000000000, -0.000000000000000000, -1.000000000000000000 ) ) ;
#103 = ORIENTED_EDGE ( 'NONE', *, *, #582, .T. ) ;
#104 = AXIS2_PLACEMENT_3D ( 'NONE', #884, #692, #191 ) ;
#105 = EDGE_LOOP ( 'NONE', ( #657, #840, #80, #460 ) ) ;
#106 = PRESENTATION_LAYER_ASSIGNMENT (  '', '', ( #289 ) ) ;
#107 = AXIS2_PLACEMENT_3D ( 'NONE', #853, #16, #371 ) ;
#108 = CARTESIAN_POINT ( 'NONE',  ( -22.50000000000001066, 32.50000000000000000, 4.000000000000022204 ) ) ;
#109 = CARTESIAN_POINT ( 'NONE',  ( 19.37499999999997868, -32.00000000000000711, 0.000000000000000000 ) ) ;
#110 = ORIENTED_EDGE ( 'NONE', *, *, #582, .F. ) ;
#111 = CARTESIAN_POINT ( 'NONE',  ( 22.49999999999998934, 32.50000000000000000, 0.000000000000000000 ) ) ;
#112 = CARTESIAN_POINT ( 'NONE',  ( 29.71110255092797203, -32.50000000000000000, 0.000000000000000000 ) ) ;
#113 = CARTESIAN_POINT ( 'NONE',  ( 22.49999999999998934, 32.50000000000000000, 2.000000000000022649 ) ) ;
#114 = LINE ( 'NONE', #398, #563 ) ;
#115 = EDGE_LOOP ( 'NONE', ( #230, #542 ) ) ;
#116 = ADVANCED_FACE ( 'NONE', ( #677 ), #607, .F. ) ;
#117 = VECTOR ( 'NONE', #53, 1000.000000000000000 ) ;
#118 = CARTESIAN_POINT ( 'NONE',  ( 22.49999999999999645, -36.50000000000000000, 2.000000000000000000 ) ) ;
#119 = COLOUR_RGB ( '',0.1019607843137254888, 0.1019607843137254888, 0.1019607843137254888 ) ;
#120 = CLOSED_SHELL ( 'NONE', ( #451, #567, #353, #143, #679, #606, #841, #165, #847, #745, #455, #387, #719, #762, #68, #667, #539, #116, #333, #284, #465, #260, #349, #235, #776, #124, #63, #403, #675, #518 ) ) ;
#121 = DIRECTION ( 'NONE',  ( 0.000000000000000000, 4.336808689942021187E-16, -1.000000000000000000 ) ) ;
#122 = DIRECTION ( 'NONE',  ( -1.000000000000000000, 0.000000000000000000, 0.000000000000000000 ) ) ;
#123 = DIRECTION ( 'NONE',  ( 0.000000000000000000, 0.000000000000000000, -1.000000000000000000 ) ) ;
#124 = ADVANCED_FACE ( 'NONE', ( #338, #55, #475, #622, #880 ), #756, .T. ) ;
#125 = PLANE ( 'NONE',  #61 ) ;
#126 = ORIENTED_EDGE ( 'NONE', *, *, #171, .F. ) ;
#127 = CARTESIAN_POINT ( 'NONE',  ( 22.49999999999998934, 32.50000000000000000, 0.000000000000000000 ) ) ;
#128 = DIRECTION ( 'NONE',  ( -1.000000000000000000, -0.000000000000000000, -0.000000000000000000 ) ) ;
#129 = CARTESIAN_POINT ( 'NONE',  ( 0.000000000000000000, 0.000000000000000000, 0.000000000000000000 ) ) ;
#130 = EDGE_LOOP ( 'NONE', ( #164, #489, #440, #464 ) ) ;
#131 = ORIENTED_EDGE ( 'NONE', *, *, #418, .T. ) ;
#132 = FACE_OUTER_BOUND ( 'NONE', #324, .T. ) ;
#133 = AXIS2_PLACEMENT_3D ( 'NONE', #118, #402, #50 ) ;
#134 = VECTOR ( 'NONE', #827, 1000.000000000000000 ) ;
#135 = VERTEX_POINT ( 'NONE', #617 ) ;
#136 = CARTESIAN_POINT ( 'NONE',  ( 0.000000000000000000, -36.50000000000000000, -5.000000000000000000 ) ) ;
#137 = EDGE_CURVE ( 'NONE', #149, #236, #538, .T. ) ;
#138 = FACE_OUTER_BOUND ( 'NONE', #347, .T. ) ;
#139 = CARTESIAN_POINT ( 'NONE',  ( -18.00000000000000000, -32.00000000000000000, -5.000000000000000000 ) ) ;
#140 = ORIENTED_EDGE ( 'NONE', *, *, #182, .F. ) ;
#141 = VERTEX_POINT ( 'NONE', #189 ) ;
#142 = CARTESIAN_POINT ( 'NONE',  ( -22.50000000000001421, 32.50000000000000000, 6.000000000000021316 ) ) ;
#143 = ADVANCED_FACE ( 'NONE', ( #41 ), #255, .F. ) ;
#144 = DIRECTION ( 'NONE',  ( -0.000000000000000000, -0.000000000000000000, 1.000000000000000000 ) ) ;
#145 = CARTESIAN_POINT ( 'NONE',  ( 29.71110255092797203, 32.50000000000000000, 0.000000000000000000 ) ) ;
#146 = VERTEX_POINT ( 'NONE', #181 ) ;
#147 = ORIENTED_EDGE ( 'NONE', *, *, #292, .T. ) ;
#148 = CARTESIAN_POINT ( 'NONE',  ( 22.49999999999998934, 34.49999999999999289, 4.000000000000022204 ) ) ;
#149 = VERTEX_POINT ( 'NONE', #459 ) ;
#150 = CARTESIAN_POINT ( 'NONE',  ( -16.62499999999999645, 32.00000000000000000, -5.000000000000000000 ) ) ;
#151 = DIRECTION ( 'NONE',  ( -0.000000000000000000, -0.000000000000000000, 1.000000000000000000 ) ) ;
#152 = VERTEX_POINT ( 'NONE', #43 ) ;
#153 = VECTOR ( 'NONE', #44, 1000.000000000000000 ) ;
#154 = ORIENTED_EDGE ( 'NONE', *, *, #192, .F. ) ;
#155 = VECTOR ( 'NONE', #42, 1000.000000000000000 ) ;
#156 = VECTOR ( 'NONE', #867, 1000.000000000000000 ) ;
#157 = CARTESIAN_POINT ( 'NONE',  ( 22.49999999999998934, 32.50000000000000000, 6.000000000000021316 ) ) ;
#158 = DIRECTION ( 'NONE',  ( -0.000000000000000000, -0.000000000000000000, 1.000000000000000000 ) ) ;
#159 = ORIENTED_EDGE ( 'NONE', *, *, #94, .T. ) ;
#160 = LINE ( 'NONE', #715, #852 ) ;
#161 = EDGE_LOOP ( 'NONE', ( #110, #864 ) ) ;
#162 =( NAMED_UNIT ( * ) SI_UNIT ( $, .STERADIAN. ) SOLID_ANGLE_UNIT ( ) );
#163 = DIRECTION ( 'NONE',  ( -9.505334114941409750E-17, 1.000000000000000000, 8.673617379884026597E-16 ) ) ;
#164 = ORIENTED_EDGE ( 'NONE', *, *, #497, .F. ) ;
#165 = ADVANCED_FACE ( 'NONE', ( #328 ), #877, .F. ) ;
#166 = DIRECTION ( 'NONE',  ( -1.000000000000000000, 0.000000000000000000, 0.000000000000000000 ) ) ;
#167 = VECTOR ( 'NONE', #15, 1000.000000000000000 ) ;
#168 = VECTOR ( 'NONE', #665, 1000.000000000000000 ) ;
#169 = VECTOR ( 'NONE', #503, 1000.000000000000000 ) ;
#170 = LINE ( 'NONE', #427, #521 ) ;
#171 = EDGE_CURVE ( 'NONE', #800, #221, #114, .T. ) ;
#172 =( NAMED_UNIT ( * ) PLANE_ANGLE_UNIT ( ) SI_UNIT ( $, .RADIAN. ) );
#173 = ORIENTED_EDGE ( 'NONE', *, *, #392, .T. ) ;
#174 = DIRECTION ( 'NONE',  ( 0.000000000000000000, 0.000000000000000000, 1.000000000000000000 ) ) ;
#175 = CARTESIAN_POINT ( 'NONE',  ( -19.37500000000000000, -32.00000000000000000, -5.000000000000000000 ) ) ;
#176 = FACE_OUTER_BOUND ( 'NONE', #618, .T. ) ;
#177 = VERTEX_POINT ( 'NONE', #612 ) ;
#178 = CIRCLE ( 'NONE', #875, 1.375000000000001332 ) ;
#179 = UNCERTAINTY_MEASURE_WITH_UNIT (LENGTH_MEASURE( 1.000000000000000082E-05 ), #792, 'distance_accuracy_value', 'NONE');
#180 = SURFACE_SIDE_STYLE ('',( #242 ) ) ;
#181 = CARTESIAN_POINT ( 'NONE',  ( -16.62499999999999645, 32.00000000000000000, 0.000000000000000000 ) ) ;
#182 = EDGE_CURVE ( 'NONE', #317, #135, #541, .T. ) ;
#183 = ORIENTED_EDGE ( 'NONE', *, *, #611, .T. ) ;
#184 = CARTESIAN_POINT ( 'NONE',  ( 22.49999999999998934, 32.50000000000000000, 8.000000000000019540 ) ) ;
#185 = DIRECTION ( 'NONE',  ( 0.000000000000000000, -1.000000000000000000, 0.000000000000000000 ) ) ;
#186 = ORIENTED_EDGE ( 'NONE', *, *, #687, .T. ) ;
#187 = EDGE_CURVE ( 'NONE', #504, #759, #224, .T. ) ;
#188 = CARTESIAN_POINT ( 'NONE',  ( -19.37500000000000000, 32.00000000000000000, 0.000000000000000000 ) ) ;
#189 = CARTESIAN_POINT ( 'NONE',  ( -22.50000000000000355, -32.50000000000000000, 8.000000000000000000 ) ) ;
#190 = VERTEX_POINT ( 'NONE', #647 ) ;
#191 = DIRECTION ( 'NONE',  ( -1.000000000000000000, 0.000000000000000000, 0.000000000000000000 ) ) ;
#192 = EDGE_CURVE ( 'NONE', #364, #256, #635, .T. ) ;
#193 = CARTESIAN_POINT ( 'NONE',  ( 29.71110255092797203, -32.50000000000000000, 4.000000000000000000 ) ) ;
#194 = CYLINDRICAL_SURFACE ( 'NONE', #288, 1.375000000000001332 ) ;
#195 = AXIS2_PLACEMENT_3D ( 'NONE', #29, #803, #319 ) ;
#196 = LINE ( 'NONE', #740, #684 ) ;
#197 = CARTESIAN_POINT ( 'NONE',  ( 17.99999999999997868, -32.00000000000000711, -5.000000000000000000 ) ) ;
#198 = PLANE ( 'NONE',  #457 ) ;
#199 = PLANE ( 'NONE',  #709 ) ;
#200 = PRODUCT_DEFINITION ( 'UNKNOWN', '', #595, #818 ) ;
#201 = CARTESIAN_POINT ( 'NONE',  ( 29.71110255092797203, -2.602085213965215769E-15, 6.000000000000007105 ) ) ;
#202 = ORIENTED_EDGE ( 'NONE', *, *, #171, .T. ) ;
#203 = CARTESIAN_POINT ( 'NONE',  ( -22.50000000000000355, -34.49999999999999289, 4.000000000000000000 ) ) ;
#204 = CARTESIAN_POINT ( 'NONE',  ( 29.71110255092797203, -32.50000000000000000, 8.000000000000000000 ) ) ;
#205 = EDGE_LOOP ( 'NONE', ( #571, #793, #84, #557 ) ) ;
#206 = ORIENTED_EDGE ( 'NONE', *, *, #869, .F. ) ;
#207 = FACE_OUTER_BOUND ( 'NONE', #844, .T. ) ;
#208 = AXIS2_PLACEMENT_3D ( 'NONE', #620, #887, #343 ) ;
#209 = PLANE ( 'NONE',  #487 ) ;
#210 = AXIS2_PLACEMENT_3D ( 'NONE', #737, #670, #166 ) ;
#211 = ORIENTED_EDGE ( 'NONE', *, *, #25, .T. ) ;
#212 = EDGE_CURVE ( 'NONE', #705, #92, #764, .T. ) ;
#213 = CARTESIAN_POINT ( 'NONE',  ( 22.49999999999999289, -6.854393908367676023E-16, 4.000000000000000000 ) ) ;
#214 = ORIENTED_EDGE ( 'NONE', *, *, #626, .F. ) ;
#215 = ORIENTED_EDGE ( 'NONE', *, *, #100, .T. ) ;
#216 = PLANE ( 'NONE',  #708 ) ;
#217 = CARTESIAN_POINT ( 'NONE',  ( -22.50000000000000711, 1.028159086255151157E-15, 8.000000000000000000 ) ) ;
#218 = ORIENTED_EDGE ( 'NONE', *, *, #447, .T. ) ;
#219 = CARTESIAN_POINT ( 'NONE',  ( 22.49999999999999645, -32.50000000000000711, 2.000000000000000000 ) ) ;
#220 = CARTESIAN_POINT ( 'NONE',  ( -22.50000000000000355, -34.49999999999999289, 6.000000000000000000 ) ) ;
#221 = VERTEX_POINT ( 'NONE', #203 ) ;
#222 = VERTEX_POINT ( 'NONE', #780 ) ;
#223 = DIRECTION ( 'NONE',  ( 0.000000000000000000, 0.000000000000000000, -1.000000000000000000 ) ) ;
#224 = LINE ( 'NONE', #136, #892 ) ;
#225 = CARTESIAN_POINT ( 'NONE',  ( -16.62499999999999645, -32.00000000000000000, 0.000000000000000000 ) ) ;
#226 = EDGE_CURVE ( 'NONE', #850, #705, #434, .T. ) ;
#227 = CARTESIAN_POINT ( 'NONE',  ( -18.00000000000000000, -32.00000000000000000, -5.000000000000000000 ) ) ;
#228 = ORIENTED_EDGE ( 'NONE', *, *, #528, .F. ) ;
#229 = VECTOR ( 'NONE', #472, 1000.000000000000000 ) ;
#230 = ORIENTED_EDGE ( 'NONE', *, *, #363, .F. ) ;
#231 = AXIS2_PLACEMENT_3D ( 'NONE', #139, #158, #86 ) ;
#232 = DIRECTION ( 'NONE',  ( -0.000000000000000000, -0.000000000000000000, 1.000000000000000000 ) ) ;
#233 = ORIENTED_EDGE ( 'NONE', *, *, #830, .F. ) ;
#234 = CARTESIAN_POINT ( 'NONE',  ( 22.49999999999999645, -34.49999999999999289, 0.000000000000000000 ) ) ;
#235 = ADVANCED_FACE ( 'NONE', ( #132 ), #758, .F. ) ;
#236 = VERTEX_POINT ( 'NONE', #142 ) ;
#237 = LINE ( 'NONE', #150, #168 ) ;
#238 = DIRECTION ( 'NONE',  ( -0.000000000000000000, -0.000000000000000000, 1.000000000000000000 ) ) ;
#239 = VERTEX_POINT ( 'NONE', #568 ) ;
#240 = EDGE_CURVE ( 'NONE', #141, #900, #774, .T. ) ;
#241 = DIRECTION ( 'NONE',  ( 9.505334114941409750E-17, -1.000000000000000000, 0.000000000000000000 ) ) ;
#242 = SURFACE_STYLE_FILL_AREA ( #734 ) ;
#243 = VECTOR ( 'NONE', #385, 1000.000000000000000 ) ;
#244 = EDGE_LOOP ( 'NONE', ( #560, #374, #264, #649 ) ) ;
#245 = VECTOR ( 'NONE', #305, 1000.000000000000000 ) ;
#246 = PLANE ( 'NONE',  #321 ) ;
#247 = VECTOR ( 'NONE', #345, 1000.000000000000000 ) ;
#248 = PRODUCT_RELATED_PRODUCT_CATEGORY ( 'part', '', ( #821 ) ) ;
#249 = CARTESIAN_POINT ( 'NONE',  ( 29.71110255092797203, -3.469446951953604722E-15, 3.999999999999993339 ) ) ;
#250 = DIRECTION ( 'NONE',  ( -0.000000000000000000, -0.000000000000000000, 1.000000000000000000 ) ) ;
#251 = LINE ( 'NONE', #666, #596 ) ;
#252 = ORIENTED_EDGE ( 'NONE', *, *, #479, .F. ) ;
#253 = CARTESIAN_POINT ( 'NONE',  ( 17.99999999999997868, -32.00000000000000711, -5.000000000000000000 ) ) ;
#254 = EDGE_CURVE ( 'NONE', #602, #146, #33, .T. ) ;
#255 = CYLINDRICAL_SURFACE ( 'NONE', #331, 1.375000000000001332 ) ;
#256 = VERTEX_POINT ( 'NONE', #652 ) ;
#257 = AXIS2_PLACEMENT_3D ( 'NONE', #519, #598, #868 ) ;
#258 = AXIS2_PLACEMENT_3D ( 'NONE', #812, #185, #744 ) ;
#259 = DIRECTION ( 'NONE',  ( 1.000000000000000000, 0.000000000000000000, -0.000000000000000000 ) ) ;
#260 = ADVANCED_FACE ( 'NONE', ( #302 ), #367, .F. ) ;
#261 = FACE_OUTER_BOUND ( 'NONE', #10, .T. ) ;
#262 = LINE ( 'NONE', #554, #546 ) ;
#263 = CARTESIAN_POINT ( 'NONE',  ( -22.50000000000001421, 32.50000000000000000, 0.000000000000000000 ) ) ;
#264 = ORIENTED_EDGE ( 'NONE', *, *, #804, .T. ) ;
#265 = EDGE_CURVE ( 'NONE', #239, #900, #564, .T. ) ;
#266 = PLANE ( 'NONE',  #696 ) ;
#267 = DIRECTION ( 'NONE',  ( -1.000000000000000000, -0.000000000000000000, -0.000000000000000000 ) ) ;
#268 = PLANE ( 'NONE',  #726 ) ;
#269 = EDGE_CURVE ( 'NONE', #572, #678, #648, .T. ) ;
#270 = CARTESIAN_POINT ( 'NONE',  ( 29.71110255092797203, -34.49999999999999289, 6.000000000000000000 ) ) ;
#271 = CARTESIAN_POINT ( 'NONE',  ( -18.00000000000000000, 32.00000000000000000, 0.000000000000000000 ) ) ;
#272 = FACE_OUTER_BOUND ( 'NONE', #870, .T. ) ;
#273 = AXIS2_PLACEMENT_3D ( 'NONE', #801, #174, #60 ) ;
#274 = AXIS2_PLACEMENT_3D ( 'NONE', #674, #688, #815 ) ;
#275 = FACE_OUTER_BOUND ( 'NONE', #161, .T. ) ;
#276 = ORIENTED_EDGE ( 'NONE', *, *, #325, .F. ) ;
#277 = DIRECTION ( 'NONE',  ( 0.000000000000000000, -1.000000000000000000, 0.000000000000000000 ) ) ;
#278 = CARTESIAN_POINT ( 'NONE',  ( 29.71110255092797203, 32.50000000000000000, 8.000000000000019540 ) ) ;
#279 = APPLICATION_CONTEXT ( 'automotive_design' ) ;
#280 = DIRECTION ( 'NONE',  ( -0.000000000000000000, -0.000000000000000000, 1.000000000000000000 ) ) ;
#281 = ORIENTED_EDGE ( 'NONE', *, *, #859, .T. ) ;
#282 = ORIENTED_EDGE ( 'NONE', *, *, #57, .T. ) ;
#283 = LINE ( 'NONE', #306, #415 ) ;
#284 = ADVANCED_FACE ( 'NONE', ( #299 ), #69, .F. ) ;
#285 = ORIENTED_EDGE ( 'NONE', *, *, #447, .F. ) ;
#286 = VERTEX_POINT ( 'NONE', #220 ) ;
#287 = DIRECTION ( 'NONE',  ( -9.505334114941409750E-17, 1.000000000000000000, 4.336808689942021187E-16 ) ) ;
#288 = AXIS2_PLACEMENT_3D ( 'NONE', #629, #327, #895 ) ;
#289 = STYLED_ITEM ( 'NONE', ( #600 ), #441 ) ;
#290 = PLANE ( 'NONE',  #72 ) ;
#291 = EDGE_LOOP ( 'NONE', ( #749, #417, #140, #585, #535, #352, #565, #634, #70, #901, #664, #378, #368, #375, #729, #11 ) ) ;
#292 = EDGE_CURVE ( 'NONE', #97, #177, #346, .T. ) ;
#293 = ORIENTED_EDGE ( 'NONE', *, *, #461, .T. ) ;
#294 = DIRECTION ( 'NONE',  ( -0.000000000000000000, -0.000000000000000000, 1.000000000000000000 ) ) ;
#295 = EDGE_LOOP ( 'NONE', ( #799, #173 ) ) ;
#296 = ORIENTED_EDGE ( 'NONE', *, *, #479, .T. ) ;
#297 = DIRECTION ( 'NONE',  ( 0.000000000000000000, 0.000000000000000000, 1.000000000000000000 ) ) ;
#298 = CARTESIAN_POINT ( 'NONE',  ( 0.000000000000000000, 0.000000000000000000, 0.000000000000000000 ) ) ;
#299 = FACE_OUTER_BOUND ( 'NONE', #623, .T. ) ;
#300 = ORIENTED_EDGE ( 'NONE', *, *, #728, .F. ) ;
#301 = CARTESIAN_POINT ( 'NONE',  ( 19.37500000000000711, 31.99999999999998579, 0.000000000000000000 ) ) ;
#302 = FACE_OUTER_BOUND ( 'NONE', #62, .T. ) ;
#303 = EDGE_CURVE ( 'NONE', #511, #431, #643, .T. ) ;
#304 = ORIENTED_EDGE ( 'NONE', *, *, #619, .F. ) ;
#305 = DIRECTION ( 'NONE',  ( 1.000000000000000000, -0.000000000000000000, 0.000000000000000000 ) ) ;
#306 = CARTESIAN_POINT ( 'NONE',  ( -22.50000000000000711, -1.573926127710064612E-15, 6.000000000000007105 ) ) ;
#307 = CIRCLE ( 'NONE', #470, 1.375000000000001332 ) ;
#308 = EDGE_LOOP ( 'NONE', ( #786, #609, #789, #493 ) ) ;
#309 = VECTOR ( 'NONE', #903, 1000.000000000000000 ) ;
#310 = APPLICATION_PROTOCOL_DEFINITION ( 'draft international standard', 'automotive_design', 1998, #873 ) ;
#311 = PLANE ( 'NONE',  #322 ) ;
#312 = ORIENTED_EDGE ( 'NONE', *, *, #783, .F. ) ;
#313 = LINE ( 'NONE', #663, #401 ) ;
#314 = FACE_OUTER_BOUND ( 'NONE', #291, .T. ) ;
#315 = DIRECTION ( 'NONE',  ( -1.000000000000000000, -0.000000000000000000, -0.000000000000000000 ) ) ;
#316 = EDGE_CURVE ( 'NONE', #593, #239, #429, .T. ) ;
#317 = VERTEX_POINT ( 'NONE', #700 ) ;
#318 = DIRECTION ( 'NONE',  ( 0.000000000000000000, 0.000000000000000000, -1.000000000000000000 ) ) ;
#319 = DIRECTION ( 'NONE',  ( -1.000000000000000000, 0.000000000000000000, 0.000000000000000000 ) ) ;
#320 = DIRECTION ( 'NONE',  ( 0.000000000000000000, 0.000000000000000000, -1.000000000000000000 ) ) ;
#321 = AXIS2_PLACEMENT_3D ( 'NONE', #791, #453, #102 ) ;
#322 = AXIS2_PLACEMENT_3D ( 'NONE', #249, #725, #587 ) ;
#323 = CARTESIAN_POINT ( 'NONE',  ( 22.49999999999998934, 36.50000000000000000, 2.000000000000000000 ) ) ;
#324 = EDGE_LOOP ( 'NONE', ( #30, #147, #556, #351 ) ) ;
#325 = EDGE_CURVE ( 'NONE', #236, #92, #283, .T. ) ;
#326 = DIRECTION ( 'NONE',  ( 0.000000000000000000, -0.000000000000000000, -1.000000000000000000 ) ) ;
#327 = DIRECTION ( 'NONE',  ( -0.000000000000000000, -0.000000000000000000, 1.000000000000000000 ) ) ;
#328 = FACE_OUTER_BOUND ( 'NONE', #638, .T. ) ;
#329 = ORIENTED_EDGE ( 'NONE', *, *, #588, .F. ) ;
#330 = CIRCLE ( 'NONE', #399, 1.375000000000001332 ) ;
#331 = AXIS2_PLACEMENT_3D ( 'NONE', #533, #394, #810 ) ;
#332 = LINE ( 'NONE', #540, #581 ) ;
#333 = ADVANCED_FACE ( 'NONE', ( #439 ), #209, .T. ) ;
#334 = DIRECTION ( 'NONE',  ( -1.425800117241211462E-16, 1.000000000000000000, 8.673617379884027583E-16 ) ) ;
#335 = VERTEX_POINT ( 'NONE', #765 ) ;
#336 = DIRECTION ( 'NONE',  ( 1.000000000000000000, 0.000000000000000000, -0.000000000000000000 ) ) ;
#337 = FACE_OUTER_BOUND ( 'NONE', #355, .T. ) ;
#338 = FACE_OUTER_BOUND ( 'NONE', #631, .T. ) ;
#339 = FACE_OUTER_BOUND ( 'NONE', #469, .T. ) ;
#340 = CARTESIAN_POINT ( 'NONE',  ( -22.50000000000001066, 34.49999999999999289, 4.000000000000022204 ) ) ;
#341 = DIRECTION ( 'NONE',  ( 1.425800117241211462E-16, -1.000000000000000000, 0.000000000000000000 ) ) ;
#342 = ORIENTED_EDGE ( 'NONE', *, *, #619, .T. ) ;
#343 = DIRECTION ( 'NONE',  ( 0.000000000000000000, 1.000000000000000000, 4.336808689942021187E-16 ) ) ;
#344 = DIRECTION ( 'NONE',  ( 1.000000000000000000, 0.000000000000000000, 0.000000000000000000 ) ) ;
#345 = DIRECTION ( 'NONE',  ( -0.000000000000000000, -0.000000000000000000, -1.000000000000000000 ) ) ;
#346 = CIRCLE ( 'NONE', #854, 1.375000000000001332 ) ;
#347 = EDGE_LOOP ( 'NONE', ( #416, #96, #784, #851 ) ) ;
#348 = ORIENTED_EDGE ( 'NONE', *, *, #292, .F. ) ;
#349 = ADVANCED_FACE ( 'NONE', ( #575 ), #419, .F. ) ;
#350 = DIRECTION ( 'NONE',  ( 1.000000000000000000, 0.000000000000000000, -0.000000000000000000 ) ) ;
#351 = ORIENTED_EDGE ( 'NONE', *, *, #12, .F. ) ;
#352 = ORIENTED_EDGE ( 'NONE', *, *, #226, .T. ) ;
#353 = ADVANCED_FACE ( 'NONE', ( #849 ), #500, .F. ) ;
#354 = DIRECTION ( 'NONE',  ( -1.425800117241211462E-16, 1.000000000000000000, 0.000000000000000000 ) ) ;
#355 = EDGE_LOOP ( 'NONE', ( #65, #805, #202, #718 ) ) ;
#356 = EDGE_LOOP ( 'NONE', ( #218, #281 ) ) ;
#357 = MECHANICAL_DESIGN_GEOMETRIC_PRESENTATION_REPRESENTATION (  '', ( #289 ), #5 ) ;
#358 = DIRECTION ( 'NONE',  ( 0.000000000000000000, 0.000000000000000000, -1.000000000000000000 ) ) ;
#359 = AXIS2_PLACEMENT_3D ( 'NONE', #298, #372, #654 ) ;
#360 = CIRCLE ( 'NONE', #428, 1.375000000000001332 ) ;
#361 = CARTESIAN_POINT ( 'NONE',  ( -18.00000000000000000, 32.00000000000000000, -5.000000000000000000 ) ) ;
#362 = ORIENTED_EDGE ( 'NONE', *, *, #555, .T. ) ;
#363 = EDGE_CURVE ( 'NONE', #701, #48, #614, .T. ) ;
#364 = VERTEX_POINT ( 'NONE', #436 ) ;
#365 = LINE ( 'NONE', #270, #485 ) ;
#366 = LINE ( 'NONE', #723, #414 ) ;
#367 = CYLINDRICAL_SURFACE ( 'NONE', #231, 1.375000000000001332 ) ;
#368 = ORIENTED_EDGE ( 'NONE', *, *, #370, .F. ) ;
#369 = ORIENTED_EDGE ( 'NONE', *, *, #265, .F. ) ;
#370 = EDGE_CURVE ( 'NONE', #87, #431, #855, .T. ) ;
#371 = DIRECTION ( 'NONE',  ( -1.000000000000000000, 0.000000000000000000, 0.000000000000000000 ) ) ;
#372 = DIRECTION ( 'NONE',  ( 0.000000000000000000, 0.000000000000000000, 1.000000000000000000 ) ) ;
#373 = DIRECTION ( 'NONE',  ( -1.000000000000000000, -0.000000000000000000, -0.000000000000000000 ) ) ;
#374 = ORIENTED_EDGE ( 'NONE', *, *, #370, .T. ) ;
#375 = ORIENTED_EDGE ( 'NONE', *, *, #491, .F. ) ;
#376 = DIRECTION ( 'NONE',  ( 1.000000000000000000, 0.000000000000000000, 0.000000000000000000 ) ) ;
#377 = VECTOR ( 'NONE', #358, 1000.000000000000000 ) ;
#378 = ORIENTED_EDGE ( 'NONE', *, *, #303, .T. ) ;
#379 = VECTOR ( 'NONE', #731, 1000.000000000000000 ) ;
#380 = CARTESIAN_POINT ( 'NONE',  ( -19.37500000000000000, 32.00000000000000000, -5.000000000000000000 ) ) ;
#381 = EDGE_CURVE ( 'NONE', #759, #222, #488, .T. ) ;
#382 = PLANE ( 'NONE',  #273 ) ;
#383 = LINE ( 'NONE', #668, #584 ) ;
#384 = CARTESIAN_POINT ( 'NONE',  ( 16.62499999999997513, -32.00000000000000711, -5.000000000000000000 ) ) ;
#385 = DIRECTION ( 'NONE',  ( -1.000000000000000000, -0.000000000000000000, -0.000000000000000000 ) ) ;
#386 = ORIENTED_EDGE ( 'NONE', *, *, #57, .F. ) ;
#387 = ADVANCED_FACE ( 'NONE', ( #711 ), #290, .T. ) ;
#388 = VECTOR ( 'NONE', #267, 1000.000000000000000 ) ;
#389 = VECTOR ( 'NONE', #341, 1000.000000000000000 ) ;
#390 = EDGE_LOOP ( 'NONE', ( #771, #348 ) ) ;
#391 = LINE ( 'NONE', #408, #389 ) ;
#392 = EDGE_CURVE ( 'NONE', #831, #702, #360, .T. ) ;
#393 = PLANE ( 'NONE',  #781 ) ;
#394 = DIRECTION ( 'NONE',  ( -0.000000000000000000, -0.000000000000000000, 1.000000000000000000 ) ) ;
#395 = ORIENTED_EDGE ( 'NONE', *, *, #396, .T. ) ;
#396 = EDGE_CURVE ( 'NONE', #483, #856, #251, .T. ) ;
#397 = CARTESIAN_POINT ( 'NONE',  ( 29.71110255092797203, 36.50000000000000000, 8.000000000000021316 ) ) ;
#398 = CARTESIAN_POINT ( 'NONE',  ( -22.50000000000000711, 1.028159086255151157E-15, 4.000000000000000000 ) ) ;
#399 = AXIS2_PLACEMENT_3D ( 'NONE', #271, #144, #410 ) ;
#400 = VECTOR ( 'NONE', #550, 1000.000000000000000 ) ;
#401 = VECTOR ( 'NONE', #101, 1000.000000000000000 ) ;
#402 = DIRECTION ( 'NONE',  ( 0.000000000000000000, 1.000000000000000000, -0.000000000000000000 ) ) ;
#403 = ADVANCED_FACE ( 'NONE', ( #807 ), #603, .F. ) ;
#404 = CARTESIAN_POINT ( 'NONE',  ( 16.62500000000000355, 31.99999999999998579, -5.000000000000000000 ) ) ;
#405 = ORIENTED_EDGE ( 'NONE', *, *, #226, .F. ) ;
#406 = CARTESIAN_POINT ( 'NONE',  ( 22.49999999999998934, 34.49999999999999289, 6.000000000000022204 ) ) ;
#407 = DIRECTION ( 'NONE',  ( 0.000000000000000000, 0.000000000000000000, 1.000000000000000000 ) ) ;
#408 = CARTESIAN_POINT ( 'NONE',  ( -22.50000000000000711, 1.028159086255151157E-15, 6.000000000000000000 ) ) ;
#409 = CARTESIAN_POINT ( 'NONE',  ( -18.00000000000000000, 32.00000000000000000, -5.000000000000000000 ) ) ;
#410 = DIRECTION ( 'NONE',  ( -1.000000000000000000, 0.000000000000000000, 0.000000000000000000 ) ) ;
#411 = CARTESIAN_POINT ( 'NONE',  ( 17.99999999999997868, -32.00000000000000711, 0.000000000000000000 ) ) ;
#412 = ORIENTED_EDGE ( 'NONE', *, *, #418, .F. ) ;
#413 = ORIENTED_EDGE ( 'NONE', *, *, #728, .T. ) ;
#414 = VECTOR ( 'NONE', #18, 1000.000000000000000 ) ;
#415 = VECTOR ( 'NONE', #636, 1000.000000000000000 ) ;
#416 = ORIENTED_EDGE ( 'NONE', *, *, #658, .F. ) ;
#417 = ORIENTED_EDGE ( 'NONE', *, *, #25, .F. ) ;
#418 = EDGE_CURVE ( 'NONE', #678, #561, #35, .T. ) ;
#419 = CYLINDRICAL_SURFACE ( 'NONE', #878, 1.375000000000001332 ) ;
#420 = ORIENTED_EDGE ( 'NONE', *, *, #396, .F. ) ;
#421 = CYLINDRICAL_SURFACE ( 'NONE', #761, 1.375000000000001332 ) ;
#422 = DIRECTION ( 'NONE',  ( 0.000000000000000000, -0.000000000000000000, -1.000000000000000000 ) ) ;
#423 = VERTEX_POINT ( 'NONE', #108 ) ;
#424 = EDGE_LOOP ( 'NONE', ( #214, #896, #131, #75 ) ) ;
#425 = DIRECTION ( 'NONE',  ( -1.000000000000000000, -0.000000000000000000, -0.000000000000000000 ) ) ;
#426 = ORIENTED_EDGE ( 'NONE', *, *, #363, .T. ) ;
#427 = CARTESIAN_POINT ( 'NONE',  ( -22.50000000000000355, -36.50000000000000000, 2.000000000000000000 ) ) ;
#428 = AXIS2_PLACEMENT_3D ( 'NONE', #361, #294, #570 ) ;
#429 = LINE ( 'NONE', #73, #809 ) ;
#430 = EDGE_CURVE ( 'NONE', #845, #589, #22, .T. ) ;
#431 = VERTEX_POINT ( 'NONE', #91 ) ;
#432 = ORIENTED_EDGE ( 'NONE', *, *, #212, .F. ) ;
#433 = DIRECTION ( 'NONE',  ( 1.000000000000000000, 0.000000000000000000, -0.000000000000000000 ) ) ;
#434 = LINE ( 'NONE', #496, #697 ) ;
#435 = CARTESIAN_POINT ( 'NONE',  ( -22.50000000000000355, -32.50000000000000000, 6.000000000000000000 ) ) ;
#436 = CARTESIAN_POINT ( 'NONE',  ( -22.50000000000001421, 32.50000000000000000, 2.000000000000000000 ) ) ;
#437 = EDGE_LOOP ( 'NONE', ( #413, #342 ) ) ;
#438 = APPLICATION_PROTOCOL_DEFINITION ( 'draft international standard', 'automotive_design', 1998, #279 ) ;
#439 = FACE_OUTER_BOUND ( 'NONE', #862, .T. ) ;
#440 = ORIENTED_EDGE ( 'NONE', *, *, #599, .T. ) ;
#441 = MANIFOLD_SOLID_BREP ( 'Boss-Extrude3', #120 ) ;
#442 = DIRECTION ( 'NONE',  ( -1.000000000000000000, -0.000000000000000000, -0.000000000000000000 ) ) ;
#443 = FACE_OUTER_BOUND ( 'NONE', #698, .T. ) ;
#444 = VECTOR ( 'NONE', #512, 1000.000000000000000 ) ;
#445 = CARTESIAN_POINT ( 'NONE',  ( 16.62499999999997513, -32.00000000000000711, -5.000000000000000000 ) ) ;
#446 = VECTOR ( 'NONE', #463, 1000.000000000000000 ) ;
#447 = EDGE_CURVE ( 'NONE', #882, #833, #506, .T. ) ;
#448 = CARTESIAN_POINT ( 'NONE',  ( -22.50000000000000000, -36.50000000000000000, 8.000000000000000000 ) ) ;
#449 = ORIENTED_EDGE ( 'NONE', *, *, #212, .T. ) ;
#450 = SURFACE_STYLE_USAGE ( .BOTH. , #180 ) ;
#451 = ADVANCED_FACE ( 'NONE', ( #176 ), #39, .F. ) ;
#452 = LINE ( 'NONE', #597, #156 ) ;
#453 = DIRECTION ( 'NONE',  ( 0.000000000000000000, -1.000000000000000000, 0.000000000000000000 ) ) ;
#454 = ORIENTED_EDGE ( 'NONE', *, *, #381, .T. ) ;
#455 = ADVANCED_FACE ( 'NONE', ( #866 ), #311, .F. ) ;
#456 = LINE ( 'NONE', #590, #798 ) ;
#457 = AXIS2_PLACEMENT_3D ( 'NONE', #769, #549, #64 ) ;
#458 = FILL_AREA_STYLE_COLOUR ( '', #119 ) ;
#459 = CARTESIAN_POINT ( 'NONE',  ( -22.50000000000001066, 32.50000000000000000, 8.000000000000019540 ) ) ;
#460 = ORIENTED_EDGE ( 'NONE', *, *, #265, .T. ) ;
#461 = EDGE_CURVE ( 'NONE', #97, #335, #526, .T. ) ;
#462 = CARTESIAN_POINT ( 'NONE',  ( 22.49999999999998934, 32.50000000000000000, 4.000000000000022204 ) ) ;
#463 = DIRECTION ( 'NONE',  ( -9.505334114941409750E-17, 1.000000000000000000, 4.336808689942021187E-16 ) ) ;
#464 = ORIENTED_EDGE ( 'NONE', *, *, #834, .F. ) ;
#465 = ADVANCED_FACE ( 'NONE', ( #443 ), #382, .F. ) ;
#466 = FACE_OUTER_BOUND ( 'NONE', #105, .T. ) ;
#467 = AXIS2_PLACEMENT_3D ( 'NONE', #253, #532, #376 ) ;
#468 = CARTESIAN_POINT ( 'NONE',  ( 22.49999999999998934, 36.50000000000000000, 2.000000000000000000 ) ) ;
#469 = EDGE_LOOP ( 'NONE', ( #741, #215, #481, #633 ) ) ;
#470 = AXIS2_PLACEMENT_3D ( 'NONE', #409, #58, #578 ) ;
#471 = VECTOR ( 'NONE', #516, 1000.000000000000000 ) ;
#472 = DIRECTION ( 'NONE',  ( 0.000000000000000000, 0.000000000000000000, -1.000000000000000000 ) ) ;
#473 = CARTESIAN_POINT ( 'NONE',  ( 22.49999999999998934, 34.49999999999999289, 0.000000000000000000 ) ) ;
#474 = DIRECTION ( 'NONE',  ( -0.000000000000000000, -0.000000000000000000, 1.000000000000000000 ) ) ;
#475 = FACE_BOUND ( 'NONE', #295, .T. ) ;
#476 = DIRECTION ( 'NONE',  ( -1.000000000000000000, 0.000000000000000000, 0.000000000000000000 ) ) ;
#477 = DIRECTION ( 'NONE',  ( -1.425800117241211462E-16, 1.000000000000000000, 4.336808689942021187E-16 ) ) ;
#478 = LINE ( 'NONE', #610, #797 ) ;
#479 = EDGE_CURVE ( 'NONE', #593, #141, #739, .T. ) ;
#480 = DIRECTION ( 'NONE',  ( 1.000000000000000000, 0.000000000000000000, -0.000000000000000000 ) ) ;
#481 = ORIENTED_EDGE ( 'NONE', *, *, #588, .T. ) ;
#482 = EDGE_CURVE ( 'NONE', #757, #32, #824, .T. ) ;
#483 = VERTEX_POINT ( 'NONE', #693 ) ;
#484 = CARTESIAN_POINT ( 'NONE',  ( -22.50000000000001421, 36.50000000000000000, 2.000000000000000000 ) ) ;
#485 = VECTOR ( 'NONE', #425, 1000.000000000000000 ) ;
#486 = CARTESIAN_POINT ( 'NONE',  ( 17.99999999999997868, -32.00000000000000711, -5.000000000000000000 ) ) ;
#487 = AXIS2_PLACEMENT_3D ( 'NONE', #79, #507, #350 ) ;
#488 = LINE ( 'NONE', #832, #594 ) ;
#489 = ORIENTED_EDGE ( 'NONE', *, *, #626, .T. ) ;
#490 = ORIENTED_EDGE ( 'NONE', *, *, #491, .T. ) ;
#491 = EDGE_CURVE ( 'NONE', #483, #87, #478, .T. ) ;
#492 = DIRECTION ( 'NONE',  ( 1.000000000000000000, 0.000000000000000000, 0.000000000000000000 ) ) ;
#493 = ORIENTED_EDGE ( 'NONE', *, *, #21, .F. ) ;
#494 = VERTEX_POINT ( 'NONE', #184 ) ;
#495 = CARTESIAN_POINT ( 'NONE',  ( 0.000000000000000000, 0.000000000000000000, 0.000000000000000000 ) ) ;
#496 = CARTESIAN_POINT ( 'NONE',  ( 22.49999999999999289, -3.287524604801983076E-15, 6.000000000000007105 ) ) ;
#497 = EDGE_CURVE ( 'NONE', #572, #589, #751, .T. ) ;
#498 = ORIENTED_EDGE ( 'NONE', *, *, #254, .F. ) ;
#499 = CARTESIAN_POINT ( 'NONE',  ( -18.00000000000000000, -32.00000000000000000, 0.000000000000000000 ) ) ;
#500 = CYLINDRICAL_SURFACE ( 'NONE', #655, 1.375000000000001332 ) ;
#501 = ORIENTED_EDGE ( 'NONE', *, *, #38, .F. ) ;
#502 = EDGE_LOOP ( 'NONE', ( #312, #449, #89, #412 ) ) ;
#503 = DIRECTION ( 'NONE',  ( 1.425800117241211462E-16, -1.000000000000000000, 0.000000000000000000 ) ) ;
#504 = VERTEX_POINT ( 'NONE', #874 ) ;
#505 = CARTESIAN_POINT ( 'NONE',  ( 0.000000000000000000, 36.50000000000000000, -5.000000000000000000 ) ) ;
#506 = CIRCLE ( 'NONE', #195, 1.375000000000001332 ) ;
#507 = DIRECTION ( 'NONE',  ( 0.000000000000000000, 0.000000000000000000, 1.000000000000000000 ) ) ;
#508 = VECTOR ( 'NONE', #579, 1000.000000000000000 ) ;
#509 = ORIENTED_EDGE ( 'NONE', *, *, #88, .T. ) ;
#510 = PLANE ( 'NONE',  #608 ) ;
#511 = VERTEX_POINT ( 'NONE', #621 ) ;
#512 = DIRECTION ( 'NONE',  ( -1.000000000000000000, -0.000000000000000000, -0.000000000000000000 ) ) ;
#513 = CARTESIAN_POINT ( 'NONE',  ( 29.71110255092797203, -32.50000000000000000, 0.000000000000000000 ) ) ;
#514 = ORIENTED_EDGE ( 'NONE', *, *, #742, .F. ) ;
#515 = LINE ( 'NONE', #520, #735 ) ;
#516 = DIRECTION ( 'NONE',  ( -9.505334114941409750E-17, 1.000000000000000000, -0.000000000000000000 ) ) ;
#517 = ORIENTED_EDGE ( 'NONE', *, *, #898, .F. ) ;
#518 = ADVANCED_FACE ( 'NONE', ( #272 ), #199, .F. ) ;
#519 = CARTESIAN_POINT ( 'NONE',  ( 18.00000000000000711, 31.99999999999998579, -5.000000000000000000 ) ) ;
#520 = CARTESIAN_POINT ( 'NONE',  ( 29.71110255092797203, -32.50000000000000000, 2.000000000000000000 ) ) ;
#521 = VECTOR ( 'NONE', #586, 1000.000000000000000 ) ;
#522 = AXIS2_PLACEMENT_3D ( 'NONE', #227, #782, #770 ) ;
#523 = ORIENTED_EDGE ( 'NONE', *, *, #752, .T. ) ;
#524 = VECTOR ( 'NONE', #558, 1000.000000000000000 ) ;
#525 = EDGE_CURVE ( 'NONE', #239, #504, #826, .T. ) ;
#526 = LINE ( 'NONE', #858, #77 ) ;
#527 = CARTESIAN_POINT ( 'NONE',  ( -19.37500000000000000, -32.00000000000000000, -5.000000000000000000 ) ) ;
#528 = EDGE_CURVE ( 'NONE', #706, #335, #748, .T. ) ;
#529 =( NAMED_UNIT ( * ) SI_UNIT ( $, .STERADIAN. ) SOLID_ANGLE_UNIT ( ) );
#530 = ORIENTED_EDGE ( 'NONE', *, *, #430, .T. ) ;
#531 = ORIENTED_EDGE ( 'NONE', *, *, #38, .T. ) ;
#532 = DIRECTION ( 'NONE',  ( -0.000000000000000000, -0.000000000000000000, 1.000000000000000000 ) ) ;
#533 = CARTESIAN_POINT ( 'NONE',  ( -18.00000000000000000, -32.00000000000000000, -5.000000000000000000 ) ) ;
#534 = VECTOR ( 'NONE', #785, 1000.000000000000000 ) ;
#535 = ORIENTED_EDGE ( 'NONE', *, *, #658, .T. ) ;
#536 = VECTOR ( 'NONE', #727, 1000.000000000000000 ) ;
#537 = FACE_OUTER_BOUND ( 'NONE', #14, .T. ) ;
#538 = LINE ( 'NONE', #263, #6 ) ;
#539 = ADVANCED_FACE ( 'NONE', ( #337 ), #393, .T. ) ;
#540 = CARTESIAN_POINT ( 'NONE',  ( -22.50000000000001421, 32.50000000000000000, 0.000000000000000000 ) ) ;
#541 = LINE ( 'NONE', #468, #837 ) ;
#542 = ORIENTED_EDGE ( 'NONE', *, *, #611, .F. ) ;
#543 = CARTESIAN_POINT ( 'NONE',  ( -19.37500000000000000, 32.00000000000000000, -5.000000000000000000 ) ) ;
#544 = DIRECTION ( 'NONE',  ( 1.000000000000000000, 0.000000000000000000, -0.000000000000000000 ) ) ;
#545 = CARTESIAN_POINT ( 'NONE',  ( 0.000000000000000000, 0.000000000000000000, 0.000000000000000000 ) ) ;
#546 = VECTOR ( 'NONE', #829, 1000.000000000000000 ) ;
#547 = LINE ( 'NONE', #543, #167 ) ;
#548 = EDGE_CURVE ( 'NONE', #286, #221, #262, .T. ) ;
#549 = DIRECTION ( 'NONE',  ( 0.000000000000000000, -1.000000000000000000, 0.000000000000000000 ) ) ;
#550 = DIRECTION ( 'NONE',  ( 0.000000000000000000, 0.000000000000000000, -1.000000000000000000 ) ) ;
#551 = CARTESIAN_POINT ( 'NONE',  ( 22.49999999999999645, -34.49999999999999289, 6.000000000000000000 ) ) ;
#552 = CARTESIAN_POINT ( 'NONE',  ( 29.71110255092797203, 34.49999999999999289, 6.000000000000022204 ) ) ;
#553 = DIRECTION ( 'NONE',  ( -1.000000000000000000, -0.000000000000000000, -0.000000000000000000 ) ) ;
#554 = CARTESIAN_POINT ( 'NONE',  ( -22.50000000000000355, -34.49999999999999289, 0.000000000000000000 ) ) ;
#555 = EDGE_CURVE ( 'NONE', #701, #882, #54, .T. ) ;
#556 = ORIENTED_EDGE ( 'NONE', *, *, #46, .T. ) ;
#557 = ORIENTED_EDGE ( 'NONE', *, *, #767, .T. ) ;
#558 = DIRECTION ( 'NONE',  ( -1.000000000000000000, -0.000000000000000000, -0.000000000000000000 ) ) ;
#559 = DIRECTION ( 'NONE',  ( 0.000000000000000000, 0.000000000000000000, -1.000000000000000000 ) ) ;
#560 = ORIENTED_EDGE ( 'NONE', *, *, #653, .F. ) ;
#561 = VERTEX_POINT ( 'NONE', #340 ) ;
#562 = CIRCLE ( 'NONE', #890, 1.375000000000001332 ) ;
#563 = VECTOR ( 'NONE', #682, 1000.000000000000000 ) ;
#564 = LINE ( 'NONE', #843, #627 ) ;
#565 = ORIENTED_EDGE ( 'NONE', *, *, #783, .T. ) ;
#566 = ORIENTED_EDGE ( 'NONE', *, *, #254, .T. ) ;
#567 = ADVANCED_FACE ( 'NONE', ( #537 ), #194, .F. ) ;
#568 = CARTESIAN_POINT ( 'NONE',  ( 22.49999999999999645, -36.50000000000000000, 8.000000000000000000 ) ) ;
#569 = LINE ( 'NONE', #193, #117 ) ;
#570 = DIRECTION ( 'NONE',  ( -1.000000000000000000, 0.000000000000000000, 0.000000000000000000 ) ) ;
#571 = ORIENTED_EDGE ( 'NONE', *, *, #687, .F. ) ;
#572 = VERTEX_POINT ( 'NONE', #462 ) ;
#573 = PLANE ( 'NONE',  #208 ) ;
#574 = LINE ( 'NONE', #90, #45 ) ;
#575 = FACE_OUTER_BOUND ( 'NONE', #205, .T. ) ;
#576 = ORIENTED_EDGE ( 'NONE', *, *, #898, .T. ) ;
#577 = ORIENTED_EDGE ( 'NONE', *, *, #653, .T. ) ;
#578 = DIRECTION ( 'NONE',  ( -1.000000000000000000, 0.000000000000000000, 0.000000000000000000 ) ) ;
#579 = DIRECTION ( 'NONE',  ( 1.425800117241211462E-16, -1.000000000000000000, 0.000000000000000000 ) ) ;
#580 = CARTESIAN_POINT ( 'NONE',  ( -19.37500000000000000, -32.00000000000000000, 0.000000000000000000 ) ) ;
#581 = VECTOR ( 'NONE', #814, 1000.000000000000000 ) ;
#582 = EDGE_CURVE ( 'NONE', #32, #757, #624, .T. ) ;
#583 = CARTESIAN_POINT ( 'NONE',  ( 18.00000000000000711, 31.99999999999998579, -5.000000000000000000 ) ) ;
#584 = VECTOR ( 'NONE', #250, 1000.000000000000000 ) ;
#585 = ORIENTED_EDGE ( 'NONE', *, *, #100, .F. ) ;
#586 = DIRECTION ( 'NONE',  ( -0.000000000000000000, -0.000000000000000000, -1.000000000000000000 ) ) ;
#587 = DIRECTION ( 'NONE',  ( 0.000000000000000000, 1.000000000000000000, 8.673617379884026597E-16 ) ) ;
#588 = EDGE_CURVE ( 'NONE', #317, #190, #743, .T. ) ;
#589 = VERTEX_POINT ( 'NONE', #113 ) ;
#590 = CARTESIAN_POINT ( 'NONE',  ( -22.50000000000000355, -32.50000000000000000, 0.000000000000000000 ) ) ;
#591 = DIRECTION ( 'NONE',  ( 1.000000000000000000, 1.425800117241211462E-16, -0.000000000000000000 ) ) ;
#592 = CARTESIAN_POINT ( 'NONE',  ( 29.71110255092797203, 34.49999999999999289, 4.000000000000022204 ) ) ;
#593 = VERTEX_POINT ( 'NONE', #680 ) ;
#594 = VECTOR ( 'NONE', #354, 1000.000000000000000 ) ;
#595 = PRODUCT_DEFINITION_FORMATION_WITH_SPECIFIED_SOURCE ( 'ANY', '', #821, .NOT_KNOWN. ) ;
#596 = VECTOR ( 'NONE', #315, 1000.000000000000000 ) ;
#597 = CARTESIAN_POINT ( 'NONE',  ( 22.49999999999999289, 2.138700175861816134E-15, -5.000000000000000000 ) ) ;
#598 = DIRECTION ( 'NONE',  ( 0.000000000000000000, 0.000000000000000000, -1.000000000000000000 ) ) ;
#599 = EDGE_CURVE ( 'NONE', #423, #364, #332, .T. ) ;
#600 = PRESENTATION_STYLE_ASSIGNMENT (( #450 ) ) ;
#601 = ORIENTED_EDGE ( 'NONE', *, *, #817, .T. ) ;
#602 = VERTEX_POINT ( 'NONE', #188 ) ;
#603 = PLANE ( 'NONE',  #671 ) ;
#604 = CARTESIAN_POINT ( 'NONE',  ( -22.50000000000001066, 34.49999999999999289, 6.000000000000022204 ) ) ;
#605 = CARTESIAN_POINT ( 'NONE',  ( 17.99999999999997868, -32.00000000000000711, 0.000000000000000000 ) ) ;
#606 = ADVANCED_FACE ( 'NONE', ( #466 ), #746, .F. ) ;
#607 = PLANE ( 'NONE',  #661 ) ;
#608 = AXIS2_PLACEMENT_3D ( 'NONE', #707, #297, #336 ) ;
#609 = ORIENTED_EDGE ( 'NONE', *, *, #637, .T. ) ;
#610 = CARTESIAN_POINT ( 'NONE',  ( 22.49999999999999289, -6.854393908367676023E-16, 6.000000000000000000 ) ) ;
#611 = EDGE_CURVE ( 'NONE', #48, #701, #863, .T. ) ;
#612 = CARTESIAN_POINT ( 'NONE',  ( 19.37500000000000711, 31.99999999999998579, -5.000000000000000000 ) ) ;
#613 = ORIENTED_EDGE ( 'NONE', *, *, #830, .T. ) ;
#614 = CIRCLE ( 'NONE', #522, 1.375000000000001332 ) ;
#615 = CARTESIAN_POINT ( 'NONE',  ( 17.99999999999997868, -32.00000000000000711, -5.000000000000000000 ) ) ;
#616 = CARTESIAN_POINT ( 'NONE',  ( 22.49999999999999645, -36.50000000000000000, 2.000000000000000000 ) ) ;
#617 = CARTESIAN_POINT ( 'NONE',  ( 22.49999999999998934, 36.50000000000000000, -5.000000000000000000 ) ) ;
#618 = EDGE_LOOP ( 'NONE', ( #304, #531, #639, #645 ) ) ;
#619 = EDGE_CURVE ( 'NONE', #17, #152, #178, .T. ) ;
#620 = CARTESIAN_POINT ( 'NONE',  ( 29.71110255092797203, -3.469446951953619711E-15, 8.000000000000005329 ) ) ;
#621 = CARTESIAN_POINT ( 'NONE',  ( 22.49999999999999645, -32.50000000000000000, 4.000000000000000000 ) ) ;
#622 = FACE_BOUND ( 'NONE', #115, .T. ) ;
#623 = EDGE_LOOP ( 'NONE', ( #252, #509, #395, #81 ) ) ;
#624 = CIRCLE ( 'NONE', #836, 1.375000000000001332 ) ;
#625 = VECTOR ( 'NONE', #899, 1000.000000000000000 ) ;
#626 = EDGE_CURVE ( 'NONE', #572, #423, #160, .T. ) ;
#627 = VECTOR ( 'NONE', #373, 1000.000000000000000 ) ;
#628 = CARTESIAN_POINT ( 'NONE',  ( -22.50000000000001421, 34.49999999999999289, 0.000000000000000000 ) ) ;
#629 = CARTESIAN_POINT ( 'NONE',  ( 18.00000000000000711, 31.99999999999998579, -5.000000000000000000 ) ) ;
#630 = ORIENTED_EDGE ( 'NONE', *, *, #834, .T. ) ;
#631 = EDGE_LOOP ( 'NONE', ( #211, #27, #454, #576 ) ) ;
#632 = CARTESIAN_POINT ( 'NONE',  ( -18.00000000000000000, 32.00000000000000000, -5.000000000000000000 ) ) ;
#633 = ORIENTED_EDGE ( 'NONE', *, *, #790, .F. ) ;
#634 = ORIENTED_EDGE ( 'NONE', *, *, #269, .F. ) ;
#635 = LINE ( 'NONE', #484, #169 ) ;
#636 = DIRECTION ( 'NONE',  ( -1.425800117241211462E-16, 1.000000000000000000, 4.336808689942021187E-16 ) ) ;
#637 = EDGE_CURVE ( 'NONE', #511, #845, #651, .T. ) ;
#638 = EDGE_LOOP ( 'NONE', ( #644, #517, #233, #329 ) ) ;
#639 = ORIENTED_EDGE ( 'NONE', *, *, #482, .T. ) ;
#640 = AXIS2_PLACEMENT_3D ( 'NONE', #857, #591, #669 ) ;
#641 = AXIS2_PLACEMENT_3D ( 'NONE', #605, #474, #889 ) ;
#642 = LINE ( 'NONE', #8, #683 ) ;
#643 = LINE ( 'NONE', #213, #309 ) ;
#644 = ORIENTED_EDGE ( 'NONE', *, *, #182, .T. ) ;
#645 = ORIENTED_EDGE ( 'NONE', *, *, #713, .F. ) ;
#646 = FACE_OUTER_BOUND ( 'NONE', #806, .T. ) ;
#647 = CARTESIAN_POINT ( 'NONE',  ( -22.50000000000001421, 36.50000000000000000, 8.000000000000021316 ) ) ;
#648 = LINE ( 'NONE', #721, #763 ) ;
#649 = ORIENTED_EDGE ( 'NONE', *, *, #548, .F. ) ;
#650 = ORIENTED_EDGE ( 'NONE', *, *, #12, .T. ) ;
#651 = LINE ( 'NONE', #82, #229 ) ;
#652 = CARTESIAN_POINT ( 'NONE',  ( -22.50000000000000355, -32.50000000000000000, 2.000000000000000000 ) ) ;
#653 = EDGE_CURVE ( 'NONE', #87, #286, #365, .T. ) ;
#654 = DIRECTION ( 'NONE',  ( 1.000000000000000000, 0.000000000000000000, 0.000000000000000000 ) ) ;
#655 = AXIS2_PLACEMENT_3D ( 'NONE', #777, #151, #492 ) ;
#656 = DIRECTION ( 'NONE',  ( 0.000000000000000000, -0.000000000000000000, -1.000000000000000000 ) ) ;
#657 = ORIENTED_EDGE ( 'NONE', *, *, #881, .T. ) ;
#658 = EDGE_CURVE ( 'NONE', #494, #850, #779, .T. ) ;
#659 = VECTOR ( 'NONE', #223, 1000.000000000000000 ) ;
#660 = DIRECTION ( 'NONE',  ( 0.000000000000000000, 0.000000000000000000, 1.000000000000000000 ) ) ;
#661 = AXIS2_PLACEMENT_3D ( 'NONE', #112, #691, #326 ) ;
#662 = ORIENTED_EDGE ( 'NONE', *, *, #881, .F. ) ;
#663 = CARTESIAN_POINT ( 'NONE',  ( 29.71110255092797203, 32.50000000000000000, 6.000000000000021316 ) ) ;
#664 = ORIENTED_EDGE ( 'NONE', *, *, #637, .F. ) ;
#665 = DIRECTION ( 'NONE',  ( -0.000000000000000000, -0.000000000000000000, 1.000000000000000000 ) ) ;
#666 = CARTESIAN_POINT ( 'NONE',  ( 29.71110255092797203, -32.50000000000000000, 6.000000000000000000 ) ) ;
#667 = ADVANCED_FACE ( 'NONE', ( #685 ), #266, .F. ) ;
#668 = CARTESIAN_POINT ( 'NONE',  ( 19.37500000000000711, 31.99999999999998579, -5.000000000000000000 ) ) ;
#669 = DIRECTION ( 'NONE',  ( -1.425800117241211462E-16, 1.000000000000000000, 0.000000000000000000 ) ) ;
#670 = DIRECTION ( 'NONE',  ( 0.000000000000000000, 0.000000000000000000, -1.000000000000000000 ) ) ;
#671 = AXIS2_PLACEMENT_3D ( 'NONE', #730, #660, #99 ) ;
#672 = AXIS2_PLACEMENT_3D ( 'NONE', #7, #902, #768 ) ;
#673 = ORIENTED_EDGE ( 'NONE', *, *, #528, .T. ) ;
#674 = CARTESIAN_POINT ( 'NONE',  ( 0.000000000000000000, 0.000000000000000000, -5.000000000000000000 ) ) ;
#675 = ADVANCED_FACE ( 'NONE', ( #646 ), #216, .F. ) ;
#676 = CARTESIAN_POINT ( 'NONE',  ( 29.71110255092797203, 0.000000000000000000, 4.000000000000000000 ) ) ;
#677 = FACE_OUTER_BOUND ( 'NONE', #308, .T. ) ;
#678 = VERTEX_POINT ( 'NONE', #148 ) ;
#679 = ADVANCED_FACE ( 'NONE', ( #49 ), #510, .T. ) ;
#680 = CARTESIAN_POINT ( 'NONE',  ( 22.49999999999999645, -32.50000000000000000, 8.000000000000000000 ) ) ;
#681 = CIRCLE ( 'NONE', #257, 1.375000000000001332 ) ;
#682 = DIRECTION ( 'NONE',  ( 1.425800117241211462E-16, -1.000000000000000000, 0.000000000000000000 ) ) ;
#683 = VECTOR ( 'NONE', #477, 1000.000000000000000 ) ;
#684 = VECTOR ( 'NONE', #334, 1000.000000000000000 ) ;
#685 = FACE_OUTER_BOUND ( 'NONE', #244, .T. ) ;
#686 = DIRECTION ( 'NONE',  ( 0.000000000000000000, 0.000000000000000000, 1.000000000000000000 ) ) ;
#687 = EDGE_CURVE ( 'NONE', #831, #602, #547, .T. ) ;
#688 = DIRECTION ( 'NONE',  ( 0.000000000000000000, 0.000000000000000000, -1.000000000000000000 ) ) ;
#689 = LINE ( 'NONE', #52, #534 ) ;
#690 = DIRECTION ( 'NONE',  ( -1.000000000000000000, 0.000000000000000000, 0.000000000000000000 ) ) ;
#691 = DIRECTION ( 'NONE',  ( 0.000000000000000000, -1.000000000000000000, 0.000000000000000000 ) ) ;
#692 = DIRECTION ( 'NONE',  ( 0.000000000000000000, 0.000000000000000000, -1.000000000000000000 ) ) ;
#693 = CARTESIAN_POINT ( 'NONE',  ( 22.49999999999999645, -32.50000000000000000, 6.000000000000000000 ) ) ;
#694 = ORIENTED_EDGE ( 'NONE', *, *, #381, .F. ) ;
#695 = ORIENTED_EDGE ( 'NONE', *, *, #316, .F. ) ;
#696 = AXIS2_PLACEMENT_3D ( 'NONE', #819, #277, #828 ) ;
#697 = VECTOR ( 'NONE', #287, 1000.000000000000000 ) ;
#698 = EDGE_LOOP ( 'NONE', ( #420, #490, #577, #36 ) ) ;
#699 = ORIENTED_EDGE ( 'NONE', *, *, #713, .T. ) ;
#700 = CARTESIAN_POINT ( 'NONE',  ( 22.49999999999998934, 36.50000000000000000, 8.000000000000021316 ) ) ;
#701 = VERTEX_POINT ( 'NONE', #750 ) ;
#702 = VERTEX_POINT ( 'NONE', #78 ) ;
#703 = DIRECTION ( 'NONE',  ( -0.000000000000000000, -0.000000000000000000, 1.000000000000000000 ) ) ;
#704 = DIRECTION ( 'NONE',  ( 0.000000000000000000, -1.000000000000000000, 0.000000000000000000 ) ) ;
#705 = VERTEX_POINT ( 'NONE', #406 ) ;
#706 = VERTEX_POINT ( 'NONE', #301 ) ;
#707 = CARTESIAN_POINT ( 'NONE',  ( 0.000000000000000000, 0.000000000000000000, 2.000000000000000000 ) ) ;
#708 = AXIS2_PLACEMENT_3D ( 'NONE', #495, #773, #433 ) ;
#709 = AXIS2_PLACEMENT_3D ( 'NONE', #129, #686, #259 ) ;
#710 =( NAMED_UNIT ( * ) PLANE_ANGLE_UNIT ( ) SI_UNIT ( $, .RADIAN. ) );
#711 = FACE_OUTER_BOUND ( 'NONE', #130, .T. ) ;
#712 = ORIENTED_EDGE ( 'NONE', *, *, #240, .F. ) ;
#713 = EDGE_CURVE ( 'NONE', #152, #32, #689, .T. ) ;
#714 = ORIENTED_EDGE ( 'NONE', *, *, #392, .F. ) ;
#715 = CARTESIAN_POINT ( 'NONE',  ( 29.71110255092797203, 32.50000000000000000, 4.000000000000022204 ) ) ;
#716 = PLANE ( 'NONE',  #2 ) ;
#717 = DIRECTION ( 'NONE',  ( 9.505334114941409750E-17, -1.000000000000000000, 0.000000000000000000 ) ) ;
#718 = ORIENTED_EDGE ( 'NONE', *, *, #804, .F. ) ;
#719 = ADVANCED_FACE ( 'NONE', ( #339 ), #573, .F. ) ;
#720 =( LENGTH_UNIT ( ) NAMED_UNIT ( * ) SI_UNIT ( .MILLI., .METRE. ) );
#721 = CARTESIAN_POINT ( 'NONE',  ( 22.49999999999999289, -4.154886342790372029E-15, 3.999999999999993339 ) ) ;
#722 = ORIENTED_EDGE ( 'NONE', *, *, #790, .T. ) ;
#723 = CARTESIAN_POINT ( 'NONE',  ( -22.50000000000001421, 36.50000000000000000, 2.000000000000000000 ) ) ;
#724 = AXIS2_PLACEMENT_3D ( 'NONE', #197, #825, #476 ) ;
#725 = DIRECTION ( 'NONE',  ( 0.000000000000000000, 8.673617379884026597E-16, -1.000000000000000000 ) ) ;
#726 = AXIS2_PLACEMENT_3D ( 'NONE', #545, #51, #480 ) ;
#727 = DIRECTION ( 'NONE',  ( -0.000000000000000000, -0.000000000000000000, 1.000000000000000000 ) ) ;
#728 = EDGE_CURVE ( 'NONE', #152, #17, #808, .T. ) ;
#729 = ORIENTED_EDGE ( 'NONE', *, *, #88, .F. ) ;
#730 = CARTESIAN_POINT ( 'NONE',  ( 0.000000000000000000, 0.000000000000000000, 0.000000000000000000 ) ) ;
#731 = DIRECTION ( 'NONE',  ( -0.000000000000000000, -0.000000000000000000, 1.000000000000000000 ) ) ;
#732 = CARTESIAN_POINT ( 'NONE',  ( 16.62499999999997513, -32.00000000000000711, 0.000000000000000000 ) ) ;
#733 = EDGE_LOOP ( 'NONE', ( #426, #282, #285, #26 ) ) ;
#734 = FILL_AREA_STYLE ('',( #458 ) ) ;
#735 = VECTOR ( 'NONE', #442, 1000.000000000000000 ) ;
#736 = AXIS2_PLACEMENT_3D ( 'NONE', #513, #838, #656 ) ;
#737 = CARTESIAN_POINT ( 'NONE',  ( 18.00000000000000711, 31.99999999999998579, 0.000000000000000000 ) ) ;
#738 = EDGE_CURVE ( 'NONE', #702, #831, #307, .T. ) ;
#739 = LINE ( 'NONE', #204, #388 ) ;
#740 = CARTESIAN_POINT ( 'NONE',  ( -22.50000000000000711, -2.441287865698453368E-15, 3.999999999999993339 ) ) ;
#741 = ORIENTED_EDGE ( 'NONE', *, *, #813, .F. ) ;
#742 = EDGE_CURVE ( 'NONE', #92, #561, #846, .T. ) ;
#743 = LINE ( 'NONE', #397, #153 ) ;
#744 = DIRECTION ( 'NONE',  ( 0.000000000000000000, -0.000000000000000000, -1.000000000000000000 ) ) ;
#745 = ADVANCED_FACE ( 'NONE', ( #893 ), #246, .T. ) ;
#746 = PLANE ( 'NONE',  #133 ) ;
#747 = DIRECTION ( 'NONE',  ( -0.000000000000000000, -0.000000000000000000, -1.000000000000000000 ) ) ;
#748 = CIRCLE ( 'NONE', #865, 1.375000000000001332 ) ;
#749 = ORIENTED_EDGE ( 'NONE', *, *, #525, .T. ) ;
#750 = CARTESIAN_POINT ( 'NONE',  ( -16.62499999999999645, -32.00000000000000000, -5.000000000000000000 ) ) ;
#751 = LINE ( 'NONE', #111, #400 ) ;
#752 = EDGE_CURVE ( 'NONE', #177, #97, #681, .T. ) ;
#753 = LINE ( 'NONE', #47, #134 ) ;
#754 = CARTESIAN_POINT ( 'NONE',  ( 29.71110255092797203, -34.49999999999999289, 4.000000000000000000 ) ) ;
#755 = DIRECTION ( 'NONE',  ( 9.505334114941409750E-17, -1.000000000000000000, 0.000000000000000000 ) ) ;
#756 = PLANE ( 'NONE',  #274 ) ;
#757 = VERTEX_POINT ( 'NONE', #732 ) ;
#758 = CYLINDRICAL_SURFACE ( 'NONE', #672, 1.375000000000001332 ) ;
#759 = VERTEX_POINT ( 'NONE', #37 ) ;
#760 = ORIENTED_EDGE ( 'NONE', *, *, #767, .F. ) ;
#761 = AXIS2_PLACEMENT_3D ( 'NONE', #486, #703, #344 ) ;
#762 = ADVANCED_FACE ( 'NONE', ( #138 ), #198, .T. ) ;
#763 = VECTOR ( 'NONE', #163, 1000.000000000000000 ) ;
#764 = LINE ( 'NONE', #552, #524 ) ;
#765 = CARTESIAN_POINT ( 'NONE',  ( 16.62500000000000355, 31.99999999999998579, 0.000000000000000000 ) ) ;
#766 = ORIENTED_EDGE ( 'NONE', *, *, #859, .F. ) ;
#767 = EDGE_CURVE ( 'NONE', #146, #602, #330, .T. ) ;
#768 = DIRECTION ( 'NONE',  ( 1.000000000000000000, 0.000000000000000000, 0.000000000000000000 ) ) ;
#769 = CARTESIAN_POINT ( 'NONE',  ( 29.71110255092797203, 32.50000000000000000, 0.000000000000000000 ) ) ;
#770 = DIRECTION ( 'NONE',  ( -1.000000000000000000, 0.000000000000000000, 0.000000000000000000 ) ) ;
#771 = ORIENTED_EDGE ( 'NONE', *, *, #752, .F. ) ;
#772 = EDGE_LOOP ( 'NONE', ( #206, #530, #630, #1 ) ) ;
#773 = DIRECTION ( 'NONE',  ( 0.000000000000000000, 0.000000000000000000, 1.000000000000000000 ) ) ;
#774 = LINE ( 'NONE', #217, #508 ) ;
#775 = DIRECTION ( 'NONE',  ( -1.000000000000000000, -0.000000000000000000, -0.000000000000000000 ) ) ;
#776 = ADVANCED_FACE ( 'NONE', ( #207 ), #421, .F. ) ;
#777 = CARTESIAN_POINT ( 'NONE',  ( -18.00000000000000000, 32.00000000000000000, -5.000000000000000000 ) ) ;
#778 = ORIENTED_EDGE ( 'NONE', *, *, #3, .T. ) ;
#779 = LINE ( 'NONE', #127, #93 ) ;
#780 = CARTESIAN_POINT ( 'NONE',  ( -22.49999999999999645, 36.50000000000000000, -5.000000000000000000 ) ) ;
#781 = AXIS2_PLACEMENT_3D ( 'NONE', #676, #407, #544 ) ;
#782 = DIRECTION ( 'NONE',  ( 0.000000000000000000, 0.000000000000000000, -1.000000000000000000 ) ) ;
#783 = EDGE_CURVE ( 'NONE', #705, #678, #71, .T. ) ;
#784 = ORIENTED_EDGE ( 'NONE', *, *, #137, .T. ) ;
#785 = DIRECTION ( 'NONE',  ( -0.000000000000000000, -0.000000000000000000, 1.000000000000000000 ) ) ;
#786 = ORIENTED_EDGE ( 'NONE', *, *, #794, .F. ) ;
#787 = FACE_OUTER_BOUND ( 'NONE', #816, .T. ) ;
#788 = DIRECTION ( 'NONE',  ( -1.000000000000000000, 0.000000000000000000, 0.000000000000000000 ) ) ;
#789 = ORIENTED_EDGE ( 'NONE', *, *, #869, .T. ) ;
#790 = EDGE_CURVE ( 'NONE', #149, #190, #642, .T. ) ;
#791 = CARTESIAN_POINT ( 'NONE',  ( 29.71110255092797203, 34.49999999999999289, 0.000000000000000000 ) ) ;
#792 =( LENGTH_UNIT ( ) NAMED_UNIT ( * ) SI_UNIT ( .MILLI., .METRE. ) );
#793 = ORIENTED_EDGE ( 'NONE', *, *, #738, .F. ) ;
#794 = EDGE_CURVE ( 'NONE', #511, #800, #569, .T. ) ;
#795 = VECTOR ( 'NONE', #318, 1000.000000000000000 ) ;
#796 = LINE ( 'NONE', #861, #795 ) ;
#797 = VECTOR ( 'NONE', #755, 1000.000000000000000 ) ;
#798 = VECTOR ( 'NONE', #320, 1000.000000000000000 ) ;
#799 = ORIENTED_EDGE ( 'NONE', *, *, #738, .T. ) ;
#800 = VERTEX_POINT ( 'NONE', #894 ) ;
#801 = CARTESIAN_POINT ( 'NONE',  ( 29.71110255092797203, 0.000000000000000000, 6.000000000000000000 ) ) ;
#802 = LINE ( 'NONE', #175, #379 ) ;
#803 = DIRECTION ( 'NONE',  ( 0.000000000000000000, 0.000000000000000000, -1.000000000000000000 ) ) ;
#804 = EDGE_CURVE ( 'NONE', #431, #221, #888, .T. ) ;
#805 = ORIENTED_EDGE ( 'NONE', *, *, #794, .T. ) ;
#806 = EDGE_LOOP ( 'NONE', ( #760, #498 ) ) ;
#807 = FACE_OUTER_BOUND ( 'NONE', #356, .T. ) ;
#808 = CIRCLE ( 'NONE', #724, 1.375000000000001332 ) ;
#809 = VECTOR ( 'NONE', #717, 1000.000000000000000 ) ;
#810 = DIRECTION ( 'NONE',  ( 1.000000000000000000, 0.000000000000000000, 0.000000000000000000 ) ) ;
#811 = DIRECTION ( 'NONE',  ( -1.000000000000000000, 0.000000000000000000, 0.000000000000000000 ) ) ;
#812 = CARTESIAN_POINT ( 'NONE',  ( 22.49999999999998934, 36.50000000000000000, 2.000000000000000000 ) ) ;
#813 = EDGE_CURVE ( 'NONE', #494, #149, #59, .T. ) ;
#814 = DIRECTION ( 'NONE',  ( 0.000000000000000000, 0.000000000000000000, -1.000000000000000000 ) ) ;
#815 = DIRECTION ( 'NONE',  ( -1.000000000000000000, 0.000000000000000000, -0.000000000000000000 ) ) ;
#816 = EDGE_LOOP ( 'NONE', ( #613, #694, #662, #712, #601, #159, #23, #126, #839, #154, #76, #897, #514, #276, #4, #722 ) ) ;
#817 = EDGE_CURVE ( 'NONE', #141, #856, #796, .T. ) ;
#818 = PRODUCT_DEFINITION_CONTEXT ( 'detailed design', #873, 'design' ) ;
#819 = CARTESIAN_POINT ( 'NONE',  ( 29.71110255092797203, -34.49999999999999289, 0.000000000000000000 ) ) ;
#820 = CARTESIAN_POINT ( 'NONE',  ( -16.62499999999999645, -32.00000000000000000, -5.000000000000000000 ) ) ;
#821 = PRODUCT ( 'usb_holder', 'usb_holder', '', ( #20 ) ) ;
#822 = VECTOR ( 'NONE', #128, 1000.000000000000000 ) ;
#823 = DIRECTION ( 'NONE',  ( 0.000000000000000000, 1.000000000000000000, 4.336808689942021187E-16 ) ) ;
#824 = CIRCLE ( 'NONE', #641, 1.375000000000001332 ) ;
#825 = DIRECTION ( 'NONE',  ( -0.000000000000000000, -0.000000000000000000, 1.000000000000000000 ) ) ;
#826 = LINE ( 'NONE', #616, #247 ) ;
#827 = DIRECTION ( 'NONE',  ( 0.000000000000000000, 0.000000000000000000, -1.000000000000000000 ) ) ;
#828 = DIRECTION ( 'NONE',  ( 0.000000000000000000, -0.000000000000000000, -1.000000000000000000 ) ) ;
#829 = DIRECTION ( 'NONE',  ( 0.000000000000000000, 0.000000000000000000, -1.000000000000000000 ) ) ;
#830 = EDGE_CURVE ( 'NONE', #190, #222, #366, .T. ) ;
#831 = VERTEX_POINT ( 'NONE', #380 ) ;
#832 = CARTESIAN_POINT ( 'NONE',  ( -22.50000000000000711, -3.208050263792726567E-15, -5.000000000000000000 ) ) ;
#833 = VERTEX_POINT ( 'NONE', #580 ) ;
#834 = EDGE_CURVE ( 'NONE', #589, #364, #574, .T. ) ;
#835 = ORIENTED_EDGE ( 'NONE', *, *, #876, .F. ) ;
#836 = AXIS2_PLACEMENT_3D ( 'NONE', #411, #280, #811 ) ;
#837 = VECTOR ( 'NONE', #747, 1000.000000000000000 ) ;
#838 = DIRECTION ( 'NONE',  ( 0.000000000000000000, -1.000000000000000000, 0.000000000000000000 ) ) ;
#839 = ORIENTED_EDGE ( 'NONE', *, *, #21, .T. ) ;
#840 = ORIENTED_EDGE ( 'NONE', *, *, #187, .F. ) ;
#841 = ADVANCED_FACE ( 'NONE', ( #314 ), #716, .F. ) ;
#842 = CARTESIAN_POINT ( 'NONE',  ( 22.49999999999998934, 36.50000000000000000, 2.000000000000000000 ) ) ;
#843 = CARTESIAN_POINT ( 'NONE',  ( 29.71110255092797203, -36.50000000000000000, 8.000000000000000000 ) ) ;
#844 = EDGE_LOOP ( 'NONE', ( #501, #300, #699, #103 ) ) ;
#845 = VERTEX_POINT ( 'NONE', #219 ) ;
#846 = LINE ( 'NONE', #628, #659 ) ;
#847 = ADVANCED_FACE ( 'NONE', ( #787 ), #28, .F. ) ;
#848 = DIRECTION ( 'NONE',  ( -1.000000000000000000, 0.000000000000000000, 0.000000000000000000 ) ) ;
#849 = FACE_OUTER_BOUND ( 'NONE', #66, .T. ) ;
#850 = VERTEX_POINT ( 'NONE', #157 ) ;
#851 = ORIENTED_EDGE ( 'NONE', *, *, #3, .F. ) ;
#852 = VECTOR ( 'NONE', #553, 1000.000000000000000 ) ;
#853 = CARTESIAN_POINT ( 'NONE',  ( -18.00000000000000000, 32.00000000000000000, 0.000000000000000000 ) ) ;
#854 = AXIS2_PLACEMENT_3D ( 'NONE', #583, #559, #788 ) ;
#855 = LINE ( 'NONE', #234, #625 ) ;
#856 = VERTEX_POINT ( 'NONE', #435 ) ;
#857 = CARTESIAN_POINT ( 'NONE',  ( -22.50000000000001421, 36.50000000000000000, 2.000000000000000000 ) ) ;
#858 = CARTESIAN_POINT ( 'NONE',  ( 16.62500000000000355, 31.99999999999998579, -5.000000000000000000 ) ) ;
#859 = EDGE_CURVE ( 'NONE', #833, #882, #562, .T. ) ;
#860 = LINE ( 'NONE', #445, #536 ) ;
#861 = CARTESIAN_POINT ( 'NONE',  ( -22.50000000000000355, -32.50000000000000000, 0.000000000000000000 ) ) ;
#862 = EDGE_LOOP ( 'NONE', ( #695, #296, #56, #369 ) ) ;
#863 = CIRCLE ( 'NONE', #104, 1.375000000000001332 ) ;
#864 = ORIENTED_EDGE ( 'NONE', *, *, #482, .F. ) ;
#865 = AXIS2_PLACEMENT_3D ( 'NONE', #879, #123, #690 ) ;
#866 = FACE_OUTER_BOUND ( 'NONE', #424, .T. ) ;
#867 = DIRECTION ( 'NONE',  ( 9.505334114941409750E-17, -1.000000000000000000, 0.000000000000000000 ) ) ;
#868 = DIRECTION ( 'NONE',  ( -1.000000000000000000, 0.000000000000000000, 0.000000000000000000 ) ) ;
#869 = EDGE_CURVE ( 'NONE', #845, #256, #515, .T. ) ;
#870 = EDGE_LOOP ( 'NONE', ( #673, #650 ) ) ;
#871 = ORIENTED_EDGE ( 'NONE', *, *, #46, .F. ) ;
#872 = DIRECTION ( 'NONE',  ( 0.000000000000000000, 0.000000000000000000, -1.000000000000000000 ) ) ;
#873 = APPLICATION_CONTEXT ( 'automotive_design' ) ;
#874 = CARTESIAN_POINT ( 'NONE',  ( 22.49999999999999645, -36.50000000000000000, -5.000000000000000000 ) ) ;
#875 = AXIS2_PLACEMENT_3D ( 'NONE', #615, #232, #122 ) ;
#876 = EDGE_CURVE ( 'NONE', #702, #146, #237, .T. ) ;
#877 = PLANE ( 'NONE',  #258 ) ;
#878 = AXIS2_PLACEMENT_3D ( 'NONE', #632, #9, #13 ) ;
#879 = CARTESIAN_POINT ( 'NONE',  ( 18.00000000000000711, 31.99999999999998579, 0.000000000000000000 ) ) ;
#880 = FACE_BOUND ( 'NONE', #437, .T. ) ;
#881 = EDGE_CURVE ( 'NONE', #900, #759, #170, .T. ) ;
#882 = VERTEX_POINT ( 'NONE', #225 ) ;
#883 = DIRECTION ( 'NONE',  ( 0.000000000000000000, 0.000000000000000000, -1.000000000000000000 ) ) ;
#884 = CARTESIAN_POINT ( 'NONE',  ( -18.00000000000000000, -32.00000000000000000, -5.000000000000000000 ) ) ;
#885 = LINE ( 'NONE', #891, #446 ) ;
#886 = UNCERTAINTY_MEASURE_WITH_UNIT (LENGTH_MEASURE( 1.000000000000000082E-05 ), #720, 'distance_accuracy_value', 'NONE');
#887 = DIRECTION ( 'NONE',  ( 0.000000000000000000, 4.336808689942021187E-16, -1.000000000000000000 ) ) ;
#888 = LINE ( 'NONE', #754, #822 ) ;
#889 = DIRECTION ( 'NONE',  ( -1.000000000000000000, 0.000000000000000000, 0.000000000000000000 ) ) ;
#890 = AXIS2_PLACEMENT_3D ( 'NONE', #499, #98, #848 ) ;
#891 = CARTESIAN_POINT ( 'NONE',  ( 22.49999999999999289, -4.154886342790387806E-15, 8.000000000000005329 ) ) ;
#892 = VECTOR ( 'NONE', #83, 1000.000000000000000 ) ;
#893 = FACE_OUTER_BOUND ( 'NONE', #502, .T. ) ;
#894 = CARTESIAN_POINT ( 'NONE',  ( -22.50000000000000355, -32.50000000000000000, 4.000000000000000000 ) ) ;
#895 = DIRECTION ( 'NONE',  ( 1.000000000000000000, 0.000000000000000000, 0.000000000000000000 ) ) ;
#896 = ORIENTED_EDGE ( 'NONE', *, *, #269, .T. ) ;
#897 = ORIENTED_EDGE ( 'NONE', *, *, #74, .T. ) ;
#898 = EDGE_CURVE ( 'NONE', #222, #135, #85, .T. ) ;
#899 = DIRECTION ( 'NONE',  ( 0.000000000000000000, 0.000000000000000000, -1.000000000000000000 ) ) ;
#900 = VERTEX_POINT ( 'NONE', #448 ) ;
#901 = ORIENTED_EDGE ( 'NONE', *, *, #430, .F. ) ;
#902 = DIRECTION ( 'NONE',  ( -0.000000000000000000, -0.000000000000000000, 1.000000000000000000 ) ) ;
#903 = DIRECTION ( 'NONE',  ( 9.505334114941409750E-17, -1.000000000000000000, 0.000000000000000000 ) ) ;
ENDSEC;
END-ISO-10303-21;
