ISO-10303-21;
HEADER;
FILE_DESCRIPTION (( 'STEP AP203' ),
    '1' );
FILE_NAME ('link5cap.STEP',
    '2026-01-08T00:20:35',
    ( '' ),
    ( '' ),
    'SwSTEP 2.0',
    'SolidWorks 2026',
    '' );
FILE_SCHEMA (( 'CONFIG_CONTROL_DESIGN' ));
ENDSEC;

DATA;
#1 = EDGE_CURVE ( 'NONE', #650, #368, #656, .T. ) ;
#2 = CARTESIAN_POINT ( 'NONE',  ( -17.34127593269161949, 44.64997576902379706, 19.99999999999999289 ) ) ;
#3 = CARTESIAN_POINT ( 'NONE',  ( -16.95106857580157111, 45.48677814630823235, 19.49999999999999645 ) ) ;
#4 = AXIS2_PLACEMENT_3D ( 'NONE', #339, #518, #462 ) ;
#5 = CIRCLE ( 'NONE', #716, 1.049999999999991385 ) ;
#6 = ORIENTED_EDGE ( 'NONE', *, *, #678, .T. ) ;
#7 = EDGE_CURVE ( 'NONE', #866, #839, #626, .T. ) ;
#8 = CARTESIAN_POINT ( 'NONE',  ( -29.53333395682620122, 13.77161979491729582, -19.99999999999999289 ) ) ;
#9 = DIRECTION ( 'NONE',  ( -0.4226182617407038267, -0.9063077870366479383, 0.000000000000000000 ) ) ;
#10 = VERTEX_POINT ( 'NONE', #667 ) ;
#11 = PERSON_AND_ORGANIZATION_ROLE ( 'design_owner' ) ;
#12 = LINE ( 'NONE', #72, #403 ) ;
#13 = VERTEX_POINT ( 'NONE', #733 ) ;
#14 = AXIS2_PLACEMENT_3D ( 'NONE', #150, #9, #752 ) ;
#15 = DIRECTION ( 'NONE',  ( 0.9063077870366479383, -0.4226182617407037712, 0.000000000000000000 ) ) ;
#16 = DIRECTION ( 'NONE',  ( 0.9063077870366479383, -0.4226182617407037712, 0.000000000000000000 ) ) ;
#17 = EDGE_LOOP ( 'NONE', ( #746, #824, #191, #384, #388, #424, #556, #101, #432, #795, #559, #233, #262, #138, #136, #215 ) ) ;
#18 = LINE ( 'NONE', #290, #416 ) ;
#19 = DIRECTION ( 'NONE',  ( -0.4226182617407051034, -0.9063077870366473832, 0.000000000000000000 ) ) ;
#20 = VERTEX_POINT ( 'NONE', #727 ) ;
#21 = DIRECTION ( 'NONE',  ( 6.667740490394042894E-34, 1.429901562581164355E-33, -1.000000000000000000 ) ) ;
#22 = EDGE_CURVE ( 'NONE', #770, #295, #57, .T. ) ;
#23 = ORIENTED_EDGE ( 'NONE', *, *, #176, .F. ) ;
#24 = LINE ( 'NONE', #762, #625 ) ;
#25 = AXIS2_PLACEMENT_3D ( 'NONE', #836, #351, #364 ) ;
#26 = PRODUCT_RELATED_PRODUCT_CATEGORY ( 'detail', '', ( #266 ) ) ;
#27 = EDGE_CURVE ( 'NONE', #170, #457, #356, .T. ) ;
#28 = VERTEX_POINT ( 'NONE', #661 ) ;
#29 = LOCAL_TIME ( 16, 20, 35.00000000000000000, #49 ) ;
#30 = CYLINDRICAL_SURFACE ( 'NONE', #375, 1.049999999999991163 ) ;
#31 = CIRCLE ( 'NONE', #537, 1.049999999999998712 ) ;
#32 = VECTOR ( 'NONE', #201, 1000.000000000000000 ) ;
#33 = EDGE_CURVE ( 'NONE', #622, #863, #657, .T. ) ;
#34 = ORIENTED_EDGE ( 'NONE', *, *, #81, .F. ) ;
#35 = DIRECTION ( 'NONE',  ( 0.9063077870366479383, -0.4226182617407037712, -0.000000000000000000 ) ) ;
#36 = DIRECTION ( 'NONE',  ( -0.4226182617407037712, -0.9063077870366479383, -0.000000000000000000 ) ) ;
#37 = DIRECTION ( 'NONE',  ( -0.9063077870366479383, 0.4226182617407037712, -0.000000000000000000 ) ) ;
#38 = ORIENTED_EDGE ( 'NONE', *, *, #366, .T. ) ;
#39 = DIRECTION ( 'NONE',  ( -0.4226182617407037712, -0.9063077870366479383, -0.000000000000000000 ) ) ;
#40 = CIRCLE ( 'NONE', #484, 1.999999999999997113 ) ;
#41 = AXIS2_PLACEMENT_3D ( 'NONE', #221, #489, #481 ) ;
#42 = VECTOR ( 'NONE', #453, 1000.000000000000000 ) ;
#43 = LINE ( 'NONE', #320, #116 ) ;
#44 = ORIENTED_EDGE ( 'NONE', *, *, #172, .F. ) ;
#45 = CARTESIAN_POINT ( 'NONE',  ( -2.793356807453335477, 75.84808901196598185, -19.49999999999999645 ) ) ;
#46 = CIRCLE ( 'NONE', #837, 1.049999999999991385 ) ;
#47 = CARTESIAN_POINT ( 'NONE',  ( -2.796525864305498210, 75.66299773660001904, -20.54531344883629629 ) ) ;
#48 = ORIENTED_EDGE ( 'NONE', *, *, #703, .F. ) ;
#49 = COORDINATED_UNIVERSAL_TIME_OFFSET ( 8, 0, .BEHIND. ) ;
#50 = EDGE_CURVE ( 'NONE', #839, #28, #472, .T. ) ;
#51 = FACE_BOUND ( 'NONE', #226, .T. ) ;
#52 = CARTESIAN_POINT ( 'NONE',  ( -2.317001204249985680, 76.72666553836950243, -19.12281784209376667 ) ) ;
#53 = CARTESIAN_POINT ( 'NONE',  ( -2.349607632625599241, 76.79971218835444802, 19.49999999999999645 ) ) ;
#54 = APPROVAL_DATE_TIME ( #796, #648 ) ;
#55 = CIRCLE ( 'NONE', #683, 1.049999999999998046 ) ;
#56 = CARTESIAN_POINT ( 'NONE',  ( -17.22498469926129872, 44.85043544063400134, 20.29485625967689799 ) ) ;
#57 = LINE ( 'NONE', #118, #846 ) ;
#58 = DIRECTION ( 'NONE',  ( -0.4226182617407038267, -0.9063077870366479383, 0.000000000000000000 ) ) ;
#59 = CARTESIAN_POINT ( 'NONE',  ( -2.582047676705359063, 76.30124290557496636, -21.99999999999999289 ) ) ;
#60 = EDGE_CURVE ( 'NONE', #295, #363, #55, .T. ) ;
#61 = DIRECTION ( 'NONE',  ( -1.000000000000000000, 0.000000000000000000, 0.000000000000000000 ) ) ;
#62 = ORIENTED_EDGE ( 'NONE', *, *, #747, .F. ) ;
#63 = CARTESIAN_POINT ( 'NONE',  ( -17.18423302297822985, 44.91350382928856533, 20.35391712318953239 ) ) ;
#64 = CARTESIAN_POINT ( 'NONE',  ( -2.438644163038444557, 76.55981370342945524, -18.80761814873893556 ) ) ;
#65 = ORIENTED_EDGE ( 'NONE', *, *, #7, .F. ) ;
#66 = VECTOR ( 'NONE', #15, 1000.000000000000000 ) ;
#67 = CYLINDRICAL_SURFACE ( 'NONE', #791, 1.049999999999991163 ) ;
#68 = ORIENTED_EDGE ( 'NONE', *, *, #859, .F. ) ;
#69 = VECTOR ( 'NONE', #213, 1000.000000000000000 ) ;
#70 = PRODUCT_DEFINITION_FORMATION_WITH_SPECIFIED_SOURCE ( 'ANY', '', #266, .NOT_KNOWN. ) ;
#71 = CYLINDRICAL_SURFACE ( 'NONE', #4, 1.049999999999998712 ) ;
#72 = CARTESIAN_POINT ( 'NONE',  ( -18.21892336110601818, 42.76785478523052575, 76.26183934523054120 ) ) ;
#73 = CIRCLE ( 'NONE', #188, 2.000000000000000888 ) ;
#74 = CIRCLE ( 'NONE', #604, 1.049999999999998046 ) ;
#75 = ORIENTED_EDGE ( 'NONE', *, *, #391, .F. ) ;
#76 = CC_DESIGN_PERSON_AND_ORGANIZATION_ASSIGNMENT ( #586, #380, ( #741 ) ) ;
#77 = DIRECTION ( 'NONE',  ( 0.4226182617407038267, 0.9063077870366479383, -0.000000000000000000 ) ) ;
#78 = EDGE_LOOP ( 'NONE', ( #6, #413, #48, #218, #599, #642 ) ) ;
#79 =( NAMED_UNIT ( * ) SI_UNIT ( $, .STERADIAN. ) SOLID_ANGLE_UNIT ( ) );
#80 = PLANE ( 'NONE',  #670 ) ;
#81 = EDGE_CURVE ( 'NONE', #878, #368, #459, .T. ) ;
#82 = VERTEX_POINT ( 'NONE', #382 ) ;
#83 = AXIS2_PLACEMENT_3D ( 'NONE', #205, #466, #515 ) ;
#84 = CIRCLE ( 'NONE', #488, 1.049999999999991385 ) ;
#85 = CARTESIAN_POINT ( 'NONE',  ( -16.56086121891152629, 46.32358052359267475, -19.99999999999999289 ) ) ;
#86 = CARTESIAN_POINT ( 'NONE',  ( -16.95106857580157111, 45.48677814630823235, -19.49999999999999645 ) ) ;
#87 = EDGE_CURVE ( 'NONE', #457, #597, #861, .T. ) ;
#88 = ORIENTED_EDGE ( 'NONE', *, *, #588, .T. ) ;
#89 = CARTESIAN_POINT ( 'NONE',  ( -17.34127593269161949, 44.64997576902379706, 19.99999999999999289 ) ) ;
#90 = CARTESIAN_POINT ( 'NONE',  ( -2.279720836620454882, 76.76712344017333578, 19.49999999999999645 ) ) ;
#91 = ORIENTED_EDGE ( 'NONE', *, *, #644, .F. ) ;
#92 = CYLINDRICAL_SURFACE ( 'NONE', #238, 2.000000000000001776 ) ;
#93 = ORIENTED_EDGE ( 'NONE', *, *, #447, .F. ) ;
#94 = PLANE ( 'NONE',  #141 ) ;
#95 = EDGE_CURVE ( 'NONE', #406, #627, #550, .T. ) ;
#96 = FACE_OUTER_BOUND ( 'NONE', #279, .T. ) ;
#97 = ORIENTED_EDGE ( 'NONE', *, *, #193, .F. ) ;
#98 = DIRECTION ( 'NONE',  ( 0.4226182617407046593, 0.9063077870366476052, 0.000000000000000000 ) ) ;
#99 = CARTESIAN_POINT ( 'NONE',  ( -16.95106857580157111, 45.48677814630823235, 19.49999999999999645 ) ) ;
#100 = DIRECTION ( 'NONE',  ( -0.9063077870366480493, 0.4226182617407038822, 0.000000000000000000 ) ) ;
#101 = ORIENTED_EDGE ( 'NONE', *, *, #418, .T. ) ;
#102 = LINE ( 'NONE', #313, #228 ) ;
#103 = CARTESIAN_POINT ( 'NONE',  ( -0.7694321026320636303, 75.45600638209357669, 19.99999999999998934 ) ) ;
#104 = FACE_BOUND ( 'NONE', #807, .T. ) ;
#105 = PRODUCT_DEFINITION_SHAPE ( 'NONE', 'NONE',  #741 ) ;
#106 = ORIENTED_EDGE ( 'NONE', *, *, #397, .F. ) ;
#107 = CARTESIAN_POINT ( 'NONE',  ( -16.80141719504813835, 45.62529534955451993, -20.54992575709601965 ) ) ;
#108 = AXIS2_PLACEMENT_3D ( 'NONE', #480, #845, #634 ) ;
#109 = AXIS2_PLACEMENT_3D ( 'NONE', #393, #810, #61 ) ;
#110 = AXIS2_PLACEMENT_3D ( 'NONE', #841, #504, #444 ) ;
#111 = CARTESIAN_POINT ( 'NONE',  ( -31.34594953089948888, 14.61685631839870325, 21.99999999999999289 ) ) ;
#112 = VERTEX_POINT ( 'NONE', #287 ) ;
#113 = CARTESIAN_POINT ( 'NONE',  ( -17.34127593269161949, 44.64997576902379706, -19.99999999999999289 ) ) ;
#114 = EDGE_CURVE ( 'NONE', #777, #563, #309, .T. ) ;
#115 = DATE_AND_TIME ( #443, #394 ) ;
#116 = VECTOR ( 'NONE', #37, 1000.000000000000114 ) ;
#117 = PLANE ( 'NONE',  #477 ) ;
#118 = CARTESIAN_POINT ( 'NONE',  ( -16.50731940097383443, 46.43840132269671273, 19.49999999999999645 ) ) ;
#119 = CARTESIAN_POINT ( 'NONE',  ( -18.21892336110601818, 42.76785478523052575, 19.99999999999998934 ) ) ;
#120 = ORIENTED_EDGE ( 'NONE', *, *, #859, .T. ) ;
#121 = DIRECTION ( 'NONE',  ( 0.4226182617407038267, 0.9063077870366479383, -0.000000000000000000 ) ) ;
#122 = ORIENTED_EDGE ( 'NONE', *, *, #513, .F. ) ;
#123 = SPHERICAL_SURFACE ( 'NONE', #200, 2.000000000000000000 ) ;
#124 = EDGE_LOOP ( 'NONE', ( #591, #178, #718, #761, #681, #134, #75 ) ) ;
#125 = COORDINATED_UNIVERSAL_TIME_OFFSET ( 8, 0, .BEHIND. ) ;
#126 = EDGE_CURVE ( 'NONE', #798, #13, #344, .T. ) ;
#127 = DIRECTION ( 'NONE',  ( 0.9063077870366479383, -0.4226182617407037712, -0.000000000000000000 ) ) ;
#128 = CARTESIAN_POINT ( 'NONE',  ( -2.279720836620392266, 76.76712344017340683, -19.31156718720099974 ) ) ;
#129 = DIRECTION ( 'NONE',  ( -0.4226182617407038267, -0.9063077870366479383, 0.000000000000000000 ) ) ;
#130 = ORIENTED_EDGE ( 'NONE', *, *, #386, .F. ) ;
#131 = CC_DESIGN_APPROVAL ( #812, ( #519 ) ) ;
#132 = CARTESIAN_POINT ( 'NONE',  ( -2.484807799014310703, 76.45183717890107289, -20.32714424415070198 ) ) ;
#133 = DIRECTION ( 'NONE',  ( -0.4226182617407032160, -0.9063077870366481603, 0.000000000000000000 ) ) ;
#134 = ORIENTED_EDGE ( 'NONE', *, *, #95, .F. ) ;
#135 = DIRECTION ( 'NONE',  ( 0.9063077870366479383, -0.4226182617407037712, -0.000000000000000000 ) ) ;
#136 = ORIENTED_EDGE ( 'NONE', *, *, #397, .T. ) ;
#137 = B_SPLINE_CURVE_WITH_KNOTS ( 'NONE', 3,
 ( #223, #294, #830, #229, #379, #643, #107, #717, #782, #437, #326, #113 ),
 .UNSPECIFIED., .F., .F.,
 ( 4, 2, 2, 2, 2, 4 ),
 ( 0.000000000000000000, 0.0002812720068733686818, 0.0005625440137467373636, 0.001125088027493494460, 0.001687632041240251556, 0.002250176054987008435 ),
 .UNSPECIFIED. ) ;
#138 = ORIENTED_EDGE ( 'NONE', *, *, #553, .F. ) ;
#139 = CARTESIAN_POINT ( 'NONE',  ( -14.23214521469162719, 44.21892336108612653, -19.49999999999999645 ) ) ;
#140 = DIRECTION ( 'NONE',  ( -0.9063077870366480493, 0.4226182617407038822, 0.000000000000000000 ) ) ;
#141 = AXIS2_PLACEMENT_3D ( 'NONE', #161, #688, #567 ) ;
#142 = ORIENTED_EDGE ( 'NONE', *, *, #588, .F. ) ;
#143 = EDGE_CURVE ( 'NONE', #650, #467, #805, .T. ) ;
#144 = LOCAL_TIME ( 16, 20, 35.00000000000000000, #523 ) ;
#145 = DIRECTION ( 'NONE',  ( 0.000000000000000000, 0.000000000000000000, -1.000000000000000000 ) ) ;
#146 = CARTESIAN_POINT ( 'NONE',  ( -2.512113390885915010, 76.45121746549496322, 18.66630243005256773 ) ) ;
#147 = AXIS2_PLACEMENT_3D ( 'NONE', #169, #649, #165 ) ;
#148 = ORIENTED_EDGE ( 'NONE', *, *, #773, .T. ) ;
#149 = LINE ( 'NONE', #697, #66 ) ;
#150 = CARTESIAN_POINT ( 'NONE',  ( -29.53333395682620122, 13.77161979491729760, 19.99999999999999289 ) ) ;
#151 = ORIENTED_EDGE ( 'NONE', *, *, #497, .T. ) ;
#152 = EDGE_CURVE ( 'NONE', #551, #312, #292, .T. ) ;
#153 = CARTESIAN_POINT ( 'NONE',  ( 0.9821122078859934046, 76.84600369442614465, 19.99999999999998934 ) ) ;
#154 = FACE_OUTER_BOUND ( 'NONE', #872, .T. ) ;
#155 = EDGE_LOOP ( 'NONE', ( #571, #360 ) ) ;
#156 = VECTOR ( 'NONE', #862, 1000.000000000000000 ) ;
#157 = CARTESIAN_POINT ( 'NONE',  ( -2.316721812717634776, 76.72705753962050323, 19.12348461046488168 ) ) ;
#158 = ADVANCED_FACE ( 'NONE', ( #823 ), #814, .T. ) ;
#159 = EDGE_LOOP ( 'NONE', ( #696, #378, #423, #337, #293, #495 ) ) ;
#160 = AXIS2_PLACEMENT_3D ( 'NONE', #286, #685, #19 ) ;
#161 = CARTESIAN_POINT ( 'NONE',  ( -31.34594953089948888, 14.61685631839870325, -21.99999999999999289 ) ) ;
#162 = ORIENTED_EDGE ( 'NONE', *, *, #513, .T. ) ;
#163 = LINE ( 'NONE', #552, #347 ) ;
#164 = EDGE_CURVE ( 'NONE', #363, #295, #415, .T. ) ;
#165 = DIRECTION ( 'NONE',  ( 0.9063077870366479383, -0.4226182617407037712, 0.000000000000000000 ) ) ;
#166 = ORIENTED_EDGE ( 'NONE', *, *, #329, .T. ) ;
#167 = DIRECTION ( 'NONE',  ( 0.9063077870366479383, -0.4226182617407037712, -0.000000000000000000 ) ) ;
#168 = CARTESIAN_POINT ( 'NONE',  ( -2.362083780042616432, 76.66574215259940672, 19.99999999999991473 ) ) ;
#169 = CARTESIAN_POINT ( 'NONE',  ( -1.736811153223950521, 78.11385847964825757, 76.26183934523054120 ) ) ;
#170 = VERTEX_POINT ( 'NONE', #210 ) ;
#171 = CARTESIAN_POINT ( 'NONE',  ( -2.540982006046801356, 76.28209366885936049, 20.42330926561459137 ) ) ;
#172 = EDGE_CURVE ( 'NONE', #479, #467, #757, .T. ) ;
#173 = CYLINDRICAL_SURFACE ( 'NONE', #838, 1.049999999999998712 ) ;
#174 = ORIENTED_EDGE ( 'NONE', *, *, #644, .T. ) ;
#175 = CARTESIAN_POINT ( 'NONE',  ( -17.39481775062931135, 44.53515496991975908, -19.49999999999999645 ) ) ;
#176 = EDGE_CURVE ( 'NONE', #28, #82, #698, .T. ) ;
#177 = CARTESIAN_POINT ( 'NONE',  ( -16.95106857580157111, 45.48677814630823235, -19.49999999999999645 ) ) ;
#178 = ORIENTED_EDGE ( 'NONE', *, *, #611, .F. ) ;
#179 = CARTESIAN_POINT ( 'NONE',  ( -17.34127593269161949, 44.64997576902379706, -19.99999999999999289 ) ) ;
#180 = APPROVAL_ROLE ( '' ) ;
#181 = CIRCLE ( 'NONE', #487, 1.049999999999998712 ) ;
#182 = CARTESIAN_POINT ( 'NONE',  ( -2.540982006046750286, 76.28209366885950260, -20.42330926561450966 ) ) ;
#183 = EDGE_CURVE ( 'NONE', #419, #627, #12, .T. ) ;
#184 = VERTEX_POINT ( 'NONE', #225 ) ;
#185 = CARTESIAN_POINT ( 'NONE',  ( -2.624989015973633322, 76.03999251799140779, 20.53016139452730471 ) ) ;
#186 = APPROVAL_PERSON_ORGANIZATION ( #554, #289, #486 ) ;
#187 = APPROVAL_DATE_TIME ( #507, #289 ) ;
#188 = AXIS2_PLACEMENT_3D ( 'NONE', #546, #36, #346 ) ;
#189 = AXIS2_PLACEMENT_3D ( 'NONE', #8, #121, #335 ) ;
#190 = CARTESIAN_POINT ( 'NONE',  ( -2.793356807453335477, 75.84808901196598185, -19.49999999999999645 ) ) ;
#191 = ORIENTED_EDGE ( 'NONE', *, *, #528, .F. ) ;
#192 = CARTESIAN_POINT ( 'NONE',  ( -16.56086121891152629, 46.32358052359267475, 19.99999999999999289 ) ) ;
#193 = EDGE_CURVE ( 'NONE', #457, #622, #501, .T. ) ;
#194 = CALENDAR_DATE ( 2026, 7, 1 ) ;
#195 = CARTESIAN_POINT ( 'NONE',  ( -17.39481775062931135, 44.53515496991975908, 19.49999999999999645 ) ) ;
#196 = ORIENTED_EDGE ( 'NONE', *, *, #164, .T. ) ;
#197 = CARTESIAN_POINT ( 'NONE',  ( -16.95106857580157111, 45.48677814630823235, -19.49999999999999645 ) ) ;
#198 = CIRCLE ( 'NONE', #108, 1.999999999999997113 ) ;
#199 = VECTOR ( 'NONE', #686, 1000.000000000000114 ) ;
#200 = AXIS2_PLACEMENT_3D ( 'NONE', #511, #260, #317 ) ;
#201 = DIRECTION ( 'NONE',  ( 0.000000000000000000, 0.000000000000000000, -1.000000000000000000 ) ) ;
#202 = CARTESIAN_POINT ( 'NONE',  ( -14.23214521469162719, 44.21892336108612653, 19.49999999999999645 ) ) ;
#203 = ORIENTED_EDGE ( 'NONE', *, *, #833, .F. ) ;
#204 = DIRECTION ( 'NONE',  ( -0.9063077870366480493, 0.4226182617407038822, 0.000000000000000000 ) ) ;
#205 = CARTESIAN_POINT ( 'NONE',  ( -0.07443344634339155164, 74.58023422674386893, 19.49999999999999645 ) ) ;
#206 = B_SPLINE_CURVE_WITH_KNOTS ( 'NONE', 3,
 ( #435, #695, #704, #582, #47, #240, #784, #645, #860, #302 ),
 .UNSPECIFIED., .F., .F.,
 ( 4, 2, 2, 2, 4 ),
 ( 4.336808689942017736E-19, 0.0004116740572061526864, 0.0008233481144123049392, 0.001235022171618457192, 0.001646696228824609445 ),
 .UNSPECIFIED. ) ;
#207 = EDGE_LOOP ( 'NONE', ( #475, #742, #148, #436, #722, #316 ) ) ;
#208 = LINE ( 'NONE', #59, #232 ) ;
#209 = ADVANCED_FACE ( 'NONE', ( #154 ), #282, .T. ) ;
#210 = CARTESIAN_POINT ( 'NONE',  ( -2.582047676570107697, 76.30124290551191280, -18.57669073438553298 ) ) ;
#211 = ORIENTED_EDGE ( 'NONE', *, *, #386, .T. ) ;
#212 = DIRECTION ( 'NONE',  ( 0.9063077870366479383, -0.4226182617407037712, -0.000000000000000000 ) ) ;
#213 = DIRECTION ( 'NONE',  ( 0.9063077870366479383, -0.4226182617407037712, -0.000000000000000000 ) ) ;
#214 = CC_DESIGN_DATE_AND_TIME_ASSIGNMENT ( #385, #318, ( #741 ) ) ;
#215 = ORIENTED_EDGE ( 'NONE', *, *, #808, .F. ) ;
#216 = DIRECTION ( 'NONE',  ( 0.9063077870366480493, -0.4226182617407038267, -0.000000000000000000 ) ) ;
#217 = DIRECTION ( 'NONE',  ( 0.000000000000000000, 0.000000000000000000, -1.000000000000000000 ) ) ;
#218 = ORIENTED_EDGE ( 'NONE', *, *, #319, .F. ) ;
#219 = EDGE_CURVE ( 'NONE', #700, #259, #181, .T. ) ;
#220 = CARTESIAN_POINT ( 'NONE',  ( 0.3693157284843430199, 75.53185740313233509, 19.49999999999999645 ) ) ;
#221 = CARTESIAN_POINT ( 'NONE',  ( -14.23214521469162719, 44.21892336108612653, 19.49999999999999645 ) ) ;
#222 = ORIENTED_EDGE ( 'NONE', *, *, #22, .F. ) ;
#223 = CARTESIAN_POINT ( 'NONE',  ( -16.56086121891152629, 46.32358052359267475, -19.99999999999999289 ) ) ;
#224 = DIRECTION ( 'NONE',  ( -0.4226182617407046593, -0.9063077870366476052, 0.000000000000000000 ) ) ;
#225 = CARTESIAN_POINT ( 'NONE',  ( 0.07580442084934101155, 77.26862195616686790, 19.99999999999998934 ) ) ;
#226 = EDGE_LOOP ( 'NONE', ( #668, #38 ) ) ;
#227 = CLOSED_SHELL ( 'NONE', ( #743, #737, #605, #719, #158, #561, #654, #253, #239, #577, #297, #268, #659, #407, #774, #244, #209, #422, #308, #694, #665 ) ) ;
#228 = VECTOR ( 'NONE', #590, 1000.000000000000114 ) ;
#229 = CARTESIAN_POINT ( 'NONE',  ( -16.63967167245380452, 46.10564327728705791, -20.29485625967689444 ) ) ;
#230 = ORIENTED_EDGE ( 'NONE', *, *, #176, .T. ) ;
#231 = LINE ( 'NONE', #623, #269 ) ;
#232 = VECTOR ( 'NONE', #593, 1000.000000000000114 ) ;
#233 = ORIENTED_EDGE ( 'NONE', *, *, #172, .T. ) ;
#234 = DIRECTION ( 'NONE',  ( -0.4226182617407038267, -0.9063077870366479383, 0.000000000000000000 ) ) ;
#235 = DIRECTION ( 'NONE',  ( -0.9063077870366479383, 0.4226182617407038267, 0.000000000000000000 ) ) ;
#236 = ORIENTED_EDGE ( 'NONE', *, *, #60, .F. ) ;
#237 = DIRECTION ( 'NONE',  ( -0.4226182617407049369, -0.9063077870366473832, 0.000000000000000000 ) ) ;
#238 = AXIS2_PLACEMENT_3D ( 'NONE', #843, #564, #491 ) ;
#239 = ADVANCED_FACE ( 'NONE', ( #740 ), #80, .T. ) ;
#240 = CARTESIAN_POINT ( 'NONE',  ( -2.926073800957674997, 75.43369816138475414, -20.46692598850416545 ) ) ;
#241 = EDGE_LOOP ( 'NONE', ( #288, #536, #34, #849, #230 ) ) ;
#242 = CARTESIAN_POINT ( 'NONE',  ( 0.9821122078859934046, 76.84600369442614465, -19.99999999999998934 ) ) ;
#243 = APPROVAL_STATUS ( 'not_yet_approved' ) ;
#244 = ADVANCED_FACE ( 'NONE', ( #672 ), #405, .T. ) ;
#245 = CARTESIAN_POINT ( 'NONE',  ( -18.21892336110601818, 42.76785478523052575, -19.99999999999998934 ) ) ;
#246 = ORIENTED_EDGE ( 'NONE', *, *, #760, .F. ) ;
#247 = CARTESIAN_POINT ( 'NONE',  ( -2.279720836620344748, 76.76712344017360579, -19.50000000000054001 ) ) ;
#248 = DATE_TIME_ROLE ( 'classification_date' ) ;
#249 = CARTESIAN_POINT ( 'NONE',  ( -3.237105982281070826, 74.89646583557750148, 19.49999999999999645 ) ) ;
#250 = CARTESIAN_POINT ( 'NONE',  ( -2.279720836620454882, 76.76712344017333578, 19.49999999999999645 ) ) ;
#251 = CARTESIAN_POINT ( 'NONE',  ( -2.992525068882003314, 75.32898457986348717, 20.40206623671823749 ) ) ;
#252 = DIRECTION ( 'NONE',  ( 1.000000000000000000, 0.000000000000000000, -0.000000000000000000 ) ) ;
#253 = ADVANCED_FACE ( 'NONE', ( #827 ), #94, .F. ) ;
#254 = CARTESIAN_POINT ( 'NONE',  ( -2.349607632625599241, 76.79971218835444802, -19.49999999999999645 ) ) ;
#255 = LINE ( 'NONE', #53, #156 ) ;
#256 = LOCAL_TIME ( 16, 20, 35.00000000000000000, #653 ) ;
#257 = PERSON_AND_ORGANIZATION_ROLE ( 'creator' ) ;
#258 = CARTESIAN_POINT ( 'NONE',  ( -16.63682684062900208, 46.11050824114931146, 20.30654151649042305 ) ) ;
#259 = VERTEX_POINT ( 'NONE', #89 ) ;
#260 = DIRECTION ( 'NONE',  ( 0.000000000000000000, 0.000000000000000000, 1.000000000000000000 ) ) ;
#261 = CC_DESIGN_PERSON_AND_ORGANIZATION_ASSIGNMENT ( #581, #720, ( #70 ) ) ;
#262 = ORIENTED_EDGE ( 'NONE', *, *, #143, .F. ) ;
#263 = PERSON_AND_ORGANIZATION ( #855, #560 ) ;
#264 = CYLINDRICAL_SURFACE ( 'NONE', #189, 2.000000000000000444 ) ;
#265 = CARTESIAN_POINT ( 'NONE',  ( -2.315723437279468833, 76.72465627613786410, 19.84267207825890011 ) ) ;
#266 = PRODUCT ( 'link5cap', 'link5cap', '', ( #617 ) ) ;
#267 = ORIENTED_EDGE ( 'NONE', *, *, #333, .F. ) ;
#268 = ADVANCED_FACE ( 'NONE', ( #621 ), #414, .F. ) ;
#269 = VECTOR ( 'NONE', #35, 1000.000000000000000 ) ;
#270 = AXIS2_PLACEMENT_3D ( 'NONE', #637, #39, #307 ) ;
#271 = DIRECTION ( 'NONE',  ( 0.4226182617407047704, 0.9063077870366476052, 0.000000000000000000 ) ) ;
#272 = ORIENTED_EDGE ( 'NONE', *, *, #152, .F. ) ;
#273 = ORIENTED_EDGE ( 'NONE', *, *, #333, .T. ) ;
#274 = EDGE_CURVE ( 'NONE', #818, #10, #640, .T. ) ;
#275 = CARTESIAN_POINT ( 'NONE',  ( -16.56086121891152629, 46.32358052359267475, 19.99999999999999289 ) ) ;
#276 = CARTESIAN_POINT ( 'NONE',  ( -18.21892336110601818, 42.76785478523052575, 76.26183934523054120 ) ) ;
#277 = ORIENTED_EDGE ( 'NONE', *, *, #703, .T. ) ;
#278 = CARTESIAN_POINT ( 'NONE',  ( -18.21892336110602528, 42.76785478523053285, -19.99999999999999289 ) ) ;
#279 = EDGE_LOOP ( 'NONE', ( #852, #299, #345, #246 ) ) ;
#280 = APPLICATION_PROTOCOL_DEFINITION ( 'international standard', 'config_control_design', 1994, #731 ) ;
#281 = AXIS2_PLACEMENT_3D ( 'NONE', #86, #607, #349 ) ;
#282 = CYLINDRICAL_SURFACE ( 'NONE', #14, 2.000000000000000444 ) ;
#283 = EDGE_CURVE ( 'NONE', #402, #646, #755, .T. ) ;
#284 = ORIENTED_EDGE ( 'NONE', *, *, #873, .F. ) ;
#285 = APPROVAL_PERSON_ORGANIZATION ( #512, #812, #712 ) ;
#286 = CARTESIAN_POINT ( 'NONE',  ( -2.793356807453335477, 75.84808901196598185, -19.49999999999999645 ) ) ;
#287 = CARTESIAN_POINT ( 'NONE',  ( -14.67589438951936565, 43.26730018469763905, -19.49999999999999645 ) ) ;
#288 = ORIENTED_EDGE ( 'NONE', *, *, #553, .T. ) ;
#289 = APPROVAL ( #826, 'UNSPECIFIED' ) ;
#290 = CARTESIAN_POINT ( 'NONE',  ( -1.736811153223950521, 78.11385847964825757, -19.99999999999998934 ) ) ;
#291 = APPLICATION_PROTOCOL_DEFINITION ( 'international standard', 'config_control_design', 1994, #603 ) ;
#292 = LINE ( 'NONE', #816, #69 ) ;
#293 = ORIENTED_EDGE ( 'NONE', *, *, #126, .F. ) ;
#294 = CARTESIAN_POINT ( 'NONE',  ( -16.58001907932360908, 46.28249635935682704, -20.08370972875273708 ) ) ;
#295 = VERTEX_POINT ( 'NONE', #633 ) ;
#296 = CARTESIAN_POINT ( 'NONE',  ( -18.21892336110601818, 42.76785478523052575, -21.99999999999999289 ) ) ;
#297 = ADVANCED_FACE ( 'NONE', ( #765 ), #30, .F. ) ;
#298 = APPROVAL_PERSON_ORGANIZATION ( #263, #648, #180 ) ;
#299 = ORIENTED_EDGE ( 'NONE', *, *, #329, .F. ) ;
#300 = CIRCLE ( 'NONE', #160, 1.049999999999991385 ) ;
#301 = DIRECTION ( 'NONE',  ( 0.9063077870366479383, -0.4226182617407037712, -0.000000000000000000 ) ) ;
#302 = CARTESIAN_POINT ( 'NONE',  ( -3.183564164343379410, 75.01128663468153945, -19.99999999999999289 ) ) ;
#303 = EDGE_LOOP ( 'NONE', ( #93, #500, #331, #91 ) ) ;
#304 = LINE ( 'NONE', #296, #876 ) ;
#305 = DIRECTION ( 'NONE',  ( -0.9063077870366480493, 0.4226182617407038822, 0.000000000000000000 ) ) ;
#306 = EDGE_LOOP ( 'NONE', ( #272, #411, #594, #342, #454 ) ) ;
#307 = DIRECTION ( 'NONE',  ( 0.9063077870366474942, -0.4226182617407049369, 0.000000000000000000 ) ) ;
#308 = ADVANCED_FACE ( 'NONE', ( #691 ), #92, .T. ) ;
#309 = CIRCLE ( 'NONE', #281, 1.049999999999998712 ) ;
#310 = AXIS2_PLACEMENT_3D ( 'NONE', #45, #441, #706 ) ;
#311 = DIRECTION ( 'NONE',  ( 0.9063077870366479383, -0.4226182617407037712, -0.000000000000000000 ) ) ;
#312 = VERTEX_POINT ( 'NONE', #358 ) ;
#313 = CARTESIAN_POINT ( 'NONE',  ( -18.21892336110602528, 42.76785478523053285, -19.99999999999999289 ) ) ;
#314 = CALENDAR_DATE ( 2026, 7, 1 ) ;
#315 = CARTESIAN_POINT ( 'NONE',  ( -2.362083780042567582, 76.66574215259946357, -19.99999999999974776 ) ) ;
#316 = ORIENTED_EDGE ( 'NONE', *, *, #164, .F. ) ;
#317 = DIRECTION ( 'NONE',  ( -0.4226182617407045483, -0.9063077870366476052, 0.000000000000000000 ) ) ;
#318 = DATE_TIME_ROLE ( 'creation_date' ) ;
#319 = EDGE_CURVE ( 'NONE', #563, #20, #231, .T. ) ;
#320 = CARTESIAN_POINT ( 'NONE',  ( -2.582047676705350625, 76.30124290557496636, 21.99999999999999289 ) ) ;
#321 = CARTESIAN_POINT ( 'NONE',  ( -2.421599264912682514, 76.58738831771977118, 20.17758011068356794 ) ) ;
#322 = LINE ( 'NONE', #433, #42 ) ;
#323 = ORIENTED_EDGE ( 'NONE', *, *, #274, .F. ) ;
#324 = CARTESIAN_POINT ( 'NONE',  ( -16.73764714384292418, 45.80087637267565270, 20.49866048366902405 ) ) ;
#325 = CARTESIAN_POINT ( 'NONE',  ( -2.362083780042616432, 76.66574215259940672, 19.99999999999991473 ) ) ;
#326 = CARTESIAN_POINT ( 'NONE',  ( -17.30297072422373006, 44.73212155388272038, -20.16737352440853215 ) ) ;
#327 = DIRECTION ( 'NONE',  ( -0.4226182617407045483, -0.9063077870366476052, 0.000000000000000000 ) ) ;
#328 = CARTESIAN_POINT ( 'NONE',  ( -2.362083780042616432, 76.66574215259940672, 19.99999999999991473 ) ) ;
#329 = EDGE_CURVE ( 'NONE', #402, #863, #442, .T. ) ;
#330 = CARTESIAN_POINT ( 'NONE',  ( -17.05584431106374765, 45.11918026827957817, 20.49746784948091971 ) ) ;
#331 = ORIENTED_EDGE ( 'NONE', *, *, #319, .T. ) ;
#332 = ORIENTED_EDGE ( 'NONE', *, *, #611, .T. ) ;
#333 = EDGE_CURVE ( 'NONE', #818, #482, #24, .T. ) ;
#334 = CIRCLE ( 'NONE', #832, 1.049999999999991385 ) ;
#335 = DIRECTION ( 'NONE',  ( -0.9063077870366477162, 0.4226182617407041042, 0.000000000000000000 ) ) ;
#336 = CARTESIAN_POINT ( 'NONE',  ( -2.484330159686756190, 76.45328047788609638, 20.32632657001498444 ) ) ;
#337 = ORIENTED_EDGE ( 'NONE', *, *, #709, .F. ) ;
#338 = VECTOR ( 'NONE', #865, 1000.000000000000000 ) ;
#339 = CARTESIAN_POINT ( 'NONE',  ( -16.95106857580157111, 45.48677814630823235, -19.49999999999999645 ) ) ;
#340 = CIRCLE ( 'NONE', #793, 1.049999999999998712 ) ;
#341 = CARTESIAN_POINT ( 'NONE',  ( -2.433984209248656327, 76.56908444599808661, 18.80048105597282770 ) ) ;
#342 = ORIENTED_EDGE ( 'NONE', *, *, #87, .T. ) ;
#343 = EDGE_CURVE ( 'NONE', #735, #464, #304, .T. ) ;
#344 = LINE ( 'NONE', #353, #768 ) ;
#345 = ORIENTED_EDGE ( 'NONE', *, *, #283, .T. ) ;
#346 = DIRECTION ( 'NONE',  ( 0.9063077870366474942, -0.4226182617407049369, 0.000000000000000000 ) ) ;
#347 = VECTOR ( 'NONE', #616, 1000.000000000000000 ) ;
#348 = EDGE_CURVE ( 'NONE', #705, #464, #754, .T. ) ;
#349 = DIRECTION ( 'NONE',  ( -0.4226182617407046593, -0.9063077870366476052, 0.000000000000000000 ) ) ;
#350 = ORIENTED_EDGE ( 'NONE', *, *, #193, .T. ) ;
#351 = DIRECTION ( 'NONE',  ( 0.4226182617407046038, 0.9063077870366477162, 0.000000000000000000 ) ) ;
#352 = DESIGN_CONTEXT ( 'detailed design', #731, 'design' ) ;
#353 = CARTESIAN_POINT ( 'NONE',  ( -18.21892336110601818, 42.76785478523053285, 21.99999999999999289 ) ) ;
#354 = ORIENTED_EDGE ( 'NONE', *, *, #274, .T. ) ;
#355 = DIRECTION ( 'NONE',  ( 0.4226182617407044928, 0.9063077870366476052, 0.000000000000000000 ) ) ;
#356 = B_SPLINE_CURVE_WITH_KNOTS ( 'NONE', 3,
 ( #535, #787, #792, #64, #664, #52, #128, #875 ),
 .UNSPECIFIED., .F., .F.,
 ( 4, 2, 2, 4 ),
 ( 8.054623212779652504E-15, 0.0002813748848581902259, 0.0005627497697083258055, 0.001125499539408587532 ),
 .UNSPECIFIED. ) ;
#357 = ORIENTED_EDGE ( 'NONE', *, *, #833, .T. ) ;
#358 = CARTESIAN_POINT ( 'NONE',  ( -0.5181826211711273444, 73.62861105035540277, -19.49999999999999645 ) ) ;
#359 = EDGE_CURVE ( 'NONE', #735, #402, #163, .T. ) ;
#360 = ORIENTED_EDGE ( 'NONE', *, *, #614, .T. ) ;
#361 = DIRECTION ( 'NONE',  ( 0.9063077870366480493, -0.4226182617407038822, -0.000000000000000000 ) ) ;
#362 = FACE_OUTER_BOUND ( 'NONE', #548, .T. ) ;
#363 = VERTEX_POINT ( 'NONE', #771 ) ;
#364 = DIRECTION ( 'NONE',  ( -0.9063077870366474942, 0.4226182617407049924, 0.000000000000000000 ) ) ;
#365 = AXIS2_PLACEMENT_3D ( 'NONE', #381, #851, #635 ) ;
#366 = EDGE_CURVE ( 'NONE', #368, #878, #334, .T. ) ;
#367 = FACE_OUTER_BOUND ( 'NONE', #303, .T. ) ;
#368 = VERTEX_POINT ( 'NONE', #682 ) ;
#369 = LINE ( 'NONE', #658, #708 ) ;
#370 = CARTESIAN_POINT ( 'NONE',  ( -16.40630778703272696, 41.92261826174912898, 21.99999999999999289 ) ) ;
#371 = CARTESIAN_POINT ( 'NONE',  ( -3.237105982281070826, 74.89646583557750148, -19.49999999999999645 ) ) ;
#372 = VECTOR ( 'NONE', #212, 1000.000000000000000 ) ;
#373 = VERTEX_POINT ( 'NONE', #85 ) ;
#374 = CYLINDRICAL_SURFACE ( 'NONE', #310, 1.049999999999991163 ) ;
#375 = AXIS2_PLACEMENT_3D ( 'NONE', #483, #167, #420 ) ;
#376 = B_SPLINE_CURVE_WITH_KNOTS ( 'NONE', 3,
 ( #2, #663, #539, #56, #63, #330, #596, #874, #324, #258, #534, #275 ),
 .UNSPECIFIED., .F., .F.,
 ( 4, 2, 2, 2, 2, 4 ),
 ( 0.000000000000000000, 0.0002812720068733799033, 0.0005625440137467598066, 0.001125088027493508988, 0.001687632041240258278, 0.002250176054987007568 ),
 .UNSPECIFIED. ) ;
#377 = DIRECTION ( 'NONE',  ( 0.000000000000000000, 0.000000000000000000, 1.000000000000000000 ) ) ;
#378 = ORIENTED_EDGE ( 'NONE', *, *, #801, .T. ) ;
#379 = CARTESIAN_POINT ( 'NONE',  ( -16.66179018853038940, 46.03388610333258413, -20.35391712318953239 ) ) ;
#380 = PERSON_AND_ORGANIZATION_ROLE ( 'creator' ) ;
#381 = CARTESIAN_POINT ( 'NONE',  ( -16.95106857580157111, 45.48677814630823235, 19.49999999999999645 ) ) ;
#382 = CARTESIAN_POINT ( 'NONE',  ( -2.582047676570107697, 76.30124290551191280, 18.57669073438553298 ) ) ;
#383 = CARTESIAN_POINT ( 'NONE',  ( -2.732969399366009799, 75.78942623459109029, 20.55855179507869934 ) ) ;
#384 = ORIENTED_EDGE ( 'NONE', *, *, #114, .F. ) ;
#385 = DATE_AND_TIME ( #576, #673 ) ;
#386 = EDGE_CURVE ( 'NONE', #482, #863, #18, .T. ) ;
#387 = CARTESIAN_POINT ( 'NONE',  ( -16.50731940097383443, 46.43840132269671273, 19.49999999999999645 ) ) ;
#388 = ORIENTED_EDGE ( 'NONE', *, *, #678, .F. ) ;
#389 = DIRECTION ( 'NONE',  ( -0.9063077870366474942, 0.4226182617407049924, 0.000000000000000000 ) ) ;
#390 = AXIS2_PLACEMENT_3D ( 'NONE', #417, #618, #555 ) ;
#391 = EDGE_CURVE ( 'NONE', #373, #406, #137, .T. ) ;
#392 = CYLINDRICAL_SURFACE ( 'NONE', #714, 1.049999999999991163 ) ;
#393 = CARTESIAN_POINT ( 'NONE',  ( -0.7694321026320712908, 75.45600638209356248, -19.99999999999998934 ) ) ;
#394 = LOCAL_TIME ( 16, 20, 35.00000000000000000, #125 ) ;
#395 = DIRECTION ( 'NONE',  ( -0.9063077870366480493, 0.4226182617407038822, 0.000000000000000000 ) ) ;
#396 = DIRECTION ( 'NONE',  ( -0.9063077870366480493, 0.4226182617407038822, 0.000000000000000000 ) ) ;
#397 = EDGE_CURVE ( 'NONE', #82, #170, #322, .T. ) ;
#398 = CARTESIAN_POINT ( 'NONE',  ( -3.237105982281071714, 74.89646583557750148, 19.49999999999999645 ) ) ;
#399 = B_SPLINE_CURVE_WITH_KNOTS ( 'NONE', 3,
 ( #580, #858, #794, #251, #516, #788, #383, #185, #446, #171 ),
 .UNSPECIFIED., .F., .F.,
 ( 4, 2, 2, 2, 4 ),
 ( 8.058903941119837893E-15, 0.0004114269098644013790, 0.0008228538197207437748, 0.001234280729577086171, 0.001645707639433428675 ),
 .UNSPECIFIED. ) ;
#400 = FACE_OUTER_BOUND ( 'NONE', #566, .T. ) ;
#401 = EDGE_LOOP ( 'NONE', ( #636, #753, #811, #692 ) ) ;
#402 = VERTEX_POINT ( 'NONE', #506 ) ;
#403 = VECTOR ( 'NONE', #217, 1000.000000000000000 ) ;
#404 = FACE_OUTER_BOUND ( 'NONE', #241, .T. ) ;
#405 = CYLINDRICAL_SURFACE ( 'NONE', #390, 1.999999999999996891 ) ;
#406 = VERTEX_POINT ( 'NONE', #179 ) ;
#407 = ADVANCED_FACE ( 'NONE', ( #521 ), #374, .F. ) ;
#408 =( LENGTH_UNIT ( ) NAMED_UNIT ( * ) SI_UNIT ( .MILLI., .METRE. ) );
#409 = AXIS2_PLACEMENT_3D ( 'NONE', #139, #204, #530 ) ;
#410 = CARTESIAN_POINT ( 'NONE',  ( -2.279720836620454882, 76.76712344017332157, 19.31233413707572311 ) ) ;
#411 = ORIENTED_EDGE ( 'NONE', *, *, #808, .T. ) ;
#412 = DIRECTION ( 'NONE',  ( -0.4226182617407038267, -0.9063077870366479383, 0.000000000000000000 ) ) ;
#413 = ORIENTED_EDGE ( 'NONE', *, *, #447, .T. ) ;
#414 = CYLINDRICAL_SURFACE ( 'NONE', #499, 1.049999999999998712 ) ;
#415 = CIRCLE ( 'NONE', #41, 1.049999999999998046 ) ;
#416 = VECTOR ( 'NONE', #825, 1000.000000000000000 ) ;
#417 = CARTESIAN_POINT ( 'NONE',  ( -2.582047676705359063, 76.30124290557496636, -19.99999999999999289 ) ) ;
#418 = EDGE_CURVE ( 'NONE', #419, #259, #867, .T. ) ;
#419 = VERTEX_POINT ( 'NONE', #119 ) ;
#420 = DIRECTION ( 'NONE',  ( 0.4226182617407047704, 0.9063077870366476052, 0.000000000000000000 ) ) ;
#421 = DIRECTION ( 'NONE',  ( -0.9063077870366479383, 0.4226182617407038267, 0.000000000000000000 ) ) ;
#422 = ADVANCED_FACE ( 'NONE', ( #711 ), #123, .T. ) ;
#423 = ORIENTED_EDGE ( 'NONE', *, *, #343, .T. ) ;
#424 = ORIENTED_EDGE ( 'NONE', *, *, #95, .T. ) ;
#425 = CARTESIAN_POINT ( 'NONE',  ( -0.07443344634339155164, 74.58023422674386893, 19.49999999999999645 ) ) ;
#426 = DIRECTION ( 'NONE',  ( 0.9063077870366479383, -0.4226182617407037712, -0.000000000000000000 ) ) ;
#427 = EDGE_LOOP ( 'NONE', ( #211, #579, #120, #273 ) ) ;
#428 = DIRECTION ( 'NONE',  ( 0.9063077870366479383, -0.4226182617407037712, -0.000000000000000000 ) ) ;
#429 = CARTESIAN_POINT ( 'NONE',  ( -17.39481775062931135, 44.53515496991975908, 19.49999999999999645 ) ) ;
#430 = EDGE_CURVE ( 'NONE', #440, #373, #102, .T. ) ;
#431 = CARTESIAN_POINT ( 'NONE',  ( -16.95106857580157111, 45.48677814630823235, 19.49999999999999645 ) ) ;
#432 = ORIENTED_EDGE ( 'NONE', *, *, #219, .F. ) ;
#433 = CARTESIAN_POINT ( 'NONE',  ( -2.582047676705357730, 76.30124290557498057, -19.99999999999998934 ) ) ;
#434 = CARTESIAN_POINT ( 'NONE',  ( -17.39481775062931135, 44.53515496991975908, -19.49999999999999645 ) ) ;
#435 = CARTESIAN_POINT ( 'NONE',  ( -2.540982006046750286, 76.28209366885950260, -20.42330926561450966 ) ) ;
#436 = ORIENTED_EDGE ( 'NONE', *, *, #786, .T. ) ;
#437 = CARTESIAN_POINT ( 'NONE',  ( -17.22688285514533391, 44.84512903453078536, -20.30654151649042305 ) ) ;
#438 = DIRECTION ( 'NONE',  ( 0.4226182617407046593, 0.9063077870366476052, 0.000000000000000000 ) ) ;
#439 =( GEOMETRIC_REPRESENTATION_CONTEXT ( 3 ) GLOBAL_UNCERTAINTY_ASSIGNED_CONTEXT ( ( #684 ) ) GLOBAL_UNIT_ASSIGNED_CONTEXT ( ( #408, #679, #79 ) ) REPRESENTATION_CONTEXT ( 'NONE', 'WORKASPACE' ) );
#440 = VERTEX_POINT ( 'NONE', #575 ) ;
#441 = DIRECTION ( 'NONE',  ( 0.9063077870366479383, -0.4226182617407037712, -0.000000000000000000 ) ) ;
#442 = CIRCLE ( 'NONE', #517, 1.999999999999997113 ) ;
#443 = CALENDAR_DATE ( 2026, 7, 1 ) ;
#444 = DIRECTION ( 'NONE',  ( -0.4226182617407051034, -0.9063077870366473832, 0.000000000000000000 ) ) ;
#445 = ORIENTED_EDGE ( 'NONE', *, *, #143, .T. ) ;
#446 = CARTESIAN_POINT ( 'NONE',  ( -2.579089518130849523, 76.16694290480211293, 20.48854578449195429 ) ) ;
#447 = EDGE_CURVE ( 'NONE', #777, #112, #526, .T. ) ;
#448 = AXIS2_PLACEMENT_3D ( 'NONE', #749, #822, #473 ) ;
#449 = CALENDAR_DATE ( 2026, 7, 1 ) ;
#450 = CIRCLE ( 'NONE', #409, 1.049999999999998046 ) ;
#451 = CARTESIAN_POINT ( 'NONE',  ( -15.49999999999607603, 41.50000000000841993, 76.26183934523054120 ) ) ;
#452 = EDGE_LOOP ( 'NONE', ( #677, #166, #130, #510 ) ) ;
#453 = DIRECTION ( 'NONE',  ( 6.667740490394042894E-34, 1.429901562581164355E-33, -1.000000000000000000 ) ) ;
#454 = ORIENTED_EDGE ( 'NONE', *, *, #614, .F. ) ;
#455 = CC_DESIGN_PERSON_AND_ORGANIZATION_ASSIGNMENT ( #724, #257, ( #70 ) ) ;
#456 = CARTESIAN_POINT ( 'NONE',  ( -0.7694321026320679602, 75.45600638209357669, 21.99999999999999289 ) ) ;
#457 = VERTEX_POINT ( 'NONE', #247 ) ;
#458 = CARTESIAN_POINT ( 'NONE',  ( -0.07443344634339155164, 74.58023422674386893, -19.49999999999999645 ) ) ;
#459 = CIRCLE ( 'NONE', #83, 1.049999999999991385 ) ;
#460 = CIRCLE ( 'NONE', #877, 1.049999999999998712 ) ;
#461 = EDGE_CURVE ( 'NONE', #467, #866, #399, .T. ) ;
#462 = DIRECTION ( 'NONE',  ( 0.4226182617407046593, 0.9063077870366476052, 0.000000000000000000 ) ) ;
#463 = ORIENTED_EDGE ( 'NONE', *, *, #844, .T. ) ;
#464 = VERTEX_POINT ( 'NONE', #651 ) ;
#465 = CARTESIAN_POINT ( 'NONE',  ( -0.7694321026320647405, 75.45600638209356248, -19.99999999999999289 ) ) ;
#466 = DIRECTION ( 'NONE',  ( -0.9063077870366480493, 0.4226182617407038822, 0.000000000000000000 ) ) ;
#467 = VERTEX_POINT ( 'NONE', #584 ) ;
#468 = DIRECTION ( 'NONE',  ( -0.9063077870366480493, 0.4226182617407038822, 0.000000000000000000 ) ) ;
#469 = CARTESIAN_POINT ( 'NONE',  ( -2.279720836620513946, 76.76712344017326473, -19.67418803310766862 ) ) ;
#470 = EDGE_CURVE ( 'NONE', #28, #878, #255, .T. ) ;
#471 = EDGE_LOOP ( 'NONE', ( #541, #445, #612, #585, #522, #574, #828 ) ) ;
#472 = B_SPLINE_CURVE_WITH_KNOTS ( 'NONE', 3,
 ( #328, #871, #265, #531, #857, #250 ),
 .UNSPECIFIED., .F., .F.,
 ( 4, 2, 4 ),
 ( 3.496446946337351263E-18, 0.0002599938026349085446, 0.0005199876052698136197 ),
 .UNSPECIFIED. ) ;
#473 = DIRECTION ( 'NONE',  ( -0.4226182617407044928, -0.9063077870366477162, 0.000000000000000000 ) ) ;
#474 = DIRECTION ( 'NONE',  ( 0.9063077870366479383, -0.4226182617407037712, -0.000000000000000000 ) ) ;
#475 = ORIENTED_EDGE ( 'NONE', *, *, #817, .F. ) ;
#476 = DIRECTION ( 'NONE',  ( -0.4226182617407045483, -0.9063077870366476052, 3.469446951953619316E-15 ) ) ;
#477 = AXIS2_PLACEMENT_3D ( 'NONE', #111, #377, #252 ) ;
#478 = CARTESIAN_POINT ( 'NONE',  ( -2.279720836620344748, 76.76712344017360579, -19.50000000000054001 ) ) ;
#479 = VERTEX_POINT ( 'NONE', #192 ) ;
#480 = CARTESIAN_POINT ( 'NONE',  ( 0.1368756844045836418, 75.03338812035285343, -19.99999999999999289 ) ) ;
#481 = DIRECTION ( 'NONE',  ( -0.4226182617407032160, -0.9063077870366481603, 0.000000000000000000 ) ) ;
#482 = VERTEX_POINT ( 'NONE', #242 ) ;
#483 = CARTESIAN_POINT ( 'NONE',  ( -2.793356807453335477, 75.84808901196598185, 19.49999999999999645 ) ) ;
#484 = AXIS2_PLACEMENT_3D ( 'NONE', #767, #216, #476 ) ;
#485 = EDGE_CURVE ( 'NONE', #866, #674, #600, .T. ) ;
#486 = APPROVAL_ROLE ( '' ) ;
#487 = AXIS2_PLACEMENT_3D ( 'NONE', #3, #140, #680 ) ;
#488 = AXIS2_PLACEMENT_3D ( 'NONE', #458, #729, #639 ) ;
#489 = DIRECTION ( 'NONE',  ( -0.9063077870366480493, 0.4226182617407038822, 0.000000000000000000 ) ) ;
#490 = ORIENTED_EDGE ( 'NONE', *, *, #27, .F. ) ;
#491 = DIRECTION ( 'NONE',  ( 0.000000000000000000, -1.000000000000000000, -1.429901562581164697E-33 ) ) ;
#492 = AXIS2_PLACEMENT_3D ( 'NONE', #465, #736, #327 ) ;
#493 = ORIENTED_EDGE ( 'NONE', *, *, #87, .F. ) ;
#494 = DIRECTION ( 'NONE',  ( 0.9063077870366480493, -0.4226182617407038267, 0.000000000000000000 ) ) ;
#495 = ORIENTED_EDGE ( 'NONE', *, *, #508, .T. ) ;
#496 = CARTESIAN_POINT ( 'NONE',  ( 0.1368756844045845023, 75.03338812035285343, 19.99999999999998934 ) ) ;
#497 = EDGE_CURVE ( 'NONE', #674, #798, #369, .T. ) ;
#498 = CARTESIAN_POINT ( 'NONE',  ( 0.3693157284843430199, 75.53185740313233509, -19.49999999999999645 ) ) ;
#499 = AXIS2_PLACEMENT_3D ( 'NONE', #759, #428, #98 ) ;
#500 = ORIENTED_EDGE ( 'NONE', *, *, #114, .T. ) ;
#501 = B_SPLINE_CURVE_WITH_KNOTS ( 'NONE', 3,
 ( #478, #469, #602, #750 ),
 .UNSPECIFIED., .F., .F.,
 ( 4, 4 ),
 ( 0.001125499539408587532, 0.001645707639363472264 ),
 .UNSPECIFIED. ) ;
#502 = CC_DESIGN_PERSON_AND_ORGANIZATION_ASSIGNMENT ( #609, #11, ( #266 ) ) ;
#503 = DIRECTION ( 'NONE',  ( 1.000000000000000000, 0.000000000000000000, 0.000000000000000000 ) ) ;
#504 = DIRECTION ( 'NONE',  ( -0.9063077870366480493, 0.4226182617407038822, 0.000000000000000000 ) ) ;
#505 = ORIENTED_EDGE ( 'NONE', *, *, #418, .F. ) ;
#506 = CARTESIAN_POINT ( 'NONE',  ( -0.7694321026320671830, 75.45600638209356248, -21.99999999999999289 ) ) ;
#507 = DATE_AND_TIME ( #194, #256 ) ;
#508 = EDGE_CURVE ( 'NONE', #798, #419, #641, .T. ) ;
#509 = PLANE ( 'NONE',  #630 ) ;
#510 = ORIENTED_EDGE ( 'NONE', *, *, #844, .F. ) ;
#511 = CARTESIAN_POINT ( 'NONE',  ( -0.7694321026320638524, 75.45600638209356248, 19.99999999999998934 ) ) ;
#512 = PERSON_AND_ORGANIZATION ( #855, #560 ) ;
#513 = EDGE_CURVE ( 'NONE', #10, #13, #572, .T. ) ;
#514 = CARTESIAN_POINT ( 'NONE',  ( -16.50731940097383443, 46.43840132269671273, -19.49999999999999645 ) ) ;
#515 = DIRECTION ( 'NONE',  ( -0.4226182617407049369, -0.9063077870366473832, 0.000000000000000000 ) ) ;
#516 = CARTESIAN_POINT ( 'NONE',  ( -2.925623937575486000, 75.43444862641565862, 20.46729027058277950 ) ) ;
#517 = AXIS2_PLACEMENT_3D ( 'NONE', #693, #494, #355 ) ;
#518 = DIRECTION ( 'NONE',  ( 0.9063077870366479383, -0.4226182617407037712, -0.000000000000000000 ) ) ;
#519 = SECURITY_CLASSIFICATION ( '', '', #779 ) ;
#520 = ORIENTED_EDGE ( 'NONE', *, *, #508, .F. ) ;
#521 = FACE_OUTER_BOUND ( 'NONE', #306, .T. ) ;
#522 = ORIENTED_EDGE ( 'NONE', *, *, #50, .T. ) ;
#523 = COORDINATED_UNIVERSAL_TIME_OFFSET ( 8, 0, .BEHIND. ) ;
#524 = CARTESIAN_POINT ( 'NONE',  ( 0.1368756844045970755, 75.03338812035286765, -21.99999999999999289 ) ) ;
#525 = CARTESIAN_POINT ( 'NONE',  ( -2.540982006046801356, 76.28209366885936049, 20.42330926561459137 ) ) ;
#526 = LINE ( 'NONE', #175, #806 ) ;
#527 = EDGE_LOOP ( 'NONE', ( #835, #62, #687, #97, #490, #106, #23, #821 ) ) ;
#528 = EDGE_CURVE ( 'NONE', #563, #373, #460, .T. ) ;
#529 = DATE_AND_TIME ( #314, #144 ) ;
#530 = DIRECTION ( 'NONE',  ( -0.4226182617407032160, -0.9063077870366481603, 0.000000000000000000 ) ) ;
#531 = CARTESIAN_POINT ( 'NONE',  ( -2.287281643383740182, 76.75855089837857292, 19.67445960098644875 ) ) ;
#532 = VECTOR ( 'NONE', #77, 1000.000000000000114 ) ;
#533 = VECTOR ( 'NONE', #778, 1000.000000000000114 ) ;
#534 = CARTESIAN_POINT ( 'NONE',  ( -16.59916642753872296, 46.24143473880803867, 20.16737352440852504 ) ) ;
#535 = CARTESIAN_POINT ( 'NONE',  ( -2.582047676570107697, 76.30124290551191280, -18.57669073438553298 ) ) ;
#536 = ORIENTED_EDGE ( 'NONE', *, *, #1, .T. ) ;
#537 = AXIS2_PLACEMENT_3D ( 'NONE', #99, #744, #224 ) ;
#538 = EDGE_CURVE ( 'NONE', #597, #312, #84, .T. ) ;
#539 = CARTESIAN_POINT ( 'NONE',  ( -17.29402742356534972, 44.73903614186914268, 20.15925638054127234 ) ) ;
#540 = DIRECTION ( 'NONE',  ( -0.4226182617407037712, -0.9063077870366479383, 0.000000000000000000 ) ) ;
#541 = ORIENTED_EDGE ( 'NONE', *, *, #1, .F. ) ;
#542 = CARTESIAN_POINT ( 'NONE',  ( 0.07580442084934306546, 77.26862195616685369, -19.99999999999998934 ) ) ;
#543 = DIRECTION ( 'NONE',  ( 0.9063077870366479383, -0.4226182617407037712, -0.000000000000000000 ) ) ;
#544 = ORIENTED_EDGE ( 'NONE', *, *, #766, .T. ) ;
#545 = AXIS2_PLACEMENT_3D ( 'NONE', #745, #421, #412 ) ;
#546 = CARTESIAN_POINT ( 'NONE',  ( -16.40630778703273052, 41.92261826174912187, -19.99999999999999289 ) ) ;
#547 = DIRECTION ( 'NONE',  ( -0.4226182617407051034, -0.9063077870366473832, 0.000000000000000000 ) ) ;
#548 = EDGE_LOOP ( 'NONE', ( #619, #662, #236, #222 ) ) ;
#549 = DIRECTION ( 'NONE',  ( -1.000000000000000000, 0.000000000000000000, 0.000000000000000000 ) ) ;
#550 = LINE ( 'NONE', #278, #199 ) ;
#551 = VERTEX_POINT ( 'NONE', #371 ) ;
#552 = CARTESIAN_POINT ( 'NONE',  ( -0.7694321026320526391, 75.45600638209359090, -21.99999999999999289 ) ) ;
#553 = EDGE_CURVE ( 'NONE', #82, #650, #570, .T. ) ;
#554 = PERSON_AND_ORGANIZATION ( #855, #560 ) ;
#555 = DIRECTION ( 'NONE',  ( 0.4226182617407044928, 0.9063077870366477162, 0.000000000000000000 ) ) ;
#556 = ORIENTED_EDGE ( 'NONE', *, *, #183, .F. ) ;
#557 = DIRECTION ( 'NONE',  ( -0.9063077870366480493, 0.4226182617407038822, 0.000000000000000000 ) ) ;
#558 = VECTOR ( 'NONE', #589, 1000.000000000000000 ) ;
#559 = ORIENTED_EDGE ( 'NONE', *, *, #786, .F. ) ;
#560 = ORGANIZATION ( 'UNSPECIFIED', 'UNSPECIFIED', '' ) ;
#561 = ADVANCED_FACE ( 'NONE', ( #573, #51, #104, #856, #707 ), #509, .F. ) ;
#562 = AXIS2_PLACEMENT_3D ( 'NONE', #177, #426, #438 ) ;
#563 = VERTEX_POINT ( 'NONE', #514 ) ;
#564 = DIRECTION ( 'NONE',  ( -6.667740490394042894E-34, -1.429901562581164355E-33, 1.000000000000000000 ) ) ;
#565 = PLANE ( 'NONE',  #147 ) ;
#566 = EDGE_LOOP ( 'NONE', ( #544, #632, #800, #493, #350, #781, #332 ) ) ;
#567 = DIRECTION ( 'NONE',  ( 1.000000000000000000, 0.000000000000000000, -0.000000000000000000 ) ) ;
#568 = CYLINDRICAL_SURFACE ( 'NONE', #562, 1.049999999999998712 ) ;
#569 = VECTOR ( 'NONE', #474, 1000.000000000000000 ) ;
#570 = CIRCLE ( 'NONE', #110, 1.049999999999991385 ) ;
#571 = ORIENTED_EDGE ( 'NONE', *, *, #538, .T. ) ;
#572 = LINE ( 'NONE', #850, #756 ) ;
#573 = FACE_OUTER_BOUND ( 'NONE', #815, .T. ) ;
#574 = ORIENTED_EDGE ( 'NONE', *, *, #470, .T. ) ;
#575 = CARTESIAN_POINT ( 'NONE',  ( -3.183564164343379410, 75.01128663468153945, -19.99999999999999289 ) ) ;
#576 = CALENDAR_DATE ( 2026, 7, 1 ) ;
#577 = ADVANCED_FACE ( 'NONE', ( #713 ), #117, .T. ) ;
#578 = DIRECTION ( 'NONE',  ( -0.4226182617407032160, -0.9063077870366481603, 0.000000000000000000 ) ) ;
#579 = ORIENTED_EDGE ( 'NONE', *, *, #747, .T. ) ;
#580 = CARTESIAN_POINT ( 'NONE',  ( -3.183564164343378078, 75.01128663468153945, 19.99999999999998934 ) ) ;
#581 = PERSON_AND_ORGANIZATION ( #855, #560 ) ;
#582 = CARTESIAN_POINT ( 'NONE',  ( -2.733477415476871286, 75.78829144136641105, -20.55861816016174259 ) ) ;
#583 = ORIENTED_EDGE ( 'NONE', *, *, #348, .F. ) ;
#584 = CARTESIAN_POINT ( 'NONE',  ( -3.183564164343378078, 75.01128663468153945, 19.99999999999998934 ) ) ;
#585 = ORIENTED_EDGE ( 'NONE', *, *, #7, .T. ) ;
#586 = PERSON_AND_ORGANIZATION ( #855, #560 ) ;
#587 = LINE ( 'NONE', #666, #338 ) ;
#588 = EDGE_CURVE ( 'NONE', #10, #674, #43, .T. ) ;
#589 = DIRECTION ( 'NONE',  ( 0.9063077870366479383, -0.4226182617407037712, -0.000000000000000000 ) ) ;
#590 = DIRECTION ( 'NONE',  ( -0.4226182617407038267, -0.9063077870366479383, 0.000000000000000000 ) ) ;
#591 = ORIENTED_EDGE ( 'NONE', *, *, #430, .F. ) ;
#592 = APPROVAL_DATE_TIME ( #115, #812 ) ;
#593 = DIRECTION ( 'NONE',  ( 0.9063077870366479383, -0.4226182617407037712, 0.000000000000000000 ) ) ;
#594 = ORIENTED_EDGE ( 'NONE', *, *, #27, .T. ) ;
#595 = EDGE_LOOP ( 'NONE', ( #277, #174 ) ) ;
#596 = CARTESIAN_POINT ( 'NONE',  ( -16.96098485630400177, 45.28310139570185555, 20.54992575709603386 ) ) ;
#597 = VERTEX_POINT ( 'NONE', #498 ) ;
#598 = CIRCLE ( 'NONE', #829, 2.000000000000000000 ) ;
#599 = ORIENTED_EDGE ( 'NONE', *, *, #528, .T. ) ;
#600 = CIRCLE ( 'NONE', #847, 2.000000000000000444 ) ;
#601 = DIRECTION ( 'NONE',  ( -0.4226182617407051034, -0.9063077870366473832, 0.000000000000000000 ) ) ;
#602 = CARTESIAN_POINT ( 'NONE',  ( -2.311034686145503336, 76.73294974206460495, -19.84768159472528026 ) ) ;
#603 = APPLICATION_CONTEXT ( 'configuration controlled 3d designs of mechanical parts and assemblies' ) ;
#604 = AXIS2_PLACEMENT_3D ( 'NONE', #780, #305, #578 ) ;
#605 = ADVANCED_FACE ( 'NONE', ( #362 ), #173, .F. ) ;
#606 = DIRECTION ( 'NONE',  ( 0.4226182617407047704, 0.9063077870366476052, 0.000000000000000000 ) ) ;
#607 = DIRECTION ( 'NONE',  ( -0.9063077870366480493, 0.4226182617407038822, 0.000000000000000000 ) ) ;
#608 = ORIENTED_EDGE ( 'NONE', *, *, #461, .F. ) ;
#609 = PERSON_AND_ORGANIZATION ( #855, #560 ) ;
#610 = CARTESIAN_POINT ( 'NONE',  ( -2.582047676570107697, 76.30124290551191280, 18.57669073438553298 ) ) ;
#611 = EDGE_CURVE ( 'NONE', #646, #440, #206, .T. ) ;
#612 = ORIENTED_EDGE ( 'NONE', *, *, #461, .T. ) ;
#613 = LINE ( 'NONE', #429, #372 ) ;
#614 = EDGE_CURVE ( 'NONE', #312, #597, #5, .T. ) ;
#615 = ORIENTED_EDGE ( 'NONE', *, *, #773, .F. ) ;
#616 = DIRECTION ( 'NONE',  ( 0.4226182617407038267, 0.9063077870366479383, -0.000000000000000000 ) ) ;
#617 = MECHANICAL_CONTEXT ( 'NONE', #603, 'mechanical' ) ;
#618 = DIRECTION ( 'NONE',  ( 0.9063077870366480493, -0.4226182617407038267, 0.000000000000000000 ) ) ;
#619 = ORIENTED_EDGE ( 'NONE', *, *, #624, .T. ) ;
#620 = CC_DESIGN_DATE_AND_TIME_ASSIGNMENT ( #529, #248, ( #519 ) ) ;
#621 = FACE_OUTER_BOUND ( 'NONE', #207, .T. ) ;
#622 = VERTEX_POINT ( 'NONE', #315 ) ;
#623 = CARTESIAN_POINT ( 'NONE',  ( -16.50731940097383443, 46.43840132269671273, -19.49999999999999645 ) ) ;
#624 = EDGE_CURVE ( 'NONE', #770, #700, #748, .T. ) ;
#625 = VECTOR ( 'NONE', #21, 1000.000000000000000 ) ;
#626 = B_SPLINE_CURVE_WITH_KNOTS ( 'NONE', 3,
 ( #525, #336, #321, #325 ),
 .UNSPECIFIED., .F., .F.,
 ( 4, 4 ),
 ( 3.705370968959021185E-18, 0.0006055562764241071696 ),
 .UNSPECIFIED. ) ;
#627 = VERTEX_POINT ( 'NONE', #245 ) ;
#628 = DIRECTION ( 'NONE',  ( -0.4226182617407045483, -0.9063077870366476052, -1.734723475976809658E-15 ) ) ;
#629 = CC_DESIGN_APPROVAL ( #648, ( #70 ) ) ;
#630 = AXIS2_PLACEMENT_3D ( 'NONE', #848, #235, #775 ) ;
#631 = DIRECTION ( 'NONE',  ( -0.4226182617407049369, -0.9063077870366473832, 0.000000000000000000 ) ) ;
#632 = ORIENTED_EDGE ( 'NONE', *, *, #152, .T. ) ;
#633 = CARTESIAN_POINT ( 'NONE',  ( -13.78839603986388873, 45.17054653747460691, 19.49999999999999645 ) ) ;
#634 = DIRECTION ( 'NONE',  ( -0.4226182617407045483, -0.9063077870366476052, -3.469446951953619316E-15 ) ) ;
#635 = DIRECTION ( 'NONE',  ( -0.4226182617407046593, -0.9063077870366476052, 0.000000000000000000 ) ) ;
#636 = ORIENTED_EDGE ( 'NONE', *, *, #343, .F. ) ;
#637 = CARTESIAN_POINT ( 'NONE',  ( -16.40630778703273052, 41.92261826174912187, 19.99999999999999289 ) ) ;
#638 = CARTESIAN_POINT ( 'NONE',  ( -2.540982006046801356, 76.28209366885936049, 20.42330926561459137 ) ) ;
#639 = DIRECTION ( 'NONE',  ( -0.4226182617407049369, -0.9063077870366473832, 0.000000000000000000 ) ) ;
#640 = CIRCLE ( 'NONE', #785, 1.999999999999997113 ) ;
#641 = CIRCLE ( 'NONE', #270, 2.000000000000000888 ) ;
#642 = ORIENTED_EDGE ( 'NONE', *, *, #391, .T. ) ;
#643 = CARTESIAN_POINT ( 'NONE',  ( -16.73682080845770770, 45.80332837742340502, -20.49746784948091971 ) ) ;
#644 = EDGE_CURVE ( 'NONE', #112, #20, #74, .T. ) ;
#645 = CARTESIAN_POINT ( 'NONE',  ( -3.107674990412463867, 75.14741297833275269, -20.22906986042795197 ) ) ;
#646 = VERTEX_POINT ( 'NONE', #182 ) ;
#647 = CARTESIAN_POINT ( 'NONE',  ( -31.34594953089949598, 14.61685631839870503, 19.99999999999999289 ) ) ;
#648 = APPROVAL ( #730, 'UNSPECIFIED' ) ;
#649 = DIRECTION ( 'NONE',  ( -0.4226182617407037712, -0.9063077870366479383, -1.577721810442023986E-33 ) ) ;
#650 = VERTEX_POINT ( 'NONE', #249 ) ;
#651 = CARTESIAN_POINT ( 'NONE',  ( -15.49999999999607603, 41.50000000000841993, -21.99999999999999289 ) ) ;
#652 = ORIENTED_EDGE ( 'NONE', *, *, #497, .F. ) ;
#653 = COORDINATED_UNIVERSAL_TIME_OFFSET ( 8, 0, .BEHIND. ) ;
#654 = ADVANCED_FACE ( 'NONE', ( #763 ), #565, .F. ) ;
#655 = CARTESIAN_POINT ( 'NONE',  ( -2.362083780042567582, 76.66574215259946357, -19.99999999999974776 ) ) ;
#656 = LINE ( 'NONE', #398, #558 ) ;
#657 = CIRCLE ( 'NONE', #109, 2.000000000000000000 ) ;
#658 = CARTESIAN_POINT ( 'NONE',  ( -29.53333395682620122, 13.77161979491729937, 21.99999999999999289 ) ) ;
#659 = ADVANCED_FACE ( 'NONE', ( #367 ), #568, .F. ) ;
#660 = CARTESIAN_POINT ( 'NONE',  ( -2.540982006046750286, 76.28209366885950260, -20.42330926561450966 ) ) ;
#661 = CARTESIAN_POINT ( 'NONE',  ( -2.279720836620454882, 76.76712344017333578, 19.49999999999999645 ) ) ;
#662 = ORIENTED_EDGE ( 'NONE', *, *, #817, .T. ) ;
#663 = CARTESIAN_POINT ( 'NONE',  ( -17.32211807227954026, 44.69105993325965187, 20.08370972875272997 ) ) ;
#664 = CARTESIAN_POINT ( 'NONE',  ( -2.404358764561162154, 76.60900291896648184, -18.88203416260915191 ) ) ;
#665 = ADVANCED_FACE ( 'NONE', ( #96 ), #739, .T. ) ;
#666 = CARTESIAN_POINT ( 'NONE',  ( 0.07580442084934138625, 77.26862195616685369, 19.99999999999998934 ) ) ;
#667 = CARTESIAN_POINT ( 'NONE',  ( 0.1368756844045970755, 75.03338812035286765, 21.99999999999999289 ) ) ;
#668 = ORIENTED_EDGE ( 'NONE', *, *, #81, .T. ) ;
#669 = EDGE_CURVE ( 'NONE', #402, #705, #208, .T. ) ;
#670 = AXIS2_PLACEMENT_3D ( 'NONE', #276, #540, #16 ) ;
#671 = CARTESIAN_POINT ( 'NONE',  ( -16.95106857580157111, 45.48677814630823235, -19.49999999999999645 ) ) ;
#672 = FACE_OUTER_BOUND ( 'NONE', #452, .T. ) ;
#673 = LOCAL_TIME ( 16, 20, 35.00000000000000000, #869 ) ;
#674 = VERTEX_POINT ( 'NONE', #456 ) ;
#675 = DIRECTION ( 'NONE',  ( 0.000000000000000000, 0.000000000000000000, 1.000000000000000000 ) ) ;
#676 = CARTESIAN_POINT ( 'NONE',  ( -31.34594953089949598, 14.61685631839870503, 19.99999999999999289 ) ) ;
#677 = ORIENTED_EDGE ( 'NONE', *, *, #669, .F. ) ;
#678 = EDGE_CURVE ( 'NONE', #406, #777, #340, .T. ) ;
#679 =( NAMED_UNIT ( * ) PLANE_ANGLE_UNIT ( ) SI_UNIT ( $, .RADIAN. ) );
#680 = DIRECTION ( 'NONE',  ( -0.4226182617407046593, -0.9063077870366476052, 0.000000000000000000 ) ) ;
#681 = ORIENTED_EDGE ( 'NONE', *, *, #801, .F. ) ;
#682 = CARTESIAN_POINT ( 'NONE',  ( -0.5181826211711273444, 73.62861105035540277, 19.49999999999999645 ) ) ;
#683 = AXIS2_PLACEMENT_3D ( 'NONE', #202, #715, #133 ) ;
#684 = UNCERTAINTY_MEASURE_WITH_UNIT (LENGTH_MEASURE( 1.000000000000000082E-05 ), #408, 'distance_accuracy_value', 'NONE');
#685 = DIRECTION ( 'NONE',  ( -0.9063077870366480493, 0.4226182617407038822, 0.000000000000000000 ) ) ;
#686 = DIRECTION ( 'NONE',  ( -0.4226182617407038267, -0.9063077870366479383, 0.000000000000000000 ) ) ;
#687 = ORIENTED_EDGE ( 'NONE', *, *, #33, .F. ) ;
#688 = DIRECTION ( 'NONE',  ( 0.000000000000000000, 0.000000000000000000, 1.000000000000000000 ) ) ;
#689 = CARTESIAN_POINT ( 'NONE',  ( -2.793356807453335477, 75.84808901196598185, 19.49999999999999645 ) ) ;
#690 = ORIENTED_EDGE ( 'NONE', *, *, #485, .F. ) ;
#691 = FACE_OUTER_BOUND ( 'NONE', #527, .T. ) ;
#692 = ORIENTED_EDGE ( 'NONE', *, *, #348, .T. ) ;
#693 = CARTESIAN_POINT ( 'NONE',  ( -0.7694321026320636303, 75.45600638209356248, -19.99999999999999289 ) ) ;
#694 = ADVANCED_FACE ( 'NONE', ( #797 ), #264, .T. ) ;
#695 = CARTESIAN_POINT ( 'NONE',  ( -2.579480228208228976, 76.16576228288596440, -20.48921464383086288 ) ) ;
#696 = ORIENTED_EDGE ( 'NONE', *, *, #183, .T. ) ;
#697 = CARTESIAN_POINT ( 'NONE',  ( 0.9821122078859945148, 76.84600369442614465, 19.99999999999998934 ) ) ;
#698 = B_SPLINE_CURVE_WITH_KNOTS ( 'NONE', 3,
 ( #90, #410, #157, #341, #146, #610 ),
 .UNSPECIFIED., .F., .F.,
 ( 4, 2, 4 ),
 ( 0.0005199876052698136197, 0.001083341917012152879, 0.001646696228754492139 ),
 .UNSPECIFIED. ) ;
#699 = DIRECTION ( 'NONE',  ( 0.4226182617407046593, 0.9063077870366476052, 0.000000000000000000 ) ) ;
#700 = VERTEX_POINT ( 'NONE', #195 ) ;
#701 = DIRECTION ( 'NONE',  ( 0.4226182617407046038, 0.9063077870366477162, -0.000000000000000000 ) ) ;
#702 = CARTESIAN_POINT ( 'NONE',  ( 0.000000000000000000, 0.000000000000000000, 0.000000000000000000 ) ) ;
#703 = EDGE_CURVE ( 'NONE', #20, #112, #450, .T. ) ;
#704 = CARTESIAN_POINT ( 'NONE',  ( -2.624856573141721494, 76.04025595311864549, -20.53019354385633477 ) ) ;
#705 = VERTEX_POINT ( 'NONE', #524 ) ;
#706 = DIRECTION ( 'NONE',  ( 0.4226182617407047704, 0.9063077870366476052, 0.000000000000000000 ) ) ;
#707 = FACE_BOUND ( 'NONE', #155, .T. ) ;
#708 = VECTOR ( 'NONE', #58, 1000.000000000000000 ) ;
#709 = EDGE_CURVE ( 'NONE', #13, #464, #803, .T. ) ;
#710 = EDGE_LOOP ( 'NONE', ( #88, #151, #764, #122 ) ) ;
#711 = FACE_OUTER_BOUND ( 'NONE', #868, .T. ) ;
#712 = APPROVAL_ROLE ( '' ) ;
#713 = FACE_OUTER_BOUND ( 'NONE', #710, .T. ) ;
#714 = AXIS2_PLACEMENT_3D ( 'NONE', #726, #135, #606 ) ;
#715 = DIRECTION ( 'NONE',  ( -0.9063077870366480493, 0.4226182617407038822, 0.000000000000000000 ) ) ;
#716 = AXIS2_PLACEMENT_3D ( 'NONE', #769, #100, #631 ) ;
#717 = CARTESIAN_POINT ( 'NONE',  ( -16.96059699961141476, 45.28383277203538881, -20.55007408015530856 ) ) ;
#718 = ORIENTED_EDGE ( 'NONE', *, *, #283, .F. ) ;
#719 = ADVANCED_FACE ( 'NONE', ( #404 ), #392, .F. ) ;
#720 = PERSON_AND_ORGANIZATION_ROLE ( 'design_supplier' ) ;
#721 = FACE_OUTER_BOUND ( 'NONE', #78, .T. ) ;
#722 = ORIENTED_EDGE ( 'NONE', *, *, #22, .T. ) ;
#723 = CARTESIAN_POINT ( 'NONE',  ( -0.7694321026320638524, 75.45600638209357669, 19.99999999999998934 ) ) ;
#724 = PERSON_AND_ORGANIZATION ( #855, #560 ) ;
#725 = CC_DESIGN_PERSON_AND_ORGANIZATION_ASSIGNMENT ( #783, #854, ( #519 ) ) ;
#726 = CARTESIAN_POINT ( 'NONE',  ( -2.793356807453335477, 75.84808901196598185, 19.49999999999999645 ) ) ;
#727 = CARTESIAN_POINT ( 'NONE',  ( -13.78839603986388873, 45.17054653747460691, -19.49999999999999645 ) ) ;
#728 = VECTOR ( 'NONE', #234, 1000.000000000000114 ) ;
#729 = DIRECTION ( 'NONE',  ( -0.9063077870366480493, 0.4226182617407038822, 0.000000000000000000 ) ) ;
#730 = APPROVAL_STATUS ( 'not_yet_approved' ) ;
#731 = APPLICATION_CONTEXT ( 'configuration controlled 3d designs of mechanical parts and assemblies' ) ;
#732 = CARTESIAN_POINT ( 'NONE',  ( -2.793356807453335477, 75.84808901196598185, -19.49999999999999645 ) ) ;
#733 = CARTESIAN_POINT ( 'NONE',  ( -15.49999999999607248, 41.50000000000842704, 21.99999999999999289 ) ) ;
#734 = ADVANCED_BREP_SHAPE_REPRESENTATION ( 'link5cap', ( #834, #802 ), #439 ) ;
#735 = VERTEX_POINT ( 'NONE', #813 ) ;
#736 = DIRECTION ( 'NONE',  ( 0.000000000000000000, 0.000000000000000000, 1.000000000000000000 ) ) ;
#737 = ADVANCED_FACE ( 'NONE', ( #721 ), #71, .F. ) ;
#738 = ORIENTED_EDGE ( 'NONE', *, *, #709, .T. ) ;
#739 = SPHERICAL_SURFACE ( 'NONE', #492, 2.000000000000000000 ) ;
#740 = FACE_OUTER_BOUND ( 'NONE', #159, .T. ) ;
#741 = PRODUCT_DEFINITION ( 'UNKNOWN', '', #70, #352 ) ;
#742 = ORIENTED_EDGE ( 'NONE', *, *, #219, .T. ) ;
#743 = ADVANCED_FACE ( 'NONE', ( #400 ), #67, .F. ) ;
#744 = DIRECTION ( 'NONE',  ( -0.9063077870366480493, 0.4226182617407038822, 0.000000000000000000 ) ) ;
#745 = CARTESIAN_POINT ( 'NONE',  ( -31.34594953089949598, 14.61685631839870503, 0.000000000000000000 ) ) ;
#746 = ORIENTED_EDGE ( 'NONE', *, *, #766, .F. ) ;
#747 = EDGE_CURVE ( 'NONE', #863, #184, #587, .T. ) ;
#748 = CIRCLE ( 'NONE', #365, 1.049999999999998712 ) ;
#749 = CARTESIAN_POINT ( 'NONE',  ( -2.582047676705358175, 76.30124290557496636, 19.99999999999998934 ) ) ;
#750 = CARTESIAN_POINT ( 'NONE',  ( -2.362083780042567582, 76.66574215259946357, -19.99999999999974776 ) ) ;
#751 = EDGE_LOOP ( 'NONE', ( #68, #357, #142, #323 ) ) ;
#752 = DIRECTION ( 'NONE',  ( 0.9063077870366477162, -0.4226182617407041042, 0.000000000000000000 ) ) ;
#753 = ORIENTED_EDGE ( 'NONE', *, *, #359, .T. ) ;
#754 = LINE ( 'NONE', #840, #728 ) ;
#755 = CIRCLE ( 'NONE', #25, 2.000000000000000444 ) ;
#756 = VECTOR ( 'NONE', #129, 1000.000000000000114 ) ;
#757 = LINE ( 'NONE', #676, #532 ) ;
#758 = ORIENTED_EDGE ( 'NONE', *, *, #60, .T. ) ;
#759 = CARTESIAN_POINT ( 'NONE',  ( -16.95106857580157111, 45.48677814630823235, 19.49999999999999645 ) ) ;
#760 = EDGE_CURVE ( 'NONE', #622, #646, #776, .T. ) ;
#761 = ORIENTED_EDGE ( 'NONE', *, *, #359, .F. ) ;
#762 = CARTESIAN_POINT ( 'NONE',  ( 0.9821122078859934046, 76.84600369442614465, 76.26183934523054120 ) ) ;
#763 = FACE_OUTER_BOUND ( 'NONE', #427, .T. ) ;
#764 = ORIENTED_EDGE ( 'NONE', *, *, #126, .T. ) ;
#765 = FACE_OUTER_BOUND ( 'NONE', #471, .T. ) ;
#766 = EDGE_CURVE ( 'NONE', #440, #551, #46, .T. ) ;
#767 = CARTESIAN_POINT ( 'NONE',  ( -0.7694321026320628532, 75.45600638209356248, 19.99999999999998934 ) ) ;
#768 = VECTOR ( 'NONE', #543, 1000.000000000000000 ) ;
#769 = CARTESIAN_POINT ( 'NONE',  ( -0.07443344634339155164, 74.58023422674386893, -19.49999999999999645 ) ) ;
#770 = VERTEX_POINT ( 'NONE', #387 ) ;
#771 = CARTESIAN_POINT ( 'NONE',  ( -14.67589438951936565, 43.26730018469763905, 19.49999999999999645 ) ) ;
#772 = CC_DESIGN_SECURITY_CLASSIFICATION ( #519, ( #70 ) ) ;
#773 = EDGE_CURVE ( 'NONE', #259, #479, #376, .T. ) ;
#774 = ADVANCED_FACE ( 'NONE', ( #809 ), #819, .T. ) ;
#775 = DIRECTION ( 'NONE',  ( -0.4226182617407038267, -0.9063077870366479383, 0.000000000000000000 ) ) ;
#776 = B_SPLINE_CURVE_WITH_KNOTS ( 'NONE', 3,
 ( #655, #790, #132, #660 ),
 .UNSPECIFIED., .F., .F.,
 ( 4, 4 ),
 ( 4.336808689942017736E-19, 0.0006055562764241174695 ),
 .UNSPECIFIED. ) ;
#777 = VERTEX_POINT ( 'NONE', #434 ) ;
#778 = DIRECTION ( 'NONE',  ( 0.4226182617407038267, 0.9063077870366479383, -0.000000000000000000 ) ) ;
#779 = SECURITY_CLASSIFICATION_LEVEL ( 'unclassified' ) ;
#780 = CARTESIAN_POINT ( 'NONE',  ( -14.23214521469162719, 44.21892336108612653, -19.49999999999999645 ) ) ;
#781 = ORIENTED_EDGE ( 'NONE', *, *, #760, .T. ) ;
#782 = CARTESIAN_POINT ( 'NONE',  ( -17.05449712459926204, 45.12138939618032651, -20.49866048366901694 ) ) ;
#783 = PERSON_AND_ORGANIZATION ( #855, #560 ) ;
#784 = CARTESIAN_POINT ( 'NONE',  ( -2.993134928799900063, 75.32802471863450933, -20.40126624345794681 ) ) ;
#785 = AXIS2_PLACEMENT_3D ( 'NONE', #496, #361, #628 ) ;
#786 = EDGE_CURVE ( 'NONE', #479, #770, #31, .T. ) ;
#787 = CARTESIAN_POINT ( 'NONE',  ( -2.546657477071753828, 76.37713743360750129, -18.62203867441215976 ) ) ;
#788 = CARTESIAN_POINT ( 'NONE',  ( -2.796247445783280661, 75.66353658742781363, 20.54538931914621713 ) ) ;
#789 = CC_DESIGN_APPROVAL ( #289, ( #741 ) ) ;
#790 = CARTESIAN_POINT ( 'NONE',  ( -2.422105314533572695, 76.58672208894719802, -20.17909004289509411 ) ) ;
#791 = AXIS2_PLACEMENT_3D ( 'NONE', #732, #127, #271 ) ;
#792 = CARTESIAN_POINT ( 'NONE',  ( -2.510018684879669948, 76.44343630615931318, -18.67741528128375350 ) ) ;
#793 = AXIS2_PLACEMENT_3D ( 'NONE', #671, #468, #870 ) ;
#794 = CARTESIAN_POINT ( 'NONE',  ( -3.107710923228276023, 75.14735810128800608, 20.22913211241443676 ) ) ;
#795 = ORIENTED_EDGE ( 'NONE', *, *, #624, .F. ) ;
#796 = DATE_AND_TIME ( #449, #29 ) ;
#797 = FACE_OUTER_BOUND ( 'NONE', #124, .T. ) ;
#798 = VERTEX_POINT ( 'NONE', #370 ) ;
#799 = DIRECTION ( 'NONE',  ( -0.4226182617407046593, -0.9063077870366476052, 0.000000000000000000 ) ) ;
#800 = ORIENTED_EDGE ( 'NONE', *, *, #538, .F. ) ;
#801 = EDGE_CURVE ( 'NONE', #627, #735, #73, .T. ) ;
#802 = AXIS2_PLACEMENT_3D ( 'NONE', #702, #675, #503 ) ;
#803 = LINE ( 'NONE', #451, #32 ) ;
#804 = DIRECTION ( 'NONE',  ( 0.9063077870366479383, -0.4226182617407037712, -0.000000000000000000 ) ) ;
#805 = CIRCLE ( 'NONE', #831, 1.049999999999991385 ) ;
#806 = VECTOR ( 'NONE', #853, 1000.000000000000000 ) ;
#807 = EDGE_LOOP ( 'NONE', ( #758, #196 ) ) ;
#808 = EDGE_CURVE ( 'NONE', #551, #170, #300, .T. ) ;
#809 = FACE_OUTER_BOUND ( 'NONE', #751, .T. ) ;
#810 = DIRECTION ( 'NONE',  ( 0.000000000000000000, 0.000000000000000000, -1.000000000000000000 ) ) ;
#811 = ORIENTED_EDGE ( 'NONE', *, *, #669, .T. ) ;
#812 = APPROVAL ( #243, 'UNSPECIFIED' ) ;
#813 = CARTESIAN_POINT ( 'NONE',  ( -16.40630778703272696, 41.92261826174912187, -21.99999999999999289 ) ) ;
#814 = PLANE ( 'NONE',  #545 ) ;
#815 = EDGE_LOOP ( 'NONE', ( #267, #354, #162, #738, #583, #463 ) ) ;
#816 = CARTESIAN_POINT ( 'NONE',  ( -3.237105982281071714, 74.89646583557750148, -19.49999999999999645 ) ) ;
#817 = EDGE_CURVE ( 'NONE', #700, #363, #613, .T. ) ;
#818 = VERTEX_POINT ( 'NONE', #153 ) ;
#819 = CYLINDRICAL_SURFACE ( 'NONE', #448, 1.999999999999996891 ) ;
#820 = DIRECTION ( 'NONE',  ( -0.9063077870366480493, 0.4226182617407038822, 0.000000000000000000 ) ) ;
#821 = ORIENTED_EDGE ( 'NONE', *, *, #50, .F. ) ;
#822 = DIRECTION ( 'NONE',  ( -0.9063077870366480493, 0.4226182617407038267, 0.000000000000000000 ) ) ;
#823 = FACE_OUTER_BOUND ( 'NONE', #17, .T. ) ;
#824 = ORIENTED_EDGE ( 'NONE', *, *, #430, .T. ) ;
#825 = DIRECTION ( 'NONE',  ( -0.9063077870366479383, 0.4226182617407037712, -0.000000000000000000 ) ) ;
#826 = APPROVAL_STATUS ( 'not_yet_approved' ) ;
#827 = FACE_OUTER_BOUND ( 'NONE', #401, .T. ) ;
#828 = ORIENTED_EDGE ( 'NONE', *, *, #366, .F. ) ;
#829 = AXIS2_PLACEMENT_3D ( 'NONE', #103, #145, #549 ) ;
#830 = CARTESIAN_POINT ( 'NONE',  ( -16.59871466638928794, 46.23013916155179714, -20.15925638054126523 ) ) ;
#831 = AXIS2_PLACEMENT_3D ( 'NONE', #689, #820, #547 ) ;
#832 = AXIS2_PLACEMENT_3D ( 'NONE', #425, #557, #237 ) ;
#833 = EDGE_CURVE ( 'NONE', #184, #674, #40, .T. ) ;
#834 = MANIFOLD_SOLID_BREP ( 'Fillet14', #227 ) ;
#835 = ORIENTED_EDGE ( 'NONE', *, *, #873, .T. ) ;
#836 = CARTESIAN_POINT ( 'NONE',  ( -0.7694321026320699586, 75.45600638209356248, -19.99999999999998934 ) ) ;
#837 = AXIS2_PLACEMENT_3D ( 'NONE', #190, #396, #601 ) ;
#838 = AXIS2_PLACEMENT_3D ( 'NONE', #431, #311, #699 ) ;
#839 = VERTEX_POINT ( 'NONE', #168 ) ;
#840 = CARTESIAN_POINT ( 'NONE',  ( -28.62702616978954850, 13.34900153317659033, -21.99999999999999289 ) ) ;
#841 = CARTESIAN_POINT ( 'NONE',  ( -2.793356807453335477, 75.84808901196598185, 19.49999999999999645 ) ) ;
#842 = ORIENTED_EDGE ( 'NONE', *, *, #485, .T. ) ;
#843 = CARTESIAN_POINT ( 'NONE',  ( -0.7694321026320629642, 75.45600638209357669, 1.073816240733570189E-31 ) ) ;
#844 = EDGE_CURVE ( 'NONE', #705, #482, #198, .T. ) ;
#845 = DIRECTION ( 'NONE',  ( 0.9063077870366480493, -0.4226182617407038822, -0.000000000000000000 ) ) ;
#846 = VECTOR ( 'NONE', #804, 1000.000000000000000 ) ;
#847 = AXIS2_PLACEMENT_3D ( 'NONE', #723, #701, #389 ) ;
#848 = CARTESIAN_POINT ( 'NONE',  ( -28.62702616978955206, 13.34900153317659210, 0.000000000000000000 ) ) ;
#849 = ORIENTED_EDGE ( 'NONE', *, *, #470, .F. ) ;
#850 = CARTESIAN_POINT ( 'NONE',  ( -28.62702616978954850, 13.34900153317659033, 21.99999999999999289 ) ) ;
#851 = DIRECTION ( 'NONE',  ( -0.9063077870366480493, 0.4226182617407038822, 0.000000000000000000 ) ) ;
#852 = ORIENTED_EDGE ( 'NONE', *, *, #33, .T. ) ;
#853 = DIRECTION ( 'NONE',  ( 0.9063077870366479383, -0.4226182617407037712, -0.000000000000000000 ) ) ;
#854 = PERSON_AND_ORGANIZATION_ROLE ( 'classification_officer' ) ;
#855 = PERSON ( 'UNSPECIFIED', 'UNSPECIFIED', 'UNSPECIFIED', ('UNSPECIFIED'), ('UNSPECIFIED'), ('UNSPECIFIED') ) ;
#856 = FACE_BOUND ( 'NONE', #595, .T. ) ;
#857 = CARTESIAN_POINT ( 'NONE',  ( -2.279720836620454882, 76.76712344017333578, 19.58660972377318998 ) ) ;
#858 = CARTESIAN_POINT ( 'NONE',  ( -3.155541257412559197, 75.07138195288059990, 20.12244529915695068 ) ) ;
#859 = EDGE_CURVE ( 'NONE', #184, #818, #149, .T. ) ;
#860 = CARTESIAN_POINT ( 'NONE',  ( -3.155889342772980832, 75.07063548141572085, -20.12092435002611168 ) ) ;
#861 = LINE ( 'NONE', #254, #569 ) ;
#862 = DIRECTION ( 'NONE',  ( 0.9063077870366479383, -0.4226182617407037712, -0.000000000000000000 ) ) ;
#863 = VERTEX_POINT ( 'NONE', #542 ) ;
#864 = SHAPE_DEFINITION_REPRESENTATION ( #105, #734 ) ;
#865 = DIRECTION ( 'NONE',  ( -6.667740490394042894E-34, -1.429901562581164526E-33, 1.000000000000000000 ) ) ;
#866 = VERTEX_POINT ( 'NONE', #638 ) ;
#867 = LINE ( 'NONE', #647, #533 ) ;
#868 = EDGE_LOOP ( 'NONE', ( #842, #203, #284, #65 ) ) ;
#869 = COORDINATED_UNIVERSAL_TIME_OFFSET ( 8, 0, .BEHIND. ) ;
#870 = DIRECTION ( 'NONE',  ( -0.4226182617407046593, -0.9063077870366476052, 0.000000000000000000 ) ) ;
#871 = CARTESIAN_POINT ( 'NONE',  ( -2.336323937956631180, 76.69965572009762411, 19.92313873240188471 ) ) ;
#872 = EDGE_LOOP ( 'NONE', ( #520, #652, #690, #608, #44, #615, #505 ) ) ;
#873 = EDGE_CURVE ( 'NONE', #839, #184, #598, .T. ) ;
#874 = CARTESIAN_POINT ( 'NONE',  ( -16.80172815234796957, 45.62452811444523348, 20.55007408015530856 ) ) ;
#875 = CARTESIAN_POINT ( 'NONE',  ( -2.279720836620344748, 76.76712344017360579, -19.50000000000054001 ) ) ;
#876 = VECTOR ( 'NONE', #301, 1000.000000000000000 ) ;
#877 = AXIS2_PLACEMENT_3D ( 'NONE', #197, #395, #799 ) ;
#878 = VERTEX_POINT ( 'NONE', #220 ) ;
ENDSEC;
END-ISO-10303-21;
