ISO-10303-21;
HEADER;
FILE_DESCRIPTION (( 'STEP AP214' ),
    '1' );
FILE_NAME ('camera_offset.STEP',
    '2026-06-30T04:55:53',
    ( '' ),
    ( '' ),
    'SwSTEP 2.0',
    'SolidWorks 2026',
    '' );
FILE_SCHEMA (( 'AUTOMOTIVE_DESIGN' ));
ENDSEC;

DATA;
#1 = ORIENTED_EDGE ( 'NONE', *, *, #203, .T. ) ;
#2 = DIRECTION ( 'NONE',  ( 1.000000000000000000, -0.000000000000000000, -0.000000000000000000 ) ) ;
#3 = VERTEX_POINT ( 'NONE', #504 ) ;
#4 = ORIENTED_EDGE ( 'NONE', *, *, #545, .F. ) ;
#5 = VECTOR ( 'NONE', #53, 1000.000000000000000 ) ;
#6 = CARTESIAN_POINT ( 'NONE',  ( 2.000000000000000000, 3.000000000000002665, 4.878909776184773897E-16 ) ) ;
#7 = ORIENTED_EDGE ( 'NONE', *, *, #591, .T. ) ;
#8 = CARTESIAN_POINT ( 'NONE',  ( 2.000000000000000000, 76.00000000000000000, 16.00000000000000711 ) ) ;
#9 = CARTESIAN_POINT ( 'NONE',  ( -2.000000000000000000, -0.7499999999999981126, 0.000000000000000000 ) ) ;
#10 = VERTEX_POINT ( 'NONE', #831 ) ;
#11 = AXIS2_PLACEMENT_3D ( 'NONE', #214, #694, #349 ) ;
#12 = PLANE ( 'NONE',  #220 ) ;
#13 = ORIENTED_EDGE ( 'NONE', *, *, #197, .F. ) ;
#14 = ORIENTED_EDGE ( 'NONE', *, *, #157, .F. ) ;
#15 = DIRECTION ( 'NONE',  ( 0.000000000000000000, 0.000000000000000000, -1.000000000000000000 ) ) ;
#16 = DIRECTION ( 'NONE',  ( -1.000000000000000000, 0.000000000000000000, -0.000000000000000000 ) ) ;
#17 = DIRECTION ( 'NONE',  ( 0.000000000000000000, 0.000000000000000000, -1.000000000000000000 ) ) ;
#18 = ORIENTED_EDGE ( 'NONE', *, *, #224, .F. ) ;
#19 = CARTESIAN_POINT ( 'NONE',  ( 5.000000000000000000, 77.75000000000000000, 1.250000000000007994 ) ) ;
#20 = VECTOR ( 'NONE', #816, 1000.000000000000000 ) ;
#21 = DIRECTION ( 'NONE',  ( -1.000000000000000000, -0.000000000000000000, -0.000000000000000000 ) ) ;
#22 = VERTEX_POINT ( 'NONE', #272 ) ;
#23 = AXIS2_PLACEMENT_3D ( 'NONE', #824, #533, #679 ) ;
#24 = FACE_OUTER_BOUND ( 'NONE', #662, .T. ) ;
#25 = EDGE_CURVE ( 'NONE', #512, #743, #448, .T. ) ;
#26 = DIRECTION ( 'NONE',  ( -1.000000000000000000, 0.000000000000000000, -0.000000000000000000 ) ) ;
#27 = EDGE_LOOP ( 'NONE', ( #113, #43, #359, #724 ) ) ;
#28 = ADVANCED_FACE ( 'NONE', ( #24 ), #178, .T. ) ;
#29 = DIRECTION ( 'NONE',  ( 0.000000000000000000, 1.000000000000000000, 0.000000000000000000 ) ) ;
#30 = DIRECTION ( 'NONE',  ( 0.000000000000000000, -4.763918636678735115E-17, 1.000000000000000000 ) ) ;
#31 = DIRECTION ( 'NONE',  ( 0.000000000000000000, 2.102695122396129916E-16, -1.000000000000000000 ) ) ;
#32 = ORIENTED_EDGE ( 'NONE', *, *, #715, .F. ) ;
#33 = PRODUCT_DEFINITION ( 'UNKNOWN', '', #140, #111 ) ;
#34 = VECTOR ( 'NONE', #29, 1000.000000000000000 ) ;
#35 = CARTESIAN_POINT ( 'NONE',  ( 2.000000000000000000, 77.75000000000000000, 15.70000000000000995 ) ) ;
#36 = DIRECTION ( 'NONE',  ( -1.000000000000000000, -0.000000000000000000, -0.000000000000000000 ) ) ;
#37 = FACE_OUTER_BOUND ( 'NONE', #289, .T. ) ;
#38 = ORIENTED_EDGE ( 'NONE', *, *, #805, .T. ) ;
#39 = AXIS2_PLACEMENT_3D ( 'NONE', #183, #114, #16 ) ;
#40 = ADVANCED_BREP_SHAPE_REPRESENTATION ( 'camera_offset', ( #474, #559 ), #364 ) ;
#41 = AXIS2_PLACEMENT_3D ( 'NONE', #539, #126, #404 ) ;
#42 = DIRECTION ( 'NONE',  ( 1.000000000000000000, -0.000000000000000000, 0.000000000000000000 ) ) ;
#43 = ORIENTED_EDGE ( 'NONE', *, *, #144, .F. ) ;
#44 = CARTESIAN_POINT ( 'NONE',  ( 5.000000000000000000, 1.250000000000000000, 1.250000000000000000 ) ) ;
#45 = DIRECTION ( 'NONE',  ( 1.000000000000000000, -0.000000000000000000, 0.000000000000000000 ) ) ;
#46 = EDGE_LOOP ( 'NONE', ( #278, #463 ) ) ;
#47 = FACE_OUTER_BOUND ( 'NONE', #370, .T. ) ;
#48 =( NAMED_UNIT ( * ) SI_UNIT ( $, .STERADIAN. ) SOLID_ANGLE_UNIT ( ) );
#49 = ORIENTED_EDGE ( 'NONE', *, *, #630, .F. ) ;
#50 = DIRECTION ( 'NONE',  ( -1.000000000000000000, -0.000000000000000000, -0.000000000000000000 ) ) ;
#51 = AXIS2_PLACEMENT_3D ( 'NONE', #92, #444, #369 ) ;
#52 = AXIS2_PLACEMENT_3D ( 'NONE', #446, #661, #31 ) ;
#53 = DIRECTION ( 'NONE',  ( 0.000000000000000000, 1.626303258728256404E-16, -1.000000000000000000 ) ) ;
#54 = VERTEX_POINT ( 'NONE', #865 ) ;
#55 = EDGE_CURVE ( 'NONE', #688, #512, #452, .T. ) ;
#56 = CARTESIAN_POINT ( 'NONE',  ( 2.000000000000000000, 0.000000000000000000, 16.00000000000000000 ) ) ;
#57 = DIRECTION ( 'NONE',  ( 1.000000000000000000, 0.000000000000000000, 0.000000000000000000 ) ) ;
#58 = ORIENTED_EDGE ( 'NONE', *, *, #874, .T. ) ;
#59 = CARTESIAN_POINT ( 'NONE',  ( 2.000000000000000000, 0.000000000000000000, 0.000000000000000000 ) ) ;
#60 = DIRECTION ( 'NONE',  ( 0.000000000000000000, 4.763918636678735115E-17, -1.000000000000000000 ) ) ;
#61 = APPLICATION_CONTEXT ( 'automotive_design' ) ;
#62 = DIRECTION ( 'NONE',  ( -1.000000000000000000, -0.000000000000000000, -0.000000000000000000 ) ) ;
#63 = ORIENTED_EDGE ( 'NONE', *, *, #106, .F. ) ;
#64 = LINE ( 'NONE', #343, #405 ) ;
#65 = STYLED_ITEM ( 'NONE', ( #838 ), #474 ) ;
#66 = DIRECTION ( 'NONE',  ( 0.000000000000000000, 1.626303258728256404E-16, -1.000000000000000000 ) ) ;
#67 = EDGE_CURVE ( 'NONE', #10, #743, #457, .T. ) ;
#68 = VERTEX_POINT ( 'NONE', #588 ) ;
#69 = DIRECTION ( 'NONE',  ( 0.000000000000000000, 0.000000000000000000, -1.000000000000000000 ) ) ;
#70 = ORIENTED_EDGE ( 'NONE', *, *, #285, .F. ) ;
#71 = LINE ( 'NONE', #902, #852 ) ;
#72 = ORIENTED_EDGE ( 'NONE', *, *, #869, .F. ) ;
#73 = EDGE_CURVE ( 'NONE', #557, #54, #240, .T. ) ;
#74 = DIRECTION ( 'NONE',  ( 1.000000000000000000, -0.000000000000000000, 0.000000000000000000 ) ) ;
#75 = ORIENTED_EDGE ( 'NONE', *, *, #700, .F. ) ;
#76 = LINE ( 'NONE', #571, #115 ) ;
#77 = ORIENTED_EDGE ( 'NONE', *, *, #564, .T. ) ;
#78 = ADVANCED_FACE ( 'NONE', ( #513 ), #718, .F. ) ;
#79 = VECTOR ( 'NONE', #456, 1000.000000000000000 ) ;
#80 = DIRECTION ( 'NONE',  ( -1.000000000000000000, -0.000000000000000000, -0.000000000000000000 ) ) ;
#81 = VECTOR ( 'NONE', #253, 1000.000000000000000 ) ;
#82 = ORIENTED_EDGE ( 'NONE', *, *, #170, .T. ) ;
#83 = AXIS2_PLACEMENT_3D ( 'NONE', #790, #385, #173 ) ;
#84 = DIRECTION ( 'NONE',  ( 0.000000000000000000, 1.151964808265848461E-16, -1.000000000000000000 ) ) ;
#85 = EDGE_LOOP ( 'NONE', ( #746, #294, #307, #433 ) ) ;
#86 = EDGE_CURVE ( 'NONE', #3, #778, #851, .T. ) ;
#87 = FACE_OUTER_BOUND ( 'NONE', #783, .T. ) ;
#88 = ORIENTED_EDGE ( 'NONE', *, *, #177, .T. ) ;
#89 = CARTESIAN_POINT ( 'NONE',  ( 0.000000000000000000, 3.000000000000000000, 16.00000000000000000 ) ) ;
#90 = CIRCLE ( 'NONE', #108, 1.900000000000002354 ) ;
#91 = CARTESIAN_POINT ( 'NONE',  ( 2.000000000000000000, -0.7499999999999998890, 16.00000000000000000 ) ) ;
#92 = CARTESIAN_POINT ( 'NONE',  ( 5.000000000000000000, 1.250000000000000000, 14.75000000000000178 ) ) ;
#93 = FACE_OUTER_BOUND ( 'NONE', #46, .T. ) ;
#94 = ORIENTED_EDGE ( 'NONE', *, *, #715, .T. ) ;
#95 = CARTESIAN_POINT ( 'NONE',  ( -2.000000000000000000, 79.75000000000000000, 0.000000000000000000 ) ) ;
#96 = ADVANCED_FACE ( 'NONE', ( #384 ), #728, .F. ) ;
#97 = CARTESIAN_POINT ( 'NONE',  ( 5.000000000000000000, 77.75000000000000000, 1.250000000000007994 ) ) ;
#98 = EDGE_CURVE ( 'NONE', #68, #357, #523, .T. ) ;
#99 = VECTOR ( 'NONE', #374, 1000.000000000000000 ) ;
#100 = CYLINDRICAL_SURFACE ( 'NONE', #249, 1.900000000000002354 ) ;
#101 = ORIENTED_EDGE ( 'NONE', *, *, #874, .F. ) ;
#102 = CIRCLE ( 'NONE', #451, 0.9500000000000010658 ) ;
#103 = DIRECTION ( 'NONE',  ( 1.000000000000000000, -0.000000000000000000, 0.000000000000000000 ) ) ;
#104 = DIRECTION ( 'NONE',  ( 0.000000000000000000, -1.626303258728256404E-16, 1.000000000000000000 ) ) ;
#105 = CARTESIAN_POINT ( 'NONE',  ( 2.000000000000000000, 76.00000000000000000, 7.674837196745873429E-15 ) ) ;
#106 = EDGE_CURVE ( 'NONE', #492, #447, #600, .T. ) ;
#107 = ORIENTED_EDGE ( 'NONE', *, *, #642, .T. ) ;
#108 = AXIS2_PLACEMENT_3D ( 'NONE', #237, #168, #733 ) ;
#109 = DIRECTION ( 'NONE',  ( 0.000000000000000000, 0.000000000000000000, -1.000000000000000000 ) ) ;
#110 = CARTESIAN_POINT ( 'NONE',  ( -2.000000000000000000, 77.00000000000000000, 6.100000000000006750 ) ) ;
#111 = PRODUCT_DEFINITION_CONTEXT ( 'detailed design', #61, 'design' ) ;
#112 = CARTESIAN_POINT ( 'NONE',  ( -2.000000000000000000, 2.000000000000002665, 6.099999999999997868 ) ) ;
#113 = ORIENTED_EDGE ( 'NONE', *, *, #397, .F. ) ;
#114 = DIRECTION ( 'NONE',  ( 0.000000000000000000, 0.000000000000000000, -1.000000000000000000 ) ) ;
#115 = VECTOR ( 'NONE', #139, 1000.000000000000000 ) ;
#116 = VERTEX_POINT ( 'NONE', #579 ) ;
#117 = AXIS2_PLACEMENT_3D ( 'NONE', #263, #807, #826 ) ;
#118 = DIRECTION ( 'NONE',  ( 0.000000000000000000, 1.000000000000000000, 0.000000000000000000 ) ) ;
#119 = ADVANCED_FACE ( 'NONE', ( #660 ), #378, .T. ) ;
#120 = CARTESIAN_POINT ( 'NONE',  ( 5.000000000000000000, 77.75000000000000000, 2.200000000000009059 ) ) ;
#121 = SHAPE_DEFINITION_REPRESENTATION ( #772, #40 ) ;
#122 = ORIENTED_EDGE ( 'NONE', *, *, #879, .T. ) ;
#123 = LINE ( 'NONE', #880, #611 ) ;
#124 = CARTESIAN_POINT ( 'NONE',  ( 5.000000000000000000, 77.75000000000000000, 13.80000000000000959 ) ) ;
#125 = VERTEX_POINT ( 'NONE', #314 ) ;
#126 = DIRECTION ( 'NONE',  ( 1.000000000000000000, -0.000000000000000000, 0.000000000000000000 ) ) ;
#127 = AXIS2_PLACEMENT_3D ( 'NONE', #95, #296, #711 ) ;
#128 = DIRECTION ( 'NONE',  ( 0.000000000000000000, 0.000000000000000000, -1.000000000000000000 ) ) ;
#129 = EDGE_CURVE ( 'NONE', #422, #597, #462, .T. ) ;
#130 = VERTEX_POINT ( 'NONE', #789 ) ;
#131 = EDGE_CURVE ( 'NONE', #188, #734, #569, .T. ) ;
#132 = LINE ( 'NONE', #59, #509 ) ;
#133 = AXIS2_PLACEMENT_3D ( 'NONE', #250, #236, #30 ) ;
#134 = VECTOR ( 'NONE', #84, 1000.000000000000000 ) ;
#135 = LINE ( 'NONE', #754, #81 ) ;
#136 = EDGE_LOOP ( 'NONE', ( #190, #75, #669, #235 ) ) ;
#137 = ADVANCED_FACE ( 'NONE', ( #172 ), #593, .F. ) ;
#138 = CARTESIAN_POINT ( 'NONE',  ( 5.000000000000000000, 1.250000000000000000, 14.75000000000000178 ) ) ;
#139 = DIRECTION ( 'NONE',  ( 0.000000000000000000, 0.000000000000000000, -1.000000000000000000 ) ) ;
#140 = PRODUCT_DEFINITION_FORMATION_WITH_SPECIFIED_SOURCE ( 'ANY', '', #696, .NOT_KNOWN. ) ;
#141 = CARTESIAN_POINT ( 'NONE',  ( 2.000000000000000000, 77.75000000000000000, 13.80000000000000959 ) ) ;
#142 = ORIENTED_EDGE ( 'NONE', *, *, #478, .F. ) ;
#143 = CARTESIAN_POINT ( 'NONE',  ( -2.000000000000000000, -0.7499999999999981126, -8.639736061993840039E-17 ) ) ;
#144 = EDGE_CURVE ( 'NONE', #894, #125, #232, .T. ) ;
#145 = SURFACE_STYLE_FILL_AREA ( #206 ) ;
#146 = CARTESIAN_POINT ( 'NONE',  ( 2.000000000000000000, 77.00000000000000000, 8.000000000000008882 ) ) ;
#147 = DIRECTION ( 'NONE',  ( -1.000000000000000000, -0.000000000000000000, -0.000000000000000000 ) ) ;
#148 = ORIENTED_EDGE ( 'NONE', *, *, #695, .T. ) ;
#149 = MECHANICAL_DESIGN_GEOMETRIC_PRESENTATION_REPRESENTATION (  '', ( #65 ), #269 ) ;
#150 = LINE ( 'NONE', #622, #387 ) ;
#151 = ADVANCED_FACE ( 'NONE', ( #440 ), #650, .T. ) ;
#152 = VECTOR ( 'NONE', #673, 1000.000000000000000 ) ;
#153 = DIRECTION ( 'NONE',  ( 0.000000000000000000, 0.000000000000000000, -1.000000000000000000 ) ) ;
#154 = CARTESIAN_POINT ( 'NONE',  ( 2.000000000000000000, 77.00000000000000000, 6.100000000000006750 ) ) ;
#155 = VERTEX_POINT ( 'NONE', #722 ) ;
#156 = PLANE ( 'NONE',  #525 ) ;
#157 = EDGE_CURVE ( 'NONE', #730, #242, #881, .T. ) ;
#158 = EDGE_LOOP ( 'NONE', ( #267, #666, #641, #643, #503, #276, #646, #58 ) ) ;
#159 = CARTESIAN_POINT ( 'NONE',  ( 0.000000000000000000, 3.000000000000002665, 3.851859888774471706E-31 ) ) ;
#160 = ORIENTED_EDGE ( 'NONE', *, *, #564, .F. ) ;
#161 = PLANE ( 'NONE',  #520 ) ;
#162 = VECTOR ( 'NONE', #57, 1000.000000000000000 ) ;
#163 = VERTEX_POINT ( 'NONE', #674 ) ;
#164 = APPLICATION_CONTEXT ( 'automotive_design' ) ;
#165 = AXIS2_PLACEMENT_3D ( 'NONE', #644, #842, #502 ) ;
#166 = DIRECTION ( 'NONE',  ( 0.000000000000000000, 0.000000000000000000, -1.000000000000000000 ) ) ;
#167 = DIRECTION ( 'NONE',  ( 1.000000000000000000, 0.000000000000000000, 0.000000000000000000 ) ) ;
#168 = DIRECTION ( 'NONE',  ( -1.000000000000000000, -0.000000000000000000, -0.000000000000000000 ) ) ;
#169 = ORIENTED_EDGE ( 'NONE', *, *, #517, .F. ) ;
#170 = EDGE_CURVE ( 'NONE', #652, #427, #135, .T. ) ;
#171 = CARTESIAN_POINT ( 'NONE',  ( 2.000000000000000000, -0.7499999999999981126, 0.000000000000000000 ) ) ;
#172 = FACE_OUTER_BOUND ( 'NONE', #767, .T. ) ;
#173 = DIRECTION ( 'NONE',  ( 0.000000000000000000, 0.000000000000000000, -1.000000000000000000 ) ) ;
#174 = ORIENTED_EDGE ( 'NONE', *, *, #585, .F. ) ;
#175 = CIRCLE ( 'NONE', #766, 0.9499999999999995115 ) ;
#176 = CARTESIAN_POINT ( 'NONE',  ( -2.000000000000000000, 0.000000000000000000, 0.000000000000000000 ) ) ;
#177 = EDGE_CURVE ( 'NONE', #376, #261, #753, .T. ) ;
#178 = PLANE ( 'NONE',  #494 ) ;
#179 = CARTESIAN_POINT ( 'NONE',  ( 2.000000000000000000, 1.250000000000000000, 1.250000000000000000 ) ) ;
#180 = ORIENTED_EDGE ( 'NONE', *, *, #749, .T. ) ;
#181 = VECTOR ( 'NONE', #118, 1000.000000000000000 ) ;
#182 = CARTESIAN_POINT ( 'NONE',  ( 0.000000000000000000, 76.00000000000000000, 0.000000000000000000 ) ) ;
#183 = CARTESIAN_POINT ( 'NONE',  ( -2.000000000000000000, 0.000000000000000000, 16.00000000000000000 ) ) ;
#184 = DIRECTION ( 'NONE',  ( 0.000000000000000000, 0.000000000000000000, -1.000000000000000000 ) ) ;
#185 = ORIENTED_EDGE ( 'NONE', *, *, #459, .F. ) ;
#186 = DIRECTION ( 'NONE',  ( 0.000000000000000000, 0.000000000000000000, -1.000000000000000000 ) ) ;
#187 = DIRECTION ( 'NONE',  ( -1.000000000000000000, -0.000000000000000000, -0.000000000000000000 ) ) ;
#188 = VERTEX_POINT ( 'NONE', #124 ) ;
#189 = CARTESIAN_POINT ( 'NONE',  ( 2.000000000000000000, 3.000000000000002665, 4.878909776184773897E-16 ) ) ;
#190 = ORIENTED_EDGE ( 'NONE', *, *, #326, .F. ) ;
#191 = LINE ( 'NONE', #895, #288 ) ;
#192 = ADVANCED_FACE ( 'NONE', ( #471 ), #394, .T. ) ;
#193 = DIRECTION ( 'NONE',  ( 0.000000000000000000, 0.000000000000000000, -1.000000000000000000 ) ) ;
#194 = ORIENTED_EDGE ( 'NONE', *, *, #98, .T. ) ;
#195 = DIRECTION ( 'NONE',  ( -1.000000000000000000, -0.000000000000000000, -0.000000000000000000 ) ) ;
#196 = EDGE_CURVE ( 'NONE', #242, #730, #315, .T. ) ;
#197 = EDGE_CURVE ( 'NONE', #430, #712, #782, .T. ) ;
#198 = CARTESIAN_POINT ( 'NONE',  ( 2.000000000000000000, 1.250000000000000000, 14.75000000000000178 ) ) ;
#199 = ORIENTED_EDGE ( 'NONE', *, *, #397, .T. ) ;
#200 = LINE ( 'NONE', #331, #152 ) ;
#201 = CIRCLE ( 'NONE', #595, 1.900000000000002354 ) ;
#202 = DIRECTION ( 'NONE',  ( 0.000000000000000000, 0.000000000000000000, -1.000000000000000000 ) ) ;
#203 = EDGE_CURVE ( 'NONE', #427, #581, #681, .T. ) ;
#204 = ORIENTED_EDGE ( 'NONE', *, *, #869, .T. ) ;
#205 = VECTOR ( 'NONE', #298, 1000.000000000000000 ) ;
#206 = FILL_AREA_STYLE ('',( #416 ) ) ;
#207 = AXIS2_PLACEMENT_3D ( 'NONE', #268, #814, #614 ) ;
#208 = DIRECTION ( 'NONE',  ( 0.000000000000000000, 0.000000000000000000, -1.000000000000000000 ) ) ;
#209 = VERTEX_POINT ( 'NONE', #540 ) ;
#210 = FACE_OUTER_BOUND ( 'NONE', #773, .T. ) ;
#211 = CYLINDRICAL_SURFACE ( 'NONE', #300, 0.9499999999999995115 ) ;
#212 = ORIENTED_EDGE ( 'NONE', *, *, #545, .T. ) ;
#213 = DIRECTION ( 'NONE',  ( 0.000000000000000000, 0.000000000000000000, -1.000000000000000000 ) ) ;
#214 = CARTESIAN_POINT ( 'NONE',  ( -2.000000000000000000, 0.000000000000000000, 0.000000000000000000 ) ) ;
#215 = DIRECTION ( 'NONE',  ( -1.000000000000000000, -0.000000000000000000, -0.000000000000000000 ) ) ;
#216 = LINE ( 'NONE', #295, #599 ) ;
#217 = ORIENTED_EDGE ( 'NONE', *, *, #480, .T. ) ;
#218 = VECTOR ( 'NONE', #187, 1000.000000000000000 ) ;
#219 = FACE_OUTER_BOUND ( 'NONE', #779, .T. ) ;
#220 = AXIS2_PLACEMENT_3D ( 'NONE', #363, #707, #765 ) ;
#221 = EDGE_LOOP ( 'NONE', ( #872, #616 ) ) ;
#222 = CARTESIAN_POINT ( 'NONE',  ( 5.000000000000000000, 77.75000000000000000, 0.3000000000000069833 ) ) ;
#223 = EDGE_LOOP ( 'NONE', ( #226, #706 ) ) ;
#224 = EDGE_CURVE ( 'NONE', #492, #828, #396, .T. ) ;
#225 = ADVANCED_FACE ( 'NONE', ( #338 ), #748, .F. ) ;
#226 = ORIENTED_EDGE ( 'NONE', *, *, #703, .T. ) ;
#227 = PLANE ( 'NONE',  #811 ) ;
#228 = ORIENTED_EDGE ( 'NONE', *, *, #887, .T. ) ;
#229 = EDGE_CURVE ( 'NONE', #209, #485, #608, .T. ) ;
#230 = CARTESIAN_POINT ( 'NONE',  ( 2.000000000000000000, 76.00000000000000000, 8.162728174364350424E-15 ) ) ;
#231 = CLOSED_SHELL ( 'NONE', ( #770, #151, #78, #119, #297, #815, #283, #776, #137, #360, #350, #544, #735, #28, #744, #863, #763, #556, #799, #657, #675, #225, #861, #96, #380, #192, #464, #837 ) ) ;
#232 = LINE ( 'NONE', #785, #286 ) ;
#233 = EDGE_CURVE ( 'NONE', #828, #512, #389, .T. ) ;
#234 = DIRECTION ( 'NONE',  ( 0.000000000000000000, 1.626303258728256404E-16, -1.000000000000000000 ) ) ;
#235 = ORIENTED_EDGE ( 'NONE', *, *, #805, .F. ) ;
#236 = DIRECTION ( 'NONE',  ( -0.000000000000000000, 1.000000000000000000, 4.763918636678735115E-17 ) ) ;
#237 = CARTESIAN_POINT ( 'NONE',  ( 2.000000000000000000, 77.00000000000000000, 8.000000000000008882 ) ) ;
#238 = VERTEX_POINT ( 'NONE', #873 ) ;
#239 = DIRECTION ( 'NONE',  ( 0.000000000000000000, 1.151964808265848461E-16, -1.000000000000000000 ) ) ;
#240 = LINE ( 'NONE', #804, #371 ) ;
#241 = FACE_OUTER_BOUND ( 'NONE', #756, .T. ) ;
#242 = VERTEX_POINT ( 'NONE', #120 ) ;
#243 = EDGE_CURVE ( 'NONE', #10, #688, #627, .T. ) ;
#244 = CARTESIAN_POINT ( 'NONE',  ( 0.000000000000000000, 76.00000000000000000, 6.384450557859652875 ) ) ;
#245 = DIRECTION ( 'NONE',  ( -0.000000000000000000, 1.000000000000000000, 1.626303258728256404E-16 ) ) ;
#246 = AXIS2_PLACEMENT_3D ( 'NONE', #510, #519, #664 ) ;
#247 = CARTESIAN_POINT ( 'NONE',  ( 5.000000000000000000, 1.250000000000000222, 13.80000000000000071 ) ) ;
#248 = ORIENTED_EDGE ( 'NONE', *, *, #73, .T. ) ;
#249 = AXIS2_PLACEMENT_3D ( 'NONE', #458, #665, #853 ) ;
#250 = CARTESIAN_POINT ( 'NONE',  ( 2.000000000000000000, 76.00000000000000000, 8.162728174364350424E-15 ) ) ;
#251 =( LENGTH_UNIT ( ) NAMED_UNIT ( * ) SI_UNIT ( .MILLI., .METRE. ) );
#252 = EDGE_LOOP ( 'NONE', ( #417, #604, #335, #212, #70, #339, #72, #367 ) ) ;
#253 = DIRECTION ( 'NONE',  ( 0.000000000000000000, 0.000000000000000000, -1.000000000000000000 ) ) ;
#254 = ORIENTED_EDGE ( 'NONE', *, *, #516, .F. ) ;
#255 = DIRECTION ( 'NONE',  ( 0.000000000000000000, 1.000000000000000000, 0.000000000000000000 ) ) ;
#256 = DIRECTION ( 'NONE',  ( 0.000000000000000000, 0.000000000000000000, -1.000000000000000000 ) ) ;
#257 = ORIENTED_EDGE ( 'NONE', *, *, #603, .T. ) ;
#258 = VECTOR ( 'NONE', #234, 1000.000000000000000 ) ;
#259 = EDGE_CURVE ( 'NONE', #522, #889, #546, .T. ) ;
#260 = CARTESIAN_POINT ( 'NONE',  ( 5.000000000000000000, 1.250000000000000000, 1.250000000000000000 ) ) ;
#261 = VERTEX_POINT ( 'NONE', #141 ) ;
#262 = EDGE_CURVE ( 'NONE', #422, #3, #668, .T. ) ;
#263 = CARTESIAN_POINT ( 'NONE',  ( 2.000000000000000000, 77.00000000000000000, 8.000000000000008882 ) ) ;
#264 = ORIENTED_EDGE ( 'NONE', *, *, #177, .F. ) ;
#265 = CARTESIAN_POINT ( 'NONE',  ( 2.000000000000000000, 1.250000000000000222, 0.2999999999999989342 ) ) ;
#266 = CARTESIAN_POINT ( 'NONE',  ( 5.000000000000000000, 77.75000000000000000, 1.250000000000007994 ) ) ;
#267 = ORIENTED_EDGE ( 'NONE', *, *, #721, .F. ) ;
#268 = CARTESIAN_POINT ( 'NONE',  ( 2.000000000000000000, 1.250000000000000000, 1.250000000000000000 ) ) ;
#269 =( GEOMETRIC_REPRESENTATION_CONTEXT ( 3 ) GLOBAL_UNCERTAINTY_ASSIGNED_CONTEXT ( ( #594 ) ) GLOBAL_UNIT_ASSIGNED_CONTEXT ( ( #413, #758, #340 ) ) REPRESENTATION_CONTEXT ( 'NONE', 'WORKASPACE' ) );
#270 = FACE_BOUND ( 'NONE', #686, .T. ) ;
#271 = CIRCLE ( 'NONE', #207, 0.9500000000000010658 ) ;
#272 = CARTESIAN_POINT ( 'NONE',  ( 2.000000000000000000, 76.00000000000000000, 6.384450557859652875 ) ) ;
#273 = DIRECTION ( 'NONE',  ( -0.000000000000000000, 1.000000000000000000, 1.626303258728256404E-16 ) ) ;
#274 = CARTESIAN_POINT ( 'NONE',  ( 5.000000000000000000, 77.75000000000000000, 13.80000000000000959 ) ) ;
#275 = AXIS2_PLACEMENT_3D ( 'NONE', #366, #647, #17 ) ;
#276 = ORIENTED_EDGE ( 'NONE', *, *, #839, .T. ) ;
#277 = LINE ( 'NONE', #143, #134 ) ;
#278 = ORIENTED_EDGE ( 'NONE', *, *, #700, .T. ) ;
#279 = AXIS2_PLACEMENT_3D ( 'NONE', #426, #62, #355 ) ;
#280 = EDGE_LOOP ( 'NONE', ( #760, #819, #304, #88 ) ) ;
#281 = FACE_OUTER_BOUND ( 'NONE', #85, .T. ) ;
#282 = ORIENTED_EDGE ( 'NONE', *, *, #224, .T. ) ;
#283 = ADVANCED_FACE ( 'NONE', ( #47 ), #465, .T. ) ;
#284 = DIRECTION ( 'NONE',  ( -1.000000000000000000, -0.000000000000000000, -0.000000000000000000 ) ) ;
#285 = EDGE_CURVE ( 'NONE', #414, #155, #750, .T. ) ;
#286 = VECTOR ( 'NONE', #167, 1000.000000000000000 ) ;
#287 = LINE ( 'NONE', #341, #862 ) ;
#288 = VECTOR ( 'NONE', #255, 1000.000000000000000 ) ;
#289 = EDGE_LOOP ( 'NONE', ( #199, #419, #567, #787, #720, #101, #142, #638 ) ) ;
#290 = DIRECTION ( 'NONE',  ( 0.000000000000000000, -1.000000000000000000, -1.151964808265848461E-16 ) ) ;
#291 = ORIENTED_EDGE ( 'NONE', *, *, #721, .T. ) ;
#292 = EDGE_CURVE ( 'NONE', #362, #796, #201, .T. ) ;
#293 = EDGE_CURVE ( 'NONE', #403, #238, #676, .T. ) ;
#294 = ORIENTED_EDGE ( 'NONE', *, *, #129, .F. ) ;
#295 = CARTESIAN_POINT ( 'NONE',  ( -2.000000000000000000, 2.000000000000003109, 9.900000000000002132 ) ) ;
#296 = DIRECTION ( 'NONE',  ( 0.000000000000000000, -1.000000000000000000, 0.000000000000000000 ) ) ;
#297 = ADVANCED_FACE ( 'NONE', ( #219 ), #576, .T. ) ;
#298 = DIRECTION ( 'NONE',  ( -1.000000000000000000, -0.000000000000000000, -0.000000000000000000 ) ) ;
#299 = FACE_OUTER_BOUND ( 'NONE', #221, .T. ) ;
#300 = AXIS2_PLACEMENT_3D ( 'NONE', #487, #497, #345 ) ;
#301 = DIRECTION ( 'NONE',  ( -1.000000000000000000, -0.000000000000000000, -0.000000000000000000 ) ) ;
#302 = DIRECTION ( 'NONE',  ( -1.000000000000000000, -0.000000000000000000, -0.000000000000000000 ) ) ;
#303 = PLANE ( 'NONE',  #52 ) ;
#304 = ORIENTED_EDGE ( 'NONE', *, *, #516, .T. ) ;
#305 = CARTESIAN_POINT ( 'NONE',  ( -2.000000000000000000, 77.00000000000000000, 8.000000000000008882 ) ) ;
#306 = PLANE ( 'NONE',  #542 ) ;
#307 = ORIENTED_EDGE ( 'NONE', *, *, #262, .T. ) ;
#308 = CARTESIAN_POINT ( 'NONE',  ( 2.000000000000000000, 0.000000000000000000, 0.000000000000000000 ) ) ;
#309 = CARTESIAN_POINT ( 'NONE',  ( 5.000000000000000000, 77.75000000000000000, 14.75000000000000888 ) ) ;
#310 = PLANE ( 'NONE',  #379 ) ;
#311 = ORIENTED_EDGE ( 'NONE', *, *, #437, .T. ) ;
#312 = AXIS2_PLACEMENT_3D ( 'NONE', #443, #645, #717 ) ;
#313 = FACE_OUTER_BOUND ( 'NONE', #532, .T. ) ;
#314 = CARTESIAN_POINT ( 'NONE',  ( 2.000000000000000000, -0.7499999999999998890, 16.00000000000000000 ) ) ;
#315 = CIRCLE ( 'NONE', #344, 0.9500000000000010658 ) ;
#316 = CARTESIAN_POINT ( 'NONE',  ( 0.000000000000000000, 3.000000000000002665, 4.878909776184773897E-16 ) ) ;
#317 = VERTEX_POINT ( 'NONE', #9 ) ;
#318 = CIRCLE ( 'NONE', #41, 0.9500000000000010658 ) ;
#319 = CARTESIAN_POINT ( 'NONE',  ( 2.000000000000000000, 76.00000000000000000, 8.162728174364350424E-15 ) ) ;
#320 = CARTESIAN_POINT ( 'NONE',  ( 2.000000000000000000, 76.00000000000000000, 8.162728174364350424E-15 ) ) ;
#321 = ORIENTED_EDGE ( 'NONE', *, *, #293, .T. ) ;
#322 = CIRCLE ( 'NONE', #846, 1.900000000000002354 ) ;
#323 = FACE_OUTER_BOUND ( 'NONE', #136, .T. ) ;
#324 = LINE ( 'NONE', #882, #20 ) ;
#325 = CARTESIAN_POINT ( 'NONE',  ( 2.000000000000000000, 3.000000000000000000, 16.00000000000000000 ) ) ;
#326 = EDGE_CURVE ( 'NONE', #430, #547, #287, .T. ) ;
#327 = ORIENTED_EDGE ( 'NONE', *, *, #903, .F. ) ;
#328 = LINE ( 'NONE', #820, #570 ) ;
#329 = CARTESIAN_POINT ( 'NONE',  ( -2.000000000000000000, 77.00000000000000000, 8.000000000000008882 ) ) ;
#330 = EDGE_LOOP ( 'NONE', ( #264, #709 ) ) ;
#331 = CARTESIAN_POINT ( 'NONE',  ( 2.000000000000000000, 76.00000000000000000, 9.615549442140363112 ) ) ;
#332 = VECTOR ( 'NONE', #195, 1000.000000000000000 ) ;
#333 = DIRECTION ( 'NONE',  ( 0.000000000000000000, 4.763918636678735115E-17, -1.000000000000000000 ) ) ;
#334 = DIRECTION ( 'NONE',  ( -1.000000000000000000, 0.000000000000000000, -0.000000000000000000 ) ) ;
#335 = ORIENTED_EDGE ( 'NONE', *, *, #233, .F. ) ;
#336 = LINE ( 'NONE', #617, #332 ) ;
#337 = CARTESIAN_POINT ( 'NONE',  ( 2.000000000000000000, 1.250000000000000000, 14.75000000000000178 ) ) ;
#338 = FACE_OUTER_BOUND ( 'NONE', #813, .T. ) ;
#339 = ORIENTED_EDGE ( 'NONE', *, *, #393, .F. ) ;
#340 =( NAMED_UNIT ( * ) SI_UNIT ( $, .STERADIAN. ) SOLID_ANGLE_UNIT ( ) );
#341 = CARTESIAN_POINT ( 'NONE',  ( 5.000000000000000000, 1.250000000000000222, 0.2999999999999989342 ) ) ;
#342 = ORIENTED_EDGE ( 'NONE', *, *, #243, .F. ) ;
#343 = CARTESIAN_POINT ( 'NONE',  ( 2.000000000000000000, 6.123233995736790688E-17, 16.00000000000000000 ) ) ;
#344 = AXIS2_PLACEMENT_3D ( 'NONE', #266, #484, #671 ) ;
#345 = DIRECTION ( 'NONE',  ( 0.000000000000000000, 0.000000000000000000, 1.000000000000000000 ) ) ;
#346 = ORIENTED_EDGE ( 'NONE', *, *, #630, .T. ) ;
#347 = DIRECTION ( 'NONE',  ( 1.000000000000000000, -0.000000000000000000, -0.000000000000000000 ) ) ;
#348 = VERTEX_POINT ( 'NONE', #171 ) ;
#349 = DIRECTION ( 'NONE',  ( 0.000000000000000000, 0.000000000000000000, -1.000000000000000000 ) ) ;
#350 = ADVANCED_FACE ( 'NONE', ( #663 ), #161, .T. ) ;
#351 = ORIENTED_EDGE ( 'NONE', *, *, #613, .F. ) ;
#352 = DIRECTION ( 'NONE',  ( 1.000000000000000000, -0.000000000000000000, 0.000000000000000000 ) ) ;
#353 = EDGE_CURVE ( 'NONE', #840, #581, #731, .T. ) ;
#354 = ORIENTED_EDGE ( 'NONE', *, *, #788, .T. ) ;
#355 = DIRECTION ( 'NONE',  ( 0.000000000000000000, 0.000000000000000000, 1.000000000000000000 ) ) ;
#356 = VECTOR ( 'NONE', #239, 1000.000000000000000 ) ;
#357 = VERTEX_POINT ( 'NONE', #449 ) ;
#358 = DIRECTION ( 'NONE',  ( 1.000000000000000000, 0.000000000000000000, 0.000000000000000000 ) ) ;
#359 = ORIENTED_EDGE ( 'NONE', *, *, #678, .T. ) ;
#360 = ADVANCED_FACE ( 'NONE', ( #313 ), #864, .F. ) ;
#361 = AXIS2_PLACEMENT_3D ( 'NONE', #407, #42, #685 ) ;
#362 = VERTEX_POINT ( 'NONE', #592 ) ;
#363 = CARTESIAN_POINT ( 'NONE',  ( 5.000000000000000000, 0.000000000000000000, 0.000000000000000000 ) ) ;
#364 =( GEOMETRIC_REPRESENTATION_CONTEXT ( 3 ) GLOBAL_UNCERTAINTY_ASSIGNED_CONTEXT ( ( #536 ) ) GLOBAL_UNIT_ASSIGNED_CONTEXT ( ( #251, #402, #48 ) ) REPRESENTATION_CONTEXT ( 'NONE', 'WORKASPACE' ) );
#365 = EDGE_LOOP ( 'NONE', ( #499, #291, #803, #174 ) ) ;
#366 = CARTESIAN_POINT ( 'NONE',  ( 2.000000000000000000, 2.000000000000002665, 8.000000000000000000 ) ) ;
#367 = ORIENTED_EDGE ( 'NONE', *, *, #67, .F. ) ;
#368 = CARTESIAN_POINT ( 'NONE',  ( 2.000000000000000000, 1.250000000000000222, 13.80000000000000071 ) ) ;
#369 = DIRECTION ( 'NONE',  ( 0.000000000000000000, 0.000000000000000000, 1.000000000000000000 ) ) ;
#370 = EDGE_LOOP ( 'NONE', ( #77, #475, #823, #460, #574, #354, #633, #629 ) ) ;
#371 = VECTOR ( 'NONE', #36, 1000.000000000000000 ) ;
#372 = LINE ( 'NONE', #654, #636 ) ;
#373 = CIRCLE ( 'NONE', #784, 1.900000000000002354 ) ;
#374 = DIRECTION ( 'NONE',  ( 1.000000000000000000, 0.000000000000000000, -0.000000000000000000 ) ) ;
#375 = FACE_BOUND ( 'NONE', #683, .T. ) ;
#376 = VERTEX_POINT ( 'NONE', #35 ) ;
#377 = LINE ( 'NONE', #583, #79 ) ;
#378 = CYLINDRICAL_SURFACE ( 'NONE', #51, 0.9500000000000011768 ) ;
#379 = AXIS2_PLACEMENT_3D ( 'NONE', #230, #596, #454 ) ;
#380 = ADVANCED_FACE ( 'NONE', ( #87 ), #508, .T. ) ;
#381 = DIRECTION ( 'NONE',  ( 1.000000000000000000, -0.000000000000000000, 0.000000000000000000 ) ) ;
#382 = ORIENTED_EDGE ( 'NONE', *, *, #421, .F. ) ;
#383 = LINE ( 'NONE', #470, #810 ) ;
#384 = FACE_OUTER_BOUND ( 'NONE', #590, .T. ) ;
#385 = DIRECTION ( 'NONE',  ( 1.000000000000000000, -0.000000000000000000, 0.000000000000000000 ) ) ;
#386 = ORIENTED_EDGE ( 'NONE', *, *, #459, .T. ) ;
#387 = VECTOR ( 'NONE', #66, 1000.000000000000000 ) ;
#388 = DIRECTION ( 'NONE',  ( 0.000000000000000000, 0.000000000000000000, -1.000000000000000000 ) ) ;
#389 = CIRCLE ( 'NONE', #117, 1.900000000000002354 ) ;
#390 = EDGE_LOOP ( 'NONE', ( #49, #737 ) ) ;
#391 = CIRCLE ( 'NONE', #496, 1.900000000000002354 ) ;
#392 = CYLINDRICAL_SURFACE ( 'NONE', #883, 0.9500000000000011768 ) ;
#393 = EDGE_CURVE ( 'NONE', #22, #414, #372, .T. ) ;
#394 = PLANE ( 'NONE',  #598 ) ;
#395 = ORIENTED_EDGE ( 'NONE', *, *, #67, .T. ) ;
#396 = LINE ( 'NONE', #320, #667 ) ;
#397 = EDGE_CURVE ( 'NONE', #125, #348, #857, .T. ) ;
#398 = APPLICATION_PROTOCOL_DEFINITION ( 'draft international standard', 'automotive_design', 1998, #61 ) ;
#399 = ORIENTED_EDGE ( 'NONE', *, *, #55, .F. ) ;
#400 = AXIS2_PLACEMENT_3D ( 'NONE', #329, #531, #208 ) ;
#401 = DIRECTION ( 'NONE',  ( 0.000000000000000000, 0.000000000000000000, -1.000000000000000000 ) ) ;
#402 =( NAMED_UNIT ( * ) PLANE_ANGLE_UNIT ( ) SI_UNIT ( $, .RADIAN. ) );
#403 = VERTEX_POINT ( 'NONE', #368 ) ;
#404 = DIRECTION ( 'NONE',  ( 0.000000000000000000, 0.000000000000000000, -1.000000000000000000 ) ) ;
#405 = VECTOR ( 'NONE', #628, 1000.000000000000000 ) ;
#406 = CARTESIAN_POINT ( 'NONE',  ( 0.000000000000000000, 76.00000000000000000, 16.00000000000000000 ) ) ;
#407 = CARTESIAN_POINT ( 'NONE',  ( 2.000000000000000000, 77.75000000000000000, 14.75000000000000888 ) ) ;
#408 = PRODUCT_CONTEXT ( 'NONE', #164, 'mechanical' ) ;
#409 = EDGE_LOOP ( 'NONE', ( #180, #217, #257, #254 ) ) ;
#410 = EDGE_CURVE ( 'NONE', #730, #68, #659, .T. ) ;
#411 = DIRECTION ( 'NONE',  ( -1.000000000000000000, -0.000000000000000000, -0.000000000000000000 ) ) ;
#412 = VECTOR ( 'NONE', #21, 1000.000000000000000 ) ;
#413 =( LENGTH_UNIT ( ) NAMED_UNIT ( * ) SI_UNIT ( .MILLI., .METRE. ) );
#414 = VERTEX_POINT ( 'NONE', #244 ) ;
#415 = LINE ( 'NONE', #774, #653 ) ;
#416 = FILL_AREA_STYLE_COLOUR ( '', #534 ) ;
#417 = ORIENTED_EDGE ( 'NONE', *, *, #243, .T. ) ;
#418 = CARTESIAN_POINT ( 'NONE',  ( 5.000000000000000000, 77.75000000000000000, 15.70000000000000995 ) ) ;
#419 = ORIENTED_EDGE ( 'NONE', *, *, #591, .F. ) ;
#420 = CARTESIAN_POINT ( 'NONE',  ( 2.000000000000000000, 77.00000000000000000, 9.900000000000011013 ) ) ;
#421 = EDGE_CURVE ( 'NONE', #712, #163, #377, .T. ) ;
#422 = VERTEX_POINT ( 'NONE', #518 ) ;
#423 = DIRECTION ( 'NONE',  ( 0.000000000000000000, -1.626303258728256404E-16, 1.000000000000000000 ) ) ;
#424 = LINE ( 'NONE', #274, #506 ) ;
#425 = VECTOR ( 'NONE', #713, 1000.000000000000000 ) ;
#426 = CARTESIAN_POINT ( 'NONE',  ( 5.000000000000000000, 1.250000000000000000, 1.250000000000000000 ) ) ;
#427 = VERTEX_POINT ( 'NONE', #793 ) ;
#428 = EDGE_CURVE ( 'NONE', #875, #116, #175, .T. ) ;
#429 = PLANE ( 'NONE',  #827 ) ;
#430 = VERTEX_POINT ( 'NONE', #798 ) ;
#431 = VERTEX_POINT ( 'NONE', #182 ) ;
#432 = CARTESIAN_POINT ( 'NONE',  ( 5.000000000000000000, 1.250000000000000000, 2.200000000000001510 ) ) ;
#433 = ORIENTED_EDGE ( 'NONE', *, *, #86, .T. ) ;
#434 = CIRCLE ( 'NONE', #682, 0.9499999999999995115 ) ;
#435 = ORIENTED_EDGE ( 'NONE', *, *, #25, .F. ) ;
#436 = DIRECTION ( 'NONE',  ( 0.000000000000000000, 0.000000000000000000, -1.000000000000000000 ) ) ;
#437 = EDGE_CURVE ( 'NONE', #447, #155, #383, .T. ) ;
#438 = DIRECTION ( 'NONE',  ( -1.000000000000000000, 0.000000000000000000, -0.000000000000000000 ) ) ;
#439 = AXIS2_PLACEMENT_3D ( 'NONE', #527, #802, #436 ) ;
#440 = FACE_OUTER_BOUND ( 'NONE', #632, .T. ) ;
#441 = LINE ( 'NONE', #514, #425 ) ;
#442 = ORIENTED_EDGE ( 'NONE', *, *, #157, .T. ) ;
#443 = CARTESIAN_POINT ( 'NONE',  ( 5.000000000000000000, 77.75000000000000000, 1.250000000000007994 ) ) ;
#444 = DIRECTION ( 'NONE',  ( -1.000000000000000000, -0.000000000000000000, -0.000000000000000000 ) ) ;
#445 = VECTOR ( 'NONE', #301, 1000.000000000000000 ) ;
#446 = CARTESIAN_POINT ( 'NONE',  ( 5.000000000000000000, 79.00000000000000000, 8.305645733464712946E-15 ) ) ;
#447 = VERTEX_POINT ( 'NONE', #406 ) ;
#448 = CIRCLE ( 'NONE', #481, 1.900000000000002354 ) ;
#449 = CARTESIAN_POINT ( 'NONE',  ( 2.000000000000000000, 77.75000000000000000, 2.200000000000009059 ) ) ;
#450 = EDGE_CURVE ( 'NONE', #317, #348, #324, .T. ) ;
#451 = AXIS2_PLACEMENT_3D ( 'NONE', #179, #26, #184 ) ;
#452 = LINE ( 'NONE', #732, #466 ) ;
#453 = EDGE_CURVE ( 'NONE', #238, #403, #690, .T. ) ;
#454 = DIRECTION ( 'NONE',  ( 0.000000000000000000, -4.763918636678735115E-17, 1.000000000000000000 ) ) ;
#455 = ORIENTED_EDGE ( 'NONE', *, *, #170, .F. ) ;
#456 = DIRECTION ( 'NONE',  ( -1.000000000000000000, -0.000000000000000000, -0.000000000000000000 ) ) ;
#457 = LINE ( 'NONE', #110, #99 ) ;
#458 = CARTESIAN_POINT ( 'NONE',  ( -2.000000000000000000, 2.000000000000002665, 8.000000000000000000 ) ) ;
#459 = EDGE_CURVE ( 'NONE', #22, #840, #461, .T. ) ;
#460 = ORIENTED_EDGE ( 'NONE', *, *, #437, .F. ) ;
#461 = LINE ( 'NONE', #319, #896 ) ;
#462 = LINE ( 'NONE', #800, #725 ) ;
#463 = ORIENTED_EDGE ( 'NONE', *, *, #197, .T. ) ;
#464 = ADVANCED_FACE ( 'NONE', ( #566 ), #211, .T. ) ;
#465 = PLANE ( 'NONE',  #792 ) ;
#466 = VECTOR ( 'NONE', #526, 1000.000000000000000 ) ;
#467 = DIRECTION ( 'NONE',  ( 1.000000000000000000, 0.000000000000000000, 0.000000000000000000 ) ) ;
#468 = ORIENTED_EDGE ( 'NONE', *, *, #453, .T. ) ;
#469 = DIRECTION ( 'NONE',  ( 0.000000000000000000, -1.000000000000000000, 0.000000000000000000 ) ) ;
#470 = CARTESIAN_POINT ( 'NONE',  ( 0.000000000000000000, 76.00000000000000000, 8.162728174364350424E-15 ) ) ;
#471 = FACE_OUTER_BOUND ( 'NONE', #867, .T. ) ;
#472 = EDGE_LOOP ( 'NONE', ( #7, #515, #612, #1, #495, #148, #160, #834 ) ) ;
#473 = DIRECTION ( 'NONE',  ( 1.000000000000000000, 0.000000000000000000, 0.000000000000000000 ) ) ;
#474 = MANIFOLD_SOLID_BREP ( 'Mirror1', #231 ) ;
#475 = ORIENTED_EDGE ( 'NONE', *, *, #887, .F. ) ;
#476 = DIRECTION ( 'NONE',  ( 0.000000000000000000, 0.000000000000000000, 1.000000000000000000 ) ) ;
#477 = DIRECTION ( 'NONE',  ( 0.000000000000000000, 0.000000000000000000, -1.000000000000000000 ) ) ;
#478 = EDGE_CURVE ( 'NONE', #522, #557, #150, .T. ) ;
#479 = ORIENTED_EDGE ( 'NONE', *, *, #649, .T. ) ;
#480 = EDGE_CURVE ( 'NONE', #188, #261, #424, .T. ) ;
#481 = AXIS2_PLACEMENT_3D ( 'NONE', #146, #215, #153 ) ;
#482 = LINE ( 'NONE', #56, #537 ) ;
#483 = DIRECTION ( 'NONE',  ( -1.000000000000000000, -0.000000000000000000, -0.000000000000000000 ) ) ;
#484 = DIRECTION ( 'NONE',  ( -1.000000000000000000, -0.000000000000000000, -0.000000000000000000 ) ) ;
#485 = VERTEX_POINT ( 'NONE', #555 ) ;
#486 = CARTESIAN_POINT ( 'NONE',  ( -2.000000000000000000, 2.000000000000002665, 8.000000000000000000 ) ) ;
#487 = CARTESIAN_POINT ( 'NONE',  ( 5.000000000000000000, 77.75000000000000000, 14.75000000000000888 ) ) ;
#488 = ORIENTED_EDGE ( 'NONE', *, *, #623, .F. ) ;
#489 = CARTESIAN_POINT ( 'NONE',  ( -2.000000000000000000, 77.00000000000000000, 8.000000000000008882 ) ) ;
#490 = EDGE_CURVE ( 'NONE', #130, #581, #76, .T. ) ;
#491 = SURFACE_SIDE_STYLE ('',( #145 ) ) ;
#492 = VERTEX_POINT ( 'NONE', #8 ) ;
#493 = LINE ( 'NONE', #835, #797 ) ;
#494 = AXIS2_PLACEMENT_3D ( 'NONE', #854, #245, #104 ) ;
#495 = ORIENTED_EDGE ( 'NONE', *, *, #353, .F. ) ;
#496 = AXIS2_PLACEMENT_3D ( 'NONE', #489, #147, #573 ) ;
#497 = DIRECTION ( 'NONE',  ( -1.000000000000000000, -0.000000000000000000, -0.000000000000000000 ) ) ;
#498 = PRODUCT_RELATED_PRODUCT_CATEGORY ( 'part', '', ( #696 ) ) ;
#499 = ORIENTED_EDGE ( 'NONE', *, *, #292, .F. ) ;
#500 = FACE_OUTER_BOUND ( 'NONE', #158, .T. ) ;
#501 = ORIENTED_EDGE ( 'NONE', *, *, #678, .F. ) ;
#502 = DIRECTION ( 'NONE',  ( 0.000000000000000000, 0.000000000000000000, 1.000000000000000000 ) ) ;
#503 = ORIENTED_EDGE ( 'NONE', *, *, #129, .T. ) ;
#504 = CARTESIAN_POINT ( 'NONE',  ( 2.000000000000000000, 3.000000000000002665, 3.851859888774471706E-31 ) ) ;
#505 = DIRECTION ( 'NONE',  ( 0.000000000000000000, 0.000000000000000000, -1.000000000000000000 ) ) ;
#506 = VECTOR ( 'NONE', #483, 1000.000000000000000 ) ;
#507 = AXIS2_PLACEMENT_3D ( 'NONE', #764, #893, #128 ) ;
#508 = CYLINDRICAL_SURFACE ( 'NONE', #312, 0.9500000000000011768 ) ;
#509 = VECTOR ( 'NONE', #469, 1000.000000000000000 ) ;
#510 = CARTESIAN_POINT ( 'NONE',  ( 2.000000000000000000, 77.75000000000000000, 1.250000000000007994 ) ) ;
#511 = CARTESIAN_POINT ( 'NONE',  ( -2.000000000000000000, -0.7499999999999998890, 16.00000000000000000 ) ) ;
#512 = VERTEX_POINT ( 'NONE', #420 ) ;
#513 = FACE_OUTER_BOUND ( 'NONE', #252, .T. ) ;
#514 = CARTESIAN_POINT ( 'NONE',  ( 0.000000000000000000, 76.00000000000000000, 8.162728174364350424E-15 ) ) ;
#515 = ORIENTED_EDGE ( 'NONE', *, *, #450, .F. ) ;
#516 = EDGE_CURVE ( 'NONE', #734, #376, #71, .T. ) ;
#517 = EDGE_CURVE ( 'NONE', #242, #357, #549, .T. ) ;
#518 = CARTESIAN_POINT ( 'NONE',  ( 2.000000000000000000, 3.000000000000001776, 6.384450557859645770 ) ) ;
#519 = DIRECTION ( 'NONE',  ( 1.000000000000000000, -0.000000000000000000, 0.000000000000000000 ) ) ;
#520 = AXIS2_PLACEMENT_3D ( 'NONE', #176, #109, #438 ) ;
#521 = DIRECTION ( 'NONE',  ( 1.000000000000000000, 0.000000000000000000, 0.000000000000000000 ) ) ;
#522 = VERTEX_POINT ( 'NONE', #897 ) ;
#523 = CIRCLE ( 'NONE', #246, 0.9500000000000010658 ) ;
#524 = DIRECTION ( 'NONE',  ( 0.000000000000000000, 0.000000000000000000, -1.000000000000000000 ) ) ;
#525 = AXIS2_PLACEMENT_3D ( 'NONE', #639, #290, #777 ) ;
#526 = DIRECTION ( 'NONE',  ( 1.000000000000000000, 0.000000000000000000, -0.000000000000000000 ) ) ;
#527 = CARTESIAN_POINT ( 'NONE',  ( 5.000000000000000000, 1.250000000000000000, 14.75000000000000178 ) ) ;
#528 = EDGE_LOOP ( 'NONE', ( #714, #607, #856, #620 ) ) ;
#529 = DIRECTION ( 'NONE',  ( 0.000000000000000000, 0.000000000000000000, -1.000000000000000000 ) ) ;
#530 = ORIENTED_EDGE ( 'NONE', *, *, #618, .F. ) ;
#531 = DIRECTION ( 'NONE',  ( -1.000000000000000000, -0.000000000000000000, -0.000000000000000000 ) ) ;
#532 = EDGE_LOOP ( 'NONE', ( #691, #551, #455, #701 ) ) ;
#533 = DIRECTION ( 'NONE',  ( 1.000000000000000000, -0.000000000000000000, 0.000000000000000000 ) ) ;
#534 = COLOUR_RGB ( '',0.7921568627450980005, 0.8196078431372548767, 0.9333333333333333481 ) ;
#535 = CARTESIAN_POINT ( 'NONE',  ( -2.000000000000000000, 2.000000000000002665, 8.000000000000000000 ) ) ;
#536 = UNCERTAINTY_MEASURE_WITH_UNIT (LENGTH_MEASURE( 1.000000000000000082E-05 ), #251, 'distance_accuracy_value', 'NONE');
#537 = VECTOR ( 'NONE', #553, 1000.000000000000000 ) ;
#538 = ORIENTED_EDGE ( 'NONE', *, *, #144, .T. ) ;
#539 = CARTESIAN_POINT ( 'NONE',  ( 2.000000000000000000, 77.75000000000000000, 1.250000000000007994 ) ) ;
#540 = CARTESIAN_POINT ( 'NONE',  ( 2.000000000000000000, 2.000000000000003109, 9.900000000000002132 ) ) ;
#541 = ORIENTED_EDGE ( 'NONE', *, *, #353, .T. ) ;
#542 = AXIS2_PLACEMENT_3D ( 'NONE', #866, #381, #166 ) ;
#543 = CYLINDRICAL_SURFACE ( 'NONE', #726, 0.9500000000000009548 ) ;
#544 = ADVANCED_FACE ( 'NONE', ( #270, #830, #833 ), #560, .F. ) ;
#545 = EDGE_CURVE ( 'NONE', #828, #155, #200, .T. ) ;
#546 = LINE ( 'NONE', #325, #565 ) ;
#547 = VERTEX_POINT ( 'NONE', #265 ) ;
#548 = CARTESIAN_POINT ( 'NONE',  ( 2.000000000000000000, 79.75000000000000000, 0.000000000000000000 ) ) ;
#549 = LINE ( 'NONE', #825, #625 ) ;
#550 = CARTESIAN_POINT ( 'NONE',  ( -2.000000000000000000, 79.75000000000000000, 0.000000000000000000 ) ) ;
#551 = ORIENTED_EDGE ( 'NONE', *, *, #203, .F. ) ;
#552 = AXIS2_PLACEMENT_3D ( 'NONE', #260, #45, #401 ) ;
#553 = DIRECTION ( 'NONE',  ( 0.000000000000000000, 1.000000000000000000, 0.000000000000000000 ) ) ;
#554 = CIRCLE ( 'NONE', #841, 0.9500000000000010658 ) ;
#555 = CARTESIAN_POINT ( 'NONE',  ( 2.000000000000000000, 2.000000000000002665, 6.099999999999997868 ) ) ;
#556 = ADVANCED_FACE ( 'NONE', ( #323 ), #543, .T. ) ;
#557 = VERTEX_POINT ( 'NONE', #886 ) ;
#558 = DIRECTION ( 'NONE',  ( 0.000000000000000000, 1.626303258728256404E-16, -1.000000000000000000 ) ) ;
#559 = AXIS2_PLACEMENT_3D ( 'NONE', #871, #742, #467 ) ;
#560 = PLANE ( 'NONE',  #11 ) ;
#561 = EDGE_LOOP ( 'NONE', ( #572, #844, #626, #327 ) ) ;
#562 = CARTESIAN_POINT ( 'NONE',  ( -2.000000000000000000, 77.00000000000000000, 9.900000000000011013 ) ) ;
#563 = ORIENTED_EDGE ( 'NONE', *, *, #196, .T. ) ;
#564 = EDGE_CURVE ( 'NONE', #778, #431, #191, .T. ) ;
#565 = VECTOR ( 'NONE', #759, 1000.000000000000000 ) ;
#566 = FACE_OUTER_BOUND ( 'NONE', #280, .T. ) ;
#567 = ORIENTED_EDGE ( 'NONE', *, *, #262, .F. ) ;
#568 = FACE_OUTER_BOUND ( 'NONE', #409, .T. ) ;
#569 = CIRCLE ( 'NONE', #680, 0.9499999999999995115 ) ;
#570 = VECTOR ( 'NONE', #747, 1000.000000000000000 ) ;
#571 = CARTESIAN_POINT ( 'NONE',  ( 2.000000000000000000, 79.75000000000000000, 0.000000000000000000 ) ) ;
#572 = ORIENTED_EDGE ( 'NONE', *, *, #428, .F. ) ;
#573 = DIRECTION ( 'NONE',  ( 0.000000000000000000, 0.000000000000000000, -1.000000000000000000 ) ) ;
#574 = ORIENTED_EDGE ( 'NONE', *, *, #642, .F. ) ;
#575 = EDGE_CURVE ( 'NONE', #875, #403, #336, .T. ) ;
#576 = CYLINDRICAL_SURFACE ( 'NONE', #279, 0.9500000000000009548 ) ;
#577 = ORIENTED_EDGE ( 'NONE', *, *, #788, .F. ) ;
#578 = CARTESIAN_POINT ( 'NONE',  ( 5.000000000000000000, 77.75000000000000000, 14.75000000000000888 ) ) ;
#579 = CARTESIAN_POINT ( 'NONE',  ( 5.000000000000000000, 1.250000000000000000, 15.70000000000000284 ) ) ;
#580 = DIRECTION ( 'NONE',  ( 0.000000000000000000, 0.000000000000000000, -1.000000000000000000 ) ) ;
#581 = VERTEX_POINT ( 'NONE', #548 ) ;
#582 = PRESENTATION_LAYER_ASSIGNMENT (  '', '', ( #65 ) ) ;
#583 = CARTESIAN_POINT ( 'NONE',  ( 5.000000000000000000, 1.250000000000000000, 2.200000000000001066 ) ) ;
#584 = DIRECTION ( 'NONE',  ( 0.000000000000000000, 0.000000000000000000, 1.000000000000000000 ) ) ;
#585 = EDGE_CURVE ( 'NONE', #796, #485, #328, .T. ) ;
#586 = PLANE ( 'NONE',  #83 ) ;
#587 = ORIENTED_EDGE ( 'NONE', *, *, #428, .T. ) ;
#588 = CARTESIAN_POINT ( 'NONE',  ( 2.000000000000000000, 77.75000000000000000, 0.3000000000000069833 ) ) ;
#589 = LINE ( 'NONE', #723, #768 ) ;
#590 = EDGE_LOOP ( 'NONE', ( #311, #4, #18, #885 ) ) ;
#591 = EDGE_CURVE ( 'NONE', #3, #348, #132, .T. ) ;
#592 = CARTESIAN_POINT ( 'NONE',  ( -2.000000000000000000, 2.000000000000003109, 9.900000000000002132 ) ) ;
#593 = PLANE ( 'NONE',  #39 ) ;
#594 = UNCERTAINTY_MEASURE_WITH_UNIT (LENGTH_MEASURE( 1.000000000000000082E-05 ), #413, 'distance_accuracy_value', 'NONE');
#595 = AXIS2_PLACEMENT_3D ( 'NONE', #535, #812, #193 ) ;
#596 = DIRECTION ( 'NONE',  ( -0.000000000000000000, 1.000000000000000000, 4.763918636678735115E-17 ) ) ;
#597 = VERTEX_POINT ( 'NONE', #752 ) ;
#598 = AXIS2_PLACEMENT_3D ( 'NONE', #888, #473, #741 ) ;
#599 = VECTOR ( 'NONE', #2, 1000.000000000000000 ) ;
#600 = LINE ( 'NONE', #794, #218 ) ;
#601 = ORIENTED_EDGE ( 'NONE', *, *, #259, .F. ) ;
#602 = CARTESIAN_POINT ( 'NONE',  ( -2.000000000000000000, 77.00000000000000000, 8.000000000000008882 ) ) ;
#603 = EDGE_CURVE ( 'NONE', #261, #376, #710, .T. ) ;
#604 = ORIENTED_EDGE ( 'NONE', *, *, #55, .T. ) ;
#605 = LINE ( 'NONE', #809, #868 ) ;
#606 = CARTESIAN_POINT ( 'NONE',  ( 0.000000000000000000, 0.000000000000000000, 0.000000000000000000 ) ) ;
#607 = ORIENTED_EDGE ( 'NONE', *, *, #879, .F. ) ;
#608 = CIRCLE ( 'NONE', #507, 1.900000000000002354 ) ;
#609 = DIRECTION ( 'NONE',  ( -1.000000000000000000, -0.000000000000000000, -0.000000000000000000 ) ) ;
#610 = APPLICATION_PROTOCOL_DEFINITION ( 'draft international standard', 'automotive_design', 1998, #164 ) ;
#611 = VECTOR ( 'NONE', #738, 1000.000000000000000 ) ;
#612 = ORIENTED_EDGE ( 'NONE', *, *, #623, .T. ) ;
#613 = EDGE_CURVE ( 'NONE', #894, #652, #605, .T. ) ;
#614 = DIRECTION ( 'NONE',  ( 0.000000000000000000, 0.000000000000000000, -1.000000000000000000 ) ) ;
#615 = DIRECTION ( 'NONE',  ( 0.000000000000000000, 0.000000000000000000, -1.000000000000000000 ) ) ;
#616 = ORIENTED_EDGE ( 'NONE', *, *, #131, .F. ) ;
#617 = CARTESIAN_POINT ( 'NONE',  ( 5.000000000000000000, 1.250000000000000222, 13.80000000000000071 ) ) ;
#618 = EDGE_CURVE ( 'NONE', #163, #547, #271, .T. ) ;
#619 = DIRECTION ( 'NONE',  ( 0.000000000000000000, 0.000000000000000000, -1.000000000000000000 ) ) ;
#620 = ORIENTED_EDGE ( 'NONE', *, *, #293, .F. ) ;
#621 = DIRECTION ( 'NONE',  ( 0.000000000000000000, 1.000000000000000000, 0.000000000000000000 ) ) ;
#622 = CARTESIAN_POINT ( 'NONE',  ( 2.000000000000000000, 3.000000000000002665, 4.878909776184773897E-16 ) ) ;
#623 = EDGE_CURVE ( 'NONE', #317, #427, #123, .T. ) ;
#624 = DIRECTION ( 'NONE',  ( -1.000000000000000000, -0.000000000000000000, -0.000000000000000000 ) ) ;
#625 = VECTOR ( 'NONE', #687, 1000.000000000000000 ) ;
#626 = ORIENTED_EDGE ( 'NONE', *, *, #453, .F. ) ;
#627 = CIRCLE ( 'NONE', #400, 1.900000000000002354 ) ;
#628 = DIRECTION ( 'NONE',  ( 0.000000000000000000, -1.000000000000000000, 0.000000000000000000 ) ) ;
#629 = ORIENTED_EDGE ( 'NONE', *, *, #771, .T. ) ;
#630 = EDGE_CURVE ( 'NONE', #357, #68, #318, .T. ) ;
#631 = CARTESIAN_POINT ( 'NONE',  ( -2.000000000000000000, 2.000000000000002665, 8.000000000000000000 ) ) ;
#632 = EDGE_LOOP ( 'NONE', ( #563, #697, #194, #169 ) ) ;
#633 = ORIENTED_EDGE ( 'NONE', *, *, #839, .F. ) ;
#634 = DIRECTION ( 'NONE',  ( 0.000000000000000000, 0.000000000000000000, -1.000000000000000000 ) ) ;
#635 = ORIENTED_EDGE ( 'NONE', *, *, #478, .T. ) ;
#636 = VECTOR ( 'NONE', #850, 1000.000000000000000 ) ;
#637 = SURFACE_STYLE_USAGE ( .BOTH. , #491 ) ;
#638 = ORIENTED_EDGE ( 'NONE', *, *, #780, .T. ) ;
#639 = CARTESIAN_POINT ( 'NONE',  ( -2.000000000000000000, -0.7499999999999981126, -8.639736061993840039E-17 ) ) ;
#640 = AXIS2_PLACEMENT_3D ( 'NONE', #305, #655, #529 ) ;
#641 = ORIENTED_EDGE ( 'NONE', *, *, #585, .T. ) ;
#642 = EDGE_CURVE ( 'NONE', #889, #447, #890, .T. ) ;
#643 = ORIENTED_EDGE ( 'NONE', *, *, #891, .T. ) ;
#644 = CARTESIAN_POINT ( 'NONE',  ( 5.000000000000000000, 77.75000000000000000, 14.75000000000000888 ) ) ;
#645 = DIRECTION ( 'NONE',  ( -1.000000000000000000, -0.000000000000000000, -0.000000000000000000 ) ) ;
#646 = ORIENTED_EDGE ( 'NONE', *, *, #73, .F. ) ;
#647 = DIRECTION ( 'NONE',  ( 1.000000000000000000, -0.000000000000000000, 0.000000000000000000 ) ) ;
#648 = CARTESIAN_POINT ( 'NONE',  ( 5.000000000000000000, 77.75000000000000000, 0.3000000000000069833 ) ) ;
#649 = EDGE_CURVE ( 'NONE', #492, #130, #482, .T. ) ;
#650 = CYLINDRICAL_SURFACE ( 'NONE', #708, 0.9500000000000011768 ) ;
#651 = CARTESIAN_POINT ( 'NONE',  ( 5.000000000000000000, 1.250000000000000000, 15.70000000000000284 ) ) ;
#652 = VERTEX_POINT ( 'NONE', #757 ) ;
#653 = VECTOR ( 'NONE', #558, 1000.000000000000000 ) ;
#654 = CARTESIAN_POINT ( 'NONE',  ( 2.000000000000000000, 76.00000000000000000, 6.384450557859652875 ) ) ;
#655 = DIRECTION ( 'NONE',  ( 1.000000000000000000, 0.000000000000000000, -0.000000000000000000 ) ) ;
#656 = DIRECTION ( 'NONE',  ( 1.000000000000000000, 0.000000000000000000, 0.000000000000000000 ) ) ;
#657 = ADVANCED_FACE ( 'NONE', ( #829 ), #392, .T. ) ;
#658 = ORIENTED_EDGE ( 'NONE', *, *, #393, .T. ) ;
#659 = LINE ( 'NONE', #648, #445 ) ;
#660 = FACE_OUTER_BOUND ( 'NONE', #561, .T. ) ;
#661 = DIRECTION ( 'NONE',  ( 1.000000000000000000, 0.000000000000000000, 0.000000000000000000 ) ) ;
#662 = EDGE_LOOP ( 'NONE', ( #577, #601, #635, #248 ) ) ;
#663 = FACE_OUTER_BOUND ( 'NONE', #472, .T. ) ;
#664 = DIRECTION ( 'NONE',  ( 0.000000000000000000, 0.000000000000000000, -1.000000000000000000 ) ) ;
#665 = DIRECTION ( 'NONE',  ( 1.000000000000000000, -0.000000000000000000, -0.000000000000000000 ) ) ;
#666 = ORIENTED_EDGE ( 'NONE', *, *, #703, .F. ) ;
#667 = VECTOR ( 'NONE', #745, 1000.000000000000000 ) ;
#668 = LINE ( 'NONE', #189, #5 ) ;
#669 = ORIENTED_EDGE ( 'NONE', *, *, #421, .T. ) ;
#670 = DIRECTION ( 'NONE',  ( 0.000000000000000000, 0.000000000000000000, 1.000000000000000000 ) ) ;
#671 = DIRECTION ( 'NONE',  ( 0.000000000000000000, 0.000000000000000000, -1.000000000000000000 ) ) ;
#672 = ORIENTED_EDGE ( 'NONE', *, *, #233, .T. ) ;
#673 = DIRECTION ( 'NONE',  ( -1.000000000000000000, -0.000000000000000000, -0.000000000000000000 ) ) ;
#674 = CARTESIAN_POINT ( 'NONE',  ( 2.000000000000000000, 1.250000000000000000, 2.200000000000001510 ) ) ;
#675 = ADVANCED_FACE ( 'NONE', ( #876 ), #12, .T. ) ;
#676 = CIRCLE ( 'NONE', #705, 0.9499999999999995115 ) ;
#677 = ORIENTED_EDGE ( 'NONE', *, *, #613, .T. ) ;
#678 = EDGE_CURVE ( 'NONE', #894, #317, #277, .T. ) ;
#679 = DIRECTION ( 'NONE',  ( 0.000000000000000000, 0.000000000000000000, -1.000000000000000000 ) ) ;
#680 = AXIS2_PLACEMENT_3D ( 'NONE', #309, #736, #388 ) ;
#681 = LINE ( 'NONE', #550, #162 ) ;
#682 = AXIS2_PLACEMENT_3D ( 'NONE', #578, #80, #69 ) ;
#683 = EDGE_LOOP ( 'NONE', ( #878, #38 ) ) ;
#684 = CARTESIAN_POINT ( 'NONE',  ( 0.000000000000000000, -0.000000000000000000, 16.00000000000000000 ) ) ;
#685 = DIRECTION ( 'NONE',  ( 0.000000000000000000, 0.000000000000000000, -1.000000000000000000 ) ) ;
#686 = EDGE_LOOP ( 'NONE', ( #342, #32 ) ) ;
#687 = DIRECTION ( 'NONE',  ( -1.000000000000000000, -0.000000000000000000, -0.000000000000000000 ) ) ;
#688 = VERTEX_POINT ( 'NONE', #562 ) ;
#689 = FACE_OUTER_BOUND ( 'NONE', #27, .T. ) ;
#690 = CIRCLE ( 'NONE', #739, 0.9499999999999995115 ) ;
#691 = ORIENTED_EDGE ( 'NONE', *, *, #490, .T. ) ;
#692 = DIRECTION ( 'NONE',  ( 0.000000000000000000, 0.000000000000000000, -1.000000000000000000 ) ) ;
#693 = ORIENTED_EDGE ( 'NONE', *, *, #695, .F. ) ;
#694 = DIRECTION ( 'NONE',  ( 1.000000000000000000, -0.000000000000000000, 0.000000000000000000 ) ) ;
#695 = EDGE_CURVE ( 'NONE', #840, #431, #493, .T. ) ;
#696 = PRODUCT ( 'camera_offset', 'camera_offset', '', ( #408 ) ) ;
#697 = ORIENTED_EDGE ( 'NONE', *, *, #410, .T. ) ;
#698 = FACE_BOUND ( 'NONE', #330, .T. ) ;
#699 = EDGE_LOOP ( 'NONE', ( #468, #321 ) ) ;
#700 = EDGE_CURVE ( 'NONE', #712, #430, #554, .T. ) ;
#701 = ORIENTED_EDGE ( 'NONE', *, *, #801, .T. ) ;
#702 = FACE_BOUND ( 'NONE', #390, .T. ) ;
#703 = EDGE_CURVE ( 'NONE', #796, #362, #373, .T. ) ;
#704 = EDGE_LOOP ( 'NONE', ( #501, #677, #82, #488 ) ) ;
#705 = AXIS2_PLACEMENT_3D ( 'NONE', #198, #334, #615 ) ;
#706 = ORIENTED_EDGE ( 'NONE', *, *, #292, .T. ) ;
#707 = DIRECTION ( 'NONE',  ( 1.000000000000000000, -0.000000000000000000, 0.000000000000000000 ) ) ;
#708 = AXIS2_PLACEMENT_3D ( 'NONE', #19, #302, #584 ) ;
#709 = ORIENTED_EDGE ( 'NONE', *, *, #603, .F. ) ;
#710 = CIRCLE ( 'NONE', #23, 0.9499999999999995115 ) ;
#711 = DIRECTION ( 'NONE',  ( 0.000000000000000000, -0.000000000000000000, -1.000000000000000000 ) ) ;
#712 = VERTEX_POINT ( 'NONE', #432 ) ;
#713 = DIRECTION ( 'NONE',  ( 0.000000000000000000, 4.763918636678735115E-17, -1.000000000000000000 ) ) ;
#714 = ORIENTED_EDGE ( 'NONE', *, *, #575, .F. ) ;
#715 = EDGE_CURVE ( 'NONE', #688, #10, #391, .T. ) ;
#716 = CIRCLE ( 'NONE', #439, 0.9499999999999995115 ) ;
#717 = DIRECTION ( 'NONE',  ( 0.000000000000000000, 0.000000000000000000, 1.000000000000000000 ) ) ;
#718 = CYLINDRICAL_SURFACE ( 'NONE', #640, 1.900000000000002354 ) ;
#719 = LINE ( 'NONE', #651, #412 ) ;
#720 = ORIENTED_EDGE ( 'NONE', *, *, #229, .F. ) ;
#721 = EDGE_CURVE ( 'NONE', #362, #209, #216, .T. ) ;
#722 = CARTESIAN_POINT ( 'NONE',  ( 0.000000000000000000, 76.00000000000000000, 9.615549442140361336 ) ) ;
#723 = CARTESIAN_POINT ( 'NONE',  ( -2.000000000000000000, 79.75000000000000000, 16.00000000000000000 ) ) ;
#724 = ORIENTED_EDGE ( 'NONE', *, *, #450, .T. ) ;
#725 = VECTOR ( 'NONE', #870, 1000.000000000000000 ) ;
#726 = AXIS2_PLACEMENT_3D ( 'NONE', #44, #50, #476 ) ;
#727 = CARTESIAN_POINT ( 'NONE',  ( 5.000000000000000000, 1.250000000000000000, 14.75000000000000178 ) ) ;
#728 = PLANE ( 'NONE',  #133 ) ;
#729 = FACE_OUTER_BOUND ( 'NONE', #365, .T. ) ;
#730 = VERTEX_POINT ( 'NONE', #222 ) ;
#731 = LINE ( 'NONE', #308, #34 ) ;
#732 = CARTESIAN_POINT ( 'NONE',  ( -2.000000000000000000, 77.00000000000000000, 9.900000000000011013 ) ) ;
#733 = DIRECTION ( 'NONE',  ( 0.000000000000000000, 0.000000000000000000, -1.000000000000000000 ) ) ;
#734 = VERTEX_POINT ( 'NONE', #418 ) ;
#735 = ADVANCED_FACE ( 'NONE', ( #500 ), #845, .F. ) ;
#736 = DIRECTION ( 'NONE',  ( -1.000000000000000000, -0.000000000000000000, -0.000000000000000000 ) ) ;
#737 = ORIENTED_EDGE ( 'NONE', *, *, #98, .F. ) ;
#738 = DIRECTION ( 'NONE',  ( 0.000000000000000000, 1.000000000000000000, 0.000000000000000000 ) ) ;
#739 = AXIS2_PLACEMENT_3D ( 'NONE', #337, #892, #186 ) ;
#740 = AXIS2_PLACEMENT_3D ( 'NONE', #97, #884, #477 ) ;
#741 = DIRECTION ( 'NONE',  ( 0.000000000000000000, 2.102695122396129916E-16, -1.000000000000000000 ) ) ;
#742 = DIRECTION ( 'NONE',  ( 0.000000000000000000, 0.000000000000000000, 1.000000000000000000 ) ) ;
#743 = VERTEX_POINT ( 'NONE', #154 ) ;
#744 = ADVANCED_FACE ( 'NONE', ( #281 ), #429, .T. ) ;
#745 = DIRECTION ( 'NONE',  ( 0.000000000000000000, 4.763918636678735115E-17, -1.000000000000000000 ) ) ;
#746 = ORIENTED_EDGE ( 'NONE', *, *, #771, .F. ) ;
#747 = DIRECTION ( 'NONE',  ( 1.000000000000000000, -0.000000000000000000, -0.000000000000000000 ) ) ;
#748 = CYLINDRICAL_SURFACE ( 'NONE', #898, 1.900000000000002354 ) ;
#749 = EDGE_CURVE ( 'NONE', #734, #188, #434, .T. ) ;
#750 = CIRCLE ( 'NONE', #822, 1.900000000000002354 ) ;
#751 = ORIENTED_EDGE ( 'NONE', *, *, #801, .F. ) ;
#752 = CARTESIAN_POINT ( 'NONE',  ( 0.000000000000000000, 3.000000000000001776, 6.384450557859645770 ) ) ;
#753 = CIRCLE ( 'NONE', #361, 0.9499999999999995115 ) ;
#754 = CARTESIAN_POINT ( 'NONE',  ( -2.000000000000000000, 79.75000000000000000, 0.000000000000000000 ) ) ;
#755 = CIRCLE ( 'NONE', #817, 1.900000000000002354 ) ;
#756 = EDGE_LOOP ( 'NONE', ( #228, #693, #185, #658 ) ) ;
#757 = CARTESIAN_POINT ( 'NONE',  ( -2.000000000000000000, 79.75000000000000000, 16.00000000000000000 ) ) ;
#758 =( NAMED_UNIT ( * ) PLANE_ANGLE_UNIT ( ) SI_UNIT ( $, .RADIAN. ) );
#759 = DIRECTION ( 'NONE',  ( -1.000000000000000000, -0.000000000000000000, -0.000000000000000000 ) ) ;
#760 = ORIENTED_EDGE ( 'NONE', *, *, #480, .F. ) ;
#761 = CIRCLE ( 'NONE', #275, 1.900000000000002354 ) ;
#762 = CARTESIAN_POINT ( 'NONE',  ( 2.000000000000000000, 0.000000000000000000, 0.000000000000000000 ) ) ;
#763 = ADVANCED_FACE ( 'NONE', ( #698, #702, #210 ), #227, .T. ) ;
#764 = CARTESIAN_POINT ( 'NONE',  ( 2.000000000000000000, 2.000000000000002665, 8.000000000000000000 ) ) ;
#765 = DIRECTION ( 'NONE',  ( 0.000000000000000000, 0.000000000000000000, -1.000000000000000000 ) ) ;
#766 = AXIS2_PLACEMENT_3D ( 'NONE', #727, #103, #524 ) ;
#767 = EDGE_LOOP ( 'NONE', ( #538, #848, #808, #107, #63, #479, #751, #351 ) ) ;
#768 = VECTOR ( 'NONE', #656, 1000.000000000000000 ) ;
#769 = CARTESIAN_POINT ( 'NONE',  ( 5.000000000000000000, 1.250000000000000000, 1.250000000000000000 ) ) ;
#770 = ADVANCED_FACE ( 'NONE', ( #568 ), #901, .T. ) ;
#771 = EDGE_CURVE ( 'NONE', #597, #778, #415, .T. ) ;
#772 = PRODUCT_DEFINITION_SHAPE ( 'NONE', 'NONE',  #33 ) ;
#773 = EDGE_LOOP ( 'NONE', ( #775, #806, #282, #672, #900, #204, #386, #541 ) ) ;
#774 = CARTESIAN_POINT ( 'NONE',  ( 0.000000000000000000, 3.000000000000002665, 4.878909776184773897E-16 ) ) ;
#775 = ORIENTED_EDGE ( 'NONE', *, *, #490, .F. ) ;
#776 = ADVANCED_FACE ( 'NONE', ( #689 ), #156, .T. ) ;
#777 = DIRECTION ( 'NONE',  ( 0.000000000000000000, 1.151964808265848461E-16, -1.000000000000000000 ) ) ;
#778 = VERTEX_POINT ( 'NONE', #159 ) ;
#779 = EDGE_LOOP ( 'NONE', ( #13, #860, #530, #382 ) ) ;
#780 = EDGE_CURVE ( 'NONE', #522, #125, #64, .T. ) ;
#781 = FACE_BOUND ( 'NONE', #699, .T. ) ;
#782 = CIRCLE ( 'NONE', #552, 0.9500000000000010658 ) ;
#783 = EDGE_LOOP ( 'NONE', ( #836, #442, #791, #346 ) ) ;
#784 = AXIS2_PLACEMENT_3D ( 'NONE', #631, #358, #15 ) ;
#785 = CARTESIAN_POINT ( 'NONE',  ( -2.000000000000000000, -0.7499999999999998890, 16.00000000000000000 ) ) ;
#786 = CARTESIAN_POINT ( 'NONE',  ( 0.000000000000000000, 2.000000000000002665, 8.000000000000000000 ) ) ;
#787 = ORIENTED_EDGE ( 'NONE', *, *, #891, .F. ) ;
#788 = EDGE_CURVE ( 'NONE', #889, #54, #855, .T. ) ;
#789 = CARTESIAN_POINT ( 'NONE',  ( 2.000000000000000000, 79.75000000000000000, 16.00000000000000000 ) ) ;
#790 = CARTESIAN_POINT ( 'NONE',  ( 5.000000000000000000, 0.000000000000000000, 0.000000000000000000 ) ) ;
#791 = ORIENTED_EDGE ( 'NONE', *, *, #517, .T. ) ;
#792 = AXIS2_PLACEMENT_3D ( 'NONE', #606, #877, #256 ) ;
#793 = CARTESIAN_POINT ( 'NONE',  ( -2.000000000000000000, 79.75000000000000000, 0.000000000000000000 ) ) ;
#794 = CARTESIAN_POINT ( 'NONE',  ( 2.000000000000000000, 76.00000000000000000, 16.00000000000000711 ) ) ;
#795 = CARTESIAN_POINT ( 'NONE',  ( 2.000000000000000000, 2.000000000000002665, 8.000000000000000000 ) ) ;
#796 = VERTEX_POINT ( 'NONE', #112 ) ;
#797 = VECTOR ( 'NONE', #832, 1000.000000000000000 ) ;
#798 = CARTESIAN_POINT ( 'NONE',  ( 5.000000000000000000, 1.250000000000000222, 0.2999999999999989342 ) ) ;
#799 = ADVANCED_FACE ( 'NONE', ( #93 ), #586, .T. ) ;
#800 = CARTESIAN_POINT ( 'NONE',  ( 2.000000000000000000, 3.000000000000001776, 6.384450557859645770 ) ) ;
#801 = EDGE_CURVE ( 'NONE', #652, #130, #589, .T. ) ;
#802 = DIRECTION ( 'NONE',  ( 1.000000000000000000, -0.000000000000000000, 0.000000000000000000 ) ) ;
#803 = ORIENTED_EDGE ( 'NONE', *, *, #229, .T. ) ;
#804 = CARTESIAN_POINT ( 'NONE',  ( 2.000000000000000000, 3.000000000000000888, 9.615549442140354230 ) ) ;
#805 = EDGE_CURVE ( 'NONE', #547, #163, #102, .T. ) ;
#806 = ORIENTED_EDGE ( 'NONE', *, *, #649, .F. ) ;
#807 = DIRECTION ( 'NONE',  ( -1.000000000000000000, -0.000000000000000000, -0.000000000000000000 ) ) ;
#808 = ORIENTED_EDGE ( 'NONE', *, *, #259, .T. ) ;
#809 = CARTESIAN_POINT ( 'NONE',  ( -2.000000000000000000, -0.000000000000000000, 16.00000000000000000 ) ) ;
#810 = VECTOR ( 'NONE', #333, 1000.000000000000000 ) ;
#811 = AXIS2_PLACEMENT_3D ( 'NONE', #762, #352, #634 ) ;
#812 = DIRECTION ( 'NONE',  ( 1.000000000000000000, 0.000000000000000000, 0.000000000000000000 ) ) ;
#813 = EDGE_LOOP ( 'NONE', ( #399, #94, #395, #435 ) ) ;
#814 = DIRECTION ( 'NONE',  ( -1.000000000000000000, 0.000000000000000000, -0.000000000000000000 ) ) ;
#815 = ADVANCED_FACE ( 'NONE', ( #729 ), #100, .F. ) ;
#816 = DIRECTION ( 'NONE',  ( 1.000000000000000000, 0.000000000000000000, 0.000000000000000000 ) ) ;
#817 = AXIS2_PLACEMENT_3D ( 'NONE', #786, #521, #505 ) ;
#818 = DIRECTION ( 'NONE',  ( 1.000000000000000000, 0.000000000000000000, -0.000000000000000000 ) ) ;
#819 = ORIENTED_EDGE ( 'NONE', *, *, #131, .T. ) ;
#820 = CARTESIAN_POINT ( 'NONE',  ( -2.000000000000000000, 2.000000000000002665, 6.099999999999997868 ) ) ;
#821 = CARTESIAN_POINT ( 'NONE',  ( 0.000000000000000000, 77.00000000000000000, 8.000000000000008882 ) ) ;
#822 = AXIS2_PLACEMENT_3D ( 'NONE', #821, #609, #202 ) ;
#823 = ORIENTED_EDGE ( 'NONE', *, *, #285, .T. ) ;
#824 = CARTESIAN_POINT ( 'NONE',  ( 2.000000000000000000, 77.75000000000000000, 14.75000000000000888 ) ) ;
#825 = CARTESIAN_POINT ( 'NONE',  ( 5.000000000000000000, 77.75000000000000000, 2.200000000000009059 ) ) ;
#826 = DIRECTION ( 'NONE',  ( 0.000000000000000000, 0.000000000000000000, -1.000000000000000000 ) ) ;
#827 = AXIS2_PLACEMENT_3D ( 'NONE', #6, #273, #423 ) ;
#828 = VERTEX_POINT ( 'NONE', #859 ) ;
#829 = FACE_OUTER_BOUND ( 'NONE', #528, .T. ) ;
#830 = FACE_BOUND ( 'NONE', #223, .T. ) ;
#831 = CARTESIAN_POINT ( 'NONE',  ( -2.000000000000000000, 77.00000000000000000, 6.100000000000006750 ) ) ;
#832 = DIRECTION ( 'NONE',  ( -1.000000000000000000, -0.000000000000000000, -0.000000000000000000 ) ) ;
#833 = FACE_OUTER_BOUND ( 'NONE', #704, .T. ) ;
#834 = ORIENTED_EDGE ( 'NONE', *, *, #86, .F. ) ;
#835 = CARTESIAN_POINT ( 'NONE',  ( 2.000000000000000000, 76.00000000000000000, 7.674837196745873429E-15 ) ) ;
#836 = ORIENTED_EDGE ( 'NONE', *, *, #410, .F. ) ;
#837 = ADVANCED_FACE ( 'NONE', ( #299 ), #303, .T. ) ;
#838 = PRESENTATION_STYLE_ASSIGNMENT (( #637 ) ) ;
#839 = EDGE_CURVE ( 'NONE', #597, #54, #755, .T. ) ;
#840 = VERTEX_POINT ( 'NONE', #105 ) ;
#841 = AXIS2_PLACEMENT_3D ( 'NONE', #769, #74, #213 ) ;
#842 = DIRECTION ( 'NONE',  ( -1.000000000000000000, -0.000000000000000000, -0.000000000000000000 ) ) ;
#843 = ORIENTED_EDGE ( 'NONE', *, *, #196, .F. ) ;
#844 = ORIENTED_EDGE ( 'NONE', *, *, #575, .T. ) ;
#845 = CYLINDRICAL_SURFACE ( 'NONE', #899, 1.900000000000002354 ) ;
#846 = AXIS2_PLACEMENT_3D ( 'NONE', #795, #849, #580 ) ;
#847 = EDGE_LOOP ( 'NONE', ( #122, #587 ) ) ;
#848 = ORIENTED_EDGE ( 'NONE', *, *, #780, .F. ) ;
#849 = DIRECTION ( 'NONE',  ( 1.000000000000000000, -0.000000000000000000, 0.000000000000000000 ) ) ;
#850 = DIRECTION ( 'NONE',  ( -1.000000000000000000, -0.000000000000000000, -0.000000000000000000 ) ) ;
#851 = LINE ( 'NONE', #858, #205 ) ;
#852 = VECTOR ( 'NONE', #284, 1000.000000000000000 ) ;
#853 = DIRECTION ( 'NONE',  ( 0.000000000000000000, 0.000000000000000000, -1.000000000000000000 ) ) ;
#854 = CARTESIAN_POINT ( 'NONE',  ( 2.000000000000000000, 3.000000000000002665, 4.878909776184773897E-16 ) ) ;
#855 = LINE ( 'NONE', #316, #258 ) ;
#856 = ORIENTED_EDGE ( 'NONE', *, *, #903, .T. ) ;
#857 = LINE ( 'NONE', #91, #356 ) ;
#858 = CARTESIAN_POINT ( 'NONE',  ( 2.000000000000000000, 3.000000000000002665, 3.851859888774471706E-31 ) ) ;
#859 = CARTESIAN_POINT ( 'NONE',  ( 2.000000000000000000, 76.00000000000000000, 9.615549442140363112 ) ) ;
#860 = ORIENTED_EDGE ( 'NONE', *, *, #326, .T. ) ;
#861 = ADVANCED_FACE ( 'NONE', ( #241 ), #310, .F. ) ;
#862 = VECTOR ( 'NONE', #624, 1000.000000000000000 ) ;
#863 = ADVANCED_FACE ( 'NONE', ( #37, #781, #375 ), #306, .T. ) ;
#864 = PLANE ( 'NONE',  #127 ) ;
#865 = CARTESIAN_POINT ( 'NONE',  ( 0.000000000000000000, 3.000000000000000888, 9.615549442140354230 ) ) ;
#866 = CARTESIAN_POINT ( 'NONE',  ( 2.000000000000000000, 0.000000000000000000, 0.000000000000000000 ) ) ;
#867 = EDGE_LOOP ( 'NONE', ( #843, #14 ) ) ;
#868 = VECTOR ( 'NONE', #621, 1000.000000000000000 ) ;
#869 = EDGE_CURVE ( 'NONE', #743, #22, #90, .T. ) ;
#870 = DIRECTION ( 'NONE',  ( -1.000000000000000000, -0.000000000000000000, -0.000000000000000000 ) ) ;
#871 = CARTESIAN_POINT ( 'NONE',  ( 0.000000000000000000, 0.000000000000000000, 0.000000000000000000 ) ) ;
#872 = ORIENTED_EDGE ( 'NONE', *, *, #749, .F. ) ;
#873 = CARTESIAN_POINT ( 'NONE',  ( 2.000000000000000000, 1.250000000000000000, 15.70000000000000284 ) ) ;
#874 = EDGE_CURVE ( 'NONE', #557, #209, #322, .T. ) ;
#875 = VERTEX_POINT ( 'NONE', #247 ) ;
#876 = FACE_OUTER_BOUND ( 'NONE', #847, .T. ) ;
#877 = DIRECTION ( 'NONE',  ( 1.000000000000000000, -0.000000000000000000, 0.000000000000000000 ) ) ;
#878 = ORIENTED_EDGE ( 'NONE', *, *, #618, .T. ) ;
#879 = EDGE_CURVE ( 'NONE', #116, #875, #716, .T. ) ;
#880 = CARTESIAN_POINT ( 'NONE',  ( -2.000000000000000000, 0.000000000000000000, 0.000000000000000000 ) ) ;
#881 = CIRCLE ( 'NONE', #740, 0.9500000000000010658 ) ;
#882 = CARTESIAN_POINT ( 'NONE',  ( -2.000000000000000000, -0.7499999999999981126, 0.000000000000000000 ) ) ;
#883 = AXIS2_PLACEMENT_3D ( 'NONE', #138, #411, #670 ) ;
#884 = DIRECTION ( 'NONE',  ( -1.000000000000000000, -0.000000000000000000, -0.000000000000000000 ) ) ;
#885 = ORIENTED_EDGE ( 'NONE', *, *, #106, .T. ) ;
#886 = CARTESIAN_POINT ( 'NONE',  ( 2.000000000000000000, 3.000000000000000888, 9.615549442140354230 ) ) ;
#887 = EDGE_CURVE ( 'NONE', #414, #431, #441, .T. ) ;
#888 = CARTESIAN_POINT ( 'NONE',  ( 5.000000000000000000, 79.00000000000000000, 8.305645733464712946E-15 ) ) ;
#889 = VERTEX_POINT ( 'NONE', #89 ) ;
#890 = LINE ( 'NONE', #684, #181 ) ;
#891 = EDGE_CURVE ( 'NONE', #485, #422, #761, .T. ) ;
#892 = DIRECTION ( 'NONE',  ( -1.000000000000000000, 0.000000000000000000, -0.000000000000000000 ) ) ;
#893 = DIRECTION ( 'NONE',  ( 1.000000000000000000, -0.000000000000000000, 0.000000000000000000 ) ) ;
#894 = VERTEX_POINT ( 'NONE', #511 ) ;
#895 = CARTESIAN_POINT ( 'NONE',  ( 0.000000000000000000, 0.000000000000000000, 0.000000000000000000 ) ) ;
#896 = VECTOR ( 'NONE', #60, 1000.000000000000000 ) ;
#897 = CARTESIAN_POINT ( 'NONE',  ( 2.000000000000000000, 3.000000000000000000, 16.00000000000000000 ) ) ;
#898 = AXIS2_PLACEMENT_3D ( 'NONE', #602, #818, #619 ) ;
#899 = AXIS2_PLACEMENT_3D ( 'NONE', #486, #347, #692 ) ;
#900 = ORIENTED_EDGE ( 'NONE', *, *, #25, .T. ) ;
#901 = CYLINDRICAL_SURFACE ( 'NONE', #165, 0.9499999999999995115 ) ;
#902 = CARTESIAN_POINT ( 'NONE',  ( 5.000000000000000000, 77.75000000000000000, 15.70000000000000995 ) ) ;
#903 = EDGE_CURVE ( 'NONE', #116, #238, #719, .T. ) ;
ENDSEC;
END-ISO-10303-21;
