ISO-10303-21;
HEADER;
FILE_DESCRIPTION (( 'STEP AP214' ),
    '1' );
FILE_NAME ('cover.STEP',
    '2026-06-30T04:56:43',
    ( '' ),
    ( '' ),
    'SwSTEP 2.0',
    'SolidWorks 2026',
    '' );
FILE_SCHEMA (( 'AUTOMOTIVE_DESIGN' ));
ENDSEC;

DATA;
#1 = VERTEX_POINT ( 'NONE', #329 ) ;
#2 = DIRECTION ( 'NONE',  ( -0.000000000000000000, 0.000000000000000000, -1.000000000000000000 ) ) ;
#3 = EDGE_CURVE ( 'NONE', #101, #104, #177, .T. ) ;
#4 = CARTESIAN_POINT ( 'NONE',  ( 23.42502733225731859, 100.9974137741283755, 0.000000000000000000 ) ) ;
#5 = PLANE ( 'NONE',  #219 ) ;
#6 = EDGE_CURVE ( 'NONE', #333, #140, #66, .T. ) ;
#7 = FACE_OUTER_BOUND ( 'NONE', #27, .T. ) ;
#8 = PLANE ( 'NONE',  #374 ) ;
#9 = CARTESIAN_POINT ( 'NONE',  ( 7.631885709896529290E-15, 21.99741377412838261, 3.000000000000000000 ) ) ;
#10 = CARTESIAN_POINT ( 'NONE',  ( 14.32502733225731539, 100.9974137741283755, 3.000000000000000000 ) ) ;
#11 = AXIS2_PLACEMENT_3D ( 'NONE', #4, #225, #267 ) ;
#12 = PRODUCT_DEFINITION_FORMATION_WITH_SPECIFIED_SOURCE ( 'ANY', '', #136, .NOT_KNOWN. ) ;
#13 = DIRECTION ( 'NONE',  ( -0.000000000000000000, -0.000000000000000000, -1.000000000000000000 ) ) ;
#14 = ORIENTED_EDGE ( 'NONE', *, *, #6, .F. ) ;
#15 = APPLICATION_PROTOCOL_DEFINITION ( 'draft international standard', 'automotive_design', 1998, #92 ) ;
#16 = FACE_BOUND ( 'NONE', #277, .T. ) ;
#17 = ORIENTED_EDGE ( 'NONE', *, *, #258, .F. ) ;
#18 = CARTESIAN_POINT ( 'NONE',  ( 23.42502733225731859, 100.9974137741283755, 3.000000000000000000 ) ) ;
#19 = CARTESIAN_POINT ( 'NONE',  ( 23.42502675288470115, 40.99741377412837551, 3.000000000000000000 ) ) ;
#20 = VERTEX_POINT ( 'NONE', #37 ) ;
#21 = EDGE_CURVE ( 'NONE', #296, #361, #449, .T. ) ;
#22 = CARTESIAN_POINT ( 'NONE',  ( 33.42502675288469760, 114.9974137741283755, 3.000000000000000000 ) ) ;
#23 = AXIS2_PLACEMENT_3D ( 'NONE', #386, #13, #93 ) ;
#24 = ORIENTED_EDGE ( 'NONE', *, *, #468, .T. ) ;
#25 = CARTESIAN_POINT ( 'NONE',  ( 0.000000000000000000, 0.000000000000000000, 0.000000000000000000 ) ) ;
#26 = DIRECTION ( 'NONE',  ( -0.000000000000000000, 0.000000000000000000, 1.000000000000000000 ) ) ;
#27 = EDGE_LOOP ( 'NONE', ( #365, #199, #57, #394 ) ) ;
#28 = ORIENTED_EDGE ( 'NONE', *, *, #150, .T. ) ;
#29 = ADVANCED_FACE ( 'NONE', ( #343 ), #5, .T. ) ;
#30 = CARTESIAN_POINT ( 'NONE',  ( 13.42502675288470471, 119.9974137741283755, 3.000000000000000000 ) ) ;
#31 = ORIENTED_EDGE ( 'NONE', *, *, #345, .F. ) ;
#32 = CIRCLE ( 'NONE', #431, 4.999999999999955591 ) ;
#33 = ORIENTED_EDGE ( 'NONE', *, *, #458, .F. ) ;
#34 = EDGE_LOOP ( 'NONE', ( #257, #91, #122, #63 ) ) ;
#35 = AXIS2_PLACEMENT_3D ( 'NONE', #82, #231, #384 ) ;
#36 = DIRECTION ( 'NONE',  ( 1.000000000000000000, 0.000000000000000000, 0.000000000000000000 ) ) ;
#37 = CARTESIAN_POINT ( 'NONE',  ( 38.42502675288469760, 26.99741377412838261, 3.000000000000000000 ) ) ;
#38 = CYLINDRICAL_SURFACE ( 'NONE', #205, 5.000000000000004441 ) ;
#39 = DIRECTION ( 'NONE',  ( -1.000000000000000000, 0.000000000000000000, 0.000000000000000000 ) ) ;
#40 = FILL_AREA_STYLE ('',( #378 ) ) ;
#41 = DIRECTION ( 'NONE',  ( -0.000000000000000000, -0.000000000000000000, -1.000000000000000000 ) ) ;
#42 = ADVANCED_FACE ( 'NONE', ( #7 ), #147, .T. ) ;
#43 = UNCERTAINTY_MEASURE_WITH_UNIT (LENGTH_MEASURE( 1.000000000000000082E-05 ), #290, 'distance_accuracy_value', 'NONE');
#44 = AXIS2_PLACEMENT_3D ( 'NONE', #22, #462, #83 ) ;
#45 = LINE ( 'NONE', #191, #310 ) ;
#46 = LINE ( 'NONE', #185, #408 ) ;
#47 = CARTESIAN_POINT ( 'NONE',  ( 8.425026752884722470, 26.99741377412837906, 3.000000000000000000 ) ) ;
#48 = PRODUCT_DEFINITION_SHAPE ( 'NONE', 'NONE',  #253 ) ;
#49 = CARTESIAN_POINT ( 'NONE',  ( -8.326493229219329548E-14, 119.9974137741283613, 3.000000000000000000 ) ) ;
#50 = EDGE_CURVE ( 'NONE', #457, #361, #45, .T. ) ;
#51 = PRESENTATION_LAYER_ASSIGNMENT (  '', '', ( #368 ) ) ;
#52 = CARTESIAN_POINT ( 'NONE',  ( 13.42502675288470471, 119.9974137741283755, 0.000000000000000000 ) ) ;
#53 = CARTESIAN_POINT ( 'NONE',  ( 13.42502675288471892, 26.99741377412831511, 3.000000000000000000 ) ) ;
#54 = EDGE_LOOP ( 'NONE', ( #464, #69, #331, #131 ) ) ;
#55 = ADVANCED_BREP_SHAPE_REPRESENTATION ( 'cover', ( #318, #409 ), #433 ) ;
#56 = FACE_OUTER_BOUND ( 'NONE', #460, .T. ) ;
#57 = ORIENTED_EDGE ( 'NONE', *, *, #221, .F. ) ;
#58 = DIRECTION ( 'NONE',  ( -0.000000000000000000, 0.000000000000000000, 1.000000000000000000 ) ) ;
#59 = CIRCLE ( 'NONE', #115, 9.100000000000003197 ) ;
#60 =( NAMED_UNIT ( * ) SI_UNIT ( $, .STERADIAN. ) SOLID_ANGLE_UNIT ( ) );
#61 = ORIENTED_EDGE ( 'NONE', *, *, #123, .T. ) ;
#62 = DIRECTION ( 'NONE',  ( 1.000000000000000000, 0.000000000000000000, 0.000000000000000000 ) ) ;
#63 = ORIENTED_EDGE ( 'NONE', *, *, #156, .T. ) ;
#64 = ORIENTED_EDGE ( 'NONE', *, *, #171, .T. ) ;
#65 = VECTOR ( 'NONE', #283, 1000.000000000000000 ) ;
#66 = LINE ( 'NONE', #111, #335 ) ;
#67 = ORIENTED_EDGE ( 'NONE', *, *, #304, .T. ) ;
#68 = DIRECTION ( 'NONE',  ( -0.000000000000000000, 0.000000000000000000, 1.000000000000000000 ) ) ;
#69 = ORIENTED_EDGE ( 'NONE', *, *, #3, .F. ) ;
#70 = AXIS2_PLACEMENT_3D ( 'NONE', #380, #275, #232 ) ;
#71 = VECTOR ( 'NONE', #395, 1000.000000000000000 ) ;
#72 = CIRCLE ( 'NONE', #397, 4.999999999999997335 ) ;
#73 = CARTESIAN_POINT ( 'NONE',  ( 8.425026752884729575, 1.992967049176607752E-15, 0.000000000000000000 ) ) ;
#74 = DIRECTION ( 'NONE',  ( -0.000000000000000000, 0.000000000000000000, 1.000000000000000000 ) ) ;
#75 = CARTESIAN_POINT ( 'NONE',  ( 13.42502675288469227, 114.9974137741284466, 3.000000000000000000 ) ) ;
#76 = DIRECTION ( 'NONE',  ( -0.000000000000000000, -0.000000000000000000, -1.000000000000000000 ) ) ;
#77 = CARTESIAN_POINT ( 'NONE',  ( 8.425026752884701153, 114.9974137741283613, 0.000000000000000000 ) ) ;
#78 = UNCERTAINTY_MEASURE_WITH_UNIT (LENGTH_MEASURE( 1.000000000000000082E-05 ), #157, 'distance_accuracy_value', 'NONE');
#79 = VECTOR ( 'NONE', #463, 1000.000000000000000 ) ;
#80 = CIRCLE ( 'NONE', #474, 5.000000000000004441 ) ;
#81 = DIRECTION ( 'NONE',  ( -2.365532012695646217E-16, 1.000000000000000000, 0.000000000000000000 ) ) ;
#82 = CARTESIAN_POINT ( 'NONE',  ( 23.42502675288470115, 40.99741377412837551, 0.000000000000000000 ) ) ;
#83 = DIRECTION ( 'NONE',  ( -1.000000000000000000, 0.000000000000000000, 0.000000000000000000 ) ) ;
#84 = LINE ( 'NONE', #196, #265 ) ;
#85 = ADVANCED_FACE ( 'NONE', ( #149 ), #303, .F. ) ;
#86 = DIRECTION ( 'NONE',  ( -0.000000000000000000, -0.000000000000000000, -1.000000000000000000 ) ) ;
#87 = ORIENTED_EDGE ( 'NONE', *, *, #212, .T. ) ;
#88 = ADVANCED_FACE ( 'NONE', ( #307 ), #8, .F. ) ;
#89 = VECTOR ( 'NONE', #153, 1000.000000000000000 ) ;
#90 = CARTESIAN_POINT ( 'NONE',  ( 33.42502675288469760, 21.99741377412837195, 3.000000000000000000 ) ) ;
#91 = ORIENTED_EDGE ( 'NONE', *, *, #470, .F. ) ;
#92 = APPLICATION_CONTEXT ( 'automotive_design' ) ;
#93 = DIRECTION ( 'NONE',  ( -1.000000000000000000, 0.000000000000000000, 0.000000000000000000 ) ) ;
#94 = ORIENTED_EDGE ( 'NONE', *, *, #21, .T. ) ;
#95 = CARTESIAN_POINT ( 'NONE',  ( 13.42502675288469227, 114.9974137741284466, 3.000000000000000000 ) ) ;
#96 = ORIENTED_EDGE ( 'NONE', *, *, #176, .T. ) ;
#97 = VECTOR ( 'NONE', #315, 1000.000000000000000 ) ;
#98 = EDGE_LOOP ( 'NONE', ( #322, #246, #423, #217 ) ) ;
#99 = EDGE_CURVE ( 'NONE', #259, #170, #46, .T. ) ;
#100 = DIRECTION ( 'NONE',  ( 0.000000000000000000, 0.000000000000000000, 1.000000000000000000 ) ) ;
#101 = VERTEX_POINT ( 'NONE', #269 ) ;
#102 = ORIENTED_EDGE ( 'NONE', *, *, #304, .F. ) ;
#103 = CARTESIAN_POINT ( 'NONE',  ( 8.425026752884701153, 114.9974137741283613, 3.000000000000000000 ) ) ;
#104 = VERTEX_POINT ( 'NONE', #447 ) ;
#105 = DIRECTION ( 'NONE',  ( 1.000000000000000000, 0.000000000000000000, -0.000000000000000000 ) ) ;
#106 = EDGE_LOOP ( 'NONE', ( #442, #292, #396, #239, #87, #401, #208, #31 ) ) ;
#107 = ORIENTED_EDGE ( 'NONE', *, *, #445, .T. ) ;
#108 = DIRECTION ( 'NONE',  ( 1.000000000000000000, 0.000000000000000000, 0.000000000000000000 ) ) ;
#109 = DIRECTION ( 'NONE',  ( 1.000000000000000000, -3.469446812366892230E-16, 0.000000000000000000 ) ) ;
#110 = DIRECTION ( 'NONE',  ( -0.000000000000000000, 0.000000000000000000, 1.000000000000000000 ) ) ;
#111 = CARTESIAN_POINT ( 'NONE',  ( 14.32502675288469618, 40.99741377412837551, 3.000000000000000000 ) ) ;
#112 = DIRECTION ( 'NONE',  ( 1.000000000000000000, 0.000000000000000000, 0.000000000000000000 ) ) ;
#113 = CARTESIAN_POINT ( 'NONE',  ( 8.425026752884729575, 1.992967049176607752E-15, 3.000000000000000000 ) ) ;
#114 = CARTESIAN_POINT ( 'NONE',  ( 38.42502675288469760, 0.000000000000000000, 3.000000000000000000 ) ) ;
#115 = AXIS2_PLACEMENT_3D ( 'NONE', #288, #364, #172 ) ;
#116 = AXIS2_PLACEMENT_3D ( 'NONE', #274, #145, #108 ) ;
#117 = CARTESIAN_POINT ( 'NONE',  ( 14.32502733225731539, 100.9974137741283755, 0.000000000000000000 ) ) ;
#118 = PLANE ( 'NONE',  #295 ) ;
#119 = ORIENTED_EDGE ( 'NONE', *, *, #167, .F. ) ;
#120 = EDGE_CURVE ( 'NONE', #259, #20, #302, .T. ) ;
#121 = FACE_OUTER_BOUND ( 'NONE', #54, .T. ) ;
#122 = ORIENTED_EDGE ( 'NONE', *, *, #167, .T. ) ;
#123 = EDGE_CURVE ( 'NONE', #237, #140, #197, .T. ) ;
#124 = AXIS2_PLACEMENT_3D ( 'NONE', #200, #422, #455 ) ;
#125 = DIRECTION ( 'NONE',  ( 1.000000000000000000, 0.000000000000000000, 0.000000000000000000 ) ) ;
#126 = EDGE_LOOP ( 'NONE', ( #372, #291, #67, #359, #119, #430, #469, #439 ) ) ;
#127 = DIRECTION ( 'NONE',  ( 1.000000000000000000, 6.938893903907232322E-16, 0.000000000000000000 ) ) ;
#128 = VERTEX_POINT ( 'NONE', #117 ) ;
#129 = DIRECTION ( 'NONE',  ( 0.000000000000000000, -1.000000000000000000, 0.000000000000000000 ) ) ;
#130 = LINE ( 'NONE', #30, #334 ) ;
#131 = ORIENTED_EDGE ( 'NONE', *, *, #50, .T. ) ;
#132 = CIRCLE ( 'NONE', #467, 5.000000000000004441 ) ;
#133 = CIRCLE ( 'NONE', #369, 9.100000000000003197 ) ;
#134 = AXIS2_PLACEMENT_3D ( 'NONE', #405, #68, #36 ) ;
#135 = SURFACE_SIDE_STYLE ('',( #341 ) ) ;
#136 = PRODUCT ( 'cover', 'cover', '', ( #325 ) ) ;
#137 = VERTEX_POINT ( 'NONE', #379 ) ;
#138 = EDGE_LOOP ( 'NONE', ( #33, #373 ) ) ;
#139 = VERTEX_POINT ( 'NONE', #230 ) ;
#140 = VERTEX_POINT ( 'NONE', #376 ) ;
#141 = AXIS2_PLACEMENT_3D ( 'NONE', #299, #417, #411 ) ;
#142 = VERTEX_POINT ( 'NONE', #337 ) ;
#143 = CARTESIAN_POINT ( 'NONE',  ( 33.42502675288469760, 119.9974137741283897, 0.000000000000000000 ) ) ;
#144 = DIRECTION ( 'NONE',  ( -0.000000000000000000, 0.000000000000000000, 1.000000000000000000 ) ) ;
#145 = DIRECTION ( 'NONE',  ( -0.000000000000000000, 0.000000000000000000, 1.000000000000000000 ) ) ;
#146 = CARTESIAN_POINT ( 'NONE',  ( 7.631885709896529290E-15, 21.99741377412838261, 3.000000000000000000 ) ) ;
#147 = CYLINDRICAL_SURFACE ( 'NONE', #206, 4.999999999999955591 ) ;
#148 = MECHANICAL_DESIGN_GEOMETRIC_PRESENTATION_REPRESENTATION (  '', ( #368 ), #163 ) ;
#149 = FACE_OUTER_BOUND ( 'NONE', #437, .T. ) ;
#150 = EDGE_CURVE ( 'NONE', #370, #128, #154, .T. ) ;
#151 = DIRECTION ( 'NONE',  ( -6.938893903907231336E-16, 1.000000000000000000, 0.000000000000000000 ) ) ;
#152 = DIRECTION ( 'NONE',  ( -1.000000000000000000, 3.469446812366892230E-16, 0.000000000000000000 ) ) ;
#153 = DIRECTION ( 'NONE',  ( -0.000000000000000000, -0.000000000000000000, -1.000000000000000000 ) ) ;
#154 = CIRCLE ( 'NONE', #11, 9.100000000000003197 ) ;
#155 = DIRECTION ( 'NONE',  ( -0.000000000000000000, -0.000000000000000000, -1.000000000000000000 ) ) ;
#156 = EDGE_CURVE ( 'NONE', #20, #355, #193, .T. ) ;
#157 =( LENGTH_UNIT ( ) NAMED_UNIT ( * ) SI_UNIT ( .MILLI., .METRE. ) );
#158 = FACE_OUTER_BOUND ( 'NONE', #106, .T. ) ;
#159 = ORIENTED_EDGE ( 'NONE', *, *, #314, .T. ) ;
#160 = LINE ( 'NONE', #426, #351 ) ;
#161 = EDGE_LOOP ( 'NONE', ( #406, #336, #392, #211 ) ) ;
#162 = DIRECTION ( 'NONE',  ( 1.000000000000000000, 0.000000000000000000, 0.000000000000000000 ) ) ;
#163 =( GEOMETRIC_REPRESENTATION_CONTEXT ( 3 ) GLOBAL_UNCERTAINTY_ASSIGNED_CONTEXT ( ( #43 ) ) GLOBAL_UNIT_ASSIGNED_CONTEXT ( ( #290, #436, #251 ) ) REPRESENTATION_CONTEXT ( 'NONE', 'WORKASPACE' ) );
#164 = AXIS2_PLACEMENT_3D ( 'NONE', #18, #349, #125 ) ;
#165 = DIRECTION ( 'NONE',  ( 2.365532012695646217E-16, -1.000000000000000000, 0.000000000000000000 ) ) ;
#166 = ORIENTED_EDGE ( 'NONE', *, *, #50, .F. ) ;
#167 = EDGE_CURVE ( 'NONE', #1, #20, #189, .T. ) ;
#168 = CARTESIAN_POINT ( 'NONE',  ( 8.425026752884701153, 114.9974137741283613, 3.000000000000000000 ) ) ;
#169 = CARTESIAN_POINT ( 'NONE',  ( 13.42502675288471892, 26.99741377412831511, 0.000000000000000000 ) ) ;
#170 = VERTEX_POINT ( 'NONE', #444 ) ;
#171 = EDGE_CURVE ( 'NONE', #142, #128, #412, .T. ) ;
#172 = DIRECTION ( 'NONE',  ( 1.000000000000000000, 0.000000000000000000, 0.000000000000000000 ) ) ;
#173 = VERTEX_POINT ( 'NONE', #450 ) ;
#174 = AXIS2_PLACEMENT_3D ( 'NONE', #383, #344, #339 ) ;
#175 = EDGE_LOOP ( 'NONE', ( #402, #201, #473, #289 ) ) ;
#176 = EDGE_CURVE ( 'NONE', #128, #370, #432, .T. ) ;
#177 = LINE ( 'NONE', #403, #375 ) ;
#178 = PRODUCT_RELATED_PRODUCT_CATEGORY ( 'part', '', ( #136 ) ) ;
#179 = ORIENTED_EDGE ( 'NONE', *, *, #445, .F. ) ;
#180 = VECTOR ( 'NONE', #127, 1000.000000000000000 ) ;
#181 = ORIENTED_EDGE ( 'NONE', *, *, #216, .F. ) ;
#182 = CIRCLE ( 'NONE', #413, 5.000000000000004441 ) ;
#183 = CIRCLE ( 'NONE', #164, 9.100000000000003197 ) ;
#184 = PLANE ( 'NONE',  #229 ) ;
#185 = CARTESIAN_POINT ( 'NONE',  ( 33.42502675288469760, 21.99741377412837195, 3.000000000000000000 ) ) ;
#186 = DIRECTION ( 'NONE',  ( -1.000000000000000000, 0.000000000000000000, 0.000000000000000000 ) ) ;
#187 = DIRECTION ( 'NONE',  ( -0.000000000000000000, -0.000000000000000000, -1.000000000000000000 ) ) ;
#188 = CARTESIAN_POINT ( 'NONE',  ( 33.42502675288469760, 114.9974137741283755, 0.000000000000000000 ) ) ;
#189 = LINE ( 'NONE', #305, #330 ) ;
#190 = EDGE_CURVE ( 'NONE', #173, #420, #264, .T. ) ;
#191 = CARTESIAN_POINT ( 'NONE',  ( 8.425026752884722470, 26.99741377412837906, 3.000000000000000000 ) ) ;
#192 = ADVANCED_FACE ( 'NONE', ( #241, #388, #158 ), #317, .F. ) ;
#193 = LINE ( 'NONE', #346, #440 ) ;
#194 = DIRECTION ( 'NONE',  ( -0.000000000000000000, 0.000000000000000000, 1.000000000000000000 ) ) ;
#195 = DIRECTION ( 'NONE',  ( 1.000000000000000000, 0.000000000000000000, 0.000000000000000000 ) ) ;
#196 = CARTESIAN_POINT ( 'NONE',  ( 32.52502675288470613, 40.99741377412837551, 3.000000000000000000 ) ) ;
#197 = CIRCLE ( 'NONE', #263, 9.100000000000003197 ) ;
#198 = FACE_OUTER_BOUND ( 'NONE', #126, .T. ) ;
#199 = ORIENTED_EDGE ( 'NONE', *, *, #224, .F. ) ;
#200 = CARTESIAN_POINT ( 'NONE',  ( 23.42502733225731859, 100.9974137741283755, 3.000000000000000000 ) ) ;
#201 = ORIENTED_EDGE ( 'NONE', *, *, #340, .F. ) ;
#202 = CYLINDRICAL_SURFACE ( 'NONE', #124, 9.100000000000003197 ) ;
#203 = EDGE_LOOP ( 'NONE', ( #107, #61 ) ) ;
#204 = CARTESIAN_POINT ( 'NONE',  ( 32.52502733225732356, 100.9974137741283755, 0.000000000000000000 ) ) ;
#205 = AXIS2_PLACEMENT_3D ( 'NONE', #261, #472, #186 ) ;
#206 = AXIS2_PLACEMENT_3D ( 'NONE', #75, #220, #39 ) ;
#207 = LINE ( 'NONE', #391, #342 ) ;
#208 = ORIENTED_EDGE ( 'NONE', *, *, #354, .F. ) ;
#209 = EDGE_CURVE ( 'NONE', #256, #420, #324, .T. ) ;
#210 = DIRECTION ( 'NONE',  ( -0.000000000000000000, 0.000000000000000000, 1.000000000000000000 ) ) ;
#211 = ORIENTED_EDGE ( 'NONE', *, *, #171, .F. ) ;
#212 = EDGE_CURVE ( 'NONE', #286, #355, #207, .T. ) ;
#213 = CARTESIAN_POINT ( 'NONE',  ( 7.631885709896529290E-15, 21.99741377412838261, 0.000000000000000000 ) ) ;
#214 = ORIENTED_EDGE ( 'NONE', *, *, #123, .F. ) ;
#215 = AXIS2_PLACEMENT_3D ( 'NONE', #53, #155, #320 ) ;
#216 = EDGE_CURVE ( 'NONE', #139, #370, #160, .T. ) ;
#217 = ORIENTED_EDGE ( 'NONE', *, *, #99, .T. ) ;
#218 = EDGE_LOOP ( 'NONE', ( #96, #28 ) ) ;
#219 = AXIS2_PLACEMENT_3D ( 'NONE', #377, #151, #222 ) ;
#220 = DIRECTION ( 'NONE',  ( -0.000000000000000000, -0.000000000000000000, -1.000000000000000000 ) ) ;
#221 = EDGE_CURVE ( 'NONE', #466, #428, #446, .T. ) ;
#222 = DIRECTION ( 'NONE',  ( -1.000000000000000000, -6.938893903907231336E-16, 0.000000000000000000 ) ) ;
#223 = DIRECTION ( 'NONE',  ( 1.000000000000000000, 0.000000000000000000, 0.000000000000000000 ) ) ;
#224 = EDGE_CURVE ( 'NONE', #428, #296, #244, .T. ) ;
#225 = DIRECTION ( 'NONE',  ( -0.000000000000000000, 0.000000000000000000, 1.000000000000000000 ) ) ;
#226 = DIRECTION ( 'NONE',  ( 1.000000000000000000, 0.000000000000000000, 0.000000000000000000 ) ) ;
#227 = CARTESIAN_POINT ( 'NONE',  ( 23.42502675288470115, 40.99741377412837551, 0.000000000000000000 ) ) ;
#228 = EDGE_CURVE ( 'NONE', #137, #333, #133, .T. ) ;
#229 = AXIS2_PLACEMENT_3D ( 'NONE', #114, #105, #2 ) ;
#230 = CARTESIAN_POINT ( 'NONE',  ( 32.52502733225732356, 100.9974137741283755, 3.000000000000000000 ) ) ;
#231 = DIRECTION ( 'NONE',  ( -0.000000000000000000, 0.000000000000000000, 1.000000000000000000 ) ) ;
#232 = DIRECTION ( 'NONE',  ( -1.000000000000000000, 0.000000000000000000, 0.000000000000000000 ) ) ;
#233 = CYLINDRICAL_SURFACE ( 'NONE', #23, 9.100000000000003197 ) ;
#234 = LINE ( 'NONE', #387, #97 ) ;
#235 = ADVANCED_FACE ( 'NONE', ( #121 ), #236, .T. ) ;
#236 = CYLINDRICAL_SURFACE ( 'NONE', #215, 4.999999999999999112 ) ;
#237 = VERTEX_POINT ( 'NONE', #393 ) ;
#238 = DIRECTION ( 'NONE',  ( 1.000000000000000000, 0.000000000000000000, 0.000000000000000000 ) ) ;
#239 = ORIENTED_EDGE ( 'NONE', *, *, #314, .F. ) ;
#240 = SHAPE_DEFINITION_REPRESENTATION ( #48, #55 ) ;
#241 = FACE_BOUND ( 'NONE', #218, .T. ) ;
#242 = ADVANCED_FACE ( 'NONE', ( #56 ), #326, .T. ) ;
#243 = ORIENTED_EDGE ( 'NONE', *, *, #150, .F. ) ;
#244 = LINE ( 'NONE', #168, #398 ) ;
#245 = ADVANCED_FACE ( 'NONE', ( #282 ), #202, .F. ) ;
#246 = ORIENTED_EDGE ( 'NONE', *, *, #156, .F. ) ;
#247 = DIRECTION ( 'NONE',  ( 1.000000000000000000, 0.000000000000000000, 0.000000000000000000 ) ) ;
#248 = CIRCLE ( 'NONE', #35, 9.100000000000003197 ) ;
#249 = CARTESIAN_POINT ( 'NONE',  ( 14.32502675288469618, 40.99741377412837551, 3.000000000000000000 ) ) ;
#250 = ORIENTED_EDGE ( 'NONE', *, *, #6, .T. ) ;
#251 =( NAMED_UNIT ( * ) SI_UNIT ( $, .STERADIAN. ) SOLID_ANGLE_UNIT ( ) );
#252 = ORIENTED_EDGE ( 'NONE', *, *, #260, .F. ) ;
#253 = PRODUCT_DEFINITION ( 'UNKNOWN', '', #12, #407 ) ;
#254 = ORIENTED_EDGE ( 'NONE', *, *, #358, .F. ) ;
#255 = AXIS2_PLACEMENT_3D ( 'NONE', #453, #58, #451 ) ;
#256 = VERTEX_POINT ( 'NONE', #52 ) ;
#257 = ORIENTED_EDGE ( 'NONE', *, *, #212, .F. ) ;
#258 = EDGE_CURVE ( 'NONE', #428, #457, #360, .T. ) ;
#259 = VERTEX_POINT ( 'NONE', #90 ) ;
#260 = EDGE_CURVE ( 'NONE', #139, #142, #183, .T. ) ;
#261 = CARTESIAN_POINT ( 'NONE',  ( 33.42502675288469760, 26.99741377412837906, 3.000000000000000000 ) ) ;
#262 = COLOUR_RGB ( '',0.7921568627450980005, 0.8196078431372548767, 0.9333333333333333481 ) ;
#263 = AXIS2_PLACEMENT_3D ( 'NONE', #227, #110, #309 ) ;
#264 = LINE ( 'NONE', #410, #71 ) ;
#265 = VECTOR ( 'NONE', #456, 1000.000000000000000 ) ;
#266 = CARTESIAN_POINT ( 'NONE',  ( 13.42502675288469227, 114.9974137741284466, 0.000000000000000000 ) ) ;
#267 = DIRECTION ( 'NONE',  ( 1.000000000000000000, 0.000000000000000000, 0.000000000000000000 ) ) ;
#268 = ADVANCED_FACE ( 'NONE', ( #424 ), #233, .F. ) ;
#269 = CARTESIAN_POINT ( 'NONE',  ( 13.42502594822199491, 21.99741377412837906, 3.000000000000000000 ) ) ;
#270 = LINE ( 'NONE', #146, #350 ) ;
#271 = DIRECTION ( 'NONE',  ( 1.000000000000000000, 2.365532012695646217E-16, -0.000000000000000000 ) ) ;
#272 = AXIS2_PLACEMENT_3D ( 'NONE', #9, #416, #152 ) ;
#273 = FACE_OUTER_BOUND ( 'NONE', #454, .T. ) ;
#274 = CARTESIAN_POINT ( 'NONE',  ( 23.42502733225731859, 100.9974137741283755, 0.000000000000000000 ) ) ;
#275 = DIRECTION ( 'NONE',  ( -0.000000000000000000, -0.000000000000000000, -1.000000000000000000 ) ) ;
#276 = CARTESIAN_POINT ( 'NONE',  ( 0.000000000000000000, 0.000000000000000000, 3.000000000000000000 ) ) ;
#277 = EDGE_LOOP ( 'NONE', ( #441, #252 ) ) ;
#278 = DIRECTION ( 'NONE',  ( -0.000000000000000000, 0.000000000000000000, 1.000000000000000000 ) ) ;
#279 = ORIENTED_EDGE ( 'NONE', *, *, #3, .T. ) ;
#280 = VECTOR ( 'NONE', #415, 1000.000000000000000 ) ;
#281 = EDGE_CURVE ( 'NONE', #466, #173, #459, .T. ) ;
#282 = FACE_OUTER_BOUND ( 'NONE', #161, .T. ) ;
#283 = DIRECTION ( 'NONE',  ( 1.000000000000000000, 6.938893903907232322E-16, 0.000000000000000000 ) ) ;
#284 = ORIENTED_EDGE ( 'NONE', *, *, #99, .F. ) ;
#285 = CARTESIAN_POINT ( 'NONE',  ( 23.42502675288470115, 40.99741377412837551, 3.000000000000000000 ) ) ;
#286 = VERTEX_POINT ( 'NONE', #353 ) ;
#287 = ADVANCED_FACE ( 'NONE', ( #16, #313, #198 ), #118, .T. ) ;
#288 = CARTESIAN_POINT ( 'NONE',  ( 23.42502733225731859, 100.9974137741283755, 3.000000000000000000 ) ) ;
#289 = ORIENTED_EDGE ( 'NONE', *, *, #190, .T. ) ;
#290 =( LENGTH_UNIT ( ) NAMED_UNIT ( * ) SI_UNIT ( .MILLI., .METRE. ) );
#291 = ORIENTED_EDGE ( 'NONE', *, *, #390, .T. ) ;
#292 = ORIENTED_EDGE ( 'NONE', *, *, #308, .F. ) ;
#293 = CIRCLE ( 'NONE', #134, 4.999999999999997335 ) ;
#294 = EDGE_CURVE ( 'NONE', #170, #355, #80, .T. ) ;
#295 = AXIS2_PLACEMENT_3D ( 'NONE', #276, #144, #298 ) ;
#296 = VERTEX_POINT ( 'NONE', #77 ) ;
#297 = ORIENTED_EDGE ( 'NONE', *, *, #224, .T. ) ;
#298 = DIRECTION ( 'NONE',  ( 1.000000000000000000, 0.000000000000000000, 0.000000000000000000 ) ) ;
#299 = CARTESIAN_POINT ( 'NONE',  ( 33.42502675288469760, 26.99741377412837906, 3.000000000000000000 ) ) ;
#300 = ADVANCED_FACE ( 'NONE', ( #273 ), #385, .F. ) ;
#301 = CARTESIAN_POINT ( 'NONE',  ( 33.42502675288469760, 26.99741377412837906, 0.000000000000000000 ) ) ;
#302 = CIRCLE ( 'NONE', #141, 5.000000000000004441 ) ;
#303 = CYLINDRICAL_SURFACE ( 'NONE', #174, 9.100000000000003197 ) ;
#304 = EDGE_CURVE ( 'NONE', #101, #259, #270, .T. ) ;
#305 = CARTESIAN_POINT ( 'NONE',  ( 38.42502675288469760, 0.000000000000000000, 3.000000000000000000 ) ) ;
#306 = DIRECTION ( 'NONE',  ( -0.000000000000000000, 0.000000000000000000, 1.000000000000000000 ) ) ;
#307 = FACE_OUTER_BOUND ( 'NONE', #389, .T. ) ;
#308 = EDGE_CURVE ( 'NONE', #256, #296, #32, .T. ) ;
#309 = DIRECTION ( 'NONE',  ( 1.000000000000000000, 0.000000000000000000, 0.000000000000000000 ) ) ;
#310 = VECTOR ( 'NONE', #187, 1000.000000000000000 ) ;
#311 = AXIS2_PLACEMENT_3D ( 'NONE', #19, #321, #418 ) ;
#312 = CLOSED_SHELL ( 'NONE', ( #245, #300, #88, #235, #438, #421, #399, #242, #29, #268, #85, #42, #287, #192 ) ) ;
#313 = FACE_BOUND ( 'NONE', #138, .T. ) ;
#314 = EDGE_CURVE ( 'NONE', #286, #420, #132, .T. ) ;
#315 = DIRECTION ( 'NONE',  ( -0.000000000000000000, -0.000000000000000000, -1.000000000000000000 ) ) ;
#316 = ORIENTED_EDGE ( 'NONE', *, *, #260, .T. ) ;
#317 = PLANE ( 'NONE',  #255 ) ;
#318 = MANIFOLD_SOLID_BREP ( 'Boss-Extrude1', #312 ) ;
#319 = ORIENTED_EDGE ( 'NONE', *, *, #354, .T. ) ;
#320 = DIRECTION ( 'NONE',  ( -1.000000000000000000, 0.000000000000000000, 0.000000000000000000 ) ) ;
#321 = DIRECTION ( 'NONE',  ( -0.000000000000000000, 0.000000000000000000, 1.000000000000000000 ) ) ;
#322 = ORIENTED_EDGE ( 'NONE', *, *, #294, .T. ) ;
#323 = CARTESIAN_POINT ( 'NONE',  ( 8.425026752884722470, 26.99741377412837906, 0.000000000000000000 ) ) ;
#324 = LINE ( 'NONE', #419, #65 ) ;
#325 = PRODUCT_CONTEXT ( 'NONE', #347, 'mechanical' ) ;
#326 = CYLINDRICAL_SURFACE ( 'NONE', #44, 5.000000000000004441 ) ;
#327 = ORIENTED_EDGE ( 'NONE', *, *, #228, .T. ) ;
#328 = LINE ( 'NONE', #213, #79 ) ;
#329 = CARTESIAN_POINT ( 'NONE',  ( 38.42502675288469760, 114.9974137741283755, 3.000000000000000000 ) ) ;
#330 = VECTOR ( 'NONE', #448, 1000.000000000000000 ) ;
#331 = ORIENTED_EDGE ( 'NONE', *, *, #390, .F. ) ;
#332 = DIRECTION ( 'NONE',  ( -0.000000000000000000, -0.000000000000000000, -1.000000000000000000 ) ) ;
#333 = VERTEX_POINT ( 'NONE', #249 ) ;
#334 = VECTOR ( 'NONE', #400, 1000.000000000000000 ) ;
#335 = VECTOR ( 'NONE', #382, 1000.000000000000000 ) ;
#336 = ORIENTED_EDGE ( 'NONE', *, *, #216, .T. ) ;
#337 = CARTESIAN_POINT ( 'NONE',  ( 14.32502733225731539, 100.9974137741283755, 3.000000000000000000 ) ) ;
#338 = PLANE ( 'NONE',  #272 ) ;
#339 = DIRECTION ( 'NONE',  ( -1.000000000000000000, 0.000000000000000000, 0.000000000000000000 ) ) ;
#340 = EDGE_CURVE ( 'NONE', #466, #256, #130, .T. ) ;
#341 = SURFACE_STYLE_FILL_AREA ( #40 ) ;
#342 = VECTOR ( 'NONE', #129, 1000.000000000000000 ) ;
#343 = FACE_OUTER_BOUND ( 'NONE', #175, .T. ) ;
#344 = DIRECTION ( 'NONE',  ( -0.000000000000000000, -0.000000000000000000, -1.000000000000000000 ) ) ;
#345 = EDGE_CURVE ( 'NONE', #361, #104, #72, .T. ) ;
#346 = CARTESIAN_POINT ( 'NONE',  ( 38.42502675288469760, 26.99741377412838261, 3.000000000000000000 ) ) ;
#347 = APPLICATION_CONTEXT ( 'automotive_design' ) ;
#348 = EDGE_CURVE ( 'NONE', #142, #139, #59, .T. ) ;
#349 = DIRECTION ( 'NONE',  ( -0.000000000000000000, 0.000000000000000000, 1.000000000000000000 ) ) ;
#350 = VECTOR ( 'NONE', #109, 1000.000000000000000 ) ;
#351 = VECTOR ( 'NONE', #362, 1000.000000000000000 ) ;
#352 = CIRCLE ( 'NONE', #311, 9.100000000000003197 ) ;
#353 = CARTESIAN_POINT ( 'NONE',  ( 38.42502675288469760, 114.9974137741283755, 0.000000000000000000 ) ) ;
#354 = EDGE_CURVE ( 'NONE', #104, #170, #328, .T. ) ;
#355 = VERTEX_POINT ( 'NONE', #465 ) ;
#356 = APPLICATION_PROTOCOL_DEFINITION ( 'draft international standard', 'automotive_design', 1998, #347 ) ;
#357 = CARTESIAN_POINT ( 'NONE',  ( 8.425026752884729575, 1.992967049176607752E-15, 3.000000000000000000 ) ) ;
#358 = EDGE_CURVE ( 'NONE', #1, #173, #182, .T. ) ;
#359 = ORIENTED_EDGE ( 'NONE', *, *, #120, .T. ) ;
#360 = LINE ( 'NONE', #357, #381 ) ;
#361 = VERTEX_POINT ( 'NONE', #323 ) ;
#362 = DIRECTION ( 'NONE',  ( -0.000000000000000000, -0.000000000000000000, -1.000000000000000000 ) ) ;
#363 = ORIENTED_EDGE ( 'NONE', *, *, #458, .T. ) ;
#364 = DIRECTION ( 'NONE',  ( -0.000000000000000000, 0.000000000000000000, 1.000000000000000000 ) ) ;
#365 = ORIENTED_EDGE ( 'NONE', *, *, #308, .T. ) ;
#366 = SURFACE_STYLE_USAGE ( .BOTH. , #135 ) ;
#367 = ORIENTED_EDGE ( 'NONE', *, *, #190, .F. ) ;
#368 = STYLED_ITEM ( 'NONE', ( #435 ), #318 ) ;
#369 = AXIS2_PLACEMENT_3D ( 'NONE', #285, #278, #238 ) ;
#370 = VERTEX_POINT ( 'NONE', #204 ) ;
#371 = FACE_OUTER_BOUND ( 'NONE', #471, .T. ) ;
#372 = ORIENTED_EDGE ( 'NONE', *, *, #258, .T. ) ;
#373 = ORIENTED_EDGE ( 'NONE', *, *, #228, .F. ) ;
#374 = AXIS2_PLACEMENT_3D ( 'NONE', #113, #271, #81 ) ;
#375 = VECTOR ( 'NONE', #332, 1000.000000000000000 ) ;
#376 = CARTESIAN_POINT ( 'NONE',  ( 14.32502675288469618, 40.99741377412837551, 0.000000000000000000 ) ) ;
#377 = CARTESIAN_POINT ( 'NONE',  ( -8.326493229219329548E-14, 119.9974137741283613, 3.000000000000000000 ) ) ;
#378 = FILL_AREA_STYLE_COLOUR ( '', #262 ) ;
#379 = CARTESIAN_POINT ( 'NONE',  ( 32.52502675288470613, 40.99741377412837551, 3.000000000000000000 ) ) ;
#380 = CARTESIAN_POINT ( 'NONE',  ( 23.42502675288470115, 40.99741377412837551, 3.000000000000000000 ) ) ;
#381 = VECTOR ( 'NONE', #165, 1000.000000000000000 ) ;
#382 = DIRECTION ( 'NONE',  ( -0.000000000000000000, -0.000000000000000000, -1.000000000000000000 ) ) ;
#383 = CARTESIAN_POINT ( 'NONE',  ( 23.42502733225731859, 100.9974137741283755, 3.000000000000000000 ) ) ;
#384 = DIRECTION ( 'NONE',  ( 1.000000000000000000, 0.000000000000000000, 0.000000000000000000 ) ) ;
#385 = CYLINDRICAL_SURFACE ( 'NONE', #70, 9.100000000000003197 ) ;
#386 = CARTESIAN_POINT ( 'NONE',  ( 23.42502675288470115, 40.99741377412837551, 3.000000000000000000 ) ) ;
#387 = CARTESIAN_POINT ( 'NONE',  ( 38.42502675288469760, 114.9974137741283755, 3.000000000000000000 ) ) ;
#388 = FACE_BOUND ( 'NONE', #203, .T. ) ;
#389 = EDGE_LOOP ( 'NONE', ( #94, #166, #17, #297 ) ) ;
#390 = EDGE_CURVE ( 'NONE', #457, #101, #293, .T. ) ;
#391 = CARTESIAN_POINT ( 'NONE',  ( 38.42502675288469760, 0.000000000000000000, 0.000000000000000000 ) ) ;
#392 = ORIENTED_EDGE ( 'NONE', *, *, #176, .F. ) ;
#393 = CARTESIAN_POINT ( 'NONE',  ( 32.52502675288470613, 40.99741377412837551, 0.000000000000000000 ) ) ;
#394 = ORIENTED_EDGE ( 'NONE', *, *, #340, .T. ) ;
#395 = DIRECTION ( 'NONE',  ( -0.000000000000000000, -0.000000000000000000, -1.000000000000000000 ) ) ;
#396 = ORIENTED_EDGE ( 'NONE', *, *, #209, .T. ) ;
#397 = AXIS2_PLACEMENT_3D ( 'NONE', #169, #210, #62 ) ;
#398 = VECTOR ( 'NONE', #86, 1000.000000000000000 ) ;
#399 = ADVANCED_FACE ( 'NONE', ( #475 ), #184, .T. ) ;
#400 = DIRECTION ( 'NONE',  ( -0.000000000000000000, -0.000000000000000000, -1.000000000000000000 ) ) ;
#401 = ORIENTED_EDGE ( 'NONE', *, *, #294, .F. ) ;
#402 = ORIENTED_EDGE ( 'NONE', *, *, #209, .F. ) ;
#403 = CARTESIAN_POINT ( 'NONE',  ( 13.42502594822199491, 21.99741377412837906, 3.000000000000000000 ) ) ;
#404 = ORIENTED_EDGE ( 'NONE', *, *, #470, .T. ) ;
#405 = CARTESIAN_POINT ( 'NONE',  ( 13.42502675288471892, 26.99741377412831511, 3.000000000000000000 ) ) ;
#406 = ORIENTED_EDGE ( 'NONE', *, *, #348, .T. ) ;
#407 = PRODUCT_DEFINITION_CONTEXT ( 'detailed design', #92, 'design' ) ;
#408 = VECTOR ( 'NONE', #76, 1000.000000000000000 ) ;
#409 = AXIS2_PLACEMENT_3D ( 'NONE', #25, #100, #247 ) ;
#410 = CARTESIAN_POINT ( 'NONE',  ( 33.42502675288469760, 119.9974137741283897, 3.000000000000000000 ) ) ;
#411 = DIRECTION ( 'NONE',  ( 1.000000000000000000, 0.000000000000000000, 0.000000000000000000 ) ) ;
#412 = LINE ( 'NONE', #10, #89 ) ;
#413 = AXIS2_PLACEMENT_3D ( 'NONE', #461, #429, #162 ) ;
#414 = AXIS2_PLACEMENT_3D ( 'NONE', #95, #26, #195 ) ;
#415 = DIRECTION ( 'NONE',  ( 2.365532012695646217E-16, -1.000000000000000000, 0.000000000000000000 ) ) ;
#416 = DIRECTION ( 'NONE',  ( 3.469446812366892230E-16, 1.000000000000000000, -0.000000000000000000 ) ) ;
#417 = DIRECTION ( 'NONE',  ( -0.000000000000000000, 0.000000000000000000, 1.000000000000000000 ) ) ;
#418 = DIRECTION ( 'NONE',  ( 1.000000000000000000, 0.000000000000000000, 0.000000000000000000 ) ) ;
#419 = CARTESIAN_POINT ( 'NONE',  ( -8.326493229219329548E-14, 119.9974137741283613, 0.000000000000000000 ) ) ;
#420 = VERTEX_POINT ( 'NONE', #143 ) ;
#421 = ADVANCED_FACE ( 'NONE', ( #443 ), #38, .T. ) ;
#422 = DIRECTION ( 'NONE',  ( -0.000000000000000000, -0.000000000000000000, -1.000000000000000000 ) ) ;
#423 = ORIENTED_EDGE ( 'NONE', *, *, #120, .F. ) ;
#424 = FACE_OUTER_BOUND ( 'NONE', #425, .T. ) ;
#425 = EDGE_LOOP ( 'NONE', ( #452, #327, #250, #214 ) ) ;
#426 = CARTESIAN_POINT ( 'NONE',  ( 32.52502733225732356, 100.9974137741283755, 3.000000000000000000 ) ) ;
#427 = CARTESIAN_POINT ( 'NONE',  ( 13.42502675288470471, 119.9974137741283755, 3.000000000000000000 ) ) ;
#428 = VERTEX_POINT ( 'NONE', #103 ) ;
#429 = DIRECTION ( 'NONE',  ( -0.000000000000000000, 0.000000000000000000, 1.000000000000000000 ) ) ;
#430 = ORIENTED_EDGE ( 'NONE', *, *, #358, .T. ) ;
#431 = AXIS2_PLACEMENT_3D ( 'NONE', #266, #74, #226 ) ;
#432 = CIRCLE ( 'NONE', #116, 9.100000000000003197 ) ;
#433 =( GEOMETRIC_REPRESENTATION_CONTEXT ( 3 ) GLOBAL_UNCERTAINTY_ASSIGNED_CONTEXT ( ( #78 ) ) GLOBAL_UNIT_ASSIGNED_CONTEXT ( ( #157, #434, #60 ) ) REPRESENTATION_CONTEXT ( 'NONE', 'WORKASPACE' ) );
#434 =( NAMED_UNIT ( * ) PLANE_ANGLE_UNIT ( ) SI_UNIT ( $, .RADIAN. ) );
#435 = PRESENTATION_STYLE_ASSIGNMENT (( #366 ) ) ;
#436 =( NAMED_UNIT ( * ) PLANE_ANGLE_UNIT ( ) SI_UNIT ( $, .RADIAN. ) );
#437 = EDGE_LOOP ( 'NONE', ( #181, #316, #64, #243 ) ) ;
#438 = ADVANCED_FACE ( 'NONE', ( #371 ), #338, .F. ) ;
#439 = ORIENTED_EDGE ( 'NONE', *, *, #221, .T. ) ;
#440 = VECTOR ( 'NONE', #41, 1000.000000000000000 ) ;
#441 = ORIENTED_EDGE ( 'NONE', *, *, #348, .F. ) ;
#442 = ORIENTED_EDGE ( 'NONE', *, *, #21, .F. ) ;
#443 = FACE_OUTER_BOUND ( 'NONE', #98, .T. ) ;
#444 = CARTESIAN_POINT ( 'NONE',  ( 33.42502675288469760, 21.99741377412837195, 0.000000000000000000 ) ) ;
#445 = EDGE_CURVE ( 'NONE', #140, #237, #248, .T. ) ;
#446 = CIRCLE ( 'NONE', #414, 4.999999999999955591 ) ;
#447 = CARTESIAN_POINT ( 'NONE',  ( 13.42502594822199491, 21.99741377412837906, 0.000000000000000000 ) ) ;
#448 = DIRECTION ( 'NONE',  ( 0.000000000000000000, -1.000000000000000000, 0.000000000000000000 ) ) ;
#449 = LINE ( 'NONE', #73, #280 ) ;
#450 = CARTESIAN_POINT ( 'NONE',  ( 33.42502675288469760, 119.9974137741283897, 3.000000000000000000 ) ) ;
#451 = DIRECTION ( 'NONE',  ( 1.000000000000000000, 0.000000000000000000, 0.000000000000000000 ) ) ;
#452 = ORIENTED_EDGE ( 'NONE', *, *, #468, .F. ) ;
#453 = CARTESIAN_POINT ( 'NONE',  ( 0.000000000000000000, 0.000000000000000000, 0.000000000000000000 ) ) ;
#454 = EDGE_LOOP ( 'NONE', ( #363, #24, #179, #14 ) ) ;
#455 = DIRECTION ( 'NONE',  ( -1.000000000000000000, 0.000000000000000000, 0.000000000000000000 ) ) ;
#456 = DIRECTION ( 'NONE',  ( -0.000000000000000000, -0.000000000000000000, -1.000000000000000000 ) ) ;
#457 = VERTEX_POINT ( 'NONE', #47 ) ;
#458 = EDGE_CURVE ( 'NONE', #333, #137, #352, .T. ) ;
#459 = LINE ( 'NONE', #49, #180 ) ;
#460 = EDGE_LOOP ( 'NONE', ( #159, #367, #254, #404 ) ) ;
#461 = CARTESIAN_POINT ( 'NONE',  ( 33.42502675288469760, 114.9974137741283755, 3.000000000000000000 ) ) ;
#462 = DIRECTION ( 'NONE',  ( -0.000000000000000000, -0.000000000000000000, -1.000000000000000000 ) ) ;
#463 = DIRECTION ( 'NONE',  ( 1.000000000000000000, -3.469446812366892230E-16, 0.000000000000000000 ) ) ;
#464 = ORIENTED_EDGE ( 'NONE', *, *, #345, .T. ) ;
#465 = CARTESIAN_POINT ( 'NONE',  ( 38.42502675288469760, 26.99741377412838261, 0.000000000000000000 ) ) ;
#466 = VERTEX_POINT ( 'NONE', #427 ) ;
#467 = AXIS2_PLACEMENT_3D ( 'NONE', #188, #306, #223 ) ;
#468 = EDGE_CURVE ( 'NONE', #137, #237, #84, .T. ) ;
#469 = ORIENTED_EDGE ( 'NONE', *, *, #281, .F. ) ;
#470 = EDGE_CURVE ( 'NONE', #1, #286, #234, .T. ) ;
#471 = EDGE_LOOP ( 'NONE', ( #319, #284, #102, #279 ) ) ;
#472 = DIRECTION ( 'NONE',  ( -0.000000000000000000, -0.000000000000000000, -1.000000000000000000 ) ) ;
#473 = ORIENTED_EDGE ( 'NONE', *, *, #281, .T. ) ;
#474 = AXIS2_PLACEMENT_3D ( 'NONE', #301, #194, #112 ) ;
#475 = FACE_OUTER_BOUND ( 'NONE', #34, .T. ) ;
ENDSEC;
END-ISO-10303-21;
